<?xml version="1.0" encoding="UTF-8" standalone="no" ?>
<!DOCTYPE svg PUBLIC "-//W3C//DTD SVG 1.1//EN" "http://www.w3.org/Graphics/SVG/1.1/DTD/svg11.dtd">
<svg xmlns="http://www.w3.org/2000/svg" xmlns:xlink="http://www.w3.org/1999/xlink" version="1.1" width="640" height="480" viewBox="0 0 640 480" xml:space="preserve">
<desc>Created with Fabric.js 3.6.6</desc>
<defs>
</defs>
<g transform="matrix(2.33 0 0 2.33 318.98 241.03)"  >
<path style="stroke: none; stroke-width: 1; stroke-dasharray: none; stroke-linecap: butt; stroke-dashoffset: 0; stroke-linejoin: miter; stroke-miterlimit: 4; fill: rgb(0,0,0); fill-rule: nonzero; opacity: 1;"  transform=" translate(-128, -76.8)" d="M 128 0 C 93.867 0 72.533 17.067 64 51.2 C 76.8 34.133 91.733 27.733 108.8 32 c 9.737 2.434 16.697 9.499 24.401 17.318 C 145.751 62.057 160.275 76.8 192 76.8 c 34.133 0 55.467 -17.067 64 -51.2 c -12.8 17.067 -27.733 23.467 -44.8 19.2 c -9.737 -2.434 -16.697 -9.499 -24.401 -17.318 C 174.249 14.743 159.725 0 128 0 z M 64 76.8 C 29.867 76.8 8.533 93.867 0 128 c 12.8 -17.067 27.733 -23.467 44.8 -19.2 c 9.737 2.434 16.697 9.499 24.401 17.318 C 81.751 138.857 96.275 153.6 128 153.6 c 34.133 0 55.467 -17.067 64 -51.2 c -12.8 17.067 -27.733 23.467 -44.8 19.2 c -9.737 -2.434 -16.697 -9.499 -24.401 -17.318 C 110.249 91.543 95.725 76.8 64 76.8 z" stroke-linecap="round" />
</g>
</svg>