<svg width="1440" height="1024" viewBox="0 0 1440 1024" fill="none" xmlns="http://www.w3.org/2000/svg">
<rect width="1440" height="1024" fill="#F4F4F4"/>
<path d="M634.489 286.337H773.731C777.045 286.337 779.732 283.493 779.732 279.984C779.732 276.475 777.045 273.632 773.731 273.632H634.489C631.173 273.632 628.486 276.476 628.486 279.984C628.487 283.493 631.173 286.337 634.489 286.337Z" fill="#EB0000"/>
<path d="M949.003 505.901C945.689 505.901 943.002 508.744 943.002 512.252V648.633C943.002 661.128 933.395 671.294 921.587 671.294H494.429C482.62 671.294 473.013 661.128 473.013 648.633V307.383C473.013 294.887 481.495 284.723 491.922 284.723H516.833C520.149 284.723 522.834 281.879 522.834 278.37C522.834 274.861 520.147 272.018 516.833 272.018H491.923C474.876 272.018 461.008 287.883 461.008 307.383V648.634C461.008 668.135 476.002 684 494.429 684H921.59C940.016 684 955.008 668.135 955.008 648.634V512.254C955.007 508.744 952.321 505.901 949.003 505.901Z" fill="#EB0000"/>
<path d="M888.367 286.337H911.482C915.857 286.337 920.018 288.2 923.199 291.581C926.623 295.227 928.492 300.121 928.466 305.358L928.111 374.686C928.061 385.212 919.921 393.778 909.974 393.778H522.624C519.308 393.778 516.622 396.622 516.622 400.131C516.622 403.64 519.309 406.482 522.624 406.482H909.978C926.509 406.482 940.031 392.249 940.119 374.757L940.471 305.431C940.516 296.783 937.403 288.687 931.712 282.626C926.259 276.831 919.078 273.634 911.483 273.634H888.369C885.054 273.634 882.367 276.478 882.367 279.986C882.365 283.493 885.055 286.337 888.367 286.337Z" fill="#EB0000"/>
<path d="M569.532 315.011H578.033C592.139 315.011 603.615 302.869 603.615 287.941V248.07C603.615 233.142 592.139 221 578.033 221H569.532C555.426 221 543.95 233.142 543.95 248.07V287.938C543.948 302.868 555.426 315.011 569.532 315.011ZM555.953 248.07C555.953 240.147 562.044 233.703 569.53 233.703H578.031C585.517 233.703 591.608 240.147 591.608 248.07V287.938C591.608 295.861 585.517 302.305 578.031 302.305H569.53C562.044 302.305 555.953 295.861 555.953 287.938V248.07Z" fill="#EB0000"/>
<path d="M829.192 315.011H837.69C851.796 315.011 863.272 302.869 863.272 287.941V248.07C863.272 233.142 851.797 221 837.69 221H829.192C815.086 221 803.61 233.142 803.61 248.07V287.938C803.61 302.868 815.085 315.011 829.192 315.011ZM815.613 248.07C815.613 240.147 821.704 233.703 829.192 233.703H837.69C845.175 233.703 851.268 240.147 851.268 248.07V287.938C851.268 295.861 845.175 302.305 837.69 302.305H829.192C821.704 302.305 815.613 295.861 815.613 287.938V248.07Z" fill="#EB0000"/>
<path d="M516.775 645H494.247L559.406 467.545H581.587L646.747 645H624.218L571.19 495.619H569.803L516.775 645ZM525.093 575.682H615.9V594.744H525.093V575.682Z" fill="black"/>
<path d="M322.551 775H315.96L326.002 745.909H333.928L343.957 775H337.366L330.079 752.557H329.852L322.551 775ZM322.139 763.565H337.707V768.366H322.139V763.565ZM365.381 755.312C365.182 754.621 364.903 754.01 364.543 753.48C364.183 752.94 363.743 752.486 363.222 752.116C362.71 751.738 362.123 751.449 361.46 751.25C360.807 751.051 360.083 750.952 359.287 750.952C357.8 750.952 356.493 751.321 355.367 752.06C354.249 752.798 353.378 753.873 352.753 755.284C352.128 756.686 351.815 758.4 351.815 760.426C351.815 762.453 352.123 764.176 352.739 765.597C353.354 767.017 354.226 768.101 355.352 768.849C356.479 769.588 357.81 769.957 359.344 769.957C360.736 769.957 361.924 769.711 362.909 769.219C363.904 768.717 364.661 768.011 365.182 767.102C365.712 766.193 365.977 765.118 365.977 763.878L367.227 764.062H359.727V759.432H371.901V763.097C371.901 765.653 371.361 767.85 370.281 769.688C369.202 771.515 367.715 772.926 365.821 773.92C363.927 774.905 361.759 775.398 359.315 775.398C356.588 775.398 354.192 774.796 352.128 773.594C350.064 772.382 348.454 770.663 347.298 768.438C346.153 766.203 345.58 763.551 345.58 760.483C345.58 758.125 345.921 756.023 346.602 754.176C347.294 752.32 348.26 750.748 349.5 749.46C350.741 748.172 352.185 747.192 353.833 746.52C355.48 745.848 357.265 745.511 359.188 745.511C360.835 745.511 362.369 745.753 363.79 746.236C365.21 746.709 366.47 747.382 367.568 748.253C368.676 749.124 369.581 750.161 370.281 751.364C370.982 752.557 371.432 753.873 371.631 755.312H365.381ZM376.521 775V745.909H396.123V750.98H382.671V757.912H395.114V762.983H382.671V769.929H396.18V775H376.521ZM425.345 745.909V775H420.033L407.377 756.69H407.163V775H401.013V745.909H406.411L418.967 764.205H419.223V745.909H425.345ZM440.739 775H430.427V745.909H440.825C443.751 745.909 446.27 746.491 448.382 747.656C450.493 748.812 452.117 750.473 453.254 752.642C454.4 754.811 454.972 757.405 454.972 760.426C454.972 763.456 454.4 766.061 453.254 768.239C452.117 770.417 450.484 772.088 448.353 773.253C446.232 774.418 443.694 775 440.739 775ZM436.578 769.73H440.484C442.302 769.73 443.831 769.408 445.072 768.764C446.322 768.111 447.259 767.102 447.884 765.739C448.519 764.366 448.836 762.595 448.836 760.426C448.836 758.277 448.519 756.52 447.884 755.156C447.259 753.793 446.327 752.789 445.086 752.145C443.846 751.501 442.316 751.179 440.498 751.179H436.578V769.73ZM462.902 775H456.311L466.354 745.909H474.28L484.308 775H477.717L470.431 752.557H470.203L462.902 775ZM462.49 763.565H478.058V768.366H462.49V763.565ZM487.81 745.909H495.395L503.406 765.455H503.747L511.759 745.909H519.344V775H513.378V756.065H513.136L505.608 774.858H501.546L494.017 755.994H493.776V775H487.81V745.909ZM524.411 775V745.909H544.014V750.98H530.562V757.912H543.005V762.983H530.562V769.929H544.07V775H524.411ZM573.236 745.909V775H567.923L555.267 756.69H555.054V775H548.904V745.909H554.301L566.858 764.205H567.114V745.909H573.236ZM577.21 750.98V745.909H601.102V750.98H592.195V775H586.116V750.98H577.21ZM630.441 760.455C630.441 763.627 629.84 766.326 628.637 768.551C627.444 770.777 625.815 772.476 623.751 773.651C621.696 774.815 619.385 775.398 616.819 775.398C614.234 775.398 611.914 774.811 609.859 773.636C607.804 772.462 606.18 770.762 604.987 768.537C603.793 766.312 603.197 763.617 603.197 760.455C603.197 757.282 603.793 754.583 604.987 752.358C606.18 750.133 607.804 748.437 609.859 747.273C611.914 746.098 614.234 745.511 616.819 745.511C619.385 745.511 621.696 746.098 623.751 747.273C625.815 748.437 627.444 750.133 628.637 752.358C629.84 754.583 630.441 757.282 630.441 760.455ZM624.205 760.455C624.205 758.4 623.898 756.667 623.282 755.256C622.676 753.845 621.819 752.775 620.711 752.045C619.603 751.316 618.306 750.952 616.819 750.952C615.332 750.952 614.035 751.316 612.927 752.045C611.819 752.775 610.957 753.845 610.342 755.256C609.736 756.667 609.433 758.4 609.433 760.455C609.433 762.509 609.736 764.242 610.342 765.653C610.957 767.064 611.819 768.134 612.927 768.864C614.035 769.593 615.332 769.957 616.819 769.957C618.306 769.957 619.603 769.593 620.711 768.864C621.819 768.134 622.676 767.064 623.282 765.653C623.898 764.242 624.205 762.509 624.205 760.455ZM654.568 775H644.255V745.909H654.653C657.579 745.909 660.098 746.491 662.21 747.656C664.321 748.812 665.945 750.473 667.082 752.642C668.228 754.811 668.801 757.405 668.801 760.426C668.801 763.456 668.228 766.061 667.082 768.239C665.945 770.417 664.312 772.088 662.181 773.253C660.06 774.418 657.522 775 654.568 775ZM650.406 769.73H654.312C656.13 769.73 657.659 769.408 658.9 768.764C660.15 768.111 661.087 767.102 661.712 765.739C662.347 764.366 662.664 762.595 662.664 760.426C662.664 758.277 662.347 756.52 661.712 755.156C661.087 753.793 660.155 752.789 658.914 752.145C657.674 751.501 656.144 751.179 654.326 751.179H650.406V769.73ZM673.357 775V745.909H692.959V750.98H679.507V757.912H691.95V762.983H679.507V769.929H693.016V775H673.357ZM722.888 754.276C722.774 753.13 722.287 752.24 721.425 751.605C720.563 750.971 719.394 750.653 717.916 750.653C716.913 750.653 716.065 750.795 715.374 751.08C714.682 751.354 714.152 751.738 713.783 752.23C713.423 752.723 713.243 753.281 713.243 753.906C713.224 754.427 713.333 754.882 713.57 755.27C713.816 755.658 714.152 755.994 714.578 756.278C715.004 756.553 715.497 756.795 716.056 757.003C716.614 757.202 717.211 757.372 717.845 757.514L720.459 758.139C721.728 758.423 722.893 758.802 723.953 759.276C725.014 759.749 725.932 760.331 726.709 761.023C727.485 761.714 728.087 762.528 728.513 763.466C728.949 764.403 729.171 765.478 729.181 766.69C729.171 768.471 728.717 770.014 727.817 771.321C726.927 772.618 725.639 773.627 723.953 774.347C722.277 775.057 720.255 775.412 717.888 775.412C715.539 775.412 713.494 775.052 711.752 774.332C710.019 773.613 708.664 772.547 707.689 771.136C706.723 769.716 706.217 767.959 706.169 765.866H712.121C712.187 766.842 712.467 767.656 712.959 768.31C713.461 768.954 714.128 769.441 714.962 769.773C715.805 770.095 716.756 770.256 717.817 770.256C718.859 770.256 719.763 770.104 720.53 769.801C721.306 769.498 721.908 769.077 722.334 768.537C722.76 767.997 722.973 767.377 722.973 766.676C722.973 766.023 722.779 765.473 722.391 765.028C722.012 764.583 721.453 764.205 720.715 763.892C719.985 763.58 719.091 763.295 718.03 763.04L714.862 762.244C712.41 761.648 710.473 760.715 709.053 759.446C707.632 758.177 706.927 756.468 706.936 754.318C706.927 752.557 707.395 751.018 708.342 749.702C709.299 748.385 710.61 747.358 712.277 746.619C713.944 745.881 715.838 745.511 717.959 745.511C720.118 745.511 722.002 745.881 723.612 746.619C725.232 747.358 726.491 748.385 727.391 749.702C728.29 751.018 728.754 752.543 728.783 754.276H722.888ZM737.668 775H731.077L741.119 745.909H749.046L759.074 775H752.483L745.196 752.557H744.969L737.668 775ZM737.256 763.565H752.824V768.366H737.256V763.565ZM762.575 775V745.909H768.726V769.929H781.198V775H762.575ZM791.027 775H784.436L794.479 745.909H802.405L812.433 775H805.842L798.556 752.557H798.328L791.027 775ZM790.615 763.565H806.183V768.366H790.615V763.565ZM831.052 754.276C830.938 753.13 830.451 752.24 829.589 751.605C828.727 750.971 827.558 750.653 826.08 750.653C825.077 750.653 824.229 750.795 823.538 751.08C822.846 751.354 822.316 751.738 821.947 752.23C821.587 752.723 821.407 753.281 821.407 753.906C821.388 754.427 821.497 754.882 821.734 755.27C821.98 755.658 822.316 755.994 822.742 756.278C823.168 756.553 823.661 756.795 824.22 757.003C824.778 757.202 825.375 757.372 826.009 757.514L828.623 758.139C829.892 758.423 831.057 758.802 832.117 759.276C833.178 759.749 834.096 760.331 834.873 761.023C835.65 761.714 836.251 762.528 836.677 763.466C837.113 764.403 837.335 765.478 837.345 766.69C837.335 768.471 836.881 770.014 835.981 771.321C835.091 772.618 833.803 773.627 832.117 774.347C830.441 775.057 828.419 775.412 826.052 775.412C823.703 775.412 821.658 775.052 819.916 774.332C818.183 773.613 816.828 772.547 815.853 771.136C814.887 769.716 814.381 767.959 814.333 765.866H820.285C820.351 766.842 820.631 767.656 821.123 768.31C821.625 768.954 822.292 769.441 823.126 769.773C823.969 770.095 824.92 770.256 825.981 770.256C827.023 770.256 827.927 770.104 828.694 769.801C829.471 769.498 830.072 769.077 830.498 768.537C830.924 767.997 831.137 767.377 831.137 766.676C831.137 766.023 830.943 765.473 830.555 765.028C830.176 764.583 829.617 764.205 828.879 763.892C828.15 763.58 827.255 763.295 826.194 763.04L823.026 762.244C820.574 761.648 818.637 760.715 817.217 759.446C815.796 758.177 815.091 756.468 815.1 754.318C815.091 752.557 815.56 751.018 816.507 749.702C817.463 748.385 818.775 747.358 820.441 746.619C822.108 745.881 824.002 745.511 826.123 745.511C828.282 745.511 830.167 745.881 831.776 746.619C833.396 747.358 834.655 748.385 835.555 749.702C836.454 751.018 836.918 752.543 836.947 754.276H831.052ZM850.739 775V745.909H870.342V750.98H856.89V757.912H869.333V762.983H856.89V769.929H870.399V775H850.739ZM884.489 775V745.909H895.967C898.164 745.909 900.039 746.302 901.592 747.088C903.154 747.865 904.343 748.968 905.157 750.398C905.981 751.818 906.393 753.49 906.393 755.412C906.393 757.344 905.976 759.006 905.143 760.398C904.31 761.78 903.102 762.841 901.521 763.58C899.949 764.318 898.045 764.688 895.81 764.688H888.126V759.744H894.816C895.99 759.744 896.966 759.583 897.742 759.261C898.519 758.939 899.096 758.456 899.475 757.812C899.864 757.169 900.058 756.368 900.058 755.412C900.058 754.446 899.864 753.632 899.475 752.969C899.096 752.306 898.514 751.804 897.728 751.463C896.952 751.113 895.971 750.938 894.788 750.938H890.64V775H884.489ZM900.2 761.761L907.43 775H900.64L893.566 761.761H900.2ZM910.739 775V745.909H930.342V750.98H916.89V757.912H929.333V762.983H916.89V769.929H930.399V775H910.739ZM960.899 756.094H954.678C954.564 755.289 954.332 754.574 953.982 753.949C953.631 753.314 953.181 752.775 952.632 752.33C952.083 751.884 951.449 751.544 950.729 751.307C950.019 751.07 949.247 750.952 948.413 750.952C946.908 750.952 945.596 751.326 944.479 752.074C943.361 752.812 942.495 753.892 941.879 755.312C941.264 756.723 940.956 758.437 940.956 760.455C940.956 762.528 941.264 764.271 941.879 765.682C942.504 767.093 943.376 768.158 944.493 768.878C945.61 769.598 946.903 769.957 948.371 769.957C949.195 769.957 949.957 769.848 950.658 769.631C951.368 769.413 951.998 769.096 952.547 768.679C953.096 768.253 953.551 767.737 953.911 767.131C954.28 766.525 954.536 765.833 954.678 765.057L960.899 765.085C960.738 766.42 960.336 767.708 959.692 768.949C959.057 770.18 958.2 771.283 957.121 772.259C956.051 773.224 954.772 773.991 953.286 774.56C951.808 775.118 950.137 775.398 948.271 775.398C945.677 775.398 943.357 774.811 941.311 773.636C939.275 772.462 937.665 770.762 936.482 768.537C935.307 766.312 934.72 763.617 934.72 760.455C934.72 757.282 935.317 754.583 936.51 752.358C937.703 750.133 939.323 748.437 941.368 747.273C943.413 746.098 945.715 745.511 948.271 745.511C949.957 745.511 951.52 745.748 952.959 746.222C954.408 746.695 955.691 747.386 956.808 748.295C957.926 749.195 958.835 750.298 959.536 751.605C960.246 752.912 960.7 754.408 960.899 756.094ZM983.279 745.909H989.429V764.801C989.429 766.922 988.922 768.778 987.909 770.369C986.905 771.96 985.499 773.201 983.69 774.091C981.882 774.972 979.775 775.412 977.369 775.412C974.955 775.412 972.843 774.972 971.034 774.091C969.226 773.201 967.819 771.96 966.815 770.369C965.812 768.778 965.31 766.922 965.31 764.801V745.909H971.46V764.276C971.46 765.384 971.702 766.368 972.185 767.23C972.677 768.092 973.368 768.769 974.259 769.261C975.149 769.754 976.186 770 977.369 770C978.563 770 979.6 769.754 980.48 769.261C981.37 768.769 982.057 768.092 982.54 767.23C983.032 766.368 983.279 765.384 983.279 764.276V745.909ZM994.489 775V745.909H1005.97C1008.16 745.909 1010.04 746.302 1011.59 747.088C1013.15 747.865 1014.34 748.968 1015.16 750.398C1015.98 751.818 1016.39 753.49 1016.39 755.412C1016.39 757.344 1015.98 759.006 1015.14 760.398C1014.31 761.78 1013.1 762.841 1011.52 763.58C1009.95 764.318 1008.05 764.688 1005.81 764.688H998.126V759.744H1004.82C1005.99 759.744 1006.97 759.583 1007.74 759.261C1008.52 758.939 1009.1 758.456 1009.48 757.812C1009.86 757.169 1010.06 756.368 1010.06 755.412C1010.06 754.446 1009.86 753.632 1009.48 752.969C1009.1 752.306 1008.51 751.804 1007.73 751.463C1006.95 751.113 1005.97 750.938 1004.79 750.938H1000.64V775H994.489ZM1010.2 761.761L1017.43 775H1010.64L1003.57 761.761H1010.2ZM1036.52 754.276C1036.41 753.13 1035.92 752.24 1035.06 751.605C1034.2 750.971 1033.03 750.653 1031.55 750.653C1030.55 750.653 1029.7 750.795 1029.01 751.08C1028.32 751.354 1027.78 751.738 1027.42 752.23C1027.06 752.723 1026.88 753.281 1026.88 753.906C1026.86 754.427 1026.97 754.882 1027.2 755.27C1027.45 755.658 1027.78 755.994 1028.21 756.278C1028.64 756.553 1029.13 756.795 1029.69 757.003C1030.25 757.202 1030.84 757.372 1031.48 757.514L1034.09 758.139C1035.36 758.423 1036.53 758.802 1037.59 759.276C1038.65 759.749 1039.57 760.331 1040.34 761.023C1041.12 761.714 1041.72 762.528 1042.15 763.466C1042.58 764.403 1042.8 765.478 1042.81 766.69C1042.8 768.471 1042.35 770.014 1041.45 771.321C1040.56 772.618 1039.27 773.627 1037.59 774.347C1035.91 775.057 1033.89 775.412 1031.52 775.412C1029.17 775.412 1027.13 775.052 1025.38 774.332C1023.65 773.613 1022.3 772.547 1021.32 771.136C1020.36 769.716 1019.85 767.959 1019.8 765.866H1025.75C1025.82 766.842 1026.1 767.656 1026.59 768.31C1027.09 768.954 1027.76 769.441 1028.59 769.773C1029.44 770.095 1030.39 770.256 1031.45 770.256C1032.49 770.256 1033.4 770.104 1034.16 769.801C1034.94 769.498 1035.54 769.077 1035.97 768.537C1036.39 767.997 1036.61 767.377 1036.61 766.676C1036.61 766.023 1036.41 765.473 1036.02 765.028C1035.64 764.583 1035.09 764.205 1034.35 763.892C1033.62 763.58 1032.72 763.295 1031.66 763.04L1028.5 762.244C1026.04 761.648 1024.11 760.715 1022.69 759.446C1021.27 758.177 1020.56 756.468 1020.57 754.318C1020.56 752.557 1021.03 751.018 1021.98 749.702C1022.93 748.385 1024.24 747.358 1025.91 746.619C1027.58 745.881 1029.47 745.511 1031.59 745.511C1033.75 745.511 1035.64 745.881 1037.25 746.619C1038.86 747.358 1040.12 748.385 1041.02 749.702C1041.92 751.018 1042.39 752.543 1042.42 754.276H1036.52ZM1073.68 760.455C1073.68 763.627 1073.08 766.326 1071.88 768.551C1070.69 770.777 1069.06 772.476 1066.99 773.651C1064.94 774.815 1062.63 775.398 1060.06 775.398C1057.48 775.398 1055.16 774.811 1053.1 773.636C1051.05 772.462 1049.42 770.762 1048.23 768.537C1047.04 766.312 1046.44 763.617 1046.44 760.455C1046.44 757.282 1047.04 754.583 1048.23 752.358C1049.42 750.133 1051.05 748.437 1053.1 747.273C1055.16 746.098 1057.48 745.511 1060.06 745.511C1062.63 745.511 1064.94 746.098 1066.99 747.273C1069.06 748.437 1070.69 750.133 1071.88 752.358C1073.08 754.583 1073.68 757.282 1073.68 760.455ZM1067.45 760.455C1067.45 758.4 1067.14 756.667 1066.52 755.256C1065.92 753.845 1065.06 752.775 1063.95 752.045C1062.85 751.316 1061.55 750.952 1060.06 750.952C1058.57 750.952 1057.28 751.316 1056.17 752.045C1055.06 752.775 1054.2 753.845 1053.58 755.256C1052.98 756.667 1052.67 758.4 1052.67 760.455C1052.67 762.509 1052.98 764.242 1053.58 765.653C1054.2 767.064 1055.06 768.134 1056.17 768.864C1057.28 769.593 1058.57 769.957 1060.06 769.957C1061.55 769.957 1062.85 769.593 1063.95 768.864C1065.06 768.134 1065.92 767.064 1066.52 765.653C1067.14 764.242 1067.45 762.509 1067.45 760.455ZM1094.02 754.276C1093.91 753.13 1093.42 752.24 1092.56 751.605C1091.7 750.971 1090.53 750.653 1089.05 750.653C1088.05 750.653 1087.2 750.795 1086.51 751.08C1085.82 751.354 1085.28 751.738 1084.92 752.23C1084.56 752.723 1084.38 753.281 1084.38 753.906C1084.36 754.427 1084.47 754.882 1084.7 755.27C1084.95 755.658 1085.28 755.994 1085.71 756.278C1086.14 756.553 1086.63 756.795 1087.19 757.003C1087.75 757.202 1088.34 757.372 1088.98 757.514L1091.59 758.139C1092.86 758.423 1094.03 758.802 1095.09 759.276C1096.15 759.749 1097.07 760.331 1097.84 761.023C1098.62 761.714 1099.22 762.528 1099.65 763.466C1100.08 764.403 1100.3 765.478 1100.31 766.69C1100.3 768.471 1099.85 770.014 1098.95 771.321C1098.06 772.618 1096.77 773.627 1095.09 774.347C1093.41 775.057 1091.39 775.412 1089.02 775.412C1086.67 775.412 1084.63 775.052 1082.88 774.332C1081.15 773.613 1079.8 772.547 1078.82 771.136C1077.86 769.716 1077.35 767.959 1077.3 765.866H1083.25C1083.32 766.842 1083.6 767.656 1084.09 768.31C1084.59 768.954 1085.26 769.441 1086.09 769.773C1086.94 770.095 1087.89 770.256 1088.95 770.256C1089.99 770.256 1090.9 770.104 1091.66 769.801C1092.44 769.498 1093.04 769.077 1093.47 768.537C1093.89 767.997 1094.11 767.377 1094.11 766.676C1094.11 766.023 1093.91 765.473 1093.52 765.028C1093.14 764.583 1092.59 764.205 1091.85 763.892C1091.12 763.58 1090.22 763.295 1089.16 763.04L1086 762.244C1083.54 761.648 1081.61 760.715 1080.19 759.446C1078.77 758.177 1078.06 756.468 1078.07 754.318C1078.06 752.557 1078.53 751.018 1079.48 749.702C1080.43 748.385 1081.74 747.358 1083.41 746.619C1085.08 745.881 1086.97 745.511 1089.09 745.511C1091.25 745.511 1093.14 745.881 1094.75 746.619C1096.36 747.358 1097.62 748.385 1098.52 749.702C1099.42 751.018 1099.89 752.543 1099.92 754.276H1094.02Z" fill="black"/>
<path d="M747.542 510.909C746.502 502.129 742.285 495.312 734.891 490.46C727.498 485.608 718.428 483.182 707.684 483.182C699.828 483.182 692.954 484.453 687.062 486.994C681.228 489.536 676.664 493.031 673.372 497.479C670.137 501.927 668.519 506.981 668.519 512.642C668.519 517.379 669.646 521.451 671.899 524.859C674.209 528.21 677.155 531.011 680.737 533.264C684.318 535.459 688.073 537.279 692.001 538.723C695.929 540.109 699.539 541.236 702.832 542.102L720.855 546.955C725.476 548.168 730.617 549.843 736.278 551.98C741.997 554.117 747.455 557.035 752.654 560.732C757.911 564.371 762.243 569.05 765.651 574.768C769.06 580.487 770.764 587.506 770.764 595.824C770.764 605.413 768.251 614.078 763.225 621.818C758.257 629.559 750.979 635.711 741.39 640.274C731.859 644.838 720.277 647.119 706.644 647.119C693.936 647.119 682.932 645.069 673.632 640.967C664.389 636.866 657.111 631.147 651.796 623.811C646.54 616.475 643.565 607.955 642.872 598.25H665.053C665.631 604.951 667.884 610.496 671.812 614.886C675.798 619.219 680.823 622.454 686.889 624.591C693.012 626.67 699.597 627.71 706.644 627.71C714.847 627.71 722.212 626.382 728.739 623.724C735.267 621.009 740.437 617.255 744.249 612.46C748.062 607.608 749.968 601.947 749.968 595.477C749.968 589.585 748.322 584.791 745.029 581.094C741.737 577.397 737.404 574.393 732.032 572.082C726.66 569.772 720.855 567.75 714.616 566.017L692.781 559.778C678.917 555.793 667.942 550.103 659.855 542.709C651.767 535.315 647.724 525.639 647.724 513.682C647.724 503.746 650.41 495.081 655.782 487.688C661.212 480.236 668.49 474.459 677.617 470.358C686.802 466.199 697.055 464.119 708.377 464.119C719.815 464.119 729.981 466.17 738.877 470.271C747.773 474.315 754.82 479.86 760.019 486.908C765.276 493.955 768.049 501.955 768.337 510.909H747.542Z" fill="black"/>
<path d="M781.497 644V466.545H841.457C855.32 466.545 866.7 468.914 875.596 473.651C884.492 478.33 891.077 484.77 895.352 492.973C899.626 501.176 901.764 510.505 901.764 520.96C901.764 531.416 899.626 540.687 895.352 548.774C891.077 556.861 884.521 563.215 875.683 567.837C866.845 572.4 855.551 574.682 841.803 574.682H793.281V555.273H841.11C850.584 555.273 858.209 553.886 863.985 551.114C869.819 548.341 874.036 544.413 876.636 539.33C879.293 534.188 880.622 528.065 880.622 520.96C880.622 513.855 879.293 507.645 876.636 502.331C873.979 497.017 869.733 492.915 863.899 490.027C858.064 487.081 850.353 485.608 840.764 485.608H802.985V644H781.497ZM865.025 564.284L908.695 644H883.741L840.764 564.284H865.025Z" fill="black"/>
<line x1="314" y1="790.5" x2="1102.02" y2="790.5" stroke="#EB0000" stroke-width="6"/>
</svg>
