<svg width="121" height="71" viewBox="0 0 121 71" fill="none" xmlns="http://www.w3.org/2000/svg">
<path fill-rule="evenodd" clip-rule="evenodd" d="M3.80614 39.715C1.46306 37.3869 1.46306 33.613 3.80614 31.2849L31.7571 3.51604C33.6315 1.65388 36.6708 1.65388 38.5451 3.51604C40.42 5.37821 40.42 8.39772 38.5451 10.2599L13.1396 35.5L38.5451 60.74C40.42 62.6023 40.42 65.6216 38.5451 67.4839C36.6708 69.3462 33.6315 69.3462 31.7571 67.4839L3.80614 39.715Z" fill="#000012" stroke="#8600F0" stroke-width="3"/>
<path d="M37.2813 28L41.1484 40.1562H41.2969L45.1719 28H48.9219L43.4063 44H39.0469L33.5234 28H37.2813ZM64.6484 36C64.6484 37.7448 64.3177 39.2292 63.6563 40.4531C63 41.6771 62.1042 42.612 60.9687 43.2578C59.8385 43.8984 58.5677 44.2187 57.1563 44.2187C55.7344 44.2187 54.4583 43.8958 53.3281 43.25C52.1979 42.6042 51.3047 41.6693 50.6484 40.4453C49.9922 39.2214 49.6641 37.7396 49.6641 36C49.6641 34.2552 49.9922 32.7708 50.6484 31.5469C51.3047 30.3229 52.1979 29.3906 53.3281 28.75C54.4583 28.1042 55.7344 27.7812 57.1563 27.7812C58.5677 27.7812 59.8385 28.1042 60.9687 28.75C62.1042 29.3906 63 30.3229 63.6563 31.5469C64.3177 32.7708 64.6484 34.2552 64.6484 36ZM61.2188 36C61.2188 34.8698 61.0495 33.9167 60.7109 33.1406C60.3776 32.3646 59.9063 31.776 59.2969 31.375C58.6875 30.974 57.974 30.7734 57.1563 30.7734C56.3385 30.7734 55.625 30.974 55.0156 31.375C54.4063 31.776 53.9323 32.3646 53.5938 33.1406C53.2604 33.9167 53.0938 34.8698 53.0938 36C53.0938 37.1302 53.2604 38.0833 53.5938 38.8594C53.9323 39.6354 54.4063 40.224 55.0156 40.625C55.625 41.026 56.3385 41.2266 57.1563 41.2266C57.974 41.2266 58.6875 41.026 59.2969 40.625C59.9063 40.224 60.3776 39.6354 60.7109 38.8594C61.0495 38.0833 61.2188 37.1302 61.2188 36ZM67.1543 44V28H70.5371V41.2109H77.3965V44H67.1543ZM77.0293 30.7891V28H90.1699V30.7891H85.2715V44H81.9277V30.7891H77.0293ZM93.1367 44H89.5117L95.0352 28H99.3945L104.91 44H101.285L97.2773 31.6562H97.1523L93.1367 44ZM92.9102 37.7109H101.473V40.3516H92.9102V37.7109ZM106.836 44V28H113.148C114.357 28 115.388 28.2161 116.242 28.6484C117.102 29.0755 117.755 29.6823 118.203 30.4688C118.656 31.25 118.883 32.1693 118.883 33.2266C118.883 34.2891 118.654 35.2031 118.195 35.9687C117.737 36.7292 117.073 37.3125 116.203 37.7187C115.339 38.125 114.292 38.3281 113.063 38.3281H108.836V35.6094H112.516C113.161 35.6094 113.698 35.5208 114.125 35.3438C114.552 35.1667 114.87 34.901 115.078 34.5469C115.292 34.1927 115.398 33.7526 115.398 33.2266C115.398 32.6953 115.292 32.2474 115.078 31.8828C114.87 31.5182 114.549 31.2422 114.117 31.0547C113.69 30.862 113.151 30.7656 112.5 30.7656H110.219V44H106.836ZM115.477 36.7188L119.453 44H115.719L111.828 36.7188H115.477Z" fill="#8600F0"/>
</svg>
