<svg width="69" height="54" viewBox="0 0 69 54" fill="none" xmlns="http://www.w3.org/2000/svg">
<path d="M26.088 14.736L27.96 48H21.096L20.688 33.768C20.656 32.44 20.64 31.256 20.64 30.216C20.656 29.176 20.68 28.2 20.712 27.288C20.744 26.36 20.792 25.432 20.856 24.504C20.936 23.56 21.016 22.536 21.096 21.432L17.352 42.336H11.4L7.368 21.432C7.464 22.488 7.544 23.488 7.608 24.432C7.688 25.36 7.744 26.296 7.776 27.24C7.808 28.184 7.832 29.2 7.848 30.288C7.864 31.36 7.856 32.56 7.824 33.888L7.584 48H0.84L2.712 14.736H10.8L14.496 36.24L18 14.736H26.088Z" fill="#8600F0"/>
<path d="M41.296 37.944C41.296 36.776 41.064 35.856 40.6 35.184C40.152 34.496 39.512 34.008 38.68 33.72C37.864 33.432 36.904 33.288 35.8 33.288H32.56V42.264H35.464C36.232 42.264 36.96 42.208 37.648 42.096C38.352 41.984 38.976 41.776 39.52 41.472C40.08 41.168 40.512 40.736 40.816 40.176C41.136 39.6 41.296 38.856 41.296 37.944ZM40.048 24.024C40.048 22.712 39.632 21.768 38.8 21.192C37.984 20.6 36.712 20.304 34.984 20.304H32.56V28.008H35.224C36.92 28.008 38.144 27.696 38.896 27.072C39.664 26.448 40.048 25.432 40.048 24.024ZM49.408 38.256C49.408 40.176 49.04 41.768 48.304 43.032C47.568 44.296 46.56 45.288 45.28 46.008C44 46.728 42.536 47.24 40.888 47.544C39.256 47.848 37.536 48 35.728 48H24.688V14.736H35.224C36.936 14.736 38.552 14.88 40.072 15.168C41.608 15.44 42.968 15.904 44.152 16.56C45.336 17.2 46.264 18.072 46.936 19.176C47.624 20.264 47.968 21.616 47.968 23.232C47.968 24.56 47.688 25.712 47.128 26.688C46.568 27.648 45.824 28.44 44.896 29.064C43.968 29.672 42.96 30.112 41.872 30.384C43.056 30.576 44.224 30.952 45.376 31.512C46.544 32.056 47.504 32.872 48.256 33.96C49.024 35.048 49.408 36.48 49.408 38.256Z" fill="#8600F0"/>
<rect x="3" y="11" width="42" height="2" fill="white"/>
</svg>
