<svg width="1440" height="1024" viewBox="0 0 1440 1024" fill="none" xmlns="http://www.w3.org/2000/svg">
<rect width="1440" height="1024" fill="#1D1D1D"/>
<rect x="103" y="20" width="600" height="984" rx="30" fill="#222222"/>
<path d="M616 941.333C634.333 941.333 649.333 926.333 649.333 908C649.333 889.667 634.333 874.667 616 874.667C597.667 874.667 582.667 889.667 582.667 908C582.667 926.333 597.667 941.333 616 941.333Z" stroke="#8600F0" stroke-width="3" stroke-linecap="round" stroke-linejoin="round"/>
<path d="M602.667 908H629.333" stroke="#8600F0" stroke-width="3" stroke-linecap="round" stroke-linejoin="round"/>
<path d="M616 921.333V894.667" stroke="#8600F0" stroke-width="3" stroke-linecap="round" stroke-linejoin="round"/>
<rect x="150" y="130" width="505" height="59" rx="4" fill="#8600F0"/>
<path d="M625.249 156.489V164.557M631.437 156.489V164.557M637.625 151.109V167.247C637.625 168.732 636.24 169.937 634.531 169.937H622.155C620.446 169.937 619.061 168.732 619.061 167.247V151.109M615.967 151.109H640.719M632.984 151.109V149.765C632.984 148.279 631.599 147.075 629.89 147.075H626.796C625.087 147.075 623.702 148.279 623.702 149.765V151.109" stroke="#E60000" stroke-width="2" stroke-linecap="round" stroke-linejoin="round"/>
<path d="M616 941.333C634.333 941.333 649.333 926.333 649.333 908C649.333 889.667 634.333 874.667 616 874.667C597.667 874.667 582.667 889.667 582.667 908C582.667 926.333 597.667 941.333 616 941.333Z" stroke="#8600F0" stroke-width="4" stroke-linecap="round" stroke-linejoin="round"/>
<path d="M602.667 908H629.333" stroke="#8600F0" stroke-width="4" stroke-linecap="round" stroke-linejoin="round"/>
<path d="M616 921.333V894.667" stroke="#8600F0" stroke-width="4" stroke-linecap="round" stroke-linejoin="round"/>
<path d="M364.175 44.8182V71H359.393L348.003 54.5213H347.811V71H342.276V44.8182H347.134L358.435 61.2841H358.665V44.8182H364.175ZM392.808 57.9091C392.808 60.7642 392.267 63.1932 391.184 65.196C390.11 67.1989 388.645 68.7287 386.787 69.7855C384.937 70.8338 382.858 71.358 380.548 71.358C378.221 71.358 376.133 70.8295 374.284 69.7727C372.434 68.7159 370.973 67.1861 369.899 65.1832C368.825 63.1804 368.288 60.7557 368.288 57.9091C368.288 55.054 368.825 52.625 369.899 50.6222C370.973 48.6193 372.434 47.0937 374.284 46.0455C376.133 44.9886 378.221 44.4602 380.548 44.4602C382.858 44.4602 384.937 44.9886 386.787 46.0455C388.645 47.0937 390.11 48.6193 391.184 50.6222C392.267 52.625 392.808 55.054 392.808 57.9091ZM387.196 57.9091C387.196 56.0597 386.919 54.5 386.365 53.2301C385.819 51.9602 385.048 50.9972 384.051 50.3409C383.054 49.6847 381.886 49.3565 380.548 49.3565C379.21 49.3565 378.042 49.6847 377.045 50.3409C376.048 50.9972 375.272 51.9602 374.718 53.2301C374.173 54.5 373.9 56.0597 373.9 57.9091C373.9 59.7585 374.173 61.3182 374.718 62.5881C375.272 63.858 376.048 64.821 377.045 65.4773C378.042 66.1335 379.21 66.4616 380.548 66.4616C381.886 66.4616 383.054 66.1335 384.051 65.4773C385.048 64.821 385.819 63.858 386.365 62.5881C386.919 61.3182 387.196 59.7585 387.196 57.9091ZM394.716 49.3821V44.8182H416.219V49.3821H408.203V71H402.732V49.3821H394.716ZM421.074 71H415.142L424.18 44.8182H431.314L440.339 71H434.407L427.849 50.8011H427.645L421.074 71ZM420.703 60.7088H434.714V65.0298H420.703V60.7088ZM457.096 52.348C456.994 51.3168 456.555 50.5156 455.779 49.9446C455.004 49.3736 453.951 49.0881 452.621 49.0881C451.718 49.0881 450.955 49.2159 450.333 49.4716C449.711 49.7188 449.234 50.0639 448.901 50.5071C448.577 50.9503 448.415 51.4531 448.415 52.0156C448.398 52.4844 448.496 52.8935 448.71 53.2429C448.931 53.5923 449.234 53.8949 449.617 54.1506C450.001 54.3977 450.444 54.6151 450.947 54.8026C451.45 54.9815 451.987 55.1349 452.558 55.2628L454.91 55.8253C456.052 56.081 457.1 56.4219 458.055 56.848C459.009 57.2741 459.836 57.7983 460.535 58.4205C461.234 59.0426 461.775 59.7756 462.158 60.6193C462.55 61.4631 462.751 62.4304 462.759 63.5213C462.751 65.1236 462.342 66.5128 461.532 67.6889C460.731 68.8565 459.572 69.7642 458.055 70.4119C456.546 71.0511 454.727 71.3707 452.596 71.3707C450.482 71.3707 448.641 71.0469 447.073 70.3991C445.513 69.7514 444.295 68.7926 443.417 67.5227C442.548 66.2443 442.092 64.6634 442.049 62.7798H447.406C447.465 63.6577 447.717 64.3906 448.16 64.9787C448.612 65.5582 449.212 65.9972 449.962 66.2955C450.721 66.5852 451.577 66.7301 452.532 66.7301C453.469 66.7301 454.283 66.5937 454.974 66.321C455.673 66.0483 456.214 65.669 456.597 65.1832C456.981 64.6974 457.173 64.1392 457.173 63.5085C457.173 62.9205 456.998 62.4261 456.648 62.0256C456.308 61.625 455.805 61.2841 455.14 61.0028C454.484 60.7216 453.678 60.4659 452.724 60.2358L449.873 59.5199C447.665 58.983 445.923 58.1435 444.644 57.0014C443.366 55.8594 442.731 54.321 442.739 52.3864C442.731 50.8011 443.153 49.4162 444.005 48.2315C444.866 47.0469 446.046 46.1222 447.546 45.4574C449.046 44.7926 450.751 44.4602 452.66 44.4602C454.603 44.4602 456.299 44.7926 457.748 45.4574C459.205 46.1222 460.339 47.0469 461.148 48.2315C461.958 49.4162 462.376 50.7884 462.401 52.348H457.096Z" fill="white"/>
<line x1="341" y1="78.5" x2="465" y2="78.5" stroke="#8600F0" stroke-width="3"/>
<path d="M170.435 166V151.455H175.889C177.007 151.455 177.944 151.663 178.702 152.08C179.464 152.496 180.039 153.069 180.428 153.798C180.821 154.523 181.017 155.347 181.017 156.27C181.017 157.203 180.821 158.031 180.428 158.756C180.035 159.48 179.455 160.051 178.688 160.467C177.92 160.879 176.976 161.085 175.854 161.085H172.239V158.919H175.499C176.152 158.919 176.687 158.805 177.104 158.578C177.52 158.351 177.828 158.038 178.027 157.641C178.231 157.243 178.332 156.786 178.332 156.27C178.332 155.754 178.231 155.299 178.027 154.906C177.828 154.513 177.518 154.208 177.097 153.99C176.68 153.768 176.143 153.656 175.484 153.656H173.07V166H170.435ZM183.192 166V155.091H185.685V156.909H185.799C185.998 156.279 186.338 155.794 186.821 155.453C187.309 155.107 187.865 154.935 188.49 154.935C188.632 154.935 188.791 154.942 188.966 154.956C189.146 154.965 189.295 154.982 189.414 155.006V157.371C189.305 157.333 189.132 157.3 188.895 157.271C188.663 157.238 188.438 157.222 188.221 157.222C187.752 157.222 187.33 157.323 186.956 157.527C186.587 157.726 186.296 158.003 186.083 158.358C185.87 158.713 185.763 159.123 185.763 159.587V166H183.192ZM191.122 166V155.091H193.693V166H191.122ZM192.414 153.543C192.007 153.543 191.657 153.408 191.363 153.138C191.07 152.863 190.923 152.534 190.923 152.151C190.923 151.762 191.07 151.433 191.363 151.163C191.657 150.889 192.007 150.751 192.414 150.751C192.826 150.751 193.177 150.889 193.466 151.163C193.759 151.433 193.906 151.762 193.906 152.151C193.906 152.534 193.759 152.863 193.466 153.138C193.177 153.408 192.826 153.543 192.414 153.543ZM196.337 166V155.091H198.794V156.945H198.922C199.149 156.32 199.526 155.832 200.051 155.482C200.577 155.126 201.204 154.949 201.933 154.949C202.672 154.949 203.295 155.129 203.801 155.489C204.313 155.844 204.672 156.329 204.881 156.945H204.994C205.236 156.339 205.643 155.856 206.216 155.496C206.794 155.131 207.478 154.949 208.268 154.949C209.272 154.949 210.091 155.266 210.726 155.901C211.36 156.535 211.678 157.461 211.678 158.678V166H209.099V159.075C209.099 158.398 208.92 157.903 208.56 157.591C208.2 157.274 207.759 157.115 207.239 157.115C206.618 157.115 206.133 157.309 205.783 157.697C205.437 158.081 205.264 158.58 205.264 159.196V166H202.743V158.969C202.743 158.405 202.572 157.955 202.232 157.619C201.895 157.283 201.455 157.115 200.911 157.115C200.541 157.115 200.205 157.21 199.902 157.399C199.599 157.584 199.357 157.847 199.178 158.188C198.998 158.524 198.908 158.917 198.908 159.366V166H196.337ZM219.115 166.213C218.022 166.213 217.077 165.986 216.282 165.531C215.491 165.072 214.882 164.423 214.456 163.585C214.03 162.742 213.817 161.75 213.817 160.609C213.817 159.487 214.03 158.502 214.456 157.655C214.887 156.803 215.489 156.14 216.26 155.666C217.032 155.188 217.939 154.949 218.98 154.949C219.653 154.949 220.287 155.058 220.884 155.276C221.485 155.489 222.016 155.82 222.475 156.27C222.939 156.72 223.303 157.293 223.569 157.989C223.834 158.68 223.966 159.504 223.966 160.46V161.249H215.025V159.516H221.502C221.497 159.023 221.391 158.585 221.182 158.202C220.974 157.813 220.683 157.508 220.309 157.286C219.939 157.063 219.508 156.952 219.016 156.952C218.49 156.952 218.029 157.08 217.631 157.335C217.233 157.586 216.923 157.918 216.701 158.33C216.483 158.737 216.372 159.184 216.367 159.672V161.185C216.367 161.819 216.483 162.364 216.715 162.818C216.947 163.268 217.271 163.614 217.688 163.855C218.105 164.092 218.592 164.21 219.151 164.21C219.525 164.21 219.864 164.158 220.167 164.054C220.47 163.945 220.732 163.786 220.955 163.578C221.177 163.37 221.346 163.112 221.459 162.804L223.86 163.074C223.708 163.708 223.419 164.262 222.993 164.736C222.572 165.205 222.032 165.569 221.374 165.83C220.716 166.085 219.963 166.213 219.115 166.213ZM226.141 166V155.091H228.712V166H226.141ZM227.434 153.543C227.027 153.543 226.676 153.408 226.383 153.138C226.089 152.863 225.942 152.534 225.942 152.151C225.942 151.762 226.089 151.433 226.383 151.163C226.676 150.889 227.027 150.751 227.434 150.751C227.846 150.751 228.196 150.889 228.485 151.163C228.779 151.433 228.925 151.762 228.925 152.151C228.925 152.534 228.779 152.863 228.485 153.138C228.196 153.408 227.846 153.543 227.434 153.543ZM231.356 166V155.091H233.849V156.909H233.963C234.162 156.279 234.502 155.794 234.985 155.453C235.473 155.107 236.029 154.935 236.654 154.935C236.797 154.935 236.955 154.942 237.13 154.956C237.31 154.965 237.459 154.982 237.578 155.006V157.371C237.469 157.333 237.296 157.3 237.059 157.271C236.827 157.238 236.602 157.222 236.385 157.222C235.916 157.222 235.494 157.323 235.12 157.527C234.751 157.726 234.46 158.003 234.247 158.358C234.034 158.713 233.927 159.123 233.927 159.587V166H231.356ZM242.23 166.22C241.538 166.22 240.916 166.097 240.362 165.851C239.813 165.6 239.377 165.231 239.055 164.743C238.738 164.255 238.579 163.654 238.579 162.939C238.579 162.323 238.693 161.814 238.92 161.412C239.147 161.009 239.458 160.688 239.85 160.446C240.243 160.205 240.686 160.022 241.179 159.899C241.676 159.771 242.19 159.679 242.72 159.622C243.359 159.556 243.877 159.497 244.275 159.445C244.673 159.388 244.962 159.303 245.142 159.189C245.326 159.071 245.419 158.888 245.419 158.642V158.599C245.419 158.064 245.26 157.65 244.943 157.357C244.626 157.063 244.169 156.916 243.572 156.916C242.942 156.916 242.443 157.054 242.074 157.328C241.709 157.603 241.463 157.927 241.335 158.301L238.934 157.96C239.124 157.297 239.436 156.743 239.872 156.298C240.307 155.848 240.84 155.512 241.47 155.29C242.1 155.062 242.796 154.949 243.558 154.949C244.083 154.949 244.607 155.01 245.127 155.134C245.648 155.257 246.124 155.46 246.555 155.744C246.986 156.024 247.332 156.405 247.592 156.888C247.857 157.371 247.99 157.974 247.99 158.699V166H245.518V164.501H245.433C245.277 164.804 245.056 165.089 244.772 165.354C244.493 165.614 244.14 165.825 243.714 165.986C243.293 166.142 242.798 166.22 242.23 166.22ZM242.897 164.331C243.413 164.331 243.861 164.229 244.24 164.026C244.618 163.817 244.91 163.543 245.113 163.202C245.322 162.861 245.426 162.489 245.426 162.087V160.801C245.345 160.867 245.208 160.929 245.014 160.986C244.824 161.043 244.611 161.092 244.375 161.135C244.138 161.178 243.904 161.215 243.672 161.249C243.44 161.282 243.238 161.31 243.068 161.334C242.684 161.386 242.341 161.471 242.038 161.589C241.735 161.708 241.496 161.874 241.321 162.087C241.145 162.295 241.058 162.565 241.058 162.896C241.058 163.37 241.231 163.727 241.576 163.969C241.922 164.21 242.362 164.331 242.897 164.331ZM258.107 159.608V166H255.536V155.091H257.993V156.945H258.121C258.372 156.334 258.772 155.848 259.321 155.489C259.875 155.129 260.56 154.949 261.374 154.949C262.127 154.949 262.783 155.11 263.341 155.432C263.905 155.754 264.34 156.22 264.648 156.831C264.961 157.442 265.114 158.183 265.11 159.054V166H262.539V159.452C262.539 158.723 262.349 158.152 261.971 157.74C261.596 157.328 261.078 157.122 260.415 157.122C259.965 157.122 259.565 157.222 259.215 157.42C258.869 157.615 258.597 157.896 258.398 158.266C258.204 158.635 258.107 159.082 258.107 159.608ZM272.482 166.213C271.417 166.213 270.493 165.979 269.712 165.51C268.931 165.041 268.325 164.385 267.894 163.543C267.468 162.7 267.255 161.715 267.255 160.588C267.255 159.461 267.468 158.474 267.894 157.626C268.325 156.779 268.931 156.121 269.712 155.652C270.493 155.183 271.417 154.949 272.482 154.949C273.547 154.949 274.471 155.183 275.252 155.652C276.033 156.121 276.637 156.779 277.063 157.626C277.494 158.474 277.709 159.461 277.709 160.588C277.709 161.715 277.494 162.7 277.063 163.543C276.637 164.385 276.033 165.041 275.252 165.51C274.471 165.979 273.547 166.213 272.482 166.213ZM272.496 164.153C273.074 164.153 273.557 163.995 273.945 163.678C274.333 163.356 274.622 162.925 274.811 162.385C275.006 161.845 275.103 161.244 275.103 160.581C275.103 159.913 275.006 159.31 274.811 158.77C274.622 158.225 274.333 157.792 273.945 157.47C273.557 157.148 273.074 156.987 272.496 156.987C271.904 156.987 271.412 157.148 271.019 157.47C270.631 157.792 270.339 158.225 270.145 158.77C269.956 159.31 269.861 159.913 269.861 160.581C269.861 161.244 269.956 161.845 270.145 162.385C270.339 162.925 270.631 163.356 271.019 163.678C271.412 163.995 271.904 164.153 272.496 164.153ZM285.339 155.091V157.08H279.067V155.091H285.339ZM280.616 152.477H283.187V162.719C283.187 163.064 283.239 163.33 283.343 163.514C283.452 163.694 283.594 163.817 283.769 163.884C283.944 163.95 284.138 163.983 284.352 163.983C284.513 163.983 284.659 163.971 284.792 163.947C284.929 163.924 285.033 163.902 285.104 163.884L285.538 165.893C285.4 165.941 285.204 165.993 284.948 166.05C284.697 166.107 284.389 166.14 284.025 166.149C283.381 166.168 282.801 166.071 282.285 165.858C281.769 165.64 281.359 165.304 281.056 164.849C280.758 164.395 280.611 163.827 280.616 163.145V152.477ZM290.628 166.22C289.937 166.22 289.314 166.097 288.76 165.851C288.211 165.6 287.775 165.231 287.453 164.743C287.136 164.255 286.978 163.654 286.978 162.939C286.978 162.323 287.091 161.814 287.319 161.412C287.546 161.009 287.856 160.688 288.249 160.446C288.642 160.205 289.085 160.022 289.577 159.899C290.074 159.771 290.588 159.679 291.118 159.622C291.757 159.556 292.276 159.497 292.674 159.445C293.071 159.388 293.36 159.303 293.54 159.189C293.725 159.071 293.817 158.888 293.817 158.642V158.599C293.817 158.064 293.658 157.65 293.341 157.357C293.024 157.063 292.567 156.916 291.971 156.916C291.341 156.916 290.841 157.054 290.472 157.328C290.107 157.603 289.861 157.927 289.733 158.301L287.333 157.96C287.522 157.297 287.835 156.743 288.27 156.298C288.706 155.848 289.239 155.512 289.868 155.29C290.498 155.062 291.194 154.949 291.956 154.949C292.482 154.949 293.005 155.01 293.526 155.134C294.047 155.257 294.523 155.46 294.953 155.744C295.384 156.024 295.73 156.405 295.99 156.888C296.256 157.371 296.388 157.974 296.388 158.699V166H293.917V164.501H293.831C293.675 164.804 293.455 165.089 293.171 165.354C292.891 165.614 292.539 165.825 292.113 165.986C291.691 166.142 291.196 166.22 290.628 166.22ZM291.296 164.331C291.812 164.331 292.259 164.229 292.638 164.026C293.017 163.817 293.308 163.543 293.512 163.202C293.72 162.861 293.824 162.489 293.824 162.087V160.801C293.744 160.867 293.606 160.929 293.412 160.986C293.223 161.043 293.01 161.092 292.773 161.135C292.536 161.178 292.302 161.215 292.07 161.249C291.838 161.282 291.637 161.31 291.466 161.334C291.083 161.386 290.739 161.471 290.436 161.589C290.133 161.708 289.894 161.874 289.719 162.087C289.544 162.295 289.456 162.565 289.456 162.896C289.456 163.37 289.629 163.727 289.975 163.969C290.32 164.21 290.761 164.331 291.296 164.331ZM302.12 151.455L301.885 161.724H299.598L299.371 151.455H302.12ZM300.742 166.156C300.311 166.156 299.942 166.005 299.634 165.702C299.331 165.399 299.179 165.029 299.179 164.594C299.179 164.168 299.331 163.803 299.634 163.5C299.942 163.197 300.311 163.045 300.742 163.045C301.163 163.045 301.528 163.197 301.836 163.5C302.148 163.803 302.304 164.168 302.304 164.594C302.304 164.883 302.231 165.145 302.084 165.382C301.942 165.619 301.753 165.808 301.516 165.95C301.284 166.088 301.026 166.156 300.742 166.156Z" fill="white"/>
<path d="M625.249 156.489V164.557M631.437 156.489V164.557M637.625 151.109V167.247C637.625 168.732 636.24 169.937 634.531 169.937H622.155C620.446 169.937 619.061 168.732 619.061 167.247V151.109M615.967 151.109H640.719M632.984 151.109V149.765C632.984 148.279 631.599 147.075 629.89 147.075H626.796C625.087 147.075 623.702 148.279 623.702 149.765V151.109" stroke="#E60000" stroke-width="2" stroke-linecap="round" stroke-linejoin="round"/>
<path d="M384.767 89.3636V101H382.659V91.4148H382.591L379.869 93.1534V91.2216L382.761 89.3636H384.767ZM393.77 95.8864V101H391.713V92.2727H393.679V93.7557H393.781C393.982 93.267 394.302 92.8788 394.741 92.5909C395.185 92.303 395.732 92.1591 396.384 92.1591C396.986 92.1591 397.51 92.2879 397.957 92.5455C398.408 92.803 398.757 93.1761 399.003 93.6648C399.253 94.1534 399.376 94.7462 399.372 95.4432V101H397.315V95.7614C397.315 95.178 397.164 94.7216 396.861 94.392C396.562 94.0625 396.147 93.8977 395.616 93.8977C395.257 93.8977 394.937 93.9773 394.656 94.1364C394.38 94.2917 394.162 94.517 394.003 94.8125C393.848 95.108 393.77 95.4659 393.77 95.8864ZM405.27 101.17C404.418 101.17 403.679 100.983 403.054 100.608C402.429 100.233 401.944 99.7083 401.599 99.0341C401.259 98.3598 401.088 97.572 401.088 96.6705C401.088 95.7689 401.259 94.9792 401.599 94.3011C401.944 93.6231 402.429 93.0966 403.054 92.7216C403.679 92.3466 404.418 92.1591 405.27 92.1591C406.122 92.1591 406.861 92.3466 407.486 92.7216C408.111 93.0966 408.594 93.6231 408.935 94.3011C409.279 94.9792 409.452 95.7689 409.452 96.6705C409.452 97.572 409.279 98.3598 408.935 99.0341C408.594 99.7083 408.111 100.233 407.486 100.608C406.861 100.983 406.122 101.17 405.27 101.17ZM405.281 99.5227C405.743 99.5227 406.13 99.3958 406.44 99.142C406.751 98.8845 406.982 98.5398 407.134 98.108C407.289 97.6761 407.366 97.1951 407.366 96.6648C407.366 96.1307 407.289 95.6477 407.134 95.2159C406.982 94.7803 406.751 94.4337 406.44 94.1761C406.13 93.9186 405.743 93.7898 405.281 93.7898C404.808 93.7898 404.414 93.9186 404.099 94.1761C403.789 94.4337 403.556 94.7803 403.401 95.2159C403.249 95.6477 403.173 96.1307 403.173 96.6648C403.173 97.1951 403.249 97.6761 403.401 98.108C403.556 98.5398 403.789 98.8845 404.099 99.142C404.414 99.3958 404.808 99.5227 405.281 99.5227ZM415.555 92.2727V93.8636H410.538V92.2727H415.555ZM411.777 90.1818H413.834V98.375C413.834 98.6515 413.875 98.8636 413.959 99.0114C414.046 99.1553 414.16 99.2538 414.3 99.3068C414.44 99.3598 414.595 99.3864 414.766 99.3864C414.894 99.3864 415.012 99.3769 415.118 99.358C415.228 99.339 415.311 99.322 415.368 99.3068L415.714 100.915C415.605 100.953 415.447 100.994 415.243 101.04C415.042 101.085 414.796 101.112 414.504 101.119C413.989 101.134 413.525 101.057 413.112 100.886C412.699 100.712 412.372 100.443 412.129 100.08C411.891 99.7159 411.773 99.2614 411.777 98.7159V90.1818ZM419.787 101.176C419.234 101.176 418.736 101.078 418.293 100.881C417.853 100.68 417.505 100.384 417.247 99.9943C416.993 99.6042 416.866 99.1231 416.866 98.5511C416.866 98.0587 416.957 97.6515 417.139 97.3295C417.321 97.0076 417.569 96.75 417.884 96.5568C418.198 96.3636 418.552 96.2178 418.946 96.1193C419.344 96.017 419.755 95.9432 420.179 95.8977C420.69 95.8447 421.105 95.7973 421.423 95.7557C421.741 95.7102 421.973 95.642 422.116 95.5511C422.264 95.4564 422.338 95.3106 422.338 95.1136V95.0795C422.338 94.6515 422.211 94.3201 421.957 94.0852C421.704 93.8504 421.338 93.733 420.861 93.733C420.357 93.733 419.957 93.8428 419.662 94.0625C419.37 94.2822 419.173 94.5417 419.071 94.8409L417.151 94.5682C417.302 94.0379 417.552 93.5947 417.901 93.2386C418.249 92.8788 418.675 92.6098 419.179 92.4318C419.683 92.25 420.24 92.1591 420.849 92.1591C421.27 92.1591 421.688 92.2083 422.105 92.3068C422.522 92.4053 422.902 92.5682 423.247 92.7955C423.592 93.0189 423.868 93.3239 424.077 93.7102C424.289 94.0966 424.395 94.5795 424.395 95.1591V101H422.418V99.8011H422.349C422.224 100.044 422.048 100.271 421.821 100.483C421.598 100.691 421.315 100.86 420.974 100.989C420.637 101.114 420.241 101.176 419.787 101.176ZM420.321 99.6648C420.734 99.6648 421.092 99.5833 421.395 99.4205C421.698 99.2538 421.931 99.0341 422.094 98.7614C422.26 98.4886 422.344 98.1913 422.344 97.8693V96.8409C422.279 96.8939 422.17 96.9432 422.014 96.9886C421.863 97.0341 421.692 97.0739 421.503 97.108C421.313 97.142 421.126 97.1723 420.94 97.1989C420.755 97.2254 420.594 97.2481 420.457 97.267C420.151 97.3087 419.876 97.3769 419.634 97.4716C419.391 97.5663 419.2 97.6989 419.06 97.8693C418.92 98.036 418.849 98.2519 418.849 98.517C418.849 98.8958 418.988 99.1818 419.264 99.375C419.541 99.5682 419.893 99.6648 420.321 99.6648Z" fill="white" fill-opacity="0.3"/>
<rect x="104.5" y="21.5" width="597" height="981" rx="28.5" stroke="white" stroke-opacity="0.1" stroke-width="3"/>
<g clip-path="url(#clip0_22_6)">
<rect x="737" y="20" width="600" height="984" rx="30" fill="#29292B"/>
<path d="M1250 941.333C1268.33 941.333 1283.33 926.333 1283.33 908C1283.33 889.667 1268.33 874.667 1250 874.667C1231.67 874.667 1216.67 889.667 1216.67 908C1216.67 926.333 1231.67 941.333 1250 941.333Z" stroke="#8600F0" stroke-width="3" stroke-linecap="round" stroke-linejoin="round"/>
<path d="M1236.67 908H1263.33" stroke="#8600F0" stroke-width="3" stroke-linecap="round" stroke-linejoin="round"/>
<path d="M1250 921.333V894.667" stroke="#8600F0" stroke-width="3" stroke-linecap="round" stroke-linejoin="round"/>
<rect x="784" y="130" width="505" height="59" rx="4" fill="#8600F0"/>
<path d="M1259.25 156.489V164.557M1265.44 156.489V164.557M1271.62 151.109V167.247C1271.62 168.732 1270.24 169.937 1268.53 169.937H1256.15C1254.45 169.937 1253.06 168.732 1253.06 167.247V151.109M1249.97 151.109H1274.72M1266.98 151.109V149.765C1266.98 148.279 1265.6 147.075 1263.89 147.075H1260.8C1259.09 147.075 1257.7 148.279 1257.7 149.765V151.109" stroke="#E60000" stroke-width="2" stroke-linecap="round" stroke-linejoin="round"/>
<path d="M1250 941.333C1268.33 941.333 1283.33 926.333 1283.33 908C1283.33 889.667 1268.33 874.667 1250 874.667C1231.67 874.667 1216.67 889.667 1216.67 908C1216.67 926.333 1231.67 941.333 1250 941.333Z" stroke="#8600F0" stroke-width="4" stroke-linecap="round" stroke-linejoin="round"/>
<path d="M1236.67 908H1263.33" stroke="#8600F0" stroke-width="4" stroke-linecap="round" stroke-linejoin="round"/>
<path d="M1250 921.333V894.667" stroke="#8600F0" stroke-width="4" stroke-linecap="round" stroke-linejoin="round"/>
<path d="M998.175 44.8182V71H993.393L982.003 54.5213H981.811V71H976.276V44.8182H981.134L992.435 61.2841H992.665V44.8182H998.175ZM1026.81 57.9091C1026.81 60.7642 1026.27 63.1932 1025.18 65.196C1024.11 67.1989 1022.64 68.7287 1020.79 69.7855C1018.94 70.8338 1016.86 71.358 1014.55 71.358C1012.22 71.358 1010.13 70.8295 1008.28 69.7727C1006.43 68.7159 1004.97 67.1861 1003.9 65.1832C1002.82 63.1804 1002.29 60.7557 1002.29 57.9091C1002.29 55.054 1002.82 52.625 1003.9 50.6222C1004.97 48.6193 1006.43 47.0937 1008.28 46.0455C1010.13 44.9886 1012.22 44.4602 1014.55 44.4602C1016.86 44.4602 1018.94 44.9886 1020.79 46.0455C1022.64 47.0937 1024.11 48.6193 1025.18 50.6222C1026.27 52.625 1026.81 55.054 1026.81 57.9091ZM1021.2 57.9091C1021.2 56.0597 1020.92 54.5 1020.36 53.2301C1019.82 51.9602 1019.05 50.9972 1018.05 50.3409C1017.05 49.6847 1015.89 49.3565 1014.55 49.3565C1013.21 49.3565 1012.04 49.6847 1011.05 50.3409C1010.05 50.9972 1009.27 51.9602 1008.72 53.2301C1008.17 54.5 1007.9 56.0597 1007.9 57.9091C1007.9 59.7585 1008.17 61.3182 1008.72 62.5881C1009.27 63.858 1010.05 64.821 1011.05 65.4773C1012.04 66.1335 1013.21 66.4616 1014.55 66.4616C1015.89 66.4616 1017.05 66.1335 1018.05 65.4773C1019.05 64.821 1019.82 63.858 1020.36 62.5881C1020.92 61.3182 1021.2 59.7585 1021.2 57.9091ZM1028.72 49.3821V44.8182H1050.22V49.3821H1042.2V71H1036.73V49.3821H1028.72ZM1055.07 71H1049.14L1058.18 44.8182H1065.31L1074.34 71H1068.41L1061.85 50.8011H1061.64L1055.07 71ZM1054.7 60.7088H1068.71V65.0298H1054.7V60.7088ZM1091.1 52.348C1090.99 51.3168 1090.55 50.5156 1089.78 49.9446C1089 49.3736 1087.95 49.0881 1086.62 49.0881C1085.72 49.0881 1084.96 49.2159 1084.33 49.4716C1083.71 49.7188 1083.23 50.0639 1082.9 50.5071C1082.58 50.9503 1082.42 51.4531 1082.42 52.0156C1082.4 52.4844 1082.5 52.8935 1082.71 53.2429C1082.93 53.5923 1083.23 53.8949 1083.62 54.1506C1084 54.3977 1084.44 54.6151 1084.95 54.8026C1085.45 54.9815 1085.99 55.1349 1086.56 55.2628L1088.91 55.8253C1090.05 56.081 1091.1 56.4219 1092.05 56.848C1093.01 57.2741 1093.84 57.7983 1094.53 58.4205C1095.23 59.0426 1095.77 59.7756 1096.16 60.6193C1096.55 61.4631 1096.75 62.4304 1096.76 63.5213C1096.75 65.1236 1096.34 66.5128 1095.53 67.6889C1094.73 68.8565 1093.57 69.7642 1092.05 70.4119C1090.55 71.0511 1088.73 71.3707 1086.6 71.3707C1084.48 71.3707 1082.64 71.0469 1081.07 70.3991C1079.51 69.7514 1078.29 68.7926 1077.42 67.5227C1076.55 66.2443 1076.09 64.6634 1076.05 62.7798H1081.41C1081.47 63.6577 1081.72 64.3906 1082.16 64.9787C1082.61 65.5582 1083.21 65.9972 1083.96 66.2955C1084.72 66.5852 1085.58 66.7301 1086.53 66.7301C1087.47 66.7301 1088.28 66.5937 1088.97 66.321C1089.67 66.0483 1090.21 65.669 1090.6 65.1832C1090.98 64.6974 1091.17 64.1392 1091.17 63.5085C1091.17 62.9205 1091 62.4261 1090.65 62.0256C1090.31 61.625 1089.8 61.2841 1089.14 61.0028C1088.48 60.7216 1087.68 60.4659 1086.72 60.2358L1083.87 59.5199C1081.67 58.983 1079.92 58.1435 1078.64 57.0014C1077.37 55.8594 1076.73 54.321 1076.74 52.3864C1076.73 50.8011 1077.15 49.4162 1078 48.2315C1078.87 47.0469 1080.05 46.1222 1081.55 45.4574C1083.05 44.7926 1084.75 44.4602 1086.66 44.4602C1088.6 44.4602 1090.3 44.7926 1091.75 45.4574C1093.21 46.1222 1094.34 47.0469 1095.15 48.2315C1095.96 49.4162 1096.38 50.7884 1096.4 52.348H1091.1Z" fill="white"/>
<line x1="975" y1="78.5" x2="1099" y2="78.5" stroke="#8600F0" stroke-width="3"/>
<path d="M804.435 166V151.455H809.889C811.007 151.455 811.944 151.663 812.702 152.08C813.464 152.496 814.039 153.069 814.428 153.798C814.821 154.523 815.017 155.347 815.017 156.27C815.017 157.203 814.821 158.031 814.428 158.756C814.035 159.48 813.455 160.051 812.688 160.467C811.92 160.879 810.976 161.085 809.854 161.085H806.239V158.919H809.499C810.152 158.919 810.687 158.805 811.104 158.578C811.52 158.351 811.828 158.038 812.027 157.641C812.231 157.243 812.332 156.786 812.332 156.27C812.332 155.754 812.231 155.299 812.027 154.906C811.828 154.513 811.518 154.208 811.097 153.99C810.68 153.768 810.143 153.656 809.484 153.656H807.07V166H804.435ZM817.192 166V155.091H819.685V156.909H819.799C819.998 156.279 820.338 155.794 820.821 155.453C821.309 155.107 821.865 154.935 822.49 154.935C822.632 154.935 822.791 154.942 822.966 154.956C823.146 154.965 823.295 154.982 823.414 155.006V157.371C823.305 157.333 823.132 157.3 822.895 157.271C822.663 157.238 822.438 157.222 822.221 157.222C821.752 157.222 821.33 157.323 820.956 157.527C820.587 157.726 820.296 158.003 820.083 158.358C819.87 158.713 819.763 159.123 819.763 159.587V166H817.192ZM825.122 166V155.091H827.693V166H825.122ZM826.414 153.543C826.007 153.543 825.657 153.408 825.363 153.138C825.07 152.863 824.923 152.534 824.923 152.151C824.923 151.762 825.07 151.433 825.363 151.163C825.657 150.889 826.007 150.751 826.414 150.751C826.826 150.751 827.177 150.889 827.466 151.163C827.759 151.433 827.906 151.762 827.906 152.151C827.906 152.534 827.759 152.863 827.466 153.138C827.177 153.408 826.826 153.543 826.414 153.543ZM830.337 166V155.091H832.794V156.945H832.922C833.149 156.32 833.526 155.832 834.051 155.482C834.577 155.126 835.204 154.949 835.933 154.949C836.672 154.949 837.295 155.129 837.801 155.489C838.313 155.844 838.672 156.329 838.881 156.945H838.994C839.236 156.339 839.643 155.856 840.216 155.496C840.794 155.131 841.478 154.949 842.268 154.949C843.272 154.949 844.091 155.266 844.726 155.901C845.36 156.535 845.678 157.461 845.678 158.678V166H843.099V159.075C843.099 158.398 842.92 157.903 842.56 157.591C842.2 157.274 841.759 157.115 841.239 157.115C840.618 157.115 840.133 157.309 839.783 157.697C839.437 158.081 839.264 158.58 839.264 159.196V166H836.743V158.969C836.743 158.405 836.572 157.955 836.232 157.619C835.895 157.283 835.455 157.115 834.911 157.115C834.541 157.115 834.205 157.21 833.902 157.399C833.599 157.584 833.357 157.847 833.178 158.188C832.998 158.524 832.908 158.917 832.908 159.366V166H830.337ZM853.115 166.213C852.022 166.213 851.077 165.986 850.282 165.531C849.491 165.072 848.882 164.423 848.456 163.585C848.03 162.742 847.817 161.75 847.817 160.609C847.817 159.487 848.03 158.502 848.456 157.655C848.887 156.803 849.489 156.14 850.26 155.666C851.032 155.188 851.939 154.949 852.98 154.949C853.653 154.949 854.287 155.058 854.884 155.276C855.485 155.489 856.016 155.82 856.475 156.27C856.939 156.72 857.303 157.293 857.569 157.989C857.834 158.68 857.966 159.504 857.966 160.46V161.249H849.025V159.516H855.502C855.497 159.023 855.391 158.585 855.182 158.202C854.974 157.813 854.683 157.508 854.309 157.286C853.939 157.063 853.508 156.952 853.016 156.952C852.49 156.952 852.029 157.08 851.631 157.335C851.233 157.586 850.923 157.918 850.701 158.33C850.483 158.737 850.372 159.184 850.367 159.672V161.185C850.367 161.819 850.483 162.364 850.715 162.818C850.947 163.268 851.271 163.614 851.688 163.855C852.105 164.092 852.592 164.21 853.151 164.21C853.525 164.21 853.864 164.158 854.167 164.054C854.47 163.945 854.732 163.786 854.955 163.578C855.177 163.37 855.346 163.112 855.459 162.804L857.86 163.074C857.708 163.708 857.419 164.262 856.993 164.736C856.572 165.205 856.032 165.569 855.374 165.83C854.716 166.085 853.963 166.213 853.115 166.213ZM860.141 166V155.091H862.712V166H860.141ZM861.434 153.543C861.027 153.543 860.676 153.408 860.383 153.138C860.089 152.863 859.942 152.534 859.942 152.151C859.942 151.762 860.089 151.433 860.383 151.163C860.676 150.889 861.027 150.751 861.434 150.751C861.846 150.751 862.196 150.889 862.485 151.163C862.779 151.433 862.925 151.762 862.925 152.151C862.925 152.534 862.779 152.863 862.485 153.138C862.196 153.408 861.846 153.543 861.434 153.543ZM865.356 166V155.091H867.849V156.909H867.963C868.162 156.279 868.502 155.794 868.985 155.453C869.473 155.107 870.029 154.935 870.654 154.935C870.797 154.935 870.955 154.942 871.13 154.956C871.31 154.965 871.459 154.982 871.578 155.006V157.371C871.469 157.333 871.296 157.3 871.059 157.271C870.827 157.238 870.602 157.222 870.385 157.222C869.916 157.222 869.494 157.323 869.12 157.527C868.751 157.726 868.46 158.003 868.247 158.358C868.034 158.713 867.927 159.123 867.927 159.587V166H865.356ZM876.23 166.22C875.538 166.22 874.916 166.097 874.362 165.851C873.813 165.6 873.377 165.231 873.055 164.743C872.738 164.255 872.579 163.654 872.579 162.939C872.579 162.323 872.693 161.814 872.92 161.412C873.147 161.009 873.458 160.688 873.85 160.446C874.243 160.205 874.686 160.022 875.179 159.899C875.676 159.771 876.19 159.679 876.72 159.622C877.359 159.556 877.877 159.497 878.275 159.445C878.673 159.388 878.962 159.303 879.142 159.189C879.326 159.071 879.419 158.888 879.419 158.642V158.599C879.419 158.064 879.26 157.65 878.943 157.357C878.626 157.063 878.169 156.916 877.572 156.916C876.942 156.916 876.443 157.054 876.074 157.328C875.709 157.603 875.463 157.927 875.335 158.301L872.934 157.96C873.124 157.297 873.436 156.743 873.872 156.298C874.307 155.848 874.84 155.512 875.47 155.29C876.1 155.062 876.796 154.949 877.558 154.949C878.083 154.949 878.607 155.01 879.127 155.134C879.648 155.257 880.124 155.46 880.555 155.744C880.986 156.024 881.332 156.405 881.592 156.888C881.857 157.371 881.99 157.974 881.99 158.699V166H879.518V164.501H879.433C879.277 164.804 879.056 165.089 878.772 165.354C878.493 165.614 878.14 165.825 877.714 165.986C877.293 166.142 876.798 166.22 876.23 166.22ZM876.897 164.331C877.413 164.331 877.861 164.229 878.24 164.026C878.618 163.817 878.91 163.543 879.113 163.202C879.322 162.861 879.426 162.489 879.426 162.087V160.801C879.345 160.867 879.208 160.929 879.014 160.986C878.824 161.043 878.611 161.092 878.375 161.135C878.138 161.178 877.904 161.215 877.672 161.249C877.44 161.282 877.238 161.31 877.068 161.334C876.684 161.386 876.341 161.471 876.038 161.589C875.735 161.708 875.496 161.874 875.321 162.087C875.145 162.295 875.058 162.565 875.058 162.896C875.058 163.37 875.231 163.727 875.576 163.969C875.922 164.21 876.362 164.331 876.897 164.331ZM892.107 159.608V166H889.536V155.091H891.993V156.945H892.121C892.372 156.334 892.772 155.848 893.321 155.489C893.875 155.129 894.56 154.949 895.374 154.949C896.127 154.949 896.783 155.11 897.341 155.432C897.905 155.754 898.34 156.22 898.648 156.831C898.961 157.442 899.114 158.183 899.11 159.054V166H896.539V159.452C896.539 158.723 896.349 158.152 895.971 157.74C895.596 157.328 895.078 157.122 894.415 157.122C893.965 157.122 893.565 157.222 893.215 157.42C892.869 157.615 892.597 157.896 892.398 158.266C892.204 158.635 892.107 159.082 892.107 159.608ZM906.482 166.213C905.417 166.213 904.493 165.979 903.712 165.51C902.931 165.041 902.325 164.385 901.894 163.543C901.468 162.7 901.255 161.715 901.255 160.588C901.255 159.461 901.468 158.474 901.894 157.626C902.325 156.779 902.931 156.121 903.712 155.652C904.493 155.183 905.417 154.949 906.482 154.949C907.547 154.949 908.471 155.183 909.252 155.652C910.033 156.121 910.637 156.779 911.063 157.626C911.494 158.474 911.709 159.461 911.709 160.588C911.709 161.715 911.494 162.7 911.063 163.543C910.637 164.385 910.033 165.041 909.252 165.51C908.471 165.979 907.547 166.213 906.482 166.213ZM906.496 164.153C907.074 164.153 907.557 163.995 907.945 163.678C908.333 163.356 908.622 162.925 908.811 162.385C909.006 161.845 909.103 161.244 909.103 160.581C909.103 159.913 909.006 159.31 908.811 158.77C908.622 158.225 908.333 157.792 907.945 157.47C907.557 157.148 907.074 156.987 906.496 156.987C905.904 156.987 905.412 157.148 905.019 157.47C904.631 157.792 904.339 158.225 904.145 158.77C903.956 159.31 903.861 159.913 903.861 160.581C903.861 161.244 903.956 161.845 904.145 162.385C904.339 162.925 904.631 163.356 905.019 163.678C905.412 163.995 905.904 164.153 906.496 164.153ZM919.339 155.091V157.08H913.067V155.091H919.339ZM914.616 152.477H917.187V162.719C917.187 163.064 917.239 163.33 917.343 163.514C917.452 163.694 917.594 163.817 917.769 163.884C917.944 163.95 918.138 163.983 918.352 163.983C918.513 163.983 918.659 163.971 918.792 163.947C918.929 163.924 919.033 163.902 919.104 163.884L919.538 165.893C919.4 165.941 919.204 165.993 918.948 166.05C918.697 166.107 918.389 166.14 918.025 166.149C917.381 166.168 916.801 166.071 916.285 165.858C915.769 165.64 915.359 165.304 915.056 164.849C914.758 164.395 914.611 163.827 914.616 163.145V152.477ZM924.628 166.22C923.937 166.22 923.314 166.097 922.76 165.851C922.211 165.6 921.775 165.231 921.453 164.743C921.136 164.255 920.978 163.654 920.978 162.939C920.978 162.323 921.091 161.814 921.319 161.412C921.546 161.009 921.856 160.688 922.249 160.446C922.642 160.205 923.085 160.022 923.577 159.899C924.074 159.771 924.588 159.679 925.118 159.622C925.757 159.556 926.276 159.497 926.674 159.445C927.071 159.388 927.36 159.303 927.54 159.189C927.725 159.071 927.817 158.888 927.817 158.642V158.599C927.817 158.064 927.658 157.65 927.341 157.357C927.024 157.063 926.567 156.916 925.971 156.916C925.341 156.916 924.841 157.054 924.472 157.328C924.107 157.603 923.861 157.927 923.733 158.301L921.333 157.96C921.522 157.297 921.835 156.743 922.27 156.298C922.706 155.848 923.239 155.512 923.868 155.29C924.498 155.062 925.194 154.949 925.956 154.949C926.482 154.949 927.005 155.01 927.526 155.134C928.047 155.257 928.523 155.46 928.953 155.744C929.384 156.024 929.73 156.405 929.99 156.888C930.256 157.371 930.388 157.974 930.388 158.699V166H927.917V164.501H927.831C927.675 164.804 927.455 165.089 927.171 165.354C926.891 165.614 926.539 165.825 926.113 165.986C925.691 166.142 925.196 166.22 924.628 166.22ZM925.296 164.331C925.812 164.331 926.259 164.229 926.638 164.026C927.017 163.817 927.308 163.543 927.512 163.202C927.72 162.861 927.824 162.489 927.824 162.087V160.801C927.744 160.867 927.606 160.929 927.412 160.986C927.223 161.043 927.01 161.092 926.773 161.135C926.536 161.178 926.302 161.215 926.07 161.249C925.838 161.282 925.637 161.31 925.466 161.334C925.083 161.386 924.739 161.471 924.436 161.589C924.133 161.708 923.894 161.874 923.719 162.087C923.544 162.295 923.456 162.565 923.456 162.896C923.456 163.37 923.629 163.727 923.975 163.969C924.32 164.21 924.761 164.331 925.296 164.331ZM936.12 151.455L935.885 161.724H933.598L933.371 151.455H936.12ZM934.742 166.156C934.311 166.156 933.942 166.005 933.634 165.702C933.331 165.399 933.179 165.029 933.179 164.594C933.179 164.168 933.331 163.803 933.634 163.5C933.942 163.197 934.311 163.045 934.742 163.045C935.163 163.045 935.528 163.197 935.836 163.5C936.148 163.803 936.304 164.168 936.304 164.594C936.304 164.883 936.231 165.145 936.084 165.382C935.942 165.619 935.753 165.808 935.516 165.95C935.284 166.088 935.026 166.156 934.742 166.156Z" fill="white"/>
<path d="M1259.25 156.489V164.557M1265.44 156.489V164.557M1271.62 151.109V167.247C1271.62 168.732 1270.24 169.937 1268.53 169.937H1256.15C1254.45 169.937 1253.06 168.732 1253.06 167.247V151.109M1249.97 151.109H1274.72M1266.98 151.109V149.765C1266.98 148.279 1265.6 147.075 1263.89 147.075H1260.8C1259.09 147.075 1257.7 148.279 1257.7 149.765V151.109" stroke="#E60000" stroke-width="2" stroke-linecap="round" stroke-linejoin="round"/>
<path d="M1018.77 89.3636V101H1016.66V91.4148H1016.59L1013.87 93.1534V91.2216L1016.76 89.3636H1018.77ZM1027.77 95.8864V101H1025.71V92.2727H1027.68V93.7557H1027.78C1027.98 93.267 1028.3 92.8788 1028.74 92.5909C1029.18 92.303 1029.73 92.1591 1030.38 92.1591C1030.99 92.1591 1031.51 92.2879 1031.96 92.5455C1032.41 92.803 1032.76 93.1761 1033 93.6648C1033.25 94.1534 1033.38 94.7462 1033.37 95.4432V101H1031.32V95.7614C1031.32 95.178 1031.16 94.7216 1030.86 94.392C1030.56 94.0625 1030.15 93.8977 1029.62 93.8977C1029.26 93.8977 1028.94 93.9773 1028.66 94.1364C1028.38 94.2917 1028.16 94.517 1028 94.8125C1027.85 95.108 1027.77 95.4659 1027.77 95.8864ZM1039.27 101.17C1038.42 101.17 1037.68 100.983 1037.05 100.608C1036.43 100.233 1035.94 99.7083 1035.6 99.0341C1035.26 98.3598 1035.09 97.572 1035.09 96.6705C1035.09 95.7689 1035.26 94.9792 1035.6 94.3011C1035.94 93.6231 1036.43 93.0966 1037.05 92.7216C1037.68 92.3466 1038.42 92.1591 1039.27 92.1591C1040.12 92.1591 1040.86 92.3466 1041.49 92.7216C1042.11 93.0966 1042.59 93.6231 1042.93 94.3011C1043.28 94.9792 1043.45 95.7689 1043.45 96.6705C1043.45 97.572 1043.28 98.3598 1042.93 99.0341C1042.59 99.7083 1042.11 100.233 1041.49 100.608C1040.86 100.983 1040.12 101.17 1039.27 101.17ZM1039.28 99.5227C1039.74 99.5227 1040.13 99.3958 1040.44 99.142C1040.75 98.8845 1040.98 98.5398 1041.13 98.108C1041.29 97.6761 1041.37 97.1951 1041.37 96.6648C1041.37 96.1307 1041.29 95.6477 1041.13 95.2159C1040.98 94.7803 1040.75 94.4337 1040.44 94.1761C1040.13 93.9186 1039.74 93.7898 1039.28 93.7898C1038.81 93.7898 1038.41 93.9186 1038.1 94.1761C1037.79 94.4337 1037.56 94.7803 1037.4 95.2159C1037.25 95.6477 1037.17 96.1307 1037.17 96.6648C1037.17 97.1951 1037.25 97.6761 1037.4 98.108C1037.56 98.5398 1037.79 98.8845 1038.1 99.142C1038.41 99.3958 1038.81 99.5227 1039.28 99.5227ZM1049.56 92.2727V93.8636H1044.54V92.2727H1049.56ZM1045.78 90.1818H1047.83V98.375C1047.83 98.6515 1047.88 98.8636 1047.96 99.0114C1048.05 99.1553 1048.16 99.2538 1048.3 99.3068C1048.44 99.3598 1048.6 99.3864 1048.77 99.3864C1048.89 99.3864 1049.01 99.3769 1049.12 99.358C1049.23 99.339 1049.31 99.322 1049.37 99.3068L1049.71 100.915C1049.6 100.953 1049.45 100.994 1049.24 101.04C1049.04 101.085 1048.8 101.112 1048.5 101.119C1047.99 101.134 1047.53 101.057 1047.11 100.886C1046.7 100.712 1046.37 100.443 1046.13 100.08C1045.89 99.7159 1045.77 99.2614 1045.78 98.7159V90.1818ZM1053.79 101.176C1053.23 101.176 1052.74 101.078 1052.29 100.881C1051.85 100.68 1051.5 100.384 1051.25 99.9943C1050.99 99.6042 1050.87 99.1231 1050.87 98.5511C1050.87 98.0587 1050.96 97.6515 1051.14 97.3295C1051.32 97.0076 1051.57 96.75 1051.88 96.5568C1052.2 96.3636 1052.55 96.2178 1052.95 96.1193C1053.34 96.017 1053.75 95.9432 1054.18 95.8977C1054.69 95.8447 1055.11 95.7973 1055.42 95.7557C1055.74 95.7102 1055.97 95.642 1056.12 95.5511C1056.26 95.4564 1056.34 95.3106 1056.34 95.1136V95.0795C1056.34 94.6515 1056.21 94.3201 1055.96 94.0852C1055.7 93.8504 1055.34 93.733 1054.86 93.733C1054.36 93.733 1053.96 93.8428 1053.66 94.0625C1053.37 94.2822 1053.17 94.5417 1053.07 94.8409L1051.15 94.5682C1051.3 94.0379 1051.55 93.5947 1051.9 93.2386C1052.25 92.8788 1052.68 92.6098 1053.18 92.4318C1053.68 92.25 1054.24 92.1591 1054.85 92.1591C1055.27 92.1591 1055.69 92.2083 1056.11 92.3068C1056.52 92.4053 1056.9 92.5682 1057.25 92.7955C1057.59 93.0189 1057.87 93.3239 1058.08 93.7102C1058.29 94.0966 1058.39 94.5795 1058.39 95.1591V101H1056.42V99.8011H1056.35C1056.22 100.044 1056.05 100.271 1055.82 100.483C1055.6 100.691 1055.32 100.86 1054.97 100.989C1054.64 101.114 1054.24 101.176 1053.79 101.176ZM1054.32 99.6648C1054.73 99.6648 1055.09 99.5833 1055.39 99.4205C1055.7 99.2538 1055.93 99.0341 1056.09 98.7614C1056.26 98.4886 1056.34 98.1913 1056.34 97.8693V96.8409C1056.28 96.8939 1056.17 96.9432 1056.01 96.9886C1055.86 97.0341 1055.69 97.0739 1055.5 97.108C1055.31 97.142 1055.13 97.1723 1054.94 97.1989C1054.75 97.2254 1054.59 97.2481 1054.46 97.267C1054.15 97.3087 1053.88 97.3769 1053.63 97.4716C1053.39 97.5663 1053.2 97.6989 1053.06 97.8693C1052.92 98.036 1052.85 98.2519 1052.85 98.517C1052.85 98.8958 1052.99 99.1818 1053.26 99.375C1053.54 99.5682 1053.89 99.6648 1054.32 99.6648Z" fill="white" fill-opacity="0.22"/>
<rect x="737" y="20" width="600" height="984" rx="14" fill="black" fill-opacity="0.5"/>
<rect x="785.5" y="317.5" width="507" height="300" rx="7.5" fill="#222222" stroke="#8600F0" stroke-width="3"/>
<rect x="820.5" y="429.5" width="439" height="54" rx="6.5" fill="#222222" stroke="#8600F0" stroke-width="3"/>
<rect x="1051" y="535" width="165" height="44" rx="4" fill="#8600F0"/>
<path d="M1110.15 552.638C1110.1 552.065 1109.85 551.62 1109.42 551.303C1108.99 550.985 1108.41 550.827 1107.67 550.827C1107.17 550.827 1106.74 550.898 1106.4 551.04C1106.05 551.177 1105.79 551.369 1105.6 551.615C1105.42 551.861 1105.33 552.141 1105.33 552.453C1105.32 552.714 1105.38 552.941 1105.5 553.135C1105.62 553.329 1105.79 553.497 1106 553.639C1106.21 553.777 1106.46 553.897 1106.74 554.001C1107.02 554.101 1107.32 554.186 1107.63 554.257L1108.94 554.57C1109.57 554.712 1110.16 554.901 1110.69 555.138C1111.22 555.375 1111.68 555.666 1112.07 556.011C1112.45 556.357 1112.75 556.764 1112.97 557.233C1113.19 557.702 1113.3 558.239 1113.3 558.845C1113.3 559.735 1113.07 560.507 1112.62 561.161C1112.17 561.809 1111.53 562.313 1110.69 562.673C1109.85 563.028 1108.84 563.206 1107.65 563.206C1106.48 563.206 1105.46 563.026 1104.59 562.666C1103.72 562.306 1103.04 561.774 1102.56 561.068C1102.07 560.358 1101.82 559.48 1101.8 558.433H1104.77C1104.8 558.921 1104.94 559.328 1105.19 559.655C1105.44 559.977 1105.78 560.221 1106.19 560.386C1106.61 560.547 1107.09 560.628 1107.62 560.628C1108.14 560.628 1108.59 560.552 1108.98 560.401C1109.36 560.249 1109.66 560.038 1109.88 559.768C1110.09 559.499 1110.2 559.188 1110.2 558.838C1110.2 558.511 1110.1 558.237 1109.91 558.014C1109.72 557.792 1109.44 557.602 1109.07 557.446C1108.7 557.29 1108.26 557.148 1107.73 557.02L1106.14 556.622C1104.92 556.324 1103.95 555.857 1103.24 555.223C1102.53 554.589 1102.17 553.734 1102.18 552.659C1102.17 551.778 1102.41 551.009 1102.88 550.351C1103.36 549.693 1104.02 549.179 1104.85 548.81C1105.68 548.44 1106.63 548.256 1107.69 548.256C1108.77 548.256 1109.71 548.44 1110.52 548.81C1111.33 549.179 1111.96 549.693 1112.41 550.351C1112.86 551.009 1113.09 551.771 1113.1 552.638H1110.15ZM1118.42 563.206C1117.73 563.206 1117.11 563.085 1116.56 562.844C1116.02 562.598 1115.59 562.235 1115.27 561.757C1114.96 561.274 1114.8 560.673 1114.8 559.953C1114.8 559.347 1114.91 558.838 1115.14 558.426C1115.36 558.014 1115.66 557.683 1116.04 557.432C1116.43 557.181 1116.86 556.991 1117.35 556.864C1117.84 556.736 1118.36 556.646 1118.9 556.594C1119.53 556.527 1120.05 556.466 1120.43 556.409C1120.82 556.348 1121.1 556.258 1121.28 556.139C1121.45 556.021 1121.54 555.846 1121.54 555.614V555.571C1121.54 555.121 1121.4 554.773 1121.12 554.527C1120.84 554.281 1120.44 554.158 1119.92 554.158C1119.38 554.158 1118.94 554.278 1118.62 554.52C1118.3 554.757 1118.09 555.055 1117.98 555.415L1115.19 555.188C1115.33 554.525 1115.61 553.952 1116.02 553.469C1116.44 552.981 1116.98 552.607 1117.64 552.347C1118.3 552.081 1119.07 551.949 1119.94 551.949C1120.54 551.949 1121.12 552.02 1121.68 552.162C1122.24 552.304 1122.73 552.524 1123.16 552.822C1123.6 553.121 1123.94 553.504 1124.19 553.973C1124.44 554.437 1124.57 554.993 1124.57 555.642V563H1121.7V561.487H1121.61C1121.44 561.828 1121.2 562.129 1120.91 562.389C1120.62 562.645 1120.26 562.846 1119.85 562.993C1119.44 563.135 1118.96 563.206 1118.42 563.206ZM1119.29 561.118C1119.74 561.118 1120.13 561.03 1120.47 560.855C1120.81 560.675 1121.08 560.434 1121.27 560.131C1121.47 559.828 1121.56 559.484 1121.56 559.101V557.943C1121.47 558.005 1121.34 558.062 1121.17 558.114C1121.01 558.161 1120.83 558.206 1120.63 558.249C1120.42 558.286 1120.22 558.322 1120.01 558.355C1119.81 558.384 1119.63 558.41 1119.46 558.433C1119.11 558.485 1118.8 558.568 1118.53 558.682C1118.27 558.795 1118.06 558.949 1117.91 559.143C1117.77 559.333 1117.69 559.57 1117.69 559.854C1117.69 560.266 1117.84 560.58 1118.14 560.798C1118.44 561.011 1118.83 561.118 1119.29 561.118ZM1129.94 548.455V563H1126.91V548.455H1129.94ZM1142.53 552.091L1138.72 563H1135.31L1131.5 552.091H1134.69L1136.96 559.896H1137.07L1139.33 552.091H1142.53ZM1146.9 563.206C1146.2 563.206 1145.58 563.085 1145.04 562.844C1144.49 562.598 1144.06 562.235 1143.75 561.757C1143.43 561.274 1143.28 560.673 1143.28 559.953C1143.28 559.347 1143.39 558.838 1143.61 558.426C1143.83 558.014 1144.14 557.683 1144.52 557.432C1144.9 557.181 1145.34 556.991 1145.83 556.864C1146.32 556.736 1146.84 556.646 1147.38 556.594C1148.01 556.527 1148.52 556.466 1148.91 556.409C1149.3 556.348 1149.58 556.258 1149.76 556.139C1149.93 556.021 1150.02 555.846 1150.02 555.614V555.571C1150.02 555.121 1149.88 554.773 1149.59 554.527C1149.31 554.281 1148.91 554.158 1148.4 554.158C1147.85 554.158 1147.42 554.278 1147.1 554.52C1146.78 554.757 1146.56 555.055 1146.46 555.415L1143.66 555.188C1143.8 554.525 1144.08 553.952 1144.5 553.469C1144.92 552.981 1145.45 552.607 1146.11 552.347C1146.77 552.081 1147.54 551.949 1148.41 551.949C1149.02 551.949 1149.6 552.02 1150.15 552.162C1150.71 552.304 1151.21 552.524 1151.64 552.822C1152.07 553.121 1152.42 553.504 1152.67 553.973C1152.92 554.437 1153.04 554.993 1153.04 555.642V563H1150.17V561.487H1150.09C1149.91 561.828 1149.68 562.129 1149.39 562.389C1149.09 562.645 1148.74 562.846 1148.33 562.993C1147.92 563.135 1147.44 563.206 1146.9 563.206ZM1147.77 561.118C1148.21 561.118 1148.6 561.03 1148.95 560.855C1149.29 560.675 1149.55 560.434 1149.75 560.131C1149.94 559.828 1150.04 559.484 1150.04 559.101V557.943C1149.94 558.005 1149.81 558.062 1149.65 558.114C1149.49 558.161 1149.31 558.206 1149.1 558.249C1148.9 558.286 1148.69 558.322 1148.49 558.355C1148.29 558.384 1148.1 558.41 1147.94 558.433C1147.58 558.485 1147.27 558.568 1147.01 558.682C1146.74 558.795 1146.54 558.949 1146.39 559.143C1146.24 559.333 1146.17 559.57 1146.17 559.854C1146.17 560.266 1146.32 560.58 1146.62 560.798C1146.92 561.011 1147.3 561.118 1147.77 561.118ZM1155.39 563V552.091H1158.32V553.994H1158.44C1158.64 553.317 1158.97 552.806 1159.44 552.46C1159.91 552.11 1160.45 551.935 1161.06 551.935C1161.21 551.935 1161.37 551.944 1161.55 551.963C1161.72 551.982 1161.88 552.008 1162.01 552.041V554.726C1161.87 554.683 1161.67 554.645 1161.42 554.612C1161.17 554.579 1160.94 554.562 1160.73 554.562C1160.29 554.562 1159.89 554.66 1159.54 554.854C1159.19 555.043 1158.92 555.308 1158.71 555.649C1158.52 555.99 1158.42 556.383 1158.42 556.828V563H1155.39Z" fill="white"/>
<rect x="861" y="535" width="165" height="44" rx="4" fill="#E60000"/>
<path d="M911.098 553.547H907.987C907.93 553.144 907.814 552.787 907.639 552.474C907.464 552.157 907.239 551.887 906.964 551.665C906.69 551.442 906.373 551.272 906.013 551.153C905.658 551.035 905.272 550.976 904.855 550.976C904.102 550.976 903.446 551.163 902.888 551.537C902.329 551.906 901.896 552.446 901.588 553.156C901.28 553.862 901.126 554.719 901.126 555.727C901.126 556.764 901.28 557.635 901.588 558.341C901.901 559.046 902.336 559.579 902.895 559.939C903.454 560.299 904.1 560.479 904.834 560.479C905.246 560.479 905.627 560.424 905.977 560.315C906.332 560.206 906.647 560.048 906.922 559.839C907.196 559.626 907.424 559.368 907.604 559.065C907.788 558.762 907.916 558.417 907.987 558.028L911.098 558.043C911.018 558.71 910.816 559.354 910.494 559.974C910.177 560.59 909.749 561.142 909.209 561.629C908.674 562.112 908.035 562.496 907.291 562.78C906.553 563.059 905.717 563.199 904.784 563.199C903.487 563.199 902.327 562.905 901.304 562.318C900.286 561.731 899.481 560.881 898.889 559.768C898.302 558.656 898.009 557.309 898.009 555.727C898.009 554.141 898.307 552.792 898.903 551.679C899.5 550.566 900.31 549.719 901.332 549.136C902.355 548.549 903.506 548.256 904.784 548.256C905.627 548.256 906.408 548.374 907.128 548.611C907.852 548.848 908.494 549.193 909.053 549.648C909.611 550.098 910.066 550.649 910.416 551.303C910.771 551.956 910.999 552.704 911.098 553.547ZM916.357 563.206C915.661 563.206 915.041 563.085 914.496 562.844C913.952 562.598 913.521 562.235 913.204 561.757C912.891 561.274 912.735 560.673 912.735 559.953C912.735 559.347 912.846 558.838 913.069 558.426C913.291 558.014 913.594 557.683 913.978 557.432C914.362 557.181 914.797 556.991 915.285 556.864C915.777 556.736 916.293 556.646 916.833 556.594C917.468 556.527 917.979 556.466 918.367 556.409C918.755 556.348 919.037 556.258 919.212 556.139C919.388 556.021 919.475 555.846 919.475 555.614V555.571C919.475 555.121 919.333 554.773 919.049 554.527C918.77 554.281 918.372 554.158 917.856 554.158C917.311 554.158 916.878 554.278 916.556 554.52C916.234 554.757 916.021 555.055 915.917 555.415L913.119 555.188C913.261 554.525 913.54 553.952 913.957 553.469C914.373 552.981 914.911 552.607 915.569 552.347C916.232 552.081 916.999 551.949 917.87 551.949C918.476 551.949 919.056 552.02 919.61 552.162C920.169 552.304 920.664 552.524 921.094 552.822C921.53 553.121 921.873 553.504 922.124 553.973C922.375 554.437 922.501 554.993 922.501 555.642V563H919.631V561.487H919.546C919.371 561.828 919.137 562.129 918.843 562.389C918.549 562.645 918.197 562.846 917.785 562.993C917.373 563.135 916.897 563.206 916.357 563.206ZM917.224 561.118C917.669 561.118 918.062 561.03 918.403 560.855C918.744 560.675 919.011 560.434 919.205 560.131C919.399 559.828 919.496 559.484 919.496 559.101V557.943C919.402 558.005 919.272 558.062 919.106 558.114C918.945 558.161 918.763 558.206 918.559 558.249C918.355 558.286 918.152 558.322 917.948 558.355C917.745 558.384 917.56 558.41 917.394 558.433C917.039 558.485 916.729 558.568 916.464 558.682C916.199 558.795 915.993 558.949 915.846 559.143C915.699 559.333 915.626 559.57 915.626 559.854C915.626 560.266 915.775 560.58 916.073 560.798C916.376 561.011 916.76 561.118 917.224 561.118ZM927.874 556.693V563H924.848V552.091H927.732V554.016H927.859C928.101 553.381 928.506 552.879 929.074 552.51C929.642 552.136 930.331 551.949 931.141 551.949C931.898 551.949 932.559 552.115 933.122 552.446C933.686 552.777 934.124 553.251 934.436 553.866C934.749 554.477 934.905 555.206 934.905 556.054V563H931.879V556.594C931.884 555.926 931.714 555.405 931.368 555.031C931.022 554.652 930.546 554.463 929.94 554.463C929.533 554.463 929.173 554.551 928.861 554.726C928.553 554.901 928.312 555.157 928.136 555.493C927.966 555.824 927.878 556.224 927.874 556.693ZM942.218 563.213C941.101 563.213 940.14 562.976 939.335 562.503C938.535 562.025 937.919 561.362 937.488 560.514C937.062 559.667 936.849 558.691 936.849 557.588C936.849 556.471 937.065 555.491 937.495 554.648C937.931 553.8 938.549 553.14 939.349 552.666C940.149 552.188 941.101 551.949 942.204 551.949C943.156 551.949 943.989 552.122 944.704 552.467C945.419 552.813 945.985 553.298 946.402 553.923C946.818 554.548 947.048 555.282 947.091 556.125H944.235C944.155 555.58 943.942 555.143 943.596 554.811C943.255 554.475 942.808 554.307 942.254 554.307C941.785 554.307 941.376 554.435 941.025 554.69C940.68 554.941 940.41 555.308 940.216 555.791C940.021 556.274 939.924 556.859 939.924 557.545C939.924 558.241 940.019 558.833 940.208 559.321C940.403 559.809 940.675 560.18 941.025 560.436C941.376 560.692 941.785 560.82 942.254 560.82C942.6 560.82 942.91 560.749 943.184 560.607C943.464 560.464 943.693 560.259 943.873 559.989C944.058 559.714 944.179 559.385 944.235 559.001H947.091C947.043 559.835 946.816 560.569 946.409 561.203C946.006 561.833 945.45 562.325 944.74 562.68C944.029 563.036 943.189 563.213 942.218 563.213ZM953.999 563.213C952.877 563.213 951.911 562.986 951.102 562.531C950.297 562.072 949.676 561.423 949.241 560.585C948.805 559.742 948.587 558.746 948.587 557.595C948.587 556.473 948.805 555.488 949.241 554.641C949.676 553.793 950.29 553.133 951.08 552.659C951.876 552.186 952.808 551.949 953.879 551.949C954.598 551.949 955.268 552.065 955.888 552.297C956.513 552.524 957.058 552.867 957.522 553.327C957.991 553.786 958.355 554.364 958.616 555.06C958.876 555.751 959.006 556.561 959.006 557.489V558.32H949.795V556.445H956.158C956.158 556.009 956.064 555.623 955.874 555.287C955.685 554.951 955.422 554.688 955.086 554.499C954.754 554.304 954.369 554.207 953.928 554.207C953.469 554.207 953.062 554.314 952.707 554.527C952.356 554.735 952.082 555.017 951.883 555.372C951.684 555.723 951.582 556.113 951.577 556.544V558.327C951.577 558.866 951.677 559.333 951.876 559.726C952.079 560.119 952.366 560.422 952.735 560.635C953.104 560.848 953.542 560.955 954.049 560.955C954.385 560.955 954.693 560.907 954.972 560.812C955.252 560.718 955.491 560.576 955.69 560.386C955.888 560.197 956.04 559.965 956.144 559.69L958.942 559.875C958.8 560.547 958.509 561.134 958.069 561.636C957.633 562.134 957.07 562.522 956.379 562.801C955.692 563.076 954.899 563.213 953.999 563.213ZM964.006 548.455V563H960.981V548.455H964.006ZM969.541 563.206C968.845 563.206 968.225 563.085 967.68 562.844C967.136 562.598 966.705 562.235 966.387 561.757C966.075 561.274 965.919 560.673 965.919 559.953C965.919 559.347 966.03 558.838 966.252 558.426C966.475 558.014 966.778 557.683 967.162 557.432C967.545 557.181 967.981 556.991 968.468 556.864C968.961 556.736 969.477 556.646 970.017 556.594C970.651 556.527 971.163 556.466 971.551 556.409C971.939 556.348 972.221 556.258 972.396 556.139C972.571 556.021 972.659 555.846 972.659 555.614V555.571C972.659 555.121 972.517 554.773 972.233 554.527C971.953 554.281 971.556 554.158 971.039 554.158C970.495 554.158 970.062 554.278 969.74 554.52C969.418 554.757 969.205 555.055 969.1 555.415L966.302 555.188C966.444 554.525 966.724 553.952 967.14 553.469C967.557 552.981 968.094 552.607 968.752 552.347C969.415 552.081 970.182 551.949 971.054 551.949C971.66 551.949 972.24 552.02 972.794 552.162C973.352 552.304 973.847 552.524 974.278 552.822C974.714 553.121 975.057 553.504 975.308 553.973C975.559 554.437 975.684 554.993 975.684 555.642V563H972.815V561.487H972.73C972.555 561.828 972.32 562.129 972.027 562.389C971.733 562.645 971.38 562.846 970.968 562.993C970.556 563.135 970.081 563.206 969.541 563.206ZM970.407 561.118C970.852 561.118 971.245 561.03 971.586 560.855C971.927 560.675 972.195 560.434 972.389 560.131C972.583 559.828 972.68 559.484 972.68 559.101V557.943C972.585 558.005 972.455 558.062 972.289 558.114C972.128 558.161 971.946 558.206 971.743 558.249C971.539 558.286 971.335 558.322 971.132 558.355C970.928 558.384 970.743 558.41 970.578 558.433C970.223 558.485 969.913 558.568 969.647 558.682C969.382 558.795 969.176 558.949 969.029 559.143C968.883 559.333 968.809 559.57 968.809 559.854C968.809 560.266 968.958 560.58 969.257 560.798C969.56 561.011 969.943 561.118 970.407 561.118ZM978.032 563V552.091H980.965V553.994H981.078C981.277 553.317 981.611 552.806 982.08 552.46C982.549 552.11 983.088 551.935 983.699 551.935C983.851 551.935 984.014 551.944 984.189 551.963C984.364 551.982 984.518 552.008 984.651 552.041V554.726C984.509 554.683 984.312 554.645 984.061 554.612C983.81 554.579 983.581 554.562 983.373 554.562C982.927 554.562 982.53 554.66 982.179 554.854C981.834 555.043 981.559 555.308 981.355 555.649C981.157 555.99 981.057 556.383 981.057 556.828V563H978.032Z" fill="white"/>
<line x1="931.981" y1="387.5" x2="1146.02" y2="387.5" stroke="#8600F0" stroke-width="3"/>
<path d="M956.175 351.818V378H951.393L940.003 361.521H939.811V378H934.276V351.818H939.134L950.435 368.284H950.665V351.818H956.175ZM984.808 364.909C984.808 367.764 984.267 370.193 983.184 372.196C982.11 374.199 980.645 375.729 978.787 376.786C976.937 377.834 974.858 378.358 972.548 378.358C970.221 378.358 968.133 377.83 966.284 376.773C964.434 375.716 962.973 374.186 961.899 372.183C960.825 370.18 960.288 367.756 960.288 364.909C960.288 362.054 960.825 359.625 961.899 357.622C962.973 355.619 964.434 354.094 966.284 353.045C968.133 351.989 970.221 351.46 972.548 351.46C974.858 351.46 976.937 351.989 978.787 353.045C980.645 354.094 982.11 355.619 983.184 357.622C984.267 359.625 984.808 362.054 984.808 364.909ZM979.196 364.909C979.196 363.06 978.919 361.5 978.365 360.23C977.819 358.96 977.048 357.997 976.051 357.341C975.054 356.685 973.886 356.357 972.548 356.357C971.21 356.357 970.042 356.685 969.045 357.341C968.048 357.997 967.272 358.96 966.718 360.23C966.173 361.5 965.9 363.06 965.9 364.909C965.9 366.759 966.173 368.318 966.718 369.588C967.272 370.858 968.048 371.821 969.045 372.477C970.042 373.134 971.21 373.462 972.548 373.462C973.886 373.462 975.054 373.134 976.051 372.477C977.048 371.821 977.819 370.858 978.365 369.588C978.919 368.318 979.196 366.759 979.196 364.909ZM992.162 351.818L998.49 371.71H998.733L1005.07 351.818H1011.21L1002.18 378H995.051L986.013 351.818H992.162ZM1015.39 378H1009.46L1018.5 351.818H1025.63L1034.66 378H1028.73L1022.17 357.801H1021.96L1015.39 378ZM1015.02 367.709H1029.03V372.03H1015.02V367.709ZM1068.04 351.818V378H1063.26L1051.87 361.521H1051.68V378H1046.14V351.818H1051L1062.3 368.284H1062.53V351.818H1068.04ZM1096.68 364.909C1096.68 367.764 1096.13 370.193 1095.05 372.196C1093.98 374.199 1092.51 375.729 1090.65 376.786C1088.8 377.834 1086.72 378.358 1084.42 378.358C1082.09 378.358 1080 377.83 1078.15 376.773C1076.3 375.716 1074.84 374.186 1073.77 372.183C1072.69 370.18 1072.16 367.756 1072.16 364.909C1072.16 362.054 1072.69 359.625 1073.77 357.622C1074.84 355.619 1076.3 354.094 1078.15 353.045C1080 351.989 1082.09 351.46 1084.42 351.46C1086.72 351.46 1088.8 351.989 1090.65 353.045C1092.51 354.094 1093.98 355.619 1095.05 357.622C1096.13 359.625 1096.68 362.054 1096.68 364.909ZM1091.06 364.909C1091.06 363.06 1090.79 361.5 1090.23 360.23C1089.69 358.96 1088.92 357.997 1087.92 357.341C1086.92 356.685 1085.75 356.357 1084.42 356.357C1083.08 356.357 1081.91 356.685 1080.91 357.341C1079.92 357.997 1079.14 358.96 1078.59 360.23C1078.04 361.5 1077.77 363.06 1077.77 364.909C1077.77 366.759 1078.04 368.318 1078.59 369.588C1079.14 370.858 1079.92 371.821 1080.91 372.477C1081.91 373.134 1083.08 373.462 1084.42 373.462C1085.75 373.462 1086.92 373.134 1087.92 372.477C1088.92 371.821 1089.69 370.858 1090.23 369.588C1090.79 368.318 1091.06 366.759 1091.06 364.909ZM1098.58 356.382V351.818H1120.09V356.382H1112.07V378H1106.6V356.382H1098.58ZM1124.94 378H1119.01L1128.05 351.818H1135.18L1144.21 378H1138.27L1131.72 357.801H1131.51L1124.94 378ZM1124.57 367.709H1138.58V372.03H1124.57V367.709Z" fill="white"/>
</g>
<rect x="738.5" y="21.5" width="597" height="981" rx="28.5" stroke="white" stroke-opacity="0.1" stroke-width="3"/>
<defs>
<clipPath id="clip0_22_6">
<rect x="737" y="20" width="600" height="984" rx="30" fill="white"/>
</clipPath>
</defs>
</svg>
