<svg width="1440" height="1024" viewBox="0 0 1440 1024" fill="none" xmlns="http://www.w3.org/2000/svg">
<rect width="1440" height="1024" fill="#FBFBFB"/>
<path d="M571.614 221.818H579.977L584.182 227.227L588.318 232.045L596.114 241.818H586.932L581.568 235.227L578.818 231.318L571.614 221.818ZM596.818 214.727C596.818 219.803 595.856 224.121 593.932 227.682C592.023 231.242 589.417 233.962 586.114 235.841C582.826 237.705 579.129 238.636 575.023 238.636C570.886 238.636 567.174 237.697 563.886 235.818C560.598 233.939 558 231.22 556.091 227.659C554.182 224.098 553.227 219.788 553.227 214.727C553.227 209.652 554.182 205.333 556.091 201.773C558 198.212 560.598 195.5 563.886 193.636C567.174 191.758 570.886 190.818 575.023 190.818C579.129 190.818 582.826 191.758 586.114 193.636C589.417 195.5 592.023 198.212 593.932 201.773C595.856 205.333 596.818 209.652 596.818 214.727ZM586.841 214.727C586.841 211.439 586.348 208.667 585.364 206.409C584.394 204.152 583.023 202.439 581.25 201.273C579.477 200.106 577.402 199.523 575.023 199.523C572.644 199.523 570.568 200.106 568.795 201.273C567.023 202.439 565.644 204.152 564.659 206.409C563.689 208.667 563.205 211.439 563.205 214.727C563.205 218.015 563.689 220.788 564.659 223.045C565.644 225.303 567.023 227.015 568.795 228.182C570.568 229.348 572.644 229.932 575.023 229.932C577.402 229.932 579.477 229.348 581.25 228.182C583.023 227.015 584.394 225.303 585.364 223.045C586.348 220.788 586.841 218.015 586.841 214.727ZM604.108 238V191.455H622.472C625.987 191.455 628.987 192.083 631.472 193.341C633.972 194.583 635.873 196.348 637.176 198.636C638.494 200.909 639.153 203.583 639.153 206.659C639.153 209.75 638.487 212.409 637.153 214.636C635.82 216.848 633.888 218.545 631.358 219.727C628.843 220.909 625.797 221.5 622.222 221.5H609.926V213.591H620.631C622.509 213.591 624.07 213.333 625.312 212.818C626.555 212.303 627.479 211.53 628.085 210.5C628.706 209.47 629.017 208.189 629.017 206.659C629.017 205.114 628.706 203.811 628.085 202.75C627.479 201.689 626.547 200.886 625.29 200.341C624.047 199.78 622.479 199.5 620.585 199.5H613.949V238H604.108ZM629.244 216.818L640.812 238H629.949L618.631 216.818H629.244Z" fill="#00C5F0"/>
<path d="M660.92 191.455H673.057L685.875 222.727H686.42L699.239 191.455H711.375V238H701.83V207.705H701.443L689.398 237.773H682.898L670.852 207.591H670.466V238H660.92V191.455ZM727.506 238H716.96L733.028 191.455H745.71L761.756 238H751.21L739.551 202.091H739.188L727.506 238ZM726.847 219.705H751.756V227.386H726.847V219.705ZM767.358 238V191.455H777.199V211.977H777.812L794.562 191.455H806.358L789.085 212.295L806.562 238H794.79L782.04 218.864L777.199 224.773V238H767.358ZM811.483 238V191.455H842.847V199.568H821.324V210.659H841.233V218.773H821.324V229.886H842.938V238H811.483ZM850.67 238V191.455H869.034C872.549 191.455 875.549 192.083 878.034 193.341C880.534 194.583 882.436 196.348 883.739 198.636C885.057 200.909 885.716 203.583 885.716 206.659C885.716 209.75 885.049 212.409 883.716 214.636C882.383 216.848 880.451 218.545 877.92 219.727C875.405 220.909 872.36 221.5 868.784 221.5H856.489V213.591H867.193C869.072 213.591 870.633 213.333 871.875 212.818C873.117 212.303 874.042 211.53 874.648 210.5C875.269 209.47 875.58 208.189 875.58 206.659C875.58 205.114 875.269 203.811 874.648 202.75C874.042 201.689 873.11 200.886 871.852 200.341C870.61 199.78 869.042 199.5 867.148 199.5H860.511V238H850.67ZM875.807 216.818L887.375 238H876.511L865.193 216.818H875.807Z" fill="black"/>
<path d="M411 343H1028C1032.97 343 1037 347.029 1037 352V396C1037 400.971 1032.97 405 1028 405H411C406.029 405 402 400.971 402 396V352C402 347.029 406.029 343 411 343Z" stroke="#00C5F0" stroke-width="2"/>
<rect x="632" y="437" width="175" height="44" rx="5" fill="#00C5F0"/>
<path d="M658.795 474.909C657.227 474.909 655.883 474.693 654.761 474.261C653.648 473.837 652.761 473.258 652.102 472.523C651.443 471.788 651.015 470.962 650.818 470.045L655.295 469.443C655.432 469.792 655.648 470.117 655.943 470.42C656.239 470.723 656.629 470.966 657.114 471.148C657.606 471.337 658.205 471.432 658.909 471.432C659.962 471.432 660.83 471.174 661.511 470.659C662.201 470.152 662.545 469.299 662.545 468.102V464.909H662.341C662.129 465.394 661.811 465.852 661.386 466.284C660.962 466.716 660.417 467.068 659.75 467.341C659.083 467.614 658.288 467.75 657.364 467.75C656.053 467.75 654.86 467.447 653.784 466.841C652.716 466.227 651.864 465.292 651.227 464.034C650.598 462.769 650.284 461.17 650.284 459.239C650.284 457.261 650.606 455.61 651.25 454.284C651.894 452.958 652.75 451.966 653.818 451.307C654.894 450.648 656.072 450.318 657.352 450.318C658.33 450.318 659.148 450.485 659.807 450.818C660.466 451.144 660.996 451.553 661.398 452.045C661.807 452.53 662.121 453.008 662.341 453.477H662.523V450.545H667.33V468.17C667.33 469.655 666.966 470.898 666.239 471.898C665.511 472.898 664.504 473.648 663.216 474.148C661.936 474.655 660.462 474.909 658.795 474.909ZM658.898 464.114C659.678 464.114 660.337 463.92 660.875 463.534C661.42 463.14 661.837 462.58 662.125 461.852C662.42 461.117 662.568 460.239 662.568 459.216C662.568 458.193 662.424 457.307 662.136 456.557C661.848 455.799 661.432 455.212 660.886 454.795C660.341 454.379 659.678 454.17 658.898 454.17C658.102 454.17 657.432 454.386 656.886 454.818C656.341 455.242 655.928 455.833 655.648 456.591C655.367 457.348 655.227 458.223 655.227 459.216C655.227 460.223 655.367 461.095 655.648 461.83C655.936 462.557 656.348 463.121 656.886 463.523C657.432 463.917 658.102 464.114 658.898 464.114ZM679.136 468.341C677.341 468.341 675.795 467.977 674.5 467.25C673.212 466.515 672.22 465.477 671.523 464.136C670.826 462.788 670.477 461.193 670.477 459.352C670.477 457.557 670.826 455.981 671.523 454.625C672.22 453.269 673.201 452.212 674.466 451.455C675.739 450.697 677.231 450.318 678.943 450.318C680.095 450.318 681.167 450.504 682.159 450.875C683.159 451.239 684.03 451.788 684.773 452.523C685.523 453.258 686.106 454.182 686.523 455.295C686.939 456.402 687.148 457.697 687.148 459.182V460.511H672.409V457.511H682.591C682.591 456.814 682.439 456.197 682.136 455.659C681.833 455.121 681.413 454.701 680.875 454.398C680.345 454.087 679.727 453.932 679.023 453.932C678.288 453.932 677.636 454.102 677.068 454.443C676.508 454.777 676.068 455.227 675.75 455.795C675.432 456.356 675.269 456.981 675.261 457.67V460.523C675.261 461.386 675.42 462.133 675.739 462.761C676.064 463.39 676.523 463.875 677.114 464.216C677.705 464.557 678.405 464.727 679.216 464.727C679.754 464.727 680.246 464.652 680.693 464.5C681.14 464.348 681.523 464.121 681.841 463.818C682.159 463.515 682.402 463.144 682.568 462.705L687.045 463C686.818 464.076 686.352 465.015 685.648 465.818C684.951 466.614 684.049 467.235 682.943 467.682C681.845 468.121 680.576 468.341 679.136 468.341ZM695.148 457.909V468H690.307V450.545H694.92V453.625H695.125C695.511 452.61 696.159 451.807 697.068 451.216C697.977 450.617 699.08 450.318 700.375 450.318C701.587 450.318 702.644 450.583 703.545 451.114C704.447 451.644 705.148 452.402 705.648 453.386C706.148 454.364 706.398 455.53 706.398 456.886V468H701.557V457.75C701.564 456.682 701.292 455.848 700.739 455.25C700.186 454.644 699.424 454.341 698.455 454.341C697.803 454.341 697.227 454.481 696.727 454.761C696.235 455.042 695.848 455.451 695.568 455.989C695.295 456.519 695.155 457.159 695.148 457.909ZM718.168 468.341C716.372 468.341 714.827 467.977 713.531 467.25C712.243 466.515 711.251 465.477 710.554 464.136C709.857 462.788 709.509 461.193 709.509 459.352C709.509 457.557 709.857 455.981 710.554 454.625C711.251 453.269 712.232 452.212 713.497 451.455C714.77 450.697 716.262 450.318 717.974 450.318C719.126 450.318 720.198 450.504 721.19 450.875C722.19 451.239 723.062 451.788 723.804 452.523C724.554 453.258 725.137 454.182 725.554 455.295C725.971 456.402 726.179 457.697 726.179 459.182V460.511H711.44V457.511H721.622C721.622 456.814 721.471 456.197 721.168 455.659C720.865 455.121 720.444 454.701 719.906 454.398C719.376 454.087 718.759 453.932 718.054 453.932C717.319 453.932 716.668 454.102 716.099 454.443C715.539 454.777 715.099 455.227 714.781 455.795C714.463 456.356 714.3 456.981 714.293 457.67V460.523C714.293 461.386 714.452 462.133 714.77 462.761C715.096 463.39 715.554 463.875 716.145 464.216C716.736 464.557 717.437 464.727 718.247 464.727C718.785 464.727 719.277 464.652 719.724 464.5C720.171 464.348 720.554 464.121 720.872 463.818C721.19 463.515 721.433 463.144 721.599 462.705L726.077 463C725.849 464.076 725.384 465.015 724.679 465.818C723.982 466.614 723.08 467.235 721.974 467.682C720.876 468.121 719.607 468.341 718.168 468.341ZM729.338 468V450.545H734.031V453.591H734.213C734.531 452.508 735.065 451.689 735.815 451.136C736.565 450.576 737.429 450.295 738.406 450.295C738.649 450.295 738.91 450.311 739.19 450.341C739.471 450.371 739.717 450.413 739.929 450.466V454.761C739.702 454.693 739.387 454.633 738.986 454.58C738.584 454.527 738.217 454.5 737.884 454.5C737.171 454.5 736.535 454.655 735.974 454.966C735.421 455.269 734.982 455.693 734.656 456.239C734.338 456.784 734.179 457.413 734.179 458.125V468H729.338ZM746.909 468.33C745.795 468.33 744.803 468.136 743.932 467.75C743.061 467.356 742.371 466.777 741.864 466.011C741.364 465.239 741.114 464.277 741.114 463.125C741.114 462.155 741.292 461.341 741.648 460.682C742.004 460.023 742.489 459.492 743.102 459.091C743.716 458.689 744.413 458.386 745.193 458.182C745.981 457.977 746.807 457.833 747.67 457.75C748.686 457.644 749.504 457.545 750.125 457.455C750.746 457.356 751.197 457.212 751.477 457.023C751.758 456.833 751.898 456.553 751.898 456.182V456.114C751.898 455.394 751.67 454.837 751.216 454.443C750.769 454.049 750.133 453.852 749.307 453.852C748.436 453.852 747.742 454.045 747.227 454.432C746.712 454.811 746.371 455.288 746.205 455.864L741.727 455.5C741.955 454.439 742.402 453.523 743.068 452.75C743.735 451.97 744.595 451.371 745.648 450.955C746.708 450.53 747.936 450.318 749.33 450.318C750.299 450.318 751.227 450.432 752.114 450.659C753.008 450.886 753.799 451.239 754.489 451.716C755.186 452.193 755.735 452.807 756.136 453.557C756.538 454.299 756.739 455.189 756.739 456.227V468H752.148V465.58H752.011C751.731 466.125 751.356 466.606 750.886 467.023C750.417 467.432 749.852 467.754 749.193 467.989C748.534 468.216 747.773 468.33 746.909 468.33ZM748.295 464.989C749.008 464.989 749.636 464.848 750.182 464.568C750.727 464.28 751.155 463.894 751.466 463.409C751.777 462.924 751.932 462.375 751.932 461.761V459.909C751.78 460.008 751.572 460.098 751.307 460.182C751.049 460.258 750.758 460.33 750.432 460.398C750.106 460.458 749.78 460.515 749.455 460.568C749.129 460.614 748.833 460.655 748.568 460.693C748 460.777 747.504 460.909 747.08 461.091C746.655 461.273 746.326 461.519 746.091 461.83C745.856 462.133 745.739 462.511 745.739 462.966C745.739 463.625 745.977 464.129 746.455 464.477C746.939 464.818 747.553 464.989 748.295 464.989ZM769.778 450.545V454.182H759.267V450.545H769.778ZM761.653 446.364H766.494V462.636C766.494 463.083 766.563 463.432 766.699 463.682C766.835 463.924 767.025 464.095 767.267 464.193C767.517 464.292 767.805 464.341 768.131 464.341C768.358 464.341 768.585 464.322 768.812 464.284C769.04 464.239 769.214 464.205 769.335 464.182L770.097 467.784C769.854 467.86 769.513 467.947 769.074 468.045C768.634 468.152 768.1 468.216 767.472 468.239C766.305 468.284 765.282 468.129 764.403 467.773C763.532 467.417 762.854 466.864 762.369 466.114C761.884 465.364 761.646 464.417 761.653 463.273V446.364ZM780.699 468.341C778.903 468.341 777.358 467.977 776.062 467.25C774.775 466.515 773.782 465.477 773.085 464.136C772.388 462.788 772.04 461.193 772.04 459.352C772.04 457.557 772.388 455.981 773.085 454.625C773.782 453.269 774.763 452.212 776.028 451.455C777.301 450.697 778.794 450.318 780.506 450.318C781.657 450.318 782.729 450.504 783.722 450.875C784.722 451.239 785.593 451.788 786.335 452.523C787.085 453.258 787.669 454.182 788.085 455.295C788.502 456.402 788.71 457.697 788.71 459.182V460.511H773.972V457.511H784.153C784.153 456.814 784.002 456.197 783.699 455.659C783.396 455.121 782.975 454.701 782.438 454.398C781.907 454.087 781.29 453.932 780.585 453.932C779.85 453.932 779.199 454.102 778.631 454.443C778.07 454.777 777.631 455.227 777.312 455.795C776.994 456.356 776.831 456.981 776.824 457.67V460.523C776.824 461.386 776.983 462.133 777.301 462.761C777.627 463.39 778.085 463.875 778.676 464.216C779.267 464.557 779.968 464.727 780.778 464.727C781.316 464.727 781.809 464.652 782.256 464.5C782.703 464.348 783.085 464.121 783.403 463.818C783.722 463.515 783.964 463.144 784.131 462.705L788.608 463C788.381 464.076 787.915 465.015 787.21 465.818C786.513 466.614 785.612 467.235 784.506 467.682C783.407 468.121 782.138 468.341 780.699 468.341Z" fill="white"/>
<path d="M432.08 375.432V383H428.449V365.545H431.977V372.219H432.131C432.426 371.446 432.903 370.841 433.562 370.403C434.222 369.96 435.048 369.739 436.043 369.739C436.952 369.739 437.744 369.938 438.42 370.335C439.102 370.727 439.631 371.293 440.006 372.031C440.386 372.764 440.574 373.642 440.568 374.665V383H436.938V375.312C436.943 374.506 436.739 373.878 436.324 373.429C435.915 372.98 435.341 372.756 434.602 372.756C434.108 372.756 433.67 372.861 433.29 373.071C432.915 373.281 432.619 373.588 432.403 373.991C432.193 374.389 432.085 374.869 432.08 375.432ZM450.388 369.909V372.636H442.505V369.909H450.388ZM444.295 366.773H447.925V378.977C447.925 379.312 447.977 379.574 448.079 379.761C448.181 379.943 448.323 380.071 448.505 380.145C448.692 380.219 448.908 380.256 449.153 380.256C449.323 380.256 449.494 380.241 449.664 380.213C449.835 380.179 449.965 380.153 450.056 380.136L450.627 382.838C450.445 382.895 450.19 382.96 449.86 383.034C449.531 383.114 449.13 383.162 448.658 383.179C447.783 383.213 447.016 383.097 446.357 382.83C445.704 382.562 445.195 382.148 444.832 381.585C444.468 381.023 444.289 380.312 444.295 379.455V366.773ZM459.717 369.909V372.636H451.833V369.909H459.717ZM453.623 366.773H457.254V378.977C457.254 379.312 457.305 379.574 457.407 379.761C457.509 379.943 457.651 380.071 457.833 380.145C458.021 380.219 458.237 380.256 458.481 380.256C458.651 380.256 458.822 380.241 458.992 380.213C459.163 380.179 459.293 380.153 459.384 380.136L459.955 382.838C459.773 382.895 459.518 382.96 459.188 383.034C458.859 383.114 458.458 383.162 457.987 383.179C457.112 383.213 456.344 383.097 455.685 382.83C455.032 382.562 454.523 382.148 454.16 381.585C453.796 381.023 453.617 380.312 453.623 379.455V366.773ZM462.082 387.909V369.909H465.661V372.108H465.823C465.982 371.756 466.212 371.398 466.513 371.034C466.82 370.665 467.218 370.358 467.707 370.114C468.201 369.864 468.815 369.739 469.548 369.739C470.502 369.739 471.383 369.989 472.19 370.489C472.996 370.983 473.641 371.73 474.124 372.73C474.607 373.724 474.849 374.972 474.849 376.472C474.849 377.932 474.613 379.165 474.141 380.17C473.675 381.17 473.039 381.929 472.232 382.446C471.431 382.957 470.533 383.213 469.539 383.213C468.835 383.213 468.235 383.097 467.741 382.864C467.252 382.631 466.852 382.338 466.539 381.986C466.227 381.628 465.988 381.267 465.823 380.903H465.712V387.909H462.082ZM465.636 376.455C465.636 377.233 465.744 377.912 465.96 378.491C466.175 379.071 466.488 379.523 466.897 379.847C467.306 380.165 467.803 380.324 468.388 380.324C468.979 380.324 469.479 380.162 469.888 379.838C470.298 379.509 470.607 379.054 470.817 378.474C471.033 377.889 471.141 377.216 471.141 376.455C471.141 375.699 471.036 375.034 470.826 374.46C470.616 373.886 470.306 373.437 469.897 373.114C469.488 372.79 468.985 372.628 468.388 372.628C467.798 372.628 467.298 372.784 466.888 373.097C466.485 373.409 466.175 373.852 465.96 374.426C465.744 375 465.636 375.676 465.636 376.455ZM488.161 373.642L484.837 373.847C484.781 373.562 484.658 373.307 484.471 373.08C484.283 372.847 484.036 372.662 483.729 372.526C483.428 372.384 483.067 372.312 482.647 372.312C482.085 372.312 481.61 372.432 481.224 372.67C480.837 372.903 480.644 373.216 480.644 373.608C480.644 373.92 480.769 374.185 481.019 374.401C481.269 374.616 481.698 374.79 482.306 374.92L484.675 375.398C485.948 375.659 486.897 376.08 487.522 376.659C488.147 377.239 488.46 378 488.46 378.943C488.46 379.801 488.207 380.554 487.701 381.202C487.201 381.849 486.513 382.355 485.638 382.719C484.769 383.077 483.766 383.256 482.63 383.256C480.897 383.256 479.516 382.895 478.488 382.173C477.465 381.446 476.866 380.457 476.69 379.207L480.261 379.02C480.369 379.548 480.63 379.952 481.045 380.23C481.46 380.503 481.991 380.639 482.638 380.639C483.275 380.639 483.786 380.517 484.173 380.273C484.565 380.023 484.763 379.702 484.769 379.31C484.763 378.98 484.624 378.71 484.352 378.5C484.079 378.284 483.658 378.119 483.09 378.006L480.823 377.554C479.545 377.298 478.593 376.855 477.968 376.224C477.349 375.594 477.039 374.79 477.039 373.812C477.039 372.972 477.266 372.247 477.721 371.639C478.181 371.031 478.826 370.562 479.656 370.233C480.491 369.903 481.468 369.739 482.587 369.739C484.241 369.739 485.542 370.088 486.491 370.787C487.445 371.486 488.002 372.437 488.161 373.642ZM492.868 383.222C492.305 383.222 491.822 383.023 491.419 382.625C491.021 382.222 490.822 381.739 490.822 381.176C490.822 380.619 491.021 380.142 491.419 379.744C491.822 379.347 492.305 379.148 492.868 379.148C493.413 379.148 493.891 379.347 494.3 379.744C494.709 380.142 494.913 380.619 494.913 381.176C494.913 381.551 494.817 381.895 494.624 382.207C494.436 382.514 494.189 382.761 493.882 382.949C493.575 383.131 493.237 383.222 492.868 383.222ZM492.868 374.051C492.305 374.051 491.822 373.852 491.419 373.455C491.021 373.057 490.822 372.574 490.822 372.006C490.822 371.449 491.021 370.974 491.419 370.582C491.822 370.185 492.305 369.986 492.868 369.986C493.413 369.986 493.891 370.185 494.3 370.582C494.709 370.974 494.913 371.449 494.913 372.006C494.913 372.386 494.817 372.733 494.624 373.045C494.436 373.352 494.189 373.597 493.882 373.778C493.575 373.96 493.237 374.051 492.868 374.051ZM505.496 364.727L499.871 385.625H496.744L502.369 364.727H505.496ZM514.848 364.727L509.223 385.625H506.095L511.72 364.727H514.848ZM522.563 383.256C521.217 383.256 520.058 382.983 519.086 382.438C518.12 381.886 517.376 381.108 516.853 380.102C516.33 379.091 516.069 377.895 516.069 376.514C516.069 375.168 516.33 373.986 516.853 372.969C517.376 371.952 518.112 371.159 519.06 370.591C520.015 370.023 521.134 369.739 522.418 369.739C523.282 369.739 524.086 369.878 524.83 370.156C525.58 370.429 526.234 370.841 526.79 371.392C527.353 371.943 527.79 372.636 528.103 373.472C528.415 374.301 528.572 375.273 528.572 376.386V377.384H517.518V375.134H525.154C525.154 374.611 525.04 374.148 524.813 373.744C524.586 373.341 524.271 373.026 523.867 372.798C523.469 372.565 523.006 372.449 522.478 372.449C521.927 372.449 521.438 372.577 521.012 372.832C520.592 373.082 520.262 373.42 520.023 373.847C519.785 374.267 519.663 374.736 519.657 375.253V377.392C519.657 378.04 519.776 378.599 520.015 379.071C520.259 379.543 520.603 379.906 521.046 380.162C521.489 380.418 522.015 380.545 522.623 380.545C523.026 380.545 523.396 380.489 523.731 380.375C524.066 380.261 524.353 380.091 524.592 379.864C524.83 379.636 525.012 379.358 525.137 379.028L528.495 379.25C528.325 380.057 527.975 380.761 527.447 381.364C526.924 381.96 526.248 382.426 525.418 382.761C524.594 383.091 523.643 383.256 522.563 383.256ZM533.741 369.909L536.144 374.486L538.607 369.909H542.332L538.539 376.455L542.434 383H538.727L536.144 378.474L533.604 383H529.854L533.741 376.455L529.991 369.909H533.741ZM548.151 383.247C547.315 383.247 546.571 383.102 545.918 382.812C545.264 382.517 544.747 382.082 544.366 381.509C543.991 380.929 543.804 380.207 543.804 379.344C543.804 378.616 543.938 378.006 544.205 377.511C544.472 377.017 544.835 376.619 545.295 376.318C545.756 376.017 546.278 375.79 546.864 375.636C547.455 375.483 548.074 375.375 548.722 375.312C549.483 375.233 550.097 375.159 550.562 375.091C551.028 375.017 551.366 374.909 551.577 374.767C551.787 374.625 551.892 374.415 551.892 374.136V374.085C551.892 373.545 551.722 373.128 551.381 372.832C551.045 372.537 550.568 372.389 549.949 372.389C549.295 372.389 548.776 372.534 548.389 372.824C548.003 373.108 547.747 373.466 547.622 373.898L544.264 373.625C544.435 372.83 544.77 372.142 545.27 371.562C545.77 370.977 546.415 370.528 547.205 370.216C548 369.898 548.92 369.739 549.966 369.739C550.693 369.739 551.389 369.824 552.054 369.994C552.724 370.165 553.318 370.429 553.835 370.787C554.358 371.145 554.77 371.605 555.071 372.168C555.372 372.724 555.523 373.392 555.523 374.17V383H552.08V381.185H551.977C551.767 381.594 551.486 381.955 551.134 382.267C550.781 382.574 550.358 382.815 549.864 382.991C549.369 383.162 548.798 383.247 548.151 383.247ZM549.19 380.741C549.724 380.741 550.196 380.636 550.605 380.426C551.014 380.21 551.335 379.92 551.568 379.557C551.801 379.193 551.918 378.781 551.918 378.321V376.932C551.804 377.006 551.648 377.074 551.449 377.136C551.256 377.193 551.037 377.247 550.793 377.298C550.548 377.344 550.304 377.386 550.06 377.426C549.815 377.46 549.594 377.491 549.395 377.52C548.969 377.582 548.597 377.682 548.278 377.818C547.96 377.955 547.713 378.139 547.537 378.372C547.361 378.599 547.273 378.884 547.273 379.224C547.273 379.719 547.452 380.097 547.81 380.358C548.173 380.614 548.634 380.741 549.19 380.741ZM558.339 383V369.909H561.8V372.219H561.953C562.226 371.452 562.68 370.847 563.317 370.403C563.953 369.96 564.714 369.739 565.601 369.739C566.499 369.739 567.263 369.963 567.893 370.412C568.524 370.855 568.945 371.457 569.155 372.219H569.291C569.558 371.469 570.041 370.869 570.74 370.42C571.445 369.966 572.277 369.739 573.237 369.739C574.459 369.739 575.45 370.128 576.212 370.906C576.979 371.679 577.362 372.776 577.362 374.196V383H573.74V374.912C573.74 374.185 573.547 373.639 573.161 373.276C572.774 372.912 572.291 372.73 571.712 372.73C571.053 372.73 570.538 372.94 570.169 373.361C569.8 373.776 569.615 374.324 569.615 375.006V383H566.095V374.835C566.095 374.193 565.911 373.682 565.541 373.301C565.178 372.92 564.697 372.73 564.101 372.73C563.697 372.73 563.334 372.832 563.01 373.037C562.692 373.236 562.439 373.517 562.251 373.881C562.064 374.239 561.97 374.659 561.97 375.142V383H558.339ZM580.23 387.909V369.909H583.81V372.108H583.972C584.131 371.756 584.361 371.398 584.662 371.034C584.969 370.665 585.366 370.358 585.855 370.114C586.349 369.864 586.963 369.739 587.696 369.739C588.651 369.739 589.531 369.989 590.338 370.489C591.145 370.983 591.79 371.73 592.273 372.73C592.756 373.724 592.997 374.972 592.997 376.472C592.997 377.932 592.761 379.165 592.29 380.17C591.824 381.17 591.188 381.929 590.381 382.446C589.58 382.957 588.682 383.213 587.688 383.213C586.983 383.213 586.384 383.097 585.889 382.864C585.401 382.631 585 382.338 584.688 381.986C584.375 381.628 584.136 381.267 583.972 380.903H583.861V387.909H580.23ZM583.784 376.455C583.784 377.233 583.892 377.912 584.108 378.491C584.324 379.071 584.636 379.523 585.045 379.847C585.455 380.165 585.952 380.324 586.537 380.324C587.128 380.324 587.628 380.162 588.037 379.838C588.446 379.509 588.756 379.054 588.966 378.474C589.182 377.889 589.29 377.216 589.29 376.455C589.29 375.699 589.185 375.034 588.974 374.46C588.764 373.886 588.455 373.437 588.045 373.114C587.636 372.79 587.134 372.628 586.537 372.628C585.946 372.628 585.446 372.784 585.037 373.097C584.634 373.409 584.324 373.852 584.108 374.426C583.892 375 583.784 375.676 583.784 376.455ZM599.048 365.545V383H595.418V365.545H599.048ZM607.923 383.256C606.576 383.256 605.417 382.983 604.445 382.438C603.479 381.886 602.735 381.108 602.212 380.102C601.69 379.091 601.428 377.895 601.428 376.514C601.428 375.168 601.69 373.986 602.212 372.969C602.735 371.952 603.471 371.159 604.42 370.591C605.374 370.023 606.494 369.739 607.778 369.739C608.641 369.739 609.445 369.878 610.19 370.156C610.94 370.429 611.593 370.841 612.15 371.392C612.712 371.943 613.15 372.636 613.462 373.472C613.775 374.301 613.931 375.273 613.931 376.386V377.384H602.877V375.134H610.513C610.513 374.611 610.4 374.148 610.173 373.744C609.945 373.341 609.63 373.026 609.227 372.798C608.829 372.565 608.366 372.449 607.837 372.449C607.286 372.449 606.798 372.577 606.371 372.832C605.951 373.082 605.621 373.42 605.383 373.847C605.144 374.267 605.022 374.736 605.016 375.253V377.392C605.016 378.04 605.136 378.599 605.374 379.071C605.619 379.543 605.962 379.906 606.406 380.162C606.849 380.418 607.374 380.545 607.982 380.545C608.386 380.545 608.755 380.489 609.09 380.375C609.425 380.261 609.712 380.091 609.951 379.864C610.19 379.636 610.371 379.358 610.496 379.028L613.854 379.25C613.684 380.057 613.335 380.761 612.806 381.364C612.283 381.96 611.607 382.426 610.778 382.761C609.954 383.091 609.002 383.256 607.923 383.256ZM618.423 383.222C617.86 383.222 617.377 383.023 616.974 382.625C616.576 382.222 616.377 381.739 616.377 381.176C616.377 380.619 616.576 380.142 616.974 379.744C617.377 379.347 617.86 379.148 618.423 379.148C618.968 379.148 619.445 379.347 619.854 379.744C620.263 380.142 620.468 380.619 620.468 381.176C620.468 381.551 620.371 381.895 620.178 382.207C619.991 382.514 619.744 382.761 619.437 382.949C619.13 383.131 618.792 383.222 618.423 383.222ZM629.364 383.256C628.023 383.256 626.869 382.972 625.903 382.403C624.943 381.83 624.205 381.034 623.688 380.017C623.176 379 622.92 377.83 622.92 376.506C622.92 375.165 623.179 373.989 623.696 372.977C624.219 371.96 624.96 371.168 625.92 370.599C626.881 370.026 628.023 369.739 629.347 369.739C630.489 369.739 631.489 369.946 632.347 370.361C633.205 370.776 633.884 371.358 634.384 372.108C634.884 372.858 635.159 373.739 635.21 374.75H631.784C631.688 374.097 631.432 373.571 631.017 373.173C630.608 372.77 630.071 372.568 629.406 372.568C628.844 372.568 628.352 372.722 627.932 373.028C627.517 373.33 627.193 373.77 626.96 374.349C626.727 374.929 626.611 375.631 626.611 376.455C626.611 377.29 626.724 378 626.952 378.585C627.185 379.17 627.511 379.616 627.932 379.923C628.352 380.23 628.844 380.384 629.406 380.384C629.821 380.384 630.193 380.298 630.523 380.128C630.858 379.957 631.134 379.71 631.349 379.386C631.571 379.057 631.716 378.662 631.784 378.202H635.21C635.153 379.202 634.881 380.082 634.392 380.844C633.909 381.599 633.241 382.19 632.389 382.616C631.537 383.043 630.528 383.256 629.364 383.256ZM643.45 383.256C642.126 383.256 640.981 382.974 640.015 382.412C639.055 381.844 638.313 381.054 637.79 380.043C637.268 379.026 637.006 377.847 637.006 376.506C637.006 375.153 637.268 373.972 637.79 372.96C638.313 371.943 639.055 371.153 640.015 370.591C640.981 370.023 642.126 369.739 643.45 369.739C644.773 369.739 645.915 370.023 646.876 370.591C647.842 371.153 648.586 371.943 649.109 372.96C649.631 373.972 649.893 375.153 649.893 376.506C649.893 377.847 649.631 379.026 649.109 380.043C648.586 381.054 647.842 381.844 646.876 382.412C645.915 382.974 644.773 383.256 643.45 383.256ZM643.467 380.443C644.069 380.443 644.572 380.273 644.975 379.932C645.379 379.585 645.683 379.114 645.887 378.517C646.097 377.92 646.202 377.241 646.202 376.48C646.202 375.719 646.097 375.04 645.887 374.443C645.683 373.847 645.379 373.375 644.975 373.028C644.572 372.682 644.069 372.509 643.467 372.509C642.859 372.509 642.347 372.682 641.933 373.028C641.523 373.375 641.214 373.847 641.004 374.443C640.799 375.04 640.697 375.719 640.697 376.48C640.697 377.241 640.799 377.92 641.004 378.517C641.214 379.114 641.523 379.585 641.933 379.932C642.347 380.273 642.859 380.443 643.467 380.443ZM652.254 383V369.909H655.714V372.219H655.867C656.14 371.452 656.594 370.847 657.231 370.403C657.867 369.96 658.629 369.739 659.515 369.739C660.413 369.739 661.177 369.963 661.808 370.412C662.438 370.855 662.859 371.457 663.069 372.219H663.205C663.472 371.469 663.955 370.869 664.654 370.42C665.359 369.966 666.191 369.739 667.151 369.739C668.373 369.739 669.364 370.128 670.126 370.906C670.893 371.679 671.276 372.776 671.276 374.196V383H667.654V374.912C667.654 374.185 667.461 373.639 667.075 373.276C666.688 372.912 666.205 372.73 665.626 372.73C664.967 372.73 664.452 372.94 664.083 373.361C663.714 373.776 663.529 374.324 663.529 375.006V383H660.009V374.835C660.009 374.193 659.825 373.682 659.455 373.301C659.092 372.92 658.612 372.73 658.015 372.73C657.612 372.73 657.248 372.832 656.924 373.037C656.606 373.236 656.353 373.517 656.165 373.881C655.978 374.239 655.884 374.659 655.884 375.142V383H652.254Z" fill="#1E1E1E" fill-opacity="0.53"/>
<g filter="url(#filter0_d_1_44)">
<rect x="556" y="538" width="328" height="308" stroke="#00C5F0" stroke-width="2" shape-rendering="crispEdges"/>
</g>
<rect x="825" y="789" width="60" height="58" rx="3" fill="#00C5F0"/>
<g clip-path="url(#clip0_1_44)">
<path d="M838.5 833H871.5V837H838.5V833ZM856.833 821.344L867.963 809.2L870.556 812.028L855 829L839.444 812.03L842.036 809.2L853.167 821.34V799H856.833V821.344Z" fill="white"/>
</g>
<path d="M1286.06 70.4547C1286.06 70.6574 1285.81 70.8195 1285.5 70.8195C1285.14 70.8499 1284.89 70.6878 1284.89 70.4547C1284.89 70.2521 1285.14 70.09 1285.45 70.09C1285.78 70.0596 1286.06 70.2217 1286.06 70.4547ZM1282.68 69.9988C1282.6 70.2014 1282.82 70.4345 1283.14 70.4953C1283.43 70.5966 1283.75 70.4953 1283.82 70.2926C1283.88 70.09 1283.68 69.8569 1283.35 69.7657C1283.07 69.6948 1282.75 69.7961 1282.68 69.9988ZM1287.49 69.8265C1287.17 69.8975 1286.95 70.09 1286.99 70.323C1287.02 70.5257 1287.3 70.6574 1287.63 70.5864C1287.95 70.5155 1288.16 70.323 1288.13 70.1204C1288.1 69.9279 1287.8 69.7961 1287.49 69.8265ZM1294.65 31C1279.55 31 1268 41.6692 1268 55.7225C1268 66.9591 1275.6 76.5746 1286.45 79.9587C1287.85 80.1918 1288.34 79.3913 1288.34 78.7327C1288.34 78.1045 1288.3 74.6393 1288.3 72.5116C1288.3 72.5116 1280.68 74.0314 1279.08 69.4922C1279.08 69.4922 1277.84 66.5437 1276.06 65.7838C1276.06 65.7838 1273.56 64.193 1276.23 64.2234C1276.23 64.2234 1278.94 64.4261 1280.43 66.8375C1282.82 70.7486 1286.81 69.6239 1288.37 68.9552C1288.62 67.334 1289.33 66.2093 1290.11 65.5406C1284.03 64.9124 1277.89 64.0917 1277.89 54.3446C1277.89 51.5582 1278.71 50.16 1280.45 48.3767C1280.17 47.7181 1279.25 45.0027 1280.74 41.4969C1283.01 40.8384 1288.25 44.2326 1288.25 44.2326C1290.43 43.6652 1292.77 43.3714 1295.09 43.3714C1297.41 43.3714 1299.75 43.6652 1301.92 44.2326C1301.92 44.2326 1307.16 40.8282 1309.44 41.4969C1310.93 45.0128 1310 47.7181 1309.72 48.3767C1311.46 50.1701 1312.53 51.5683 1312.53 54.3446C1312.53 64.1221 1306.12 64.9023 1300.03 65.5406C1301.03 66.3411 1301.88 67.8609 1301.88 70.2419C1301.88 73.6565 1301.85 77.8816 1301.85 78.7125C1301.85 79.371 1302.35 80.1715 1303.73 79.9385C1314.62 76.5746 1322 66.9591 1322 55.7225C1322 41.6692 1309.75 31 1294.65 31ZM1278.58 65.9459C1278.44 66.0472 1278.47 66.2803 1278.66 66.4728C1278.83 66.6349 1279.08 66.7058 1279.22 66.5741C1279.37 66.4728 1279.33 66.2397 1279.15 66.0472C1278.97 65.8851 1278.72 65.8142 1278.58 65.9459ZM1277.41 65.1252C1277.33 65.2569 1277.44 65.419 1277.66 65.5204C1277.83 65.6217 1278.05 65.5913 1278.13 65.4494C1278.2 65.3177 1278.09 65.1556 1277.87 65.0543C1277.66 64.9935 1277.48 65.0239 1277.41 65.1252ZM1280.93 68.7323C1280.76 68.864 1280.82 69.1679 1281.08 69.3605C1281.33 69.5935 1281.64 69.6239 1281.78 69.4618C1281.92 69.3301 1281.86 69.0261 1281.64 68.8336C1281.4 68.6005 1281.08 68.5701 1280.93 68.7323ZM1279.69 67.2428C1279.52 67.3441 1279.52 67.6076 1279.69 67.8406C1279.87 68.0737 1280.16 68.175 1280.3 68.0737C1280.48 67.9419 1280.48 67.6785 1280.3 67.4455C1280.15 67.2124 1279.87 67.1111 1279.69 67.2428Z" fill="#00C5F0"/>
<g clip-path="url(#clip1_1_44)">
<path d="M1396.58 31H1367.42C1361.66 31 1357 35.5713 1357 41.2083V69.7917C1357 75.4287 1361.66 80 1367.42 80H1396.58C1402.34 80 1407 75.4287 1407 69.7917V41.2083C1407 35.5713 1402.34 31 1396.58 31ZM1373.67 69.7917H1367.42V47.3333H1373.67V69.7917ZM1370.54 44.7445C1368.53 44.7445 1366.9 43.1316 1366.9 41.143C1366.9 39.1544 1368.53 37.5415 1370.54 37.5415C1372.55 37.5415 1374.19 39.1544 1374.19 41.143C1374.19 43.1316 1372.56 44.7445 1370.54 44.7445ZM1398.67 69.7917H1392.42V58.3502C1392.42 51.4738 1384.08 51.9945 1384.08 58.3502V69.7917H1377.83V47.3333H1384.08V50.9369C1386.99 45.6571 1398.67 45.2672 1398.67 55.992V69.7917Z" fill="#00C5F0"/>
</g>
<defs>
<filter id="filter0_d_1_44" x="551" y="537" width="338" height="318" filterUnits="userSpaceOnUse" color-interpolation-filters="sRGB">
<feFlood flood-opacity="0" result="BackgroundImageFix"/>
<feColorMatrix in="SourceAlpha" type="matrix" values="0 0 0 0 0 0 0 0 0 0 0 0 0 0 0 0 0 0 127 0" result="hardAlpha"/>
<feOffset dy="4"/>
<feGaussianBlur stdDeviation="2"/>
<feComposite in2="hardAlpha" operator="out"/>
<feColorMatrix type="matrix" values="0 0 0 0 0 0 0 0 0 0 0 0 0 0 0 0 0 0 0.25 0"/>
<feBlend mode="normal" in2="BackgroundImageFix" result="effect1_dropShadow_1_44"/>
<feBlend mode="normal" in="SourceGraphic" in2="effect1_dropShadow_1_44" result="shape"/>
</filter>
<clipPath id="clip0_1_44">
<rect width="44" height="48" fill="white" transform="translate(833 795)"/>
</clipPath>
<clipPath id="clip1_1_44">
<rect width="50" height="49" fill="white" transform="translate(1357 31)"/>
</clipPath>
</defs>
</svg>
