<svg width="1440" height="1024" viewBox="0 0 1440 1024" fill="none" xmlns="http://www.w3.org/2000/svg">
<rect width="1440" height="1024" fill="#FBFBFB"/>
<rect width="300" height="300" transform="translate(567 543)" fill="white"/>
<rect width="285" height="285" transform="translate(576 552)" fill="white"/>
<rect width="285" height="285" transform="translate(576 552)" fill="white"/>
<path d="M590.25 642.25H580.75V651.75H590.25V642.25Z" fill="black"/>
<path d="M590.25 661.25H580.75V670.75H590.25V661.25Z" fill="black"/>
<path d="M590.25 689.75H580.75V699.25H590.25V689.75Z" fill="black"/>
<path d="M590.25 718.25H580.75V727.75H590.25V718.25Z" fill="black"/>
<path d="M590.25 727.75H580.75V737.25H590.25V727.75Z" fill="black"/>
<path d="M590.25 737.25H580.75V746.75H590.25V737.25Z" fill="black"/>
<path d="M599.75 661.25H590.25V670.75H599.75V661.25Z" fill="black"/>
<path d="M599.75 680.25H590.25V689.75H599.75V680.25Z" fill="black"/>
<path d="M599.75 689.75H590.25V699.25H599.75V689.75Z" fill="black"/>
<path d="M599.75 746.75H590.25V756.25H599.75V746.75Z" fill="black"/>
<path d="M609.25 632.75H599.75V642.25H609.25V632.75Z" fill="black"/>
<path d="M609.25 642.25H599.75V651.75H609.25V642.25Z" fill="black"/>
<path d="M609.25 651.75H599.75V661.25H609.25V651.75Z" fill="black"/>
<path d="M609.25 661.25H599.75V670.75H609.25V661.25Z" fill="black"/>
<path d="M609.25 718.25H599.75V727.75H609.25V718.25Z" fill="black"/>
<path d="M609.25 727.75H599.75V737.25H609.25V727.75Z" fill="black"/>
<path d="M609.25 737.25H599.75V746.75H609.25V737.25Z" fill="black"/>
<path d="M609.25 746.75H599.75V756.25H609.25V746.75Z" fill="black"/>
<path d="M618.75 661.25H609.25V670.75H618.75V661.25Z" fill="black"/>
<path d="M618.75 727.75H609.25V737.25H618.75V727.75Z" fill="black"/>
<path d="M618.75 737.25H609.25V746.75H618.75V737.25Z" fill="black"/>
<path d="M628.25 632.75H618.75V642.25H628.25V632.75Z" fill="black"/>
<path d="M628.25 651.75H618.75V661.25H628.25V651.75Z" fill="black"/>
<path d="M628.25 708.75H618.75V718.25H628.25V708.75Z" fill="black"/>
<path d="M628.25 746.75H618.75V756.25H628.25V746.75Z" fill="black"/>
<path d="M637.75 632.75H628.25V642.25H637.75V632.75Z" fill="black"/>
<path d="M637.75 642.25H628.25V651.75H637.75V642.25Z" fill="black"/>
<path d="M637.75 670.75H628.25V680.25H637.75V670.75Z" fill="black"/>
<path d="M637.75 689.75H628.25V699.25H637.75V689.75Z" fill="black"/>
<path d="M637.75 708.75H628.25V718.25H637.75V708.75Z" fill="black"/>
<path d="M637.75 727.75H628.25V737.25H637.75V727.75Z" fill="black"/>
<path d="M637.75 737.25H628.25V746.75H637.75V737.25Z" fill="black"/>
<path d="M647.25 632.75H637.75V642.25H647.25V632.75Z" fill="black"/>
<path d="M647.25 651.75H637.75V661.25H647.25V651.75Z" fill="black"/>
<path d="M647.25 670.75H637.75V680.25H647.25V670.75Z" fill="black"/>
<path d="M647.25 689.75H637.75V699.25H647.25V689.75Z" fill="black"/>
<path d="M647.25 708.75H637.75V718.25H647.25V708.75Z" fill="black"/>
<path d="M647.25 727.75H637.75V737.25H647.25V727.75Z" fill="black"/>
<path d="M647.25 746.75H637.75V756.25H647.25V746.75Z" fill="black"/>
<path d="M656.75 651.75H647.25V661.25H656.75V651.75Z" fill="black"/>
<path d="M656.75 670.75H647.25V680.25H656.75V670.75Z" fill="black"/>
<path d="M656.75 689.75H647.25V699.25H656.75V689.75Z" fill="black"/>
<path d="M656.75 718.25H647.25V727.75H656.75V718.25Z" fill="black"/>
<path d="M656.75 727.75H647.25V737.25H656.75V727.75Z" fill="black"/>
<path d="M656.75 746.75H647.25V756.25H656.75V746.75Z" fill="black"/>
<path d="M666.25 566.25H656.75V575.75H666.25V566.25Z" fill="black"/>
<path d="M666.25 594.75H656.75V604.25H666.25V594.75Z" fill="black"/>
<path d="M666.25 613.75H656.75V623.25H666.25V613.75Z" fill="black"/>
<path d="M666.25 632.75H656.75V642.25H666.25V632.75Z" fill="black"/>
<path d="M666.25 651.75H656.75V661.25H666.25V651.75Z" fill="black"/>
<path d="M666.25 680.25H656.75V689.75H666.25V680.25Z" fill="black"/>
<path d="M666.25 708.75H656.75V718.25H666.25V708.75Z" fill="black"/>
<path d="M666.25 727.75H656.75V737.25H666.25V727.75Z" fill="black"/>
<path d="M666.25 737.25H656.75V746.75H666.25V737.25Z" fill="black"/>
<path d="M666.25 746.75H656.75V756.25H666.25V746.75Z" fill="black"/>
<path d="M666.25 756.25H656.75V765.75H666.25V756.25Z" fill="black"/>
<path d="M666.25 775.25H656.75V784.75H666.25V775.25Z" fill="black"/>
<path d="M666.25 784.75H656.75V794.25H666.25V784.75Z" fill="black"/>
<path d="M666.25 803.75H656.75V813.25H666.25V803.75Z" fill="black"/>
<path d="M675.75 585.25H666.25V594.75H675.75V585.25Z" fill="black"/>
<path d="M675.75 594.75H666.25V604.25H675.75V594.75Z" fill="black"/>
<path d="M675.75 623.25H666.25V632.75H675.75V623.25Z" fill="black"/>
<path d="M675.75 642.25H666.25V651.75H675.75V642.25Z" fill="black"/>
<path d="M675.75 651.75H666.25V661.25H675.75V651.75Z" fill="black"/>
<path d="M675.75 680.25H666.25V689.75H675.75V680.25Z" fill="black"/>
<path d="M675.75 699.25H666.25V708.75H675.75V699.25Z" fill="black"/>
<path d="M675.75 737.25H666.25V746.75H675.75V737.25Z" fill="black"/>
<path d="M675.75 746.75H666.25V756.25H675.75V746.75Z" fill="black"/>
<path d="M675.75 756.25H666.25V765.75H675.75V756.25Z" fill="black"/>
<path d="M675.75 775.25H666.25V784.75H675.75V775.25Z" fill="black"/>
<path d="M675.75 784.75H666.25V794.25H675.75V784.75Z" fill="black"/>
<path d="M675.75 813.25H666.25V822.75H675.75V813.25Z" fill="black"/>
<path d="M675.75 822.75H666.25V832.25H675.75V822.75Z" fill="black"/>
<path d="M685.25 556.75H675.75V566.25H685.25V556.75Z" fill="black"/>
<path d="M685.25 566.25H675.75V575.75H685.25V566.25Z" fill="black"/>
<path d="M685.25 575.75H675.75V585.25H685.25V575.75Z" fill="black"/>
<path d="M685.25 585.25H675.75V594.75H685.25V585.25Z" fill="black"/>
<path d="M685.25 594.75H675.75V604.25H685.25V594.75Z" fill="black"/>
<path d="M685.25 613.75H675.75V623.25H685.25V613.75Z" fill="black"/>
<path d="M685.25 642.25H675.75V651.75H685.25V642.25Z" fill="black"/>
<path d="M685.25 680.25H675.75V689.75H685.25V680.25Z" fill="black"/>
<path d="M685.25 689.75H675.75V699.25H685.25V689.75Z" fill="black"/>
<path d="M685.25 708.75H675.75V718.25H685.25V708.75Z" fill="black"/>
<path d="M685.25 718.25H675.75V727.75H685.25V718.25Z" fill="black"/>
<path d="M685.25 746.75H675.75V756.25H685.25V746.75Z" fill="black"/>
<path d="M685.25 756.25H675.75V765.75H685.25V756.25Z" fill="black"/>
<path d="M685.25 775.25H675.75V784.75H685.25V775.25Z" fill="black"/>
<path d="M685.25 784.75H675.75V794.25H685.25V784.75Z" fill="black"/>
<path d="M685.25 794.25H675.75V803.75H685.25V794.25Z" fill="black"/>
<path d="M685.25 803.75H675.75V813.25H685.25V803.75Z" fill="black"/>
<path d="M685.25 822.75H675.75V832.25H685.25V822.75Z" fill="black"/>
<path d="M694.75 566.25H685.25V575.75H694.75V566.25Z" fill="black"/>
<path d="M694.75 575.75H685.25V585.25H694.75V575.75Z" fill="black"/>
<path d="M694.75 594.75H685.25V604.25H694.75V594.75Z" fill="black"/>
<path d="M694.75 604.25H685.25V613.75H694.75V604.25Z" fill="black"/>
<path d="M694.75 623.25H685.25V632.75H694.75V623.25Z" fill="black"/>
<path d="M694.75 632.75H685.25V642.25H694.75V632.75Z" fill="black"/>
<path d="M694.75 642.25H685.25V651.75H694.75V642.25Z" fill="black"/>
<path d="M694.75 661.25H685.25V670.75H694.75V661.25Z" fill="black"/>
<path d="M694.75 670.75H685.25V680.25H694.75V670.75Z" fill="black"/>
<path d="M694.75 680.25H685.25V689.75H694.75V680.25Z" fill="black"/>
<path d="M694.75 699.25H685.25V708.75H694.75V699.25Z" fill="black"/>
<path d="M694.75 718.25H685.25V727.75H694.75V718.25Z" fill="black"/>
<path d="M694.75 727.75H685.25V737.25H694.75V727.75Z" fill="black"/>
<path d="M694.75 756.25H685.25V765.75H694.75V756.25Z" fill="black"/>
<path d="M694.75 775.25H685.25V784.75H694.75V775.25Z" fill="black"/>
<path d="M694.75 794.25H685.25V803.75H694.75V794.25Z" fill="black"/>
<path d="M694.75 813.25H685.25V822.75H694.75V813.25Z" fill="black"/>
<path d="M694.75 822.75H685.25V832.25H694.75V822.75Z" fill="black"/>
<path d="M704.25 594.75H694.75V604.25H704.25V594.75Z" fill="black"/>
<path d="M704.25 613.75H694.75V623.25H704.25V613.75Z" fill="black"/>
<path d="M704.25 623.25H694.75V632.75H704.25V623.25Z" fill="black"/>
<path d="M704.25 632.75H694.75V642.25H704.25V632.75Z" fill="black"/>
<path d="M704.25 661.25H694.75V670.75H704.25V661.25Z" fill="black"/>
<path d="M704.25 680.25H694.75V689.75H704.25V680.25Z" fill="black"/>
<path d="M704.25 689.75H694.75V699.25H704.25V689.75Z" fill="black"/>
<path d="M704.25 708.75H694.75V718.25H704.25V708.75Z" fill="black"/>
<path d="M704.25 718.25H694.75V727.75H704.25V718.25Z" fill="black"/>
<path d="M704.25 737.25H694.75V746.75H704.25V737.25Z" fill="black"/>
<path d="M704.25 746.75H694.75V756.25H704.25V746.75Z" fill="black"/>
<path d="M704.25 775.25H694.75V784.75H704.25V775.25Z" fill="black"/>
<path d="M704.25 794.25H694.75V803.75H704.25V794.25Z" fill="black"/>
<path d="M704.25 803.75H694.75V813.25H704.25V803.75Z" fill="black"/>
<path d="M704.25 822.75H694.75V832.25H704.25V822.75Z" fill="black"/>
<path d="M713.75 556.75H704.25V566.25H713.75V556.75Z" fill="black"/>
<path d="M713.75 566.25H704.25V575.75H713.75V566.25Z" fill="black"/>
<path d="M713.75 604.25H704.25V613.75H713.75V604.25Z" fill="black"/>
<path d="M713.75 623.25H704.25V632.75H713.75V623.25Z" fill="black"/>
<path d="M713.75 632.75H704.25V642.25H713.75V632.75Z" fill="black"/>
<path d="M713.75 680.25H704.25V689.75H713.75V680.25Z" fill="black"/>
<path d="M713.75 708.75H704.25V718.25H713.75V708.75Z" fill="black"/>
<path d="M713.75 718.25H704.25V727.75H713.75V718.25Z" fill="black"/>
<path d="M713.75 765.75H704.25V775.25H713.75V765.75Z" fill="black"/>
<path d="M713.75 784.75H704.25V794.25H713.75V784.75Z" fill="black"/>
<path d="M713.75 803.75H704.25V813.25H713.75V803.75Z" fill="black"/>
<path d="M713.75 822.75H704.25V832.25H713.75V822.75Z" fill="black"/>
<path d="M723.25 556.75H713.75V566.25H723.25V556.75Z" fill="black"/>
<path d="M723.25 566.25H713.75V575.75H723.25V566.25Z" fill="black"/>
<path d="M723.25 575.75H713.75V585.25H723.25V575.75Z" fill="black"/>
<path d="M723.25 594.75H713.75V604.25H723.25V594.75Z" fill="black"/>
<path d="M723.25 613.75H713.75V623.25H723.25V613.75Z" fill="black"/>
<path d="M723.25 623.25H713.75V632.75H723.25V623.25Z" fill="black"/>
<path d="M723.25 632.75H713.75V642.25H723.25V632.75Z" fill="black"/>
<path d="M723.25 689.75H713.75V699.25H723.25V689.75Z" fill="black"/>
<path d="M723.25 699.25H713.75V708.75H723.25V699.25Z" fill="black"/>
<path d="M723.25 708.75H713.75V718.25H723.25V708.75Z" fill="black"/>
<path d="M723.25 727.75H713.75V737.25H723.25V727.75Z" fill="black"/>
<path d="M723.25 746.75H713.75V756.25H723.25V746.75Z" fill="black"/>
<path d="M723.25 756.25H713.75V765.75H723.25V756.25Z" fill="black"/>
<path d="M723.25 784.75H713.75V794.25H723.25V784.75Z" fill="black"/>
<path d="M723.25 813.25H713.75V822.75H723.25V813.25Z" fill="black"/>
<path d="M723.25 822.75H713.75V832.25H723.25V822.75Z" fill="black"/>
<path d="M732.75 556.75H723.25V566.25H732.75V556.75Z" fill="black"/>
<path d="M732.75 623.25H723.25V632.75H732.75V623.25Z" fill="black"/>
<path d="M732.75 632.75H723.25V642.25H732.75V632.75Z" fill="black"/>
<path d="M732.75 661.25H723.25V670.75H732.75V661.25Z" fill="black"/>
<path d="M732.75 680.25H723.25V689.75H732.75V680.25Z" fill="black"/>
<path d="M732.75 689.75H723.25V699.25H732.75V689.75Z" fill="black"/>
<path d="M732.75 708.75H723.25V718.25H732.75V708.75Z" fill="black"/>
<path d="M732.75 746.75H723.25V756.25H732.75V746.75Z" fill="black"/>
<path d="M732.75 765.75H723.25V775.25H732.75V765.75Z" fill="black"/>
<path d="M732.75 775.25H723.25V784.75H732.75V775.25Z" fill="black"/>
<path d="M732.75 794.25H723.25V803.75H732.75V794.25Z" fill="black"/>
<path d="M732.75 822.75H723.25V832.25H732.75V822.75Z" fill="black"/>
<path d="M742.25 556.75H732.75V566.25H742.25V556.75Z" fill="black"/>
<path d="M742.25 566.25H732.75V575.75H742.25V566.25Z" fill="black"/>
<path d="M742.25 575.75H732.75V585.25H742.25V575.75Z" fill="black"/>
<path d="M742.25 594.75H732.75V604.25H742.25V594.75Z" fill="black"/>
<path d="M742.25 604.25H732.75V613.75H742.25V604.25Z" fill="black"/>
<path d="M742.25 613.75H732.75V623.25H742.25V613.75Z" fill="black"/>
<path d="M742.25 642.25H732.75V651.75H742.25V642.25Z" fill="black"/>
<path d="M742.25 661.25H732.75V670.75H742.25V661.25Z" fill="black"/>
<path d="M742.25 689.75H732.75V699.25H742.25V689.75Z" fill="black"/>
<path d="M742.25 699.25H732.75V708.75H742.25V699.25Z" fill="black"/>
<path d="M742.25 708.75H732.75V718.25H742.25V708.75Z" fill="black"/>
<path d="M742.25 756.25H732.75V765.75H742.25V756.25Z" fill="black"/>
<path d="M742.25 784.75H732.75V794.25H742.25V784.75Z" fill="black"/>
<path d="M742.25 813.25H732.75V822.75H742.25V813.25Z" fill="black"/>
<path d="M742.25 822.75H732.75V832.25H742.25V822.75Z" fill="black"/>
<path d="M751.75 556.75H742.25V566.25H751.75V556.75Z" fill="black"/>
<path d="M751.75 575.75H742.25V585.25H751.75V575.75Z" fill="black"/>
<path d="M751.75 585.25H742.25V594.75H751.75V585.25Z" fill="black"/>
<path d="M751.75 594.75H742.25V604.25H751.75V594.75Z" fill="black"/>
<path d="M751.75 604.25H742.25V613.75H751.75V604.25Z" fill="black"/>
<path d="M751.75 623.25H742.25V632.75H751.75V623.25Z" fill="black"/>
<path d="M751.75 632.75H742.25V642.25H751.75V632.75Z" fill="black"/>
<path d="M751.75 680.25H742.25V689.75H751.75V680.25Z" fill="black"/>
<path d="M751.75 689.75H742.25V699.25H751.75V689.75Z" fill="black"/>
<path d="M751.75 727.75H742.25V737.25H751.75V727.75Z" fill="black"/>
<path d="M751.75 756.25H742.25V765.75H751.75V756.25Z" fill="black"/>
<path d="M751.75 765.75H742.25V775.25H751.75V765.75Z" fill="black"/>
<path d="M751.75 775.25H742.25V784.75H751.75V775.25Z" fill="black"/>
<path d="M751.75 784.75H742.25V794.25H751.75V784.75Z" fill="black"/>
<path d="M751.75 822.75H742.25V832.25H751.75V822.75Z" fill="black"/>
<path d="M761.25 594.75H751.75V604.25H761.25V594.75Z" fill="black"/>
<path d="M761.25 604.25H751.75V613.75H761.25V604.25Z" fill="black"/>
<path d="M761.25 613.75H751.75V623.25H761.25V613.75Z" fill="black"/>
<path d="M761.25 670.75H751.75V680.25H761.25V670.75Z" fill="black"/>
<path d="M761.25 680.25H751.75V689.75H761.25V680.25Z" fill="black"/>
<path d="M761.25 699.25H751.75V708.75H761.25V699.25Z" fill="black"/>
<path d="M761.25 784.75H751.75V794.25H761.25V784.75Z" fill="black"/>
<path d="M761.25 803.75H751.75V813.25H761.25V803.75Z" fill="black"/>
<path d="M761.25 822.75H751.75V832.25H761.25V822.75Z" fill="black"/>
<path d="M770.75 575.75H761.25V585.25H770.75V575.75Z" fill="black"/>
<path d="M770.75 585.25H761.25V594.75H770.75V585.25Z" fill="black"/>
<path d="M770.75 594.75H761.25V604.25H770.75V594.75Z" fill="black"/>
<path d="M770.75 623.25H761.25V632.75H770.75V623.25Z" fill="black"/>
<path d="M770.75 670.75H761.25V680.25H770.75V670.75Z" fill="black"/>
<path d="M770.75 680.25H761.25V689.75H770.75V680.25Z" fill="black"/>
<path d="M770.75 699.25H761.25V708.75H770.75V699.25Z" fill="black"/>
<path d="M770.75 708.75H761.25V718.25H770.75V708.75Z" fill="black"/>
<path d="M770.75 718.25H761.25V727.75H770.75V718.25Z" fill="black"/>
<path d="M770.75 746.75H761.25V756.25H770.75V746.75Z" fill="black"/>
<path d="M770.75 784.75H761.25V794.25H770.75V784.75Z" fill="black"/>
<path d="M770.75 794.25H761.25V803.75H770.75V794.25Z" fill="black"/>
<path d="M770.75 813.25H761.25V822.75H770.75V813.25Z" fill="black"/>
<path d="M780.25 556.75H770.75V566.25H780.25V556.75Z" fill="black"/>
<path d="M780.25 566.25H770.75V575.75H780.25V566.25Z" fill="black"/>
<path d="M780.25 594.75H770.75V604.25H780.25V594.75Z" fill="black"/>
<path d="M780.25 604.25H770.75V613.75H780.25V604.25Z" fill="black"/>
<path d="M780.25 613.75H770.75V623.25H780.25V613.75Z" fill="black"/>
<path d="M780.25 651.75H770.75V661.25H780.25V651.75Z" fill="black"/>
<path d="M780.25 670.75H770.75V680.25H780.25V670.75Z" fill="black"/>
<path d="M780.25 680.25H770.75V689.75H780.25V680.25Z" fill="black"/>
<path d="M780.25 718.25H770.75V727.75H780.25V718.25Z" fill="black"/>
<path d="M780.25 727.75H770.75V737.25H780.25V727.75Z" fill="black"/>
<path d="M780.25 737.25H770.75V746.75H780.25V737.25Z" fill="black"/>
<path d="M780.25 746.75H770.75V756.25H780.25V746.75Z" fill="black"/>
<path d="M780.25 756.25H770.75V765.75H780.25V756.25Z" fill="black"/>
<path d="M780.25 765.75H770.75V775.25H780.25V765.75Z" fill="black"/>
<path d="M780.25 775.25H770.75V784.75H780.25V775.25Z" fill="black"/>
<path d="M780.25 784.75H770.75V794.25H780.25V784.75Z" fill="black"/>
<path d="M780.25 803.75H770.75V813.25H780.25V803.75Z" fill="black"/>
<path d="M780.25 822.75H770.75V832.25H780.25V822.75Z" fill="black"/>
<path d="M789.75 632.75H780.25V642.25H789.75V632.75Z" fill="black"/>
<path d="M789.75 651.75H780.25V661.25H789.75V651.75Z" fill="black"/>
<path d="M789.75 670.75H780.25V680.25H789.75V670.75Z" fill="black"/>
<path d="M789.75 680.25H780.25V689.75H789.75V680.25Z" fill="black"/>
<path d="M789.75 689.75H780.25V699.25H789.75V689.75Z" fill="black"/>
<path d="M789.75 699.25H780.25V708.75H789.75V699.25Z" fill="black"/>
<path d="M789.75 708.75H780.25V718.25H789.75V708.75Z" fill="black"/>
<path d="M789.75 727.75H780.25V737.25H789.75V727.75Z" fill="black"/>
<path d="M789.75 737.25H780.25V746.75H789.75V737.25Z" fill="black"/>
<path d="M789.75 746.75H780.25V756.25H789.75V746.75Z" fill="black"/>
<path d="M789.75 784.75H780.25V794.25H789.75V784.75Z" fill="black"/>
<path d="M789.75 803.75H780.25V813.25H789.75V803.75Z" fill="black"/>
<path d="M789.75 822.75H780.25V832.25H789.75V822.75Z" fill="black"/>
<path d="M799.25 642.25H789.75V651.75H799.25V642.25Z" fill="black"/>
<path d="M799.25 661.25H789.75V670.75H799.25V661.25Z" fill="black"/>
<path d="M799.25 670.75H789.75V680.25H799.25V670.75Z" fill="black"/>
<path d="M799.25 699.25H789.75V708.75H799.25V699.25Z" fill="black"/>
<path d="M799.25 718.25H789.75V727.75H799.25V718.25Z" fill="black"/>
<path d="M799.25 737.25H789.75V746.75H799.25V737.25Z" fill="black"/>
<path d="M799.25 746.75H789.75V756.25H799.25V746.75Z" fill="black"/>
<path d="M799.25 765.75H789.75V775.25H799.25V765.75Z" fill="black"/>
<path d="M799.25 784.75H789.75V794.25H799.25V784.75Z" fill="black"/>
<path d="M799.25 822.75H789.75V832.25H799.25V822.75Z" fill="black"/>
<path d="M808.75 642.25H799.25V651.75H808.75V642.25Z" fill="black"/>
<path d="M808.75 651.75H799.25V661.25H808.75V651.75Z" fill="black"/>
<path d="M808.75 661.25H799.25V670.75H808.75V661.25Z" fill="black"/>
<path d="M808.75 670.75H799.25V680.25H808.75V670.75Z" fill="black"/>
<path d="M808.75 689.75H799.25V699.25H808.75V689.75Z" fill="black"/>
<path d="M808.75 708.75H799.25V718.25H808.75V708.75Z" fill="black"/>
<path d="M808.75 718.25H799.25V727.75H808.75V718.25Z" fill="black"/>
<path d="M808.75 727.75H799.25V737.25H808.75V727.75Z" fill="black"/>
<path d="M808.75 737.25H799.25V746.75H808.75V737.25Z" fill="black"/>
<path d="M808.75 746.75H799.25V756.25H808.75V746.75Z" fill="black"/>
<path d="M808.75 784.75H799.25V794.25H808.75V784.75Z" fill="black"/>
<path d="M808.75 794.25H799.25V803.75H808.75V794.25Z" fill="black"/>
<path d="M818.25 632.75H808.75V642.25H818.25V632.75Z" fill="black"/>
<path d="M818.25 642.25H808.75V651.75H818.25V642.25Z" fill="black"/>
<path d="M818.25 661.25H808.75V670.75H818.25V661.25Z" fill="black"/>
<path d="M818.25 670.75H808.75V680.25H818.25V670.75Z" fill="black"/>
<path d="M818.25 689.75H808.75V699.25H818.25V689.75Z" fill="black"/>
<path d="M818.25 727.75H808.75V737.25H818.25V727.75Z" fill="black"/>
<path d="M818.25 737.25H808.75V746.75H818.25V737.25Z" fill="black"/>
<path d="M818.25 746.75H808.75V756.25H818.25V746.75Z" fill="black"/>
<path d="M818.25 756.25H808.75V765.75H818.25V756.25Z" fill="black"/>
<path d="M818.25 765.75H808.75V775.25H818.25V765.75Z" fill="black"/>
<path d="M818.25 775.25H808.75V784.75H818.25V775.25Z" fill="black"/>
<path d="M818.25 784.75H808.75V794.25H818.25V784.75Z" fill="black"/>
<path d="M818.25 813.25H808.75V822.75H818.25V813.25Z" fill="black"/>
<path d="M818.25 822.75H808.75V832.25H818.25V822.75Z" fill="black"/>
<path d="M827.75 661.25H818.25V670.75H827.75V661.25Z" fill="black"/>
<path d="M827.75 680.25H818.25V689.75H827.75V680.25Z" fill="black"/>
<path d="M827.75 708.75H818.25V718.25H827.75V708.75Z" fill="black"/>
<path d="M827.75 718.25H818.25V727.75H827.75V718.25Z" fill="black"/>
<path d="M827.75 775.25H818.25V784.75H827.75V775.25Z" fill="black"/>
<path d="M827.75 794.25H818.25V803.75H827.75V794.25Z" fill="black"/>
<path d="M827.75 813.25H818.25V822.75H827.75V813.25Z" fill="black"/>
<path d="M837.25 651.75H827.75V661.25H837.25V651.75Z" fill="black"/>
<path d="M837.25 680.25H827.75V689.75H837.25V680.25Z" fill="black"/>
<path d="M837.25 689.75H827.75V699.25H837.25V689.75Z" fill="black"/>
<path d="M837.25 708.75H827.75V718.25H837.25V708.75Z" fill="black"/>
<path d="M837.25 727.75H827.75V737.25H837.25V727.75Z" fill="black"/>
<path d="M837.25 737.25H827.75V746.75H837.25V737.25Z" fill="black"/>
<path d="M837.25 746.75H827.75V756.25H837.25V746.75Z" fill="black"/>
<path d="M837.25 756.25H827.75V765.75H837.25V756.25Z" fill="black"/>
<path d="M837.25 794.25H827.75V803.75H837.25V794.25Z" fill="black"/>
<path d="M837.25 813.25H827.75V822.75H837.25V813.25Z" fill="black"/>
<path d="M837.25 822.75H827.75V832.25H837.25V822.75Z" fill="black"/>
<path d="M846.75 632.75H837.25V642.25H846.75V632.75Z" fill="black"/>
<path d="M846.75 642.25H837.25V651.75H846.75V642.25Z" fill="black"/>
<path d="M846.75 689.75H837.25V699.25H846.75V689.75Z" fill="black"/>
<path d="M846.75 718.25H837.25V727.75H846.75V718.25Z" fill="black"/>
<path d="M846.75 737.25H837.25V746.75H846.75V737.25Z" fill="black"/>
<path d="M846.75 746.75H837.25V756.25H846.75V746.75Z" fill="black"/>
<path d="M846.75 756.25H837.25V765.75H846.75V756.25Z" fill="black"/>
<path d="M846.75 765.75H837.25V775.25H846.75V765.75Z" fill="black"/>
<path d="M846.75 775.25H837.25V784.75H846.75V775.25Z" fill="black"/>
<path d="M846.75 794.25H837.25V803.75H846.75V794.25Z" fill="black"/>
<path d="M846.75 813.25H837.25V822.75H846.75V813.25Z" fill="black"/>
<path d="M846.75 822.75H837.25V832.25H846.75V822.75Z" fill="black"/>
<path d="M856.25 642.25H846.75V651.75H856.25V642.25Z" fill="black"/>
<path d="M856.25 651.75H846.75V661.25H856.25V651.75Z" fill="black"/>
<path d="M856.25 680.25H846.75V689.75H856.25V680.25Z" fill="black"/>
<path d="M856.25 699.25H846.75V708.75H856.25V699.25Z" fill="black"/>
<path d="M856.25 718.25H846.75V727.75H856.25V718.25Z" fill="black"/>
<path d="M856.25 746.75H846.75V756.25H856.25V746.75Z" fill="black"/>
<path d="M856.25 765.75H846.75V775.25H856.25V765.75Z" fill="black"/>
<path d="M856.25 784.75H846.75V794.25H856.25V784.75Z" fill="black"/>
<path d="M856.25 794.25H846.75V803.75H856.25V794.25Z" fill="black"/>
<path d="M856.25 803.75H846.75V813.25H856.25V803.75Z" fill="black"/>
<path d="M856.25 813.25H846.75V822.75H856.25V813.25Z" fill="black"/>
<path d="M590.25 556.75H580.75V566.25H590.25V556.75Z" fill="black"/>
<path d="M590.25 566.25H580.75V575.75H590.25V566.25Z" fill="black"/>
<path d="M590.25 575.75H580.75V585.25H590.25V575.75Z" fill="black"/>
<path d="M590.25 585.25H580.75V594.75H590.25V585.25Z" fill="black"/>
<path d="M590.25 594.75H580.75V604.25H590.25V594.75Z" fill="black"/>
<path d="M590.25 604.25H580.75V613.75H590.25V604.25Z" fill="black"/>
<path d="M590.25 613.75H580.75V623.25H590.25V613.75Z" fill="black"/>
<path d="M599.75 556.75H590.25V566.25H599.75V556.75Z" fill="black"/>
<path d="M599.75 613.75H590.25V623.25H599.75V613.75Z" fill="black"/>
<path d="M609.25 556.75H599.75V566.25H609.25V556.75Z" fill="black"/>
<path d="M609.25 613.75H599.75V623.25H609.25V613.75Z" fill="black"/>
<path d="M618.75 556.75H609.25V566.25H618.75V556.75Z" fill="black"/>
<path d="M618.75 613.75H609.25V623.25H618.75V613.75Z" fill="black"/>
<path d="M628.25 556.75H618.75V566.25H628.25V556.75Z" fill="black"/>
<path d="M628.25 613.75H618.75V623.25H628.25V613.75Z" fill="black"/>
<path d="M637.75 556.75H628.25V566.25H637.75V556.75Z" fill="black"/>
<path d="M637.75 613.75H628.25V623.25H637.75V613.75Z" fill="black"/>
<path d="M647.25 556.75H637.75V566.25H647.25V556.75Z" fill="black"/>
<path d="M647.25 566.25H637.75V575.75H647.25V566.25Z" fill="black"/>
<path d="M647.25 575.75H637.75V585.25H647.25V575.75Z" fill="black"/>
<path d="M647.25 585.25H637.75V594.75H647.25V585.25Z" fill="black"/>
<path d="M647.25 594.75H637.75V604.25H647.25V594.75Z" fill="black"/>
<path d="M647.25 604.25H637.75V613.75H647.25V604.25Z" fill="black"/>
<path d="M647.25 613.75H637.75V623.25H647.25V613.75Z" fill="black"/>
<path d="M609.25 575.75H599.75V585.25H609.25V575.75Z" fill="black"/>
<path d="M609.25 585.25H599.75V594.75H609.25V585.25Z" fill="black"/>
<path d="M609.25 594.75H599.75V604.25H609.25V594.75Z" fill="black"/>
<path d="M618.75 575.75H609.25V585.25H618.75V575.75Z" fill="black"/>
<path d="M618.75 585.25H609.25V594.75H618.75V585.25Z" fill="black"/>
<path d="M618.75 594.75H609.25V604.25H618.75V594.75Z" fill="black"/>
<path d="M628.25 575.75H618.75V585.25H628.25V575.75Z" fill="black"/>
<path d="M628.25 585.25H618.75V594.75H628.25V585.25Z" fill="black"/>
<path d="M628.25 594.75H618.75V604.25H628.25V594.75Z" fill="black"/>
<path d="M799.25 556.75H789.75V566.25H799.25V556.75Z" fill="black"/>
<path d="M799.25 566.25H789.75V575.75H799.25V566.25Z" fill="black"/>
<path d="M799.25 575.75H789.75V585.25H799.25V575.75Z" fill="black"/>
<path d="M799.25 585.25H789.75V594.75H799.25V585.25Z" fill="black"/>
<path d="M799.25 594.75H789.75V604.25H799.25V594.75Z" fill="black"/>
<path d="M799.25 604.25H789.75V613.75H799.25V604.25Z" fill="black"/>
<path d="M799.25 613.75H789.75V623.25H799.25V613.75Z" fill="black"/>
<path d="M808.75 556.75H799.25V566.25H808.75V556.75Z" fill="black"/>
<path d="M808.75 613.75H799.25V623.25H808.75V613.75Z" fill="black"/>
<path d="M818.25 556.75H808.75V566.25H818.25V556.75Z" fill="black"/>
<path d="M818.25 613.75H808.75V623.25H818.25V613.75Z" fill="black"/>
<path d="M827.75 556.75H818.25V566.25H827.75V556.75Z" fill="black"/>
<path d="M827.75 613.75H818.25V623.25H827.75V613.75Z" fill="black"/>
<path d="M837.25 556.75H827.75V566.25H837.25V556.75Z" fill="black"/>
<path d="M837.25 613.75H827.75V623.25H837.25V613.75Z" fill="black"/>
<path d="M846.75 556.75H837.25V566.25H846.75V556.75Z" fill="black"/>
<path d="M846.75 613.75H837.25V623.25H846.75V613.75Z" fill="black"/>
<path d="M856.25 556.75H846.75V566.25H856.25V556.75Z" fill="black"/>
<path d="M856.25 566.25H846.75V575.75H856.25V566.25Z" fill="black"/>
<path d="M856.25 575.75H846.75V585.25H856.25V575.75Z" fill="black"/>
<path d="M856.25 585.25H846.75V594.75H856.25V585.25Z" fill="black"/>
<path d="M856.25 594.75H846.75V604.25H856.25V594.75Z" fill="black"/>
<path d="M856.25 604.25H846.75V613.75H856.25V604.25Z" fill="black"/>
<path d="M856.25 613.75H846.75V623.25H856.25V613.75Z" fill="black"/>
<path d="M818.25 575.75H808.75V585.25H818.25V575.75Z" fill="black"/>
<path d="M818.25 585.25H808.75V594.75H818.25V585.25Z" fill="black"/>
<path d="M818.25 594.75H808.75V604.25H818.25V594.75Z" fill="black"/>
<path d="M827.75 575.75H818.25V585.25H827.75V575.75Z" fill="black"/>
<path d="M827.75 585.25H818.25V594.75H827.75V585.25Z" fill="black"/>
<path d="M827.75 594.75H818.25V604.25H827.75V594.75Z" fill="black"/>
<path d="M837.25 575.75H827.75V585.25H837.25V575.75Z" fill="black"/>
<path d="M837.25 585.25H827.75V594.75H837.25V585.25Z" fill="black"/>
<path d="M837.25 594.75H827.75V604.25H837.25V594.75Z" fill="black"/>
<path d="M590.25 765.75H580.75V775.25H590.25V765.75Z" fill="black"/>
<path d="M590.25 775.25H580.75V784.75H590.25V775.25Z" fill="black"/>
<path d="M590.25 784.75H580.75V794.25H590.25V784.75Z" fill="black"/>
<path d="M590.25 794.25H580.75V803.75H590.25V794.25Z" fill="black"/>
<path d="M590.25 803.75H580.75V813.25H590.25V803.75Z" fill="black"/>
<path d="M590.25 813.25H580.75V822.75H590.25V813.25Z" fill="black"/>
<path d="M590.25 822.75H580.75V832.25H590.25V822.75Z" fill="black"/>
<path d="M599.75 765.75H590.25V775.25H599.75V765.75Z" fill="black"/>
<path d="M599.75 822.75H590.25V832.25H599.75V822.75Z" fill="black"/>
<path d="M609.25 765.75H599.75V775.25H609.25V765.75Z" fill="black"/>
<path d="M609.25 822.75H599.75V832.25H609.25V822.75Z" fill="black"/>
<path d="M618.75 765.75H609.25V775.25H618.75V765.75Z" fill="black"/>
<path d="M618.75 822.75H609.25V832.25H618.75V822.75Z" fill="black"/>
<path d="M628.25 765.75H618.75V775.25H628.25V765.75Z" fill="black"/>
<path d="M628.25 822.75H618.75V832.25H628.25V822.75Z" fill="black"/>
<path d="M637.75 765.75H628.25V775.25H637.75V765.75Z" fill="black"/>
<path d="M637.75 822.75H628.25V832.25H637.75V822.75Z" fill="black"/>
<path d="M647.25 765.75H637.75V775.25H647.25V765.75Z" fill="black"/>
<path d="M647.25 775.25H637.75V784.75H647.25V775.25Z" fill="black"/>
<path d="M647.25 784.75H637.75V794.25H647.25V784.75Z" fill="black"/>
<path d="M647.25 794.25H637.75V803.75H647.25V794.25Z" fill="black"/>
<path d="M647.25 803.75H637.75V813.25H647.25V803.75Z" fill="black"/>
<path d="M647.25 813.25H637.75V822.75H647.25V813.25Z" fill="black"/>
<path d="M647.25 822.75H637.75V832.25H647.25V822.75Z" fill="black"/>
<path d="M609.25 784.75H599.75V794.25H609.25V784.75Z" fill="black"/>
<path d="M609.25 794.25H599.75V803.75H609.25V794.25Z" fill="black"/>
<path d="M609.25 803.75H599.75V813.25H609.25V803.75Z" fill="black"/>
<path d="M618.75 784.75H609.25V794.25H618.75V784.75Z" fill="black"/>
<path d="M618.75 794.25H609.25V803.75H618.75V794.25Z" fill="black"/>
<path d="M618.75 803.75H609.25V813.25H618.75V803.75Z" fill="black"/>
<path d="M628.25 784.75H618.75V794.25H628.25V784.75Z" fill="black"/>
<path d="M628.25 794.25H618.75V803.75H628.25V794.25Z" fill="black"/>
<path d="M628.25 803.75H618.75V813.25H628.25V803.75Z" fill="black"/>
<path d="M490.42 261.727H502.966L509.273 269.841L515.477 277.068L527.17 291.727H513.398L505.352 281.841L501.227 275.977L490.42 261.727ZM528.227 251.091C528.227 258.705 526.784 265.182 523.898 270.523C521.034 275.864 517.125 279.943 512.17 282.761C507.239 285.557 501.693 286.955 495.534 286.955C489.33 286.955 483.761 285.545 478.83 282.727C473.898 279.909 470 275.83 467.136 270.489C464.273 265.148 462.841 258.682 462.841 251.091C462.841 243.477 464.273 237 467.136 231.659C470 226.318 473.898 222.25 478.83 219.455C483.761 216.636 489.33 215.227 495.534 215.227C501.693 215.227 507.239 216.636 512.17 219.455C517.125 222.25 521.034 226.318 523.898 231.659C526.784 237 528.227 243.477 528.227 251.091ZM513.261 251.091C513.261 246.159 512.523 242 511.045 238.614C509.591 235.227 507.534 232.659 504.875 230.909C502.216 229.159 499.102 228.284 495.534 228.284C491.966 228.284 488.852 229.159 486.193 230.909C483.534 232.659 481.466 235.227 479.989 238.614C478.534 242 477.807 246.159 477.807 251.091C477.807 256.023 478.534 260.182 479.989 263.568C481.466 266.955 483.534 269.523 486.193 271.273C488.852 273.023 491.966 273.898 495.534 273.898C499.102 273.898 502.216 273.023 504.875 271.273C507.534 269.523 509.591 266.955 511.045 263.568C512.523 260.182 513.261 256.023 513.261 251.091ZM539.162 286V216.182H566.707C571.98 216.182 576.48 217.125 580.207 219.011C583.957 220.875 586.81 223.523 588.764 226.955C590.741 230.364 591.73 234.375 591.73 238.989C591.73 243.625 590.73 247.614 588.73 250.955C586.73 254.273 583.832 256.818 580.037 258.591C576.264 260.364 571.696 261.25 566.332 261.25H547.889V249.386H563.946C566.764 249.386 569.105 249 570.969 248.227C572.832 247.455 574.219 246.295 575.128 244.75C576.06 243.205 576.526 241.284 576.526 238.989C576.526 236.67 576.06 234.716 575.128 233.125C574.219 231.534 572.821 230.33 570.935 229.511C569.071 228.67 566.719 228.25 563.878 228.25H553.923V286H539.162ZM576.866 254.227L594.219 286H577.923L560.946 254.227H576.866Z" fill="#00C5F0"/>
<path d="M624.381 216.182H642.585L661.812 263.091H662.631L681.858 216.182H700.062V286H685.744V240.557H685.165L667.097 285.659H657.347L639.278 240.386H638.699V286H624.381V216.182ZM724.259 286H708.44L732.543 216.182H751.565L775.634 286H759.815L742.327 232.136H741.781L724.259 286ZM723.27 258.557H760.634V270.08H723.27V258.557ZM784.037 286V216.182H798.798V246.966H799.719L824.844 216.182H842.537L816.628 247.443L842.844 286H825.185L806.06 257.295L798.798 266.159V286H784.037ZM850.224 286V216.182H897.27V228.352H864.986V244.989H894.849V257.159H864.986V273.83H897.406V286H850.224ZM909.006 286V216.182H936.551C941.824 216.182 946.324 217.125 950.051 219.011C953.801 220.875 956.653 223.523 958.608 226.955C960.585 230.364 961.574 234.375 961.574 238.989C961.574 243.625 960.574 247.614 958.574 250.955C956.574 254.273 953.676 256.818 949.881 258.591C946.108 260.364 941.54 261.25 936.176 261.25H917.733V249.386H933.79C936.608 249.386 938.949 249 940.812 248.227C942.676 247.455 944.063 246.295 944.972 244.75C945.903 243.205 946.369 241.284 946.369 238.989C946.369 236.67 945.903 234.716 944.972 233.125C944.063 231.534 942.665 230.33 940.778 229.511C938.915 228.67 936.563 228.25 933.722 228.25H923.767V286H909.006ZM946.71 254.227L964.062 286H947.767L930.79 254.227H946.71Z" fill="black"/>
<path d="M411 341H1028C1032.42 341 1036 344.582 1036 349V393C1036 397.418 1032.42 401 1028 401H411C406.582 401 403 397.418 403 393V349C403 344.582 406.582 341 411 341Z" stroke="#00C5F0" stroke-width="4"/>
<rect x="632" y="437" width="175" height="44" rx="5" fill="#00C5F0"/>
<path d="M690.455 454.25C690.295 453.697 690.072 453.208 689.784 452.784C689.496 452.352 689.144 451.989 688.727 451.693C688.318 451.39 687.848 451.159 687.318 451C686.795 450.841 686.216 450.761 685.58 450.761C684.39 450.761 683.345 451.057 682.443 451.648C681.549 452.239 680.852 453.098 680.352 454.227C679.852 455.348 679.602 456.72 679.602 458.341C679.602 459.962 679.848 461.341 680.341 462.477C680.833 463.614 681.53 464.481 682.432 465.08C683.333 465.67 684.398 465.966 685.625 465.966C686.739 465.966 687.689 465.769 688.477 465.375C689.273 464.973 689.879 464.409 690.295 463.682C690.72 462.955 690.932 462.095 690.932 461.102L691.932 461.25H685.932V457.545H695.67V460.477C695.67 462.523 695.239 464.28 694.375 465.75C693.511 467.212 692.322 468.341 690.807 469.136C689.292 469.924 687.557 470.318 685.602 470.318C683.42 470.318 681.504 469.837 679.852 468.875C678.201 467.905 676.913 466.53 675.989 464.75C675.072 462.962 674.614 460.841 674.614 458.386C674.614 456.5 674.886 454.818 675.432 453.341C675.985 451.856 676.758 450.598 677.75 449.568C678.742 448.538 679.898 447.754 681.216 447.216C682.534 446.678 683.962 446.409 685.5 446.409C686.818 446.409 688.045 446.602 689.182 446.989C690.318 447.367 691.326 447.905 692.205 448.602C693.091 449.299 693.814 450.129 694.375 451.091C694.936 452.045 695.295 453.098 695.455 454.25H690.455ZM707.23 470.341C705.435 470.341 703.889 469.977 702.594 469.25C701.306 468.515 700.313 467.477 699.616 466.136C698.92 464.788 698.571 463.193 698.571 461.352C698.571 459.557 698.92 457.981 699.616 456.625C700.313 455.269 701.295 454.212 702.56 453.455C703.832 452.697 705.325 452.318 707.037 452.318C708.188 452.318 709.26 452.504 710.253 452.875C711.253 453.239 712.124 453.788 712.866 454.523C713.616 455.258 714.2 456.182 714.616 457.295C715.033 458.402 715.241 459.697 715.241 461.182V462.511H700.503V459.511H710.685C710.685 458.814 710.533 458.197 710.23 457.659C709.927 457.121 709.507 456.701 708.969 456.398C708.438 456.087 707.821 455.932 707.116 455.932C706.382 455.932 705.73 456.102 705.162 456.443C704.601 456.777 704.162 457.227 703.844 457.795C703.526 458.356 703.363 458.981 703.355 459.67V462.523C703.355 463.386 703.514 464.133 703.832 464.761C704.158 465.39 704.616 465.875 705.207 466.216C705.798 466.557 706.499 466.727 707.31 466.727C707.848 466.727 708.34 466.652 708.787 466.5C709.234 466.348 709.616 466.121 709.935 465.818C710.253 465.515 710.495 465.144 710.662 464.705L715.139 465C714.912 466.076 714.446 467.015 713.741 467.818C713.045 468.614 712.143 469.235 711.037 469.682C709.938 470.121 708.67 470.341 707.23 470.341ZM718.401 470V452.545H723.094V455.591H723.276C723.594 454.508 724.128 453.689 724.878 453.136C725.628 452.576 726.491 452.295 727.469 452.295C727.711 452.295 727.973 452.311 728.253 452.341C728.533 452.371 728.779 452.413 728.991 452.466V456.761C728.764 456.693 728.45 456.633 728.048 456.58C727.647 456.527 727.279 456.5 726.946 456.5C726.234 456.5 725.598 456.655 725.037 456.966C724.484 457.269 724.045 457.693 723.719 458.239C723.401 458.784 723.241 459.413 723.241 460.125V470H718.401ZM735.972 470.33C734.858 470.33 733.866 470.136 732.994 469.75C732.123 469.356 731.434 468.777 730.926 468.011C730.426 467.239 730.176 466.277 730.176 465.125C730.176 464.155 730.354 463.341 730.71 462.682C731.066 462.023 731.551 461.492 732.165 461.091C732.778 460.689 733.475 460.386 734.256 460.182C735.044 459.977 735.869 459.833 736.733 459.75C737.748 459.644 738.566 459.545 739.188 459.455C739.809 459.356 740.259 459.212 740.54 459.023C740.82 458.833 740.96 458.553 740.96 458.182V458.114C740.96 457.394 740.733 456.837 740.278 456.443C739.831 456.049 739.195 455.852 738.369 455.852C737.498 455.852 736.805 456.045 736.29 456.432C735.775 456.811 735.434 457.288 735.267 457.864L730.79 457.5C731.017 456.439 731.464 455.523 732.131 454.75C732.797 453.97 733.657 453.371 734.71 452.955C735.771 452.53 736.998 452.318 738.392 452.318C739.362 452.318 740.29 452.432 741.176 452.659C742.07 452.886 742.862 453.239 743.551 453.716C744.248 454.193 744.797 454.807 745.199 455.557C745.6 456.299 745.801 457.189 745.801 458.227V470H741.21V467.58H741.074C740.794 468.125 740.419 468.606 739.949 469.023C739.479 469.432 738.915 469.754 738.256 469.989C737.597 470.216 736.835 470.33 735.972 470.33ZM737.358 466.989C738.07 466.989 738.699 466.848 739.244 466.568C739.79 466.28 740.218 465.894 740.528 465.409C740.839 464.924 740.994 464.375 740.994 463.761V461.909C740.843 462.008 740.634 462.098 740.369 462.182C740.112 462.258 739.82 462.33 739.494 462.398C739.169 462.458 738.843 462.515 738.517 462.568C738.191 462.614 737.896 462.655 737.631 462.693C737.063 462.777 736.566 462.909 736.142 463.091C735.718 463.273 735.388 463.519 735.153 463.83C734.919 464.133 734.801 464.511 734.801 464.966C734.801 465.625 735.04 466.129 735.517 466.477C736.002 466.818 736.616 466.989 737.358 466.989ZM749.557 470V452.545H754.25V455.591H754.432C754.75 454.508 755.284 453.689 756.034 453.136C756.784 452.576 757.648 452.295 758.625 452.295C758.867 452.295 759.129 452.311 759.409 452.341C759.689 452.371 759.936 452.413 760.148 452.466V456.761C759.92 456.693 759.606 456.633 759.205 456.58C758.803 456.527 758.436 456.5 758.102 456.5C757.39 456.5 756.754 456.655 756.193 456.966C755.64 457.269 755.201 457.693 754.875 458.239C754.557 458.784 754.398 459.413 754.398 460.125V470H749.557Z" fill="white"/>
<path d="M432.08 372.432V380H428.449V362.545H431.977V369.219H432.131C432.426 368.446 432.903 367.841 433.562 367.403C434.222 366.96 435.048 366.739 436.043 366.739C436.952 366.739 437.744 366.938 438.42 367.335C439.102 367.727 439.631 368.293 440.006 369.031C440.386 369.764 440.574 370.642 440.568 371.665V380H436.938V372.312C436.943 371.506 436.739 370.878 436.324 370.429C435.915 369.98 435.341 369.756 434.602 369.756C434.108 369.756 433.67 369.861 433.29 370.071C432.915 370.281 432.619 370.588 432.403 370.991C432.193 371.389 432.085 371.869 432.08 372.432ZM450.388 366.909V369.636H442.505V366.909H450.388ZM444.295 363.773H447.925V375.977C447.925 376.312 447.977 376.574 448.079 376.761C448.181 376.943 448.323 377.071 448.505 377.145C448.692 377.219 448.908 377.256 449.153 377.256C449.323 377.256 449.494 377.241 449.664 377.213C449.835 377.179 449.965 377.153 450.056 377.136L450.627 379.838C450.445 379.895 450.19 379.96 449.86 380.034C449.531 380.114 449.13 380.162 448.658 380.179C447.783 380.213 447.016 380.097 446.357 379.83C445.704 379.562 445.195 379.148 444.832 378.585C444.468 378.023 444.289 377.312 444.295 376.455V363.773ZM459.717 366.909V369.636H451.833V366.909H459.717ZM453.623 363.773H457.254V375.977C457.254 376.312 457.305 376.574 457.407 376.761C457.509 376.943 457.651 377.071 457.833 377.145C458.021 377.219 458.237 377.256 458.481 377.256C458.651 377.256 458.822 377.241 458.992 377.213C459.163 377.179 459.293 377.153 459.384 377.136L459.955 379.838C459.773 379.895 459.518 379.96 459.188 380.034C458.859 380.114 458.458 380.162 457.987 380.179C457.112 380.213 456.344 380.097 455.685 379.83C455.032 379.562 454.523 379.148 454.16 378.585C453.796 378.023 453.617 377.312 453.623 376.455V363.773ZM462.082 384.909V366.909H465.661V369.108H465.823C465.982 368.756 466.212 368.398 466.513 368.034C466.82 367.665 467.218 367.358 467.707 367.114C468.201 366.864 468.815 366.739 469.548 366.739C470.502 366.739 471.383 366.989 472.19 367.489C472.996 367.983 473.641 368.73 474.124 369.73C474.607 370.724 474.849 371.972 474.849 373.472C474.849 374.932 474.613 376.165 474.141 377.17C473.675 378.17 473.039 378.929 472.232 379.446C471.431 379.957 470.533 380.213 469.539 380.213C468.835 380.213 468.235 380.097 467.741 379.864C467.252 379.631 466.852 379.338 466.539 378.986C466.227 378.628 465.988 378.267 465.823 377.903H465.712V384.909H462.082ZM465.636 373.455C465.636 374.233 465.744 374.912 465.96 375.491C466.175 376.071 466.488 376.523 466.897 376.847C467.306 377.165 467.803 377.324 468.388 377.324C468.979 377.324 469.479 377.162 469.888 376.838C470.298 376.509 470.607 376.054 470.817 375.474C471.033 374.889 471.141 374.216 471.141 373.455C471.141 372.699 471.036 372.034 470.826 371.46C470.616 370.886 470.306 370.437 469.897 370.114C469.488 369.79 468.985 369.628 468.388 369.628C467.798 369.628 467.298 369.784 466.888 370.097C466.485 370.409 466.175 370.852 465.96 371.426C465.744 372 465.636 372.676 465.636 373.455ZM488.161 370.642L484.837 370.847C484.781 370.562 484.658 370.307 484.471 370.08C484.283 369.847 484.036 369.662 483.729 369.526C483.428 369.384 483.067 369.312 482.647 369.312C482.085 369.312 481.61 369.432 481.224 369.67C480.837 369.903 480.644 370.216 480.644 370.608C480.644 370.92 480.769 371.185 481.019 371.401C481.269 371.616 481.698 371.79 482.306 371.92L484.675 372.398C485.948 372.659 486.897 373.08 487.522 373.659C488.147 374.239 488.46 375 488.46 375.943C488.46 376.801 488.207 377.554 487.701 378.202C487.201 378.849 486.513 379.355 485.638 379.719C484.769 380.077 483.766 380.256 482.63 380.256C480.897 380.256 479.516 379.895 478.488 379.173C477.465 378.446 476.866 377.457 476.69 376.207L480.261 376.02C480.369 376.548 480.63 376.952 481.045 377.23C481.46 377.503 481.991 377.639 482.638 377.639C483.275 377.639 483.786 377.517 484.173 377.273C484.565 377.023 484.763 376.702 484.769 376.31C484.763 375.98 484.624 375.71 484.352 375.5C484.079 375.284 483.658 375.119 483.09 375.006L480.823 374.554C479.545 374.298 478.593 373.855 477.968 373.224C477.349 372.594 477.039 371.79 477.039 370.812C477.039 369.972 477.266 369.247 477.721 368.639C478.181 368.031 478.826 367.562 479.656 367.233C480.491 366.903 481.468 366.739 482.587 366.739C484.241 366.739 485.542 367.088 486.491 367.787C487.445 368.486 488.002 369.437 488.161 370.642ZM492.868 380.222C492.305 380.222 491.822 380.023 491.419 379.625C491.021 379.222 490.822 378.739 490.822 378.176C490.822 377.619 491.021 377.142 491.419 376.744C491.822 376.347 492.305 376.148 492.868 376.148C493.413 376.148 493.891 376.347 494.3 376.744C494.709 377.142 494.913 377.619 494.913 378.176C494.913 378.551 494.817 378.895 494.624 379.207C494.436 379.514 494.189 379.761 493.882 379.949C493.575 380.131 493.237 380.222 492.868 380.222ZM492.868 371.051C492.305 371.051 491.822 370.852 491.419 370.455C491.021 370.057 490.822 369.574 490.822 369.006C490.822 368.449 491.021 367.974 491.419 367.582C491.822 367.185 492.305 366.986 492.868 366.986C493.413 366.986 493.891 367.185 494.3 367.582C494.709 367.974 494.913 368.449 494.913 369.006C494.913 369.386 494.817 369.733 494.624 370.045C494.436 370.352 494.189 370.597 493.882 370.778C493.575 370.96 493.237 371.051 492.868 371.051ZM505.496 361.727L499.871 382.625H496.744L502.369 361.727H505.496ZM514.848 361.727L509.223 382.625H506.095L511.72 361.727H514.848ZM522.563 380.256C521.217 380.256 520.058 379.983 519.086 379.438C518.12 378.886 517.376 378.108 516.853 377.102C516.33 376.091 516.069 374.895 516.069 373.514C516.069 372.168 516.33 370.986 516.853 369.969C517.376 368.952 518.112 368.159 519.06 367.591C520.015 367.023 521.134 366.739 522.418 366.739C523.282 366.739 524.086 366.878 524.83 367.156C525.58 367.429 526.234 367.841 526.79 368.392C527.353 368.943 527.79 369.636 528.103 370.472C528.415 371.301 528.572 372.273 528.572 373.386V374.384H517.518V372.134H525.154C525.154 371.611 525.04 371.148 524.813 370.744C524.586 370.341 524.271 370.026 523.867 369.798C523.469 369.565 523.006 369.449 522.478 369.449C521.927 369.449 521.438 369.577 521.012 369.832C520.592 370.082 520.262 370.42 520.023 370.847C519.785 371.267 519.663 371.736 519.657 372.253V374.392C519.657 375.04 519.776 375.599 520.015 376.071C520.259 376.543 520.603 376.906 521.046 377.162C521.489 377.418 522.015 377.545 522.623 377.545C523.026 377.545 523.396 377.489 523.731 377.375C524.066 377.261 524.353 377.091 524.592 376.864C524.83 376.636 525.012 376.358 525.137 376.028L528.495 376.25C528.325 377.057 527.975 377.761 527.447 378.364C526.924 378.96 526.248 379.426 525.418 379.761C524.594 380.091 523.643 380.256 522.563 380.256ZM533.741 366.909L536.144 371.486L538.607 366.909H542.332L538.539 373.455L542.434 380H538.727L536.144 375.474L533.604 380H529.854L533.741 373.455L529.991 366.909H533.741ZM549.985 380.256C548.638 380.256 547.479 379.983 546.508 379.438C545.542 378.886 544.798 378.108 544.275 377.102C543.752 376.091 543.491 374.895 543.491 373.514C543.491 372.168 543.752 370.986 544.275 369.969C544.798 368.952 545.533 368.159 546.482 367.591C547.437 367.023 548.556 366.739 549.84 366.739C550.704 366.739 551.508 366.878 552.252 367.156C553.002 367.429 553.656 367.841 554.212 368.392C554.775 368.943 555.212 369.636 555.525 370.472C555.837 371.301 555.994 372.273 555.994 373.386V374.384H544.94V372.134H552.576C552.576 371.611 552.462 371.148 552.235 370.744C552.008 370.341 551.692 370.026 551.289 369.798C550.891 369.565 550.428 369.449 549.9 369.449C549.349 369.449 548.86 369.577 548.434 369.832C548.013 370.082 547.684 370.42 547.445 370.847C547.207 371.267 547.085 371.736 547.079 372.253V374.392C547.079 375.04 547.198 375.599 547.437 376.071C547.681 376.543 548.025 376.906 548.468 377.162C548.911 377.418 549.437 377.545 550.045 377.545C550.448 377.545 550.817 377.489 551.153 377.375C551.488 377.261 551.775 377.091 552.013 376.864C552.252 376.636 552.434 376.358 552.559 376.028L555.917 376.25C555.746 377.057 555.397 377.761 554.869 378.364C554.346 378.96 553.67 379.426 552.84 379.761C552.016 380.091 551.065 380.256 549.985 380.256ZM558.363 380V366.909H561.823V369.219H561.977C562.249 368.452 562.704 367.847 563.34 367.403C563.977 366.96 564.738 366.739 565.624 366.739C566.522 366.739 567.286 366.963 567.917 367.412C568.548 367.855 568.968 368.457 569.178 369.219H569.315C569.582 368.469 570.065 367.869 570.763 367.42C571.468 366.966 572.3 366.739 573.261 366.739C574.482 366.739 575.474 367.128 576.235 367.906C577.002 368.679 577.386 369.776 577.386 371.196V380H573.763V371.912C573.763 371.185 573.57 370.639 573.184 370.276C572.798 369.912 572.315 369.73 571.735 369.73C571.076 369.73 570.562 369.94 570.192 370.361C569.823 370.776 569.638 371.324 569.638 372.006V380H566.119V371.835C566.119 371.193 565.934 370.682 565.565 370.301C565.201 369.92 564.721 369.73 564.124 369.73C563.721 369.73 563.357 369.832 563.033 370.037C562.715 370.236 562.462 370.517 562.275 370.881C562.087 371.239 561.994 371.659 561.994 372.142V380H558.363ZM580.254 384.909V366.909H583.833V369.108H583.995C584.154 368.756 584.384 368.398 584.685 368.034C584.992 367.665 585.39 367.358 585.879 367.114C586.373 366.864 586.987 366.739 587.719 366.739C588.674 366.739 589.555 366.989 590.362 367.489C591.168 367.983 591.813 368.73 592.296 369.73C592.779 370.724 593.021 371.972 593.021 373.472C593.021 374.932 592.785 376.165 592.313 377.17C591.847 378.17 591.211 378.929 590.404 379.446C589.603 379.957 588.705 380.213 587.711 380.213C587.006 380.213 586.407 380.097 585.913 379.864C585.424 379.631 585.023 379.338 584.711 378.986C584.398 378.628 584.16 378.267 583.995 377.903H583.884V384.909H580.254ZM583.808 373.455C583.808 374.233 583.915 374.912 584.131 375.491C584.347 376.071 584.66 376.523 585.069 376.847C585.478 377.165 585.975 377.324 586.56 377.324C587.151 377.324 587.651 377.162 588.06 376.838C588.469 376.509 588.779 376.054 588.989 375.474C589.205 374.889 589.313 374.216 589.313 373.455C589.313 372.699 589.208 372.034 588.998 371.46C588.788 370.886 588.478 370.437 588.069 370.114C587.66 369.79 587.157 369.628 586.56 369.628C585.969 369.628 585.469 369.784 585.06 370.097C584.657 370.409 584.347 370.852 584.131 371.426C583.915 372 583.808 372.676 583.808 373.455ZM599.072 362.545V380H595.441V362.545H599.072ZM607.895 380.256C606.571 380.256 605.426 379.974 604.46 379.412C603.5 378.844 602.759 378.054 602.236 377.043C601.713 376.026 601.452 374.847 601.452 373.506C601.452 372.153 601.713 370.972 602.236 369.96C602.759 368.943 603.5 368.153 604.46 367.591C605.426 367.023 606.571 366.739 607.895 366.739C609.219 366.739 610.361 367.023 611.321 367.591C612.287 368.153 613.031 368.943 613.554 369.96C614.077 370.972 614.338 372.153 614.338 373.506C614.338 374.847 614.077 376.026 613.554 377.043C613.031 378.054 612.287 378.844 611.321 379.412C610.361 379.974 609.219 380.256 607.895 380.256ZM607.912 377.443C608.514 377.443 609.017 377.273 609.42 376.932C609.824 376.585 610.128 376.114 610.332 375.517C610.543 374.92 610.648 374.241 610.648 373.48C610.648 372.719 610.543 372.04 610.332 371.443C610.128 370.847 609.824 370.375 609.42 370.028C609.017 369.682 608.514 369.509 607.912 369.509C607.304 369.509 606.793 369.682 606.378 370.028C605.969 370.375 605.659 370.847 605.449 371.443C605.244 372.04 605.142 372.719 605.142 373.48C605.142 374.241 605.244 374.92 605.449 375.517C605.659 376.114 605.969 376.585 606.378 376.932C606.793 377.273 607.304 377.443 607.912 377.443ZM618.821 380.222C618.259 380.222 617.776 380.023 617.372 379.625C616.974 379.222 616.776 378.739 616.776 378.176C616.776 377.619 616.974 377.142 617.372 376.744C617.776 376.347 618.259 376.148 618.821 376.148C619.366 376.148 619.844 376.347 620.253 376.744C620.662 377.142 620.866 377.619 620.866 378.176C620.866 378.551 620.77 378.895 620.577 379.207C620.389 379.514 620.142 379.761 619.835 379.949C619.528 380.131 619.19 380.222 618.821 380.222ZM629.762 380.256C628.421 380.256 627.268 379.972 626.302 379.403C625.342 378.83 624.603 378.034 624.086 377.017C623.575 376 623.319 374.83 623.319 373.506C623.319 372.165 623.577 370.989 624.094 369.977C624.617 368.96 625.359 368.168 626.319 367.599C627.279 367.026 628.421 366.739 629.745 366.739C630.887 366.739 631.887 366.946 632.745 367.361C633.603 367.776 634.282 368.358 634.782 369.108C635.282 369.858 635.558 370.739 635.609 371.75H632.183C632.086 371.097 631.83 370.571 631.415 370.173C631.006 369.77 630.469 369.568 629.805 369.568C629.242 369.568 628.751 369.722 628.33 370.028C627.915 370.33 627.592 370.77 627.359 371.349C627.126 371.929 627.009 372.631 627.009 373.455C627.009 374.29 627.123 375 627.35 375.585C627.583 376.17 627.91 376.616 628.33 376.923C628.751 377.23 629.242 377.384 629.805 377.384C630.219 377.384 630.592 377.298 630.921 377.128C631.256 376.957 631.532 376.71 631.748 376.386C631.969 376.057 632.114 375.662 632.183 375.202H635.609C635.552 376.202 635.279 377.082 634.79 377.844C634.308 378.599 633.64 379.19 632.788 379.616C631.935 380.043 630.927 380.256 629.762 380.256ZM643.848 380.256C642.524 380.256 641.379 379.974 640.413 379.412C639.453 378.844 638.712 378.054 638.189 377.043C637.666 376.026 637.405 374.847 637.405 373.506C637.405 372.153 637.666 370.972 638.189 369.96C638.712 368.943 639.453 368.153 640.413 367.591C641.379 367.023 642.524 366.739 643.848 366.739C645.172 366.739 646.314 367.023 647.274 367.591C648.24 368.153 648.984 368.943 649.507 369.96C650.03 370.972 650.291 372.153 650.291 373.506C650.291 374.847 650.03 376.026 649.507 377.043C648.984 378.054 648.24 378.844 647.274 379.412C646.314 379.974 645.172 380.256 643.848 380.256ZM643.865 377.443C644.467 377.443 644.97 377.273 645.374 376.932C645.777 376.585 646.081 376.114 646.286 375.517C646.496 374.92 646.601 374.241 646.601 373.48C646.601 372.719 646.496 372.04 646.286 371.443C646.081 370.847 645.777 370.375 645.374 370.028C644.97 369.682 644.467 369.509 643.865 369.509C643.257 369.509 642.746 369.682 642.331 370.028C641.922 370.375 641.612 370.847 641.402 371.443C641.197 372.04 641.095 372.719 641.095 373.48C641.095 374.241 641.197 374.92 641.402 375.517C641.612 376.114 641.922 376.585 642.331 376.932C642.746 377.273 643.257 377.443 643.865 377.443ZM652.652 380V366.909H656.112V369.219H656.266C656.538 368.452 656.993 367.847 657.629 367.403C658.266 366.96 659.027 366.739 659.913 366.739C660.811 366.739 661.575 366.963 662.206 367.412C662.837 367.855 663.257 368.457 663.467 369.219H663.604C663.871 368.469 664.354 367.869 665.053 367.42C665.757 366.966 666.589 366.739 667.55 366.739C668.771 366.739 669.763 367.128 670.524 367.906C671.291 368.679 671.675 369.776 671.675 371.196V380H668.053V371.912C668.053 371.185 667.859 370.639 667.473 370.276C667.087 369.912 666.604 369.73 666.024 369.73C665.365 369.73 664.851 369.94 664.482 370.361C664.112 370.776 663.928 371.324 663.928 372.006V380H660.408V371.835C660.408 371.193 660.223 370.682 659.854 370.301C659.49 369.92 659.01 369.73 658.413 369.73C658.01 369.73 657.646 369.832 657.322 370.037C657.004 370.236 656.751 370.517 656.564 370.881C656.376 371.239 656.283 371.659 656.283 372.142V380H652.652Z" fill="#1E1E1E" fill-opacity="0.53"/>
<rect x="557" y="539" width="326" height="306" rx="17" stroke="#00C5F0" stroke-width="4"/>
<rect x="825" y="789" width="60" height="58" rx="11" fill="#00C5F0"/>
<g clip-path="url(#clip0_1_44)">
<path d="M838.5 833H871.5V837H838.5V833ZM856.833 821.344L867.963 809.2L870.556 812.028L855 829L839.444 812.03L842.036 809.2L853.167 821.34V799H856.833V821.344Z" fill="white"/>
</g>
<path d="M1286.06 70.4547C1286.06 70.6574 1285.81 70.8195 1285.5 70.8195C1285.14 70.8499 1284.89 70.6878 1284.89 70.4547C1284.89 70.2521 1285.14 70.09 1285.45 70.09C1285.78 70.0596 1286.06 70.2217 1286.06 70.4547ZM1282.68 69.9988C1282.6 70.2014 1282.82 70.4345 1283.14 70.4953C1283.43 70.5966 1283.75 70.4953 1283.82 70.2926C1283.88 70.09 1283.68 69.8569 1283.35 69.7657C1283.07 69.6948 1282.75 69.7961 1282.68 69.9988ZM1287.49 69.8265C1287.17 69.8975 1286.95 70.09 1286.99 70.323C1287.02 70.5257 1287.3 70.6574 1287.63 70.5864C1287.95 70.5155 1288.16 70.323 1288.13 70.1204C1288.1 69.9279 1287.8 69.7961 1287.49 69.8265ZM1294.65 31C1279.55 31 1268 41.6692 1268 55.7225C1268 66.9591 1275.6 76.5746 1286.45 79.9587C1287.85 80.1918 1288.34 79.3913 1288.34 78.7327C1288.34 78.1045 1288.3 74.6393 1288.3 72.5116C1288.3 72.5116 1280.68 74.0314 1279.08 69.4922C1279.08 69.4922 1277.84 66.5437 1276.06 65.7838C1276.06 65.7838 1273.56 64.193 1276.23 64.2234C1276.23 64.2234 1278.94 64.4261 1280.43 66.8375C1282.82 70.7486 1286.81 69.6239 1288.37 68.9552C1288.62 67.334 1289.33 66.2093 1290.11 65.5406C1284.03 64.9124 1277.89 64.0917 1277.89 54.3446C1277.89 51.5582 1278.71 50.16 1280.45 48.3767C1280.17 47.7181 1279.25 45.0027 1280.74 41.4969C1283.01 40.8384 1288.25 44.2326 1288.25 44.2326C1290.43 43.6652 1292.77 43.3714 1295.09 43.3714C1297.41 43.3714 1299.75 43.6652 1301.92 44.2326C1301.92 44.2326 1307.16 40.8282 1309.44 41.4969C1310.93 45.0128 1310 47.7181 1309.72 48.3767C1311.46 50.1701 1312.53 51.5683 1312.53 54.3446C1312.53 64.1221 1306.12 64.9023 1300.03 65.5406C1301.03 66.3411 1301.88 67.8609 1301.88 70.2419C1301.88 73.6565 1301.85 77.8816 1301.85 78.7125C1301.85 79.371 1302.35 80.1715 1303.73 79.9385C1314.62 76.5746 1322 66.9591 1322 55.7225C1322 41.6692 1309.75 31 1294.65 31ZM1278.58 65.9459C1278.44 66.0472 1278.47 66.2803 1278.66 66.4728C1278.83 66.6349 1279.08 66.7058 1279.22 66.5741C1279.37 66.4728 1279.33 66.2397 1279.15 66.0472C1278.97 65.8851 1278.72 65.8142 1278.58 65.9459ZM1277.41 65.1252C1277.33 65.2569 1277.44 65.419 1277.66 65.5204C1277.83 65.6217 1278.05 65.5913 1278.13 65.4494C1278.2 65.3177 1278.09 65.1556 1277.87 65.0543C1277.66 64.9935 1277.48 65.0239 1277.41 65.1252ZM1280.93 68.7323C1280.76 68.864 1280.82 69.1679 1281.08 69.3605C1281.33 69.5935 1281.64 69.6239 1281.78 69.4618C1281.92 69.3301 1281.86 69.0261 1281.64 68.8336C1281.4 68.6005 1281.08 68.5701 1280.93 68.7323ZM1279.69 67.2428C1279.52 67.3441 1279.52 67.6076 1279.69 67.8406C1279.87 68.0737 1280.16 68.175 1280.3 68.0737C1280.48 67.9419 1280.48 67.6785 1280.3 67.4455C1280.15 67.2124 1279.87 67.1111 1279.69 67.2428Z" fill="#00C5F0"/>
<g clip-path="url(#clip1_1_44)">
<path d="M1396.58 31H1367.42C1361.66 31 1357 35.5713 1357 41.2083V69.7917C1357 75.4287 1361.66 80 1367.42 80H1396.58C1402.34 80 1407 75.4287 1407 69.7917V41.2083C1407 35.5713 1402.34 31 1396.58 31ZM1373.67 69.7917H1367.42V47.3333H1373.67V69.7917ZM1370.54 44.7445C1368.53 44.7445 1366.9 43.1316 1366.9 41.143C1366.9 39.1544 1368.53 37.5415 1370.54 37.5415C1372.55 37.5415 1374.19 39.1544 1374.19 41.143C1374.19 43.1316 1372.56 44.7445 1370.54 44.7445ZM1398.67 69.7917H1392.42V58.3502C1392.42 51.4738 1384.08 51.9945 1384.08 58.3502V69.7917H1377.83V47.3333H1384.08V50.9369C1386.99 45.6571 1398.67 45.2672 1398.67 55.992V69.7917Z" fill="#00C5F0"/>
</g>
<defs>
<clipPath id="clip0_1_44">
<rect width="44" height="48" fill="white" transform="translate(833 795)"/>
</clipPath>
<clipPath id="clip1_1_44">
<rect width="50" height="49" fill="white" transform="translate(1357 31)"/>
</clipPath>
</defs>
</svg>
