<svg width="1440" height="1024" viewBox="0 0 1440 1024" fill="none" xmlns="http://www.w3.org/2000/svg">
<rect width="1440" height="1024" fill="#FBFBFB"/>
<rect width="495" height="478" transform="translate(835 275)" fill="white"/>
<rect width="470.25" height="454.1" transform="translate(849.85 289.34)" fill="white"/>
<rect width="470.25" height="454.1" transform="translate(849.85 289.34)" fill="white"/>
<path d="M873.362 433.138H857.688V448.275H873.362V433.138Z" fill="#8600F0"/>
<path d="M873.362 463.412H857.688V478.548H873.362V463.412Z" fill="#8600F0"/>
<path d="M873.362 508.822H857.688V523.958H873.362V508.822Z" fill="#8600F0"/>
<path d="M873.362 554.232H857.688V569.368H873.362V554.232Z" fill="#8600F0"/>
<path d="M873.362 569.368H857.688V584.505H873.362V569.368Z" fill="#8600F0"/>
<path d="M873.362 584.505H857.688V599.642H873.362V584.505Z" fill="#8600F0"/>
<path d="M889.038 463.412H873.363V478.548H889.038V463.412Z" fill="#8600F0"/>
<path d="M889.038 493.685H873.363V508.822H889.038V493.685Z" fill="#8600F0"/>
<path d="M889.038 508.822H873.363V523.958H889.038V508.822Z" fill="#8600F0"/>
<path d="M889.038 599.642H873.363V614.778H889.038V599.642Z" fill="#8600F0"/>
<path d="M904.713 418.002H889.038V433.138H904.713V418.002Z" fill="#8600F0"/>
<path d="M904.713 433.138H889.038V448.275H904.713V433.138Z" fill="#8600F0"/>
<path d="M904.713 448.275H889.038V463.412H904.713V448.275Z" fill="#8600F0"/>
<path d="M904.713 463.412H889.038V478.548H904.713V463.412Z" fill="#8600F0"/>
<path d="M904.713 554.232H889.038V569.368H904.713V554.232Z" fill="#8600F0"/>
<path d="M904.713 569.368H889.038V584.505H904.713V569.368Z" fill="#8600F0"/>
<path d="M904.713 584.505H889.038V599.642H904.713V584.505Z" fill="#8600F0"/>
<path d="M904.713 599.642H889.038V614.778H904.713V599.642Z" fill="#8600F0"/>
<path d="M920.387 463.412H904.712V478.548H920.387V463.412Z" fill="#8600F0"/>
<path d="M920.387 569.368H904.712V584.505H920.387V569.368Z" fill="#8600F0"/>
<path d="M920.387 584.505H904.712V599.642H920.387V584.505Z" fill="#8600F0"/>
<path d="M936.062 418.002H920.387V433.138H936.062V418.002Z" fill="#8600F0"/>
<path d="M936.062 448.275H920.387V463.412H936.062V448.275Z" fill="#8600F0"/>
<path d="M936.062 539.095H920.387V554.232H936.062V539.095Z" fill="#8600F0"/>
<path d="M936.062 599.642H920.387V614.778H936.062V599.642Z" fill="#8600F0"/>
<path d="M951.737 418.002H936.062V433.138H951.737V418.002Z" fill="#8600F0"/>
<path d="M951.737 433.138H936.062V448.275H951.737V433.138Z" fill="#8600F0"/>
<path d="M951.737 478.548H936.062V493.685H951.737V478.548Z" fill="#8600F0"/>
<path d="M951.737 508.822H936.062V523.958H951.737V508.822Z" fill="#8600F0"/>
<path d="M951.737 539.095H936.062V554.232H951.737V539.095Z" fill="#8600F0"/>
<path d="M951.737 569.368H936.062V584.505H951.737V569.368Z" fill="#8600F0"/>
<path d="M951.737 584.505H936.062V599.642H951.737V584.505Z" fill="#8600F0"/>
<path d="M967.413 418.002H951.738V433.138H967.413V418.002Z" fill="#8600F0"/>
<path d="M967.413 448.275H951.738V463.412H967.413V448.275Z" fill="#8600F0"/>
<path d="M967.413 478.548H951.738V493.685H967.413V478.548Z" fill="#8600F0"/>
<path d="M967.413 508.822H951.738V523.958H967.413V508.822Z" fill="#8600F0"/>
<path d="M967.413 539.095H951.738V554.232H967.413V539.095Z" fill="#8600F0"/>
<path d="M967.413 569.368H951.738V584.505H967.413V569.368Z" fill="#8600F0"/>
<path d="M967.413 599.642H951.738V614.778H967.413V599.642Z" fill="#8600F0"/>
<path d="M983.088 448.275H967.413V463.412H983.088V448.275Z" fill="#8600F0"/>
<path d="M983.088 478.548H967.413V493.685H983.088V478.548Z" fill="#8600F0"/>
<path d="M983.088 508.822H967.413V523.958H983.088V508.822Z" fill="#8600F0"/>
<path d="M983.088 554.232H967.413V569.368H983.088V554.232Z" fill="#8600F0"/>
<path d="M983.088 569.368H967.413V584.505H983.088V569.368Z" fill="#8600F0"/>
<path d="M983.088 599.642H967.413V614.778H983.088V599.642Z" fill="#8600F0"/>
<path d="M998.762 312.045H983.087V327.182H998.762V312.045Z" fill="#8600F0"/>
<path d="M998.762 357.455H983.087V372.592H998.762V357.455Z" fill="#8600F0"/>
<path d="M998.762 387.728H983.087V402.865H998.762V387.728Z" fill="#8600F0"/>
<path d="M998.762 418.002H983.087V433.138H998.762V418.002Z" fill="#8600F0"/>
<path d="M998.762 448.275H983.087V463.412H998.762V448.275Z" fill="#8600F0"/>
<path d="M998.762 493.685H983.087V508.822H998.762V493.685Z" fill="#8600F0"/>
<path d="M998.762 539.095H983.087V554.232H998.762V539.095Z" fill="#8600F0"/>
<path d="M998.762 569.368H983.087V584.505H998.762V569.368Z" fill="#8600F0"/>
<path d="M998.762 584.505H983.087V599.642H998.762V584.505Z" fill="#8600F0"/>
<path d="M998.762 599.642H983.087V614.778H998.762V599.642Z" fill="#8600F0"/>
<path d="M998.762 614.778H983.087V629.915H998.762V614.778Z" fill="#8600F0"/>
<path d="M998.762 645.052H983.087V660.188H998.762V645.052Z" fill="#8600F0"/>
<path d="M998.762 660.188H983.087V675.325H998.762V660.188Z" fill="#8600F0"/>
<path d="M998.762 690.462H983.087V705.598H998.762V690.462Z" fill="#8600F0"/>
<path d="M1014.44 342.318H998.762V357.455H1014.44V342.318Z" fill="#8600F0"/>
<path d="M1014.44 357.455H998.762V372.592H1014.44V357.455Z" fill="#8600F0"/>
<path d="M1014.44 402.865H998.762V418.002H1014.44V402.865Z" fill="#8600F0"/>
<path d="M1014.44 433.138H998.762V448.275H1014.44V433.138Z" fill="#8600F0"/>
<path d="M1014.44 448.275H998.762V463.412H1014.44V448.275Z" fill="#8600F0"/>
<path d="M1014.44 493.685H998.762V508.822H1014.44V493.685Z" fill="#8600F0"/>
<path d="M1014.44 523.958H998.762V539.095H1014.44V523.958Z" fill="#8600F0"/>
<path d="M1014.44 584.505H998.762V599.642H1014.44V584.505Z" fill="#8600F0"/>
<path d="M1014.44 599.642H998.762V614.778H1014.44V599.642Z" fill="#8600F0"/>
<path d="M1014.44 614.778H998.762V629.915H1014.44V614.778Z" fill="#8600F0"/>
<path d="M1014.44 645.052H998.762V660.188H1014.44V645.052Z" fill="#8600F0"/>
<path d="M1014.44 660.188H998.762V675.325H1014.44V660.188Z" fill="#8600F0"/>
<path d="M1014.44 705.598H998.762V720.735H1014.44V705.598Z" fill="#8600F0"/>
<path d="M1014.44 720.735H998.762V735.872H1014.44V720.735Z" fill="#8600F0"/>
<path d="M1030.11 296.908H1014.44V312.045H1030.11V296.908Z" fill="#8600F0"/>
<path d="M1030.11 312.045H1014.44V327.182H1030.11V312.045Z" fill="#8600F0"/>
<path d="M1030.11 327.182H1014.44V342.318H1030.11V327.182Z" fill="#8600F0"/>
<path d="M1030.11 342.318H1014.44V357.455H1030.11V342.318Z" fill="#8600F0"/>
<path d="M1030.11 357.455H1014.44V372.592H1030.11V357.455Z" fill="#8600F0"/>
<path d="M1030.11 387.728H1014.44V402.865H1030.11V387.728Z" fill="#8600F0"/>
<path d="M1030.11 433.138H1014.44V448.275H1030.11V433.138Z" fill="#8600F0"/>
<path d="M1030.11 493.685H1014.44V508.822H1030.11V493.685Z" fill="#8600F0"/>
<path d="M1030.11 508.822H1014.44V523.958H1030.11V508.822Z" fill="#8600F0"/>
<path d="M1030.11 539.095H1014.44V554.232H1030.11V539.095Z" fill="#8600F0"/>
<path d="M1030.11 554.232H1014.44V569.368H1030.11V554.232Z" fill="#8600F0"/>
<path d="M1030.11 599.642H1014.44V614.778H1030.11V599.642Z" fill="#8600F0"/>
<path d="M1030.11 614.778H1014.44V629.915H1030.11V614.778Z" fill="#8600F0"/>
<path d="M1030.11 645.052H1014.44V660.188H1030.11V645.052Z" fill="#8600F0"/>
<path d="M1030.11 660.188H1014.44V675.325H1030.11V660.188Z" fill="#8600F0"/>
<path d="M1030.11 675.325H1014.44V690.462H1030.11V675.325Z" fill="#8600F0"/>
<path d="M1030.11 690.462H1014.44V705.598H1030.11V690.462Z" fill="#8600F0"/>
<path d="M1030.11 720.735H1014.44V735.872H1030.11V720.735Z" fill="#8600F0"/>
<path d="M1045.79 312.045H1030.11V327.182H1045.79V312.045Z" fill="#8600F0"/>
<path d="M1045.79 327.182H1030.11V342.318H1045.79V327.182Z" fill="#8600F0"/>
<path d="M1045.79 357.455H1030.11V372.592H1045.79V357.455Z" fill="#8600F0"/>
<path d="M1045.79 372.592H1030.11V387.728H1045.79V372.592Z" fill="#8600F0"/>
<path d="M1045.79 402.865H1030.11V418.002H1045.79V402.865Z" fill="#8600F0"/>
<path d="M1045.79 418.002H1030.11V433.138H1045.79V418.002Z" fill="#8600F0"/>
<path d="M1045.79 433.138H1030.11V448.275H1045.79V433.138Z" fill="#8600F0"/>
<path d="M1045.79 463.412H1030.11V478.548H1045.79V463.412Z" fill="#8600F0"/>
<path d="M1045.79 478.548H1030.11V493.685H1045.79V478.548Z" fill="#8600F0"/>
<path d="M1045.79 493.685H1030.11V508.822H1045.79V493.685Z" fill="#8600F0"/>
<path d="M1045.79 523.958H1030.11V539.095H1045.79V523.958Z" fill="#8600F0"/>
<path d="M1045.79 554.232H1030.11V569.368H1045.79V554.232Z" fill="#8600F0"/>
<path d="M1045.79 569.368H1030.11V584.505H1045.79V569.368Z" fill="#8600F0"/>
<path d="M1045.79 614.778H1030.11V629.915H1045.79V614.778Z" fill="#8600F0"/>
<path d="M1045.79 645.052H1030.11V660.188H1045.79V645.052Z" fill="#8600F0"/>
<path d="M1045.79 675.325H1030.11V690.462H1045.79V675.325Z" fill="#8600F0"/>
<path d="M1045.79 705.598H1030.11V720.735H1045.79V705.598Z" fill="#8600F0"/>
<path d="M1045.79 720.735H1030.11V735.872H1045.79V720.735Z" fill="#8600F0"/>
<path d="M1061.46 357.455H1045.79V372.592H1061.46V357.455Z" fill="#8600F0"/>
<path d="M1061.46 387.728H1045.79V402.865H1061.46V387.728Z" fill="#8600F0"/>
<path d="M1061.46 402.865H1045.79V418.002H1061.46V402.865Z" fill="#8600F0"/>
<path d="M1061.46 418.002H1045.79V433.138H1061.46V418.002Z" fill="#8600F0"/>
<path d="M1061.46 463.412H1045.79V478.548H1061.46V463.412Z" fill="#8600F0"/>
<path d="M1061.46 493.685H1045.79V508.822H1061.46V493.685Z" fill="#8600F0"/>
<path d="M1061.46 508.822H1045.79V523.958H1061.46V508.822Z" fill="#8600F0"/>
<path d="M1061.46 539.095H1045.79V554.232H1061.46V539.095Z" fill="#8600F0"/>
<path d="M1061.46 554.232H1045.79V569.368H1061.46V554.232Z" fill="#8600F0"/>
<path d="M1061.46 584.505H1045.79V599.642H1061.46V584.505Z" fill="#8600F0"/>
<path d="M1061.46 599.642H1045.79V614.778H1061.46V599.642Z" fill="#8600F0"/>
<path d="M1061.46 645.052H1045.79V660.188H1061.46V645.052Z" fill="#8600F0"/>
<path d="M1061.46 675.325H1045.79V690.462H1061.46V675.325Z" fill="#8600F0"/>
<path d="M1061.46 690.462H1045.79V705.598H1061.46V690.462Z" fill="#8600F0"/>
<path d="M1061.46 720.735H1045.79V735.872H1061.46V720.735Z" fill="#8600F0"/>
<path d="M1077.14 296.908H1061.46V312.045H1077.14V296.908Z" fill="#8600F0"/>
<path d="M1077.14 312.045H1061.46V327.182H1077.14V312.045Z" fill="#8600F0"/>
<path d="M1077.14 372.592H1061.46V387.728H1077.14V372.592Z" fill="#8600F0"/>
<path d="M1077.14 402.865H1061.46V418.002H1077.14V402.865Z" fill="#8600F0"/>
<path d="M1077.14 418.002H1061.46V433.138H1077.14V418.002Z" fill="#8600F0"/>
<path d="M1077.14 493.685H1061.46V508.822H1077.14V493.685Z" fill="#8600F0"/>
<path d="M1077.14 539.095H1061.46V554.232H1077.14V539.095Z" fill="#8600F0"/>
<path d="M1077.14 554.232H1061.46V569.368H1077.14V554.232Z" fill="#8600F0"/>
<path d="M1077.14 629.915H1061.46V645.052H1077.14V629.915Z" fill="#8600F0"/>
<path d="M1077.14 660.188H1061.46V675.325H1077.14V660.188Z" fill="#8600F0"/>
<path d="M1077.14 690.462H1061.46V705.598H1077.14V690.462Z" fill="#8600F0"/>
<path d="M1077.14 720.735H1061.46V735.872H1077.14V720.735Z" fill="#8600F0"/>
<path d="M1092.81 296.908H1077.14V312.045H1092.81V296.908Z" fill="#8600F0"/>
<path d="M1092.81 312.045H1077.14V327.182H1092.81V312.045Z" fill="#8600F0"/>
<path d="M1092.81 327.182H1077.14V342.318H1092.81V327.182Z" fill="#8600F0"/>
<path d="M1092.81 357.455H1077.14V372.592H1092.81V357.455Z" fill="#8600F0"/>
<path d="M1092.81 387.728H1077.14V402.865H1092.81V387.728Z" fill="#8600F0"/>
<path d="M1092.81 402.865H1077.14V418.002H1092.81V402.865Z" fill="#8600F0"/>
<path d="M1092.81 418.002H1077.14V433.138H1092.81V418.002Z" fill="#8600F0"/>
<path d="M1092.81 508.822H1077.14V523.958H1092.81V508.822Z" fill="#8600F0"/>
<path d="M1092.81 523.958H1077.14V539.095H1092.81V523.958Z" fill="#8600F0"/>
<path d="M1092.81 539.095H1077.14V554.232H1092.81V539.095Z" fill="#8600F0"/>
<path d="M1092.81 569.368H1077.14V584.505H1092.81V569.368Z" fill="#8600F0"/>
<path d="M1092.81 599.642H1077.14V614.778H1092.81V599.642Z" fill="#8600F0"/>
<path d="M1092.81 614.778H1077.14V629.915H1092.81V614.778Z" fill="#8600F0"/>
<path d="M1092.81 660.188H1077.14V675.325H1092.81V660.188Z" fill="#8600F0"/>
<path d="M1092.81 705.598H1077.14V720.735H1092.81V705.598Z" fill="#8600F0"/>
<path d="M1092.81 720.735H1077.14V735.872H1092.81V720.735Z" fill="#8600F0"/>
<path d="M1108.49 296.908H1092.81V312.045H1108.49V296.908Z" fill="#8600F0"/>
<path d="M1108.49 402.865H1092.81V418.002H1108.49V402.865Z" fill="#8600F0"/>
<path d="M1108.49 418.002H1092.81V433.138H1108.49V418.002Z" fill="#8600F0"/>
<path d="M1108.49 463.412H1092.81V478.548H1108.49V463.412Z" fill="#8600F0"/>
<path d="M1108.49 493.685H1092.81V508.822H1108.49V493.685Z" fill="#8600F0"/>
<path d="M1108.49 508.822H1092.81V523.958H1108.49V508.822Z" fill="#8600F0"/>
<path d="M1108.49 539.095H1092.81V554.232H1108.49V539.095Z" fill="#8600F0"/>
<path d="M1108.49 599.642H1092.81V614.778H1108.49V599.642Z" fill="#8600F0"/>
<path d="M1108.49 629.915H1092.81V645.052H1108.49V629.915Z" fill="#8600F0"/>
<path d="M1108.49 645.052H1092.81V660.188H1108.49V645.052Z" fill="#8600F0"/>
<path d="M1108.49 675.325H1092.81V690.462H1108.49V675.325Z" fill="#8600F0"/>
<path d="M1108.49 720.735H1092.81V735.872H1108.49V720.735Z" fill="#8600F0"/>
<path d="M1124.16 296.908H1108.49V312.045H1124.16V296.908Z" fill="#8600F0"/>
<path d="M1124.16 312.045H1108.49V327.182H1124.16V312.045Z" fill="#8600F0"/>
<path d="M1124.16 327.182H1108.49V342.318H1124.16V327.182Z" fill="#8600F0"/>
<path d="M1124.16 357.455H1108.49V372.592H1124.16V357.455Z" fill="#8600F0"/>
<path d="M1124.16 372.592H1108.49V387.728H1124.16V372.592Z" fill="#8600F0"/>
<path d="M1124.16 387.728H1108.49V402.865H1124.16V387.728Z" fill="#8600F0"/>
<path d="M1124.16 433.138H1108.49V448.275H1124.16V433.138Z" fill="#8600F0"/>
<path d="M1124.16 463.412H1108.49V478.548H1124.16V463.412Z" fill="#8600F0"/>
<path d="M1124.16 508.822H1108.49V523.958H1124.16V508.822Z" fill="#8600F0"/>
<path d="M1124.16 523.958H1108.49V539.095H1124.16V523.958Z" fill="#8600F0"/>
<path d="M1124.16 539.095H1108.49V554.232H1124.16V539.095Z" fill="#8600F0"/>
<path d="M1124.16 614.778H1108.49V629.915H1124.16V614.778Z" fill="#8600F0"/>
<path d="M1124.16 660.188H1108.49V675.325H1124.16V660.188Z" fill="#8600F0"/>
<path d="M1124.16 705.598H1108.49V720.735H1124.16V705.598Z" fill="#8600F0"/>
<path d="M1124.16 720.735H1108.49V735.872H1124.16V720.735Z" fill="#8600F0"/>
<path d="M1139.84 296.908H1124.16V312.045H1139.84V296.908Z" fill="#8600F0"/>
<path d="M1139.84 327.182H1124.16V342.318H1139.84V327.182Z" fill="#8600F0"/>
<path d="M1139.84 342.318H1124.16V357.455H1139.84V342.318Z" fill="#8600F0"/>
<path d="M1139.84 357.455H1124.16V372.592H1139.84V357.455Z" fill="#8600F0"/>
<path d="M1139.84 372.592H1124.16V387.728H1139.84V372.592Z" fill="#8600F0"/>
<path d="M1139.84 402.865H1124.16V418.002H1139.84V402.865Z" fill="#8600F0"/>
<path d="M1139.84 418.002H1124.16V433.138H1139.84V418.002Z" fill="#8600F0"/>
<path d="M1139.84 493.685H1124.16V508.822H1139.84V493.685Z" fill="#8600F0"/>
<path d="M1139.84 508.822H1124.16V523.958H1139.84V508.822Z" fill="#8600F0"/>
<path d="M1139.84 569.368H1124.16V584.505H1139.84V569.368Z" fill="#8600F0"/>
<path d="M1139.84 614.778H1124.16V629.915H1139.84V614.778Z" fill="#8600F0"/>
<path d="M1139.84 629.915H1124.16V645.052H1139.84V629.915Z" fill="#8600F0"/>
<path d="M1139.84 645.052H1124.16V660.188H1139.84V645.052Z" fill="#8600F0"/>
<path d="M1139.84 660.188H1124.16V675.325H1139.84V660.188Z" fill="#8600F0"/>
<path d="M1139.84 720.735H1124.16V735.872H1139.84V720.735Z" fill="#8600F0"/>
<path d="M1155.51 357.455H1139.84V372.592H1155.51V357.455Z" fill="#8600F0"/>
<path d="M1155.51 372.592H1139.84V387.728H1155.51V372.592Z" fill="#8600F0"/>
<path d="M1155.51 387.728H1139.84V402.865H1155.51V387.728Z" fill="#8600F0"/>
<path d="M1155.51 478.548H1139.84V493.685H1155.51V478.548Z" fill="#8600F0"/>
<path d="M1155.51 493.685H1139.84V508.822H1155.51V493.685Z" fill="#8600F0"/>
<path d="M1155.51 523.958H1139.84V539.095H1155.51V523.958Z" fill="#8600F0"/>
<path d="M1155.51 660.188H1139.84V675.325H1155.51V660.188Z" fill="#8600F0"/>
<path d="M1155.51 690.462H1139.84V705.598H1155.51V690.462Z" fill="#8600F0"/>
<path d="M1155.51 720.735H1139.84V735.872H1155.51V720.735Z" fill="#8600F0"/>
<path d="M1171.19 327.182H1155.51V342.318H1171.19V327.182Z" fill="#8600F0"/>
<path d="M1171.19 342.318H1155.51V357.455H1171.19V342.318Z" fill="#8600F0"/>
<path d="M1171.19 357.455H1155.51V372.592H1171.19V357.455Z" fill="#8600F0"/>
<path d="M1171.19 402.865H1155.51V418.002H1171.19V402.865Z" fill="#8600F0"/>
<path d="M1171.19 478.548H1155.51V493.685H1171.19V478.548Z" fill="#8600F0"/>
<path d="M1171.19 493.685H1155.51V508.822H1171.19V493.685Z" fill="#8600F0"/>
<path d="M1171.19 523.958H1155.51V539.095H1171.19V523.958Z" fill="#8600F0"/>
<path d="M1171.19 539.095H1155.51V554.232H1171.19V539.095Z" fill="#8600F0"/>
<path d="M1171.19 554.232H1155.51V569.368H1171.19V554.232Z" fill="#8600F0"/>
<path d="M1171.19 599.642H1155.51V614.778H1171.19V599.642Z" fill="#8600F0"/>
<path d="M1171.19 660.188H1155.51V675.325H1171.19V660.188Z" fill="#8600F0"/>
<path d="M1171.19 675.325H1155.51V690.462H1171.19V675.325Z" fill="#8600F0"/>
<path d="M1171.19 705.598H1155.51V720.735H1171.19V705.598Z" fill="#8600F0"/>
<path d="M1186.86 296.908H1171.19V312.045H1186.86V296.908Z" fill="#8600F0"/>
<path d="M1186.86 312.045H1171.19V327.182H1186.86V312.045Z" fill="#8600F0"/>
<path d="M1186.86 357.455H1171.19V372.592H1186.86V357.455Z" fill="#8600F0"/>
<path d="M1186.86 372.592H1171.19V387.728H1186.86V372.592Z" fill="#8600F0"/>
<path d="M1186.86 387.728H1171.19V402.865H1186.86V387.728Z" fill="#8600F0"/>
<path d="M1186.86 448.275H1171.19V463.412H1186.86V448.275Z" fill="#8600F0"/>
<path d="M1186.86 478.548H1171.19V493.685H1186.86V478.548Z" fill="#8600F0"/>
<path d="M1186.86 493.685H1171.19V508.822H1186.86V493.685Z" fill="#8600F0"/>
<path d="M1186.86 554.232H1171.19V569.368H1186.86V554.232Z" fill="#8600F0"/>
<path d="M1186.86 569.368H1171.19V584.505H1186.86V569.368Z" fill="#8600F0"/>
<path d="M1186.86 584.505H1171.19V599.642H1186.86V584.505Z" fill="#8600F0"/>
<path d="M1186.86 599.642H1171.19V614.778H1186.86V599.642Z" fill="#8600F0"/>
<path d="M1186.86 614.778H1171.19V629.915H1186.86V614.778Z" fill="#8600F0"/>
<path d="M1186.86 629.915H1171.19V645.052H1186.86V629.915Z" fill="#8600F0"/>
<path d="M1186.86 645.052H1171.19V660.188H1186.86V645.052Z" fill="#8600F0"/>
<path d="M1186.86 660.188H1171.19V675.325H1186.86V660.188Z" fill="#8600F0"/>
<path d="M1186.86 690.462H1171.19V705.598H1186.86V690.462Z" fill="#8600F0"/>
<path d="M1186.86 720.735H1171.19V735.872H1186.86V720.735Z" fill="#8600F0"/>
<path d="M1202.54 418.002H1186.86V433.138H1202.54V418.002Z" fill="#8600F0"/>
<path d="M1202.54 448.275H1186.86V463.412H1202.54V448.275Z" fill="#8600F0"/>
<path d="M1202.54 478.548H1186.86V493.685H1202.54V478.548Z" fill="#8600F0"/>
<path d="M1202.54 493.685H1186.86V508.822H1202.54V493.685Z" fill="#8600F0"/>
<path d="M1202.54 508.822H1186.86V523.958H1202.54V508.822Z" fill="#8600F0"/>
<path d="M1202.54 523.958H1186.86V539.095H1202.54V523.958Z" fill="#8600F0"/>
<path d="M1202.54 539.095H1186.86V554.232H1202.54V539.095Z" fill="#8600F0"/>
<path d="M1202.54 569.368H1186.86V584.505H1202.54V569.368Z" fill="#8600F0"/>
<path d="M1202.54 584.505H1186.86V599.642H1202.54V584.505Z" fill="#8600F0"/>
<path d="M1202.54 599.642H1186.86V614.778H1202.54V599.642Z" fill="#8600F0"/>
<path d="M1202.54 660.188H1186.86V675.325H1202.54V660.188Z" fill="#8600F0"/>
<path d="M1202.54 690.462H1186.86V705.598H1202.54V690.462Z" fill="#8600F0"/>
<path d="M1202.54 720.735H1186.86V735.872H1202.54V720.735Z" fill="#8600F0"/>
<path d="M1218.21 433.138H1202.54V448.275H1218.21V433.138Z" fill="#8600F0"/>
<path d="M1218.21 463.412H1202.54V478.548H1218.21V463.412Z" fill="#8600F0"/>
<path d="M1218.21 478.548H1202.54V493.685H1218.21V478.548Z" fill="#8600F0"/>
<path d="M1218.21 523.958H1202.54V539.095H1218.21V523.958Z" fill="#8600F0"/>
<path d="M1218.21 554.232H1202.54V569.368H1218.21V554.232Z" fill="#8600F0"/>
<path d="M1218.21 584.505H1202.54V599.642H1218.21V584.505Z" fill="#8600F0"/>
<path d="M1218.21 599.642H1202.54V614.778H1218.21V599.642Z" fill="#8600F0"/>
<path d="M1218.21 629.915H1202.54V645.052H1218.21V629.915Z" fill="#8600F0"/>
<path d="M1218.21 660.188H1202.54V675.325H1218.21V660.188Z" fill="#8600F0"/>
<path d="M1218.21 720.735H1202.54V735.872H1218.21V720.735Z" fill="#8600F0"/>
<path d="M1233.89 433.138H1218.21V448.275H1233.89V433.138Z" fill="#8600F0"/>
<path d="M1233.89 448.275H1218.21V463.412H1233.89V448.275Z" fill="#8600F0"/>
<path d="M1233.89 463.412H1218.21V478.548H1233.89V463.412Z" fill="#8600F0"/>
<path d="M1233.89 478.548H1218.21V493.685H1233.89V478.548Z" fill="#8600F0"/>
<path d="M1233.89 508.822H1218.21V523.958H1233.89V508.822Z" fill="#8600F0"/>
<path d="M1233.89 539.095H1218.21V554.232H1233.89V539.095Z" fill="#8600F0"/>
<path d="M1233.89 554.232H1218.21V569.368H1233.89V554.232Z" fill="#8600F0"/>
<path d="M1233.89 569.368H1218.21V584.505H1233.89V569.368Z" fill="#8600F0"/>
<path d="M1233.89 584.505H1218.21V599.642H1233.89V584.505Z" fill="#8600F0"/>
<path d="M1233.89 599.642H1218.21V614.778H1233.89V599.642Z" fill="#8600F0"/>
<path d="M1233.89 660.188H1218.21V675.325H1233.89V660.188Z" fill="#8600F0"/>
<path d="M1233.89 675.325H1218.21V690.462H1233.89V675.325Z" fill="#8600F0"/>
<path d="M1249.56 418.002H1233.89V433.138H1249.56V418.002Z" fill="#8600F0"/>
<path d="M1249.56 433.138H1233.89V448.275H1249.56V433.138Z" fill="#8600F0"/>
<path d="M1249.56 463.412H1233.89V478.548H1249.56V463.412Z" fill="#8600F0"/>
<path d="M1249.56 478.548H1233.89V493.685H1249.56V478.548Z" fill="#8600F0"/>
<path d="M1249.56 508.822H1233.89V523.958H1249.56V508.822Z" fill="#8600F0"/>
<path d="M1249.56 569.368H1233.89V584.505H1249.56V569.368Z" fill="#8600F0"/>
<path d="M1249.56 584.505H1233.89V599.642H1249.56V584.505Z" fill="#8600F0"/>
<path d="M1249.56 599.642H1233.89V614.778H1249.56V599.642Z" fill="#8600F0"/>
<path d="M1249.56 614.778H1233.89V629.915H1249.56V614.778Z" fill="#8600F0"/>
<path d="M1249.56 629.915H1233.89V645.052H1249.56V629.915Z" fill="#8600F0"/>
<path d="M1249.56 645.052H1233.89V660.188H1249.56V645.052Z" fill="#8600F0"/>
<path d="M1249.56 660.188H1233.89V675.325H1249.56V660.188Z" fill="#8600F0"/>
<path d="M1249.56 705.598H1233.89V720.735H1249.56V705.598Z" fill="#8600F0"/>
<path d="M1249.56 720.735H1233.89V735.872H1249.56V720.735Z" fill="#8600F0"/>
<path d="M1265.24 463.412H1249.56V478.548H1265.24V463.412Z" fill="#8600F0"/>
<path d="M1265.24 493.685H1249.56V508.822H1265.24V493.685Z" fill="#8600F0"/>
<path d="M1265.24 539.095H1249.56V554.232H1265.24V539.095Z" fill="#8600F0"/>
<path d="M1265.24 554.232H1249.56V569.368H1265.24V554.232Z" fill="#8600F0"/>
<path d="M1265.24 645.052H1249.56V660.188H1265.24V645.052Z" fill="#8600F0"/>
<path d="M1265.24 675.325H1249.56V690.462H1265.24V675.325Z" fill="#8600F0"/>
<path d="M1265.24 705.598H1249.56V720.735H1265.24V705.598Z" fill="#8600F0"/>
<path d="M1280.91 448.275H1265.24V463.412H1280.91V448.275Z" fill="#8600F0"/>
<path d="M1280.91 493.685H1265.24V508.822H1280.91V493.685Z" fill="#8600F0"/>
<path d="M1280.91 508.822H1265.24V523.958H1280.91V508.822Z" fill="#8600F0"/>
<path d="M1280.91 539.095H1265.24V554.232H1280.91V539.095Z" fill="#8600F0"/>
<path d="M1280.91 569.368H1265.24V584.505H1280.91V569.368Z" fill="#8600F0"/>
<path d="M1280.91 584.505H1265.24V599.642H1280.91V584.505Z" fill="#8600F0"/>
<path d="M1280.91 599.642H1265.24V614.778H1280.91V599.642Z" fill="#8600F0"/>
<path d="M1280.91 614.778H1265.24V629.915H1280.91V614.778Z" fill="#8600F0"/>
<path d="M1280.91 675.325H1265.24V690.462H1280.91V675.325Z" fill="#8600F0"/>
<path d="M1280.91 705.598H1265.24V720.735H1280.91V705.598Z" fill="#8600F0"/>
<path d="M1280.91 720.735H1265.24V735.872H1280.91V720.735Z" fill="#8600F0"/>
<path d="M1296.59 418.002H1280.91V433.138H1296.59V418.002Z" fill="#8600F0"/>
<path d="M1296.59 433.138H1280.91V448.275H1296.59V433.138Z" fill="#8600F0"/>
<path d="M1296.59 508.822H1280.91V523.958H1296.59V508.822Z" fill="#8600F0"/>
<path d="M1296.59 554.232H1280.91V569.368H1296.59V554.232Z" fill="#8600F0"/>
<path d="M1296.59 584.505H1280.91V599.642H1296.59V584.505Z" fill="#8600F0"/>
<path d="M1296.59 599.642H1280.91V614.778H1296.59V599.642Z" fill="#8600F0"/>
<path d="M1296.59 614.778H1280.91V629.915H1296.59V614.778Z" fill="#8600F0"/>
<path d="M1296.59 629.915H1280.91V645.052H1296.59V629.915Z" fill="#8600F0"/>
<path d="M1296.59 645.052H1280.91V660.188H1296.59V645.052Z" fill="#8600F0"/>
<path d="M1296.59 675.325H1280.91V690.462H1296.59V675.325Z" fill="#8600F0"/>
<path d="M1296.59 705.598H1280.91V720.735H1296.59V705.598Z" fill="#8600F0"/>
<path d="M1296.59 720.735H1280.91V735.872H1296.59V720.735Z" fill="#8600F0"/>
<path d="M1312.26 433.138H1296.59V448.275H1312.26V433.138Z" fill="#8600F0"/>
<path d="M1312.26 448.275H1296.59V463.412H1312.26V448.275Z" fill="#8600F0"/>
<path d="M1312.26 493.685H1296.59V508.822H1312.26V493.685Z" fill="#8600F0"/>
<path d="M1312.26 523.958H1296.59V539.095H1312.26V523.958Z" fill="#8600F0"/>
<path d="M1312.26 554.232H1296.59V569.368H1312.26V554.232Z" fill="#8600F0"/>
<path d="M1312.26 599.642H1296.59V614.778H1312.26V599.642Z" fill="#8600F0"/>
<path d="M1312.26 629.915H1296.59V645.052H1312.26V629.915Z" fill="#8600F0"/>
<path d="M1312.26 660.188H1296.59V675.325H1312.26V660.188Z" fill="#8600F0"/>
<path d="M1312.26 675.325H1296.59V690.462H1312.26V675.325Z" fill="#8600F0"/>
<path d="M1312.26 690.462H1296.59V705.598H1312.26V690.462Z" fill="#8600F0"/>
<path d="M1312.26 705.598H1296.59V720.735H1312.26V705.598Z" fill="#8600F0"/>
<path d="M873.362 296.908H857.688V312.045H873.362V296.908Z" fill="#8600F0"/>
<path d="M873.362 312.045H857.688V327.182H873.362V312.045Z" fill="#8600F0"/>
<path d="M873.362 327.182H857.688V342.318H873.362V327.182Z" fill="#8600F0"/>
<path d="M873.362 342.318H857.688V357.455H873.362V342.318Z" fill="#8600F0"/>
<path d="M873.362 357.455H857.688V372.592H873.362V357.455Z" fill="#8600F0"/>
<path d="M873.362 372.592H857.688V387.728H873.362V372.592Z" fill="#8600F0"/>
<path d="M873.362 387.728H857.688V402.865H873.362V387.728Z" fill="#8600F0"/>
<path d="M889.038 296.908H873.363V312.045H889.038V296.908Z" fill="#8600F0"/>
<path d="M889.038 387.728H873.363V402.865H889.038V387.728Z" fill="#8600F0"/>
<path d="M904.713 296.908H889.038V312.045H904.713V296.908Z" fill="#8600F0"/>
<path d="M904.713 387.728H889.038V402.865H904.713V387.728Z" fill="#8600F0"/>
<path d="M920.387 296.908H904.712V312.045H920.387V296.908Z" fill="#8600F0"/>
<path d="M920.387 387.728H904.712V402.865H920.387V387.728Z" fill="#8600F0"/>
<path d="M936.062 296.908H920.387V312.045H936.062V296.908Z" fill="#8600F0"/>
<path d="M936.062 387.728H920.387V402.865H936.062V387.728Z" fill="#8600F0"/>
<path d="M951.737 296.908H936.062V312.045H951.737V296.908Z" fill="#8600F0"/>
<path d="M951.737 387.728H936.062V402.865H951.737V387.728Z" fill="#8600F0"/>
<path d="M967.413 296.908H951.738V312.045H967.413V296.908Z" fill="#8600F0"/>
<path d="M967.413 312.045H951.738V327.182H967.413V312.045Z" fill="#8600F0"/>
<path d="M967.413 327.182H951.738V342.318H967.413V327.182Z" fill="#8600F0"/>
<path d="M967.413 342.318H951.738V357.455H967.413V342.318Z" fill="#8600F0"/>
<path d="M967.413 357.455H951.738V372.592H967.413V357.455Z" fill="#8600F0"/>
<path d="M967.413 372.592H951.738V387.728H967.413V372.592Z" fill="#8600F0"/>
<path d="M967.413 387.728H951.738V402.865H967.413V387.728Z" fill="#8600F0"/>
<path d="M904.713 327.182H889.038V342.318H904.713V327.182Z" fill="#8600F0"/>
<path d="M904.713 342.318H889.038V357.455H904.713V342.318Z" fill="#8600F0"/>
<path d="M904.713 357.455H889.038V372.592H904.713V357.455Z" fill="#8600F0"/>
<path d="M920.388 327.182H904.713V342.318H920.388V327.182Z" fill="#8600F0"/>
<path d="M920.388 342.318H904.713V357.455H920.388V342.318Z" fill="#8600F0"/>
<path d="M920.388 357.455H904.713V372.592H920.388V357.455Z" fill="#8600F0"/>
<path d="M936.063 327.182H920.388V342.318H936.063V327.182Z" fill="#8600F0"/>
<path d="M936.063 342.318H920.388V357.455H936.063V342.318Z" fill="#8600F0"/>
<path d="M936.063 357.455H920.388V372.592H936.063V357.455Z" fill="#8600F0"/>
<path d="M1218.21 296.908H1202.54V312.045H1218.21V296.908Z" fill="#8600F0"/>
<path d="M1218.21 312.045H1202.54V327.182H1218.21V312.045Z" fill="#8600F0"/>
<path d="M1218.21 327.182H1202.54V342.318H1218.21V327.182Z" fill="#8600F0"/>
<path d="M1218.21 342.318H1202.54V357.455H1218.21V342.318Z" fill="#8600F0"/>
<path d="M1218.21 357.455H1202.54V372.592H1218.21V357.455Z" fill="#8600F0"/>
<path d="M1218.21 372.592H1202.54V387.728H1218.21V372.592Z" fill="#8600F0"/>
<path d="M1218.21 387.728H1202.54V402.865H1218.21V387.728Z" fill="#8600F0"/>
<path d="M1233.89 296.908H1218.21V312.045H1233.89V296.908Z" fill="#8600F0"/>
<path d="M1233.89 387.728H1218.21V402.865H1233.89V387.728Z" fill="#8600F0"/>
<path d="M1249.56 296.908H1233.89V312.045H1249.56V296.908Z" fill="#8600F0"/>
<path d="M1249.56 387.728H1233.89V402.865H1249.56V387.728Z" fill="#8600F0"/>
<path d="M1265.24 296.908H1249.56V312.045H1265.24V296.908Z" fill="#8600F0"/>
<path d="M1265.24 387.728H1249.56V402.865H1265.24V387.728Z" fill="#8600F0"/>
<path d="M1280.91 296.908H1265.24V312.045H1280.91V296.908Z" fill="#8600F0"/>
<path d="M1280.91 387.728H1265.24V402.865H1280.91V387.728Z" fill="#8600F0"/>
<path d="M1296.59 296.908H1280.91V312.045H1296.59V296.908Z" fill="#8600F0"/>
<path d="M1296.59 387.728H1280.91V402.865H1296.59V387.728Z" fill="#8600F0"/>
<path d="M1312.26 296.908H1296.59V312.045H1312.26V296.908Z" fill="#8600F0"/>
<path d="M1312.26 312.045H1296.59V327.182H1312.26V312.045Z" fill="#8600F0"/>
<path d="M1312.26 327.182H1296.59V342.318H1312.26V327.182Z" fill="#8600F0"/>
<path d="M1312.26 342.318H1296.59V357.455H1312.26V342.318Z" fill="#8600F0"/>
<path d="M1312.26 357.455H1296.59V372.592H1312.26V357.455Z" fill="#8600F0"/>
<path d="M1312.26 372.592H1296.59V387.728H1312.26V372.592Z" fill="#8600F0"/>
<path d="M1312.26 387.728H1296.59V402.865H1312.26V387.728Z" fill="#8600F0"/>
<path d="M1249.56 327.182H1233.89V342.318H1249.56V327.182Z" fill="#8600F0"/>
<path d="M1249.56 342.318H1233.89V357.455H1249.56V342.318Z" fill="#8600F0"/>
<path d="M1249.56 357.455H1233.89V372.592H1249.56V357.455Z" fill="#8600F0"/>
<path d="M1265.24 327.182H1249.56V342.318H1265.24V327.182Z" fill="#8600F0"/>
<path d="M1265.24 342.318H1249.56V357.455H1265.24V342.318Z" fill="#8600F0"/>
<path d="M1265.24 357.455H1249.56V372.592H1265.24V357.455Z" fill="#8600F0"/>
<path d="M1280.91 327.182H1265.24V342.318H1280.91V327.182Z" fill="#8600F0"/>
<path d="M1280.91 342.318H1265.24V357.455H1280.91V342.318Z" fill="#8600F0"/>
<path d="M1280.91 357.455H1265.24V372.592H1280.91V357.455Z" fill="#8600F0"/>
<path d="M873.362 629.915H857.688V645.052H873.362V629.915Z" fill="#8600F0"/>
<path d="M873.362 645.052H857.688V660.188H873.362V645.052Z" fill="#8600F0"/>
<path d="M873.362 660.188H857.688V675.325H873.362V660.188Z" fill="#8600F0"/>
<path d="M873.362 675.325H857.688V690.462H873.362V675.325Z" fill="#8600F0"/>
<path d="M873.362 690.462H857.688V705.598H873.362V690.462Z" fill="#8600F0"/>
<path d="M873.362 705.598H857.688V720.735H873.362V705.598Z" fill="#8600F0"/>
<path d="M873.362 720.735H857.688V735.872H873.362V720.735Z" fill="#8600F0"/>
<path d="M889.038 629.915H873.363V645.052H889.038V629.915Z" fill="#8600F0"/>
<path d="M889.038 720.735H873.363V735.872H889.038V720.735Z" fill="#8600F0"/>
<path d="M904.713 629.915H889.038V645.052H904.713V629.915Z" fill="#8600F0"/>
<path d="M904.713 720.735H889.038V735.872H904.713V720.735Z" fill="#8600F0"/>
<path d="M920.387 629.915H904.712V645.052H920.387V629.915Z" fill="#8600F0"/>
<path d="M920.387 720.735H904.712V735.872H920.387V720.735Z" fill="#8600F0"/>
<path d="M936.062 629.915H920.387V645.052H936.062V629.915Z" fill="#8600F0"/>
<path d="M936.062 720.735H920.387V735.872H936.062V720.735Z" fill="#8600F0"/>
<path d="M951.737 629.915H936.062V645.052H951.737V629.915Z" fill="#8600F0"/>
<path d="M951.737 720.735H936.062V735.872H951.737V720.735Z" fill="#8600F0"/>
<path d="M967.413 629.915H951.738V645.052H967.413V629.915Z" fill="#8600F0"/>
<path d="M967.413 645.052H951.738V660.188H967.413V645.052Z" fill="#8600F0"/>
<path d="M967.413 660.188H951.738V675.325H967.413V660.188Z" fill="#8600F0"/>
<path d="M967.413 675.325H951.738V690.462H967.413V675.325Z" fill="#8600F0"/>
<path d="M967.413 690.462H951.738V705.598H967.413V690.462Z" fill="#8600F0"/>
<path d="M967.413 705.598H951.738V720.735H967.413V705.598Z" fill="#8600F0"/>
<path d="M967.413 720.735H951.738V735.872H967.413V720.735Z" fill="#8600F0"/>
<path d="M904.713 660.188H889.038V675.325H904.713V660.188Z" fill="#8600F0"/>
<path d="M904.713 675.325H889.038V690.462H904.713V675.325Z" fill="#8600F0"/>
<path d="M904.713 690.462H889.038V705.598H904.713V690.462Z" fill="#8600F0"/>
<path d="M920.388 660.188H904.713V675.325H920.388V660.188Z" fill="#8600F0"/>
<path d="M920.388 675.325H904.713V690.462H920.388V675.325Z" fill="#8600F0"/>
<path d="M920.388 690.462H904.713V705.598H920.388V690.462Z" fill="#8600F0"/>
<path d="M936.063 660.188H920.388V675.325H936.063V660.188Z" fill="#8600F0"/>
<path d="M936.063 675.325H920.388V690.462H936.063V675.325Z" fill="#8600F0"/>
<path d="M936.063 690.462H920.388V705.598H936.063V690.462Z" fill="#8600F0"/>
<path d="M248.706 369.509H259.814L265.398 376.692L270.891 383.092L281.245 396.071H269.05L261.926 387.317L258.274 382.126L248.706 369.509ZM282.18 360.091C282.18 366.832 280.903 372.567 278.347 377.296C275.811 382.025 272.35 385.637 267.963 388.132C263.597 390.608 258.687 391.845 253.233 391.845C247.74 391.845 242.81 390.598 238.443 388.102C234.076 385.607 230.625 381.995 228.089 377.266C225.554 372.537 224.286 366.812 224.286 360.091C224.286 353.35 225.554 347.615 228.089 342.886C230.625 338.157 234.076 334.555 238.443 332.08C242.81 329.584 247.74 328.337 253.233 328.337C258.687 328.337 263.597 329.584 267.963 332.08C272.35 334.555 275.811 338.157 278.347 342.886C280.903 347.615 282.18 353.35 282.18 360.091ZM268.929 360.091C268.929 355.724 268.275 352.042 266.967 349.043C265.679 346.045 263.858 343.771 261.504 342.222C259.15 340.672 256.393 339.897 253.233 339.897C250.074 339.897 247.317 340.672 244.963 342.222C242.608 343.771 240.777 346.045 239.469 349.043C238.181 352.042 237.537 355.724 237.537 360.091C237.537 364.458 238.181 368.14 239.469 371.138C240.777 374.137 242.608 376.411 244.963 377.96C247.317 379.51 250.074 380.284 253.233 380.284C256.393 380.284 259.15 379.51 261.504 377.96C263.858 376.411 265.679 374.137 266.967 371.138C268.275 368.14 268.929 364.458 268.929 360.091ZM291.862 391V329.182H316.251C320.92 329.182 324.904 330.017 328.204 331.687C331.525 333.337 334.05 335.682 335.781 338.72C337.532 341.739 338.407 345.29 338.407 349.375C338.407 353.48 337.521 357.012 335.751 359.97C333.98 362.908 331.414 365.162 328.054 366.732C324.713 368.301 320.668 369.086 315.919 369.086H299.589V358.582H313.806C316.302 358.582 318.374 358.24 320.024 357.555C321.675 356.871 322.902 355.845 323.707 354.477C324.532 353.108 324.945 351.408 324.945 349.375C324.945 347.323 324.532 345.592 323.707 344.184C322.902 342.775 321.664 341.708 319.994 340.984C318.344 340.239 316.261 339.867 313.746 339.867H304.932V391H291.862ZM325.246 362.868L340.61 391H326.182L311.15 362.868H325.246Z" fill="#00C5F0"/>
<path d="M367.316 329.182H383.435L400.459 370.716H401.183L418.208 329.182H434.326V391H421.649V350.764H421.135L405.138 390.698H396.505L380.507 350.613H379.994V391H367.316V329.182ZM455.75 391H441.744L463.085 329.182H479.928L501.238 391H487.232L471.748 343.308H471.265L455.75 391ZM454.874 366.701H487.957V376.904H454.874V366.701ZM508.679 391V329.182H521.748V356.439H522.563L544.81 329.182H560.475L537.535 356.861L560.747 391H545.111L528.178 365.585L521.748 373.433V391H508.679ZM567.282 391V329.182H608.937V339.958H580.352V354.688H606.794V365.464H580.352V380.224H609.058V391H567.282ZM619.328 391V329.182H643.717C648.386 329.182 652.37 330.017 655.67 331.687C658.991 333.337 661.516 335.682 663.247 338.72C664.997 341.739 665.873 345.29 665.873 349.375C665.873 353.48 664.987 357.012 663.216 359.97C661.446 362.908 658.88 365.162 655.519 366.732C652.179 368.301 648.134 369.086 643.385 369.086H627.055V358.582H641.272C643.767 358.582 645.84 358.24 647.49 357.555C649.14 356.871 650.368 355.845 651.173 354.477C651.998 353.108 652.41 351.408 652.41 349.375C652.41 347.323 651.998 345.592 651.173 344.184C650.368 342.775 649.13 341.708 647.46 340.984C645.81 340.239 643.727 339.867 641.212 339.867H632.398V391H619.328ZM652.712 362.868L668.076 391H653.648L638.616 362.868H652.712Z" fill="black"/>
<path d="M137 430H754C758.418 430 762 433.582 762 438V482C762 486.418 758.418 490 754 490H137C132.582 490 129 486.418 129 482V438C129 433.582 132.582 430 137 430Z" stroke="#00C5F0" stroke-width="4"/>
<rect x="127" y="619" width="637" height="48" rx="5" fill="#00C5F0"/>
<path d="M312.455 639.25C312.295 638.697 312.072 638.208 311.784 637.784C311.496 637.352 311.144 636.989 310.727 636.693C310.318 636.39 309.848 636.159 309.318 636C308.795 635.841 308.216 635.761 307.58 635.761C306.39 635.761 305.345 636.057 304.443 636.648C303.549 637.239 302.852 638.098 302.352 639.227C301.852 640.348 301.602 641.72 301.602 643.341C301.602 644.962 301.848 646.341 302.341 647.477C302.833 648.614 303.53 649.481 304.432 650.08C305.333 650.67 306.398 650.966 307.625 650.966C308.739 650.966 309.689 650.769 310.477 650.375C311.273 649.973 311.879 649.409 312.295 648.682C312.72 647.955 312.932 647.095 312.932 646.102L313.932 646.25H307.932V642.545H317.67V645.477C317.67 647.523 317.239 649.28 316.375 650.75C315.511 652.212 314.322 653.341 312.807 654.136C311.292 654.924 309.557 655.318 307.602 655.318C305.42 655.318 303.504 654.837 301.852 653.875C300.201 652.905 298.913 651.53 297.989 649.75C297.072 647.962 296.614 645.841 296.614 643.386C296.614 641.5 296.886 639.818 297.432 638.341C297.985 636.856 298.758 635.598 299.75 634.568C300.742 633.538 301.898 632.754 303.216 632.216C304.534 631.678 305.962 631.409 307.5 631.409C308.818 631.409 310.045 631.602 311.182 631.989C312.318 632.367 313.326 632.905 314.205 633.602C315.091 634.299 315.814 635.129 316.375 636.091C316.936 637.045 317.295 638.098 317.455 639.25H312.455ZM321.366 655V631.727H337.048V635.784H326.287V641.33H336.241V645.386H326.287V650.943H337.094V655H321.366ZM340.96 655V631.727H350.142C351.9 631.727 353.4 632.042 354.642 632.67C355.892 633.292 356.843 634.174 357.494 635.318C358.153 636.455 358.483 637.792 358.483 639.33C358.483 640.875 358.15 642.205 357.483 643.318C356.816 644.424 355.85 645.273 354.585 645.864C353.328 646.455 351.805 646.75 350.017 646.75H343.869V642.795H349.222C350.161 642.795 350.941 642.667 351.562 642.409C352.184 642.152 352.646 641.765 352.949 641.25C353.259 640.735 353.415 640.095 353.415 639.33C353.415 638.557 353.259 637.905 352.949 637.375C352.646 636.845 352.18 636.443 351.551 636.17C350.93 635.89 350.146 635.75 349.199 635.75H345.881V655H340.96ZM353.528 644.409L359.312 655H353.881L348.222 644.409H353.528ZM365.972 655H360.699L368.733 631.727H375.074L383.097 655H377.824L371.994 637.045H371.812L365.972 655ZM365.642 645.852H378.097V649.693H365.642V645.852ZM385.898 655V631.727H395.08C396.837 631.727 398.337 632.042 399.58 632.67C400.83 633.292 401.78 634.174 402.432 635.318C403.091 636.455 403.42 637.792 403.42 639.33C403.42 640.875 403.087 642.205 402.42 643.318C401.754 644.424 400.788 645.273 399.523 645.864C398.265 646.455 396.742 646.75 394.955 646.75H388.807V642.795H394.159C395.098 642.795 395.879 642.667 396.5 642.409C397.121 642.152 397.583 641.765 397.886 641.25C398.197 640.735 398.352 640.095 398.352 639.33C398.352 638.557 398.197 637.905 397.886 637.375C397.583 636.845 397.117 636.443 396.489 636.17C395.867 635.89 395.083 635.75 394.136 635.75H390.818V655H385.898ZM398.466 644.409L404.25 655H398.818L393.159 644.409H398.466ZM423.088 646.909H427.27L429.372 649.614L431.44 652.023L435.338 656.909H430.747L428.065 653.614L426.69 651.659L423.088 646.909ZM435.69 643.364C435.69 645.902 435.209 648.061 434.247 649.841C433.293 651.621 431.99 652.981 430.338 653.92C428.694 654.852 426.846 655.318 424.793 655.318C422.724 655.318 420.868 654.848 419.224 653.909C417.58 652.97 416.281 651.61 415.327 649.83C414.372 648.049 413.895 645.894 413.895 643.364C413.895 640.826 414.372 638.667 415.327 636.886C416.281 635.106 417.58 633.75 419.224 632.818C420.868 631.879 422.724 631.409 424.793 631.409C426.846 631.409 428.694 631.879 430.338 632.818C431.99 633.75 433.293 635.106 434.247 636.886C435.209 638.667 435.69 640.826 435.69 643.364ZM430.702 643.364C430.702 641.72 430.455 640.333 429.963 639.205C429.478 638.076 428.793 637.22 427.906 636.636C427.02 636.053 425.982 635.761 424.793 635.761C423.603 635.761 422.565 636.053 421.679 636.636C420.793 637.22 420.103 638.076 419.611 639.205C419.126 640.333 418.884 641.72 418.884 643.364C418.884 645.008 419.126 646.394 419.611 647.523C420.103 648.652 420.793 649.508 421.679 650.091C422.565 650.674 423.603 650.966 424.793 650.966C425.982 650.966 427.02 650.674 427.906 650.091C428.793 649.508 429.478 648.652 429.963 647.523C430.455 646.394 430.702 645.008 430.702 643.364ZM439.335 655V631.727H448.517C450.275 631.727 451.775 632.042 453.017 632.67C454.267 633.292 455.218 634.174 455.869 635.318C456.528 636.455 456.858 637.792 456.858 639.33C456.858 640.875 456.525 642.205 455.858 643.318C455.191 644.424 454.225 645.273 452.96 645.864C451.703 646.455 450.18 646.75 448.392 646.75H442.244V642.795H447.597C448.536 642.795 449.316 642.667 449.938 642.409C450.559 642.152 451.021 641.765 451.324 641.25C451.634 640.735 451.79 640.095 451.79 639.33C451.79 638.557 451.634 637.905 451.324 637.375C451.021 636.845 450.555 636.443 449.926 636.17C449.305 635.89 448.521 635.75 447.574 635.75H444.256V655H439.335ZM451.903 644.409L457.688 655H452.256L446.597 644.409H451.903ZM480.869 639.875H475.892C475.801 639.231 475.616 638.659 475.335 638.159C475.055 637.652 474.695 637.22 474.256 636.864C473.816 636.508 473.309 636.235 472.733 636.045C472.165 635.856 471.547 635.761 470.881 635.761C469.676 635.761 468.627 636.061 467.733 636.659C466.839 637.25 466.146 638.114 465.653 639.25C465.161 640.379 464.915 641.75 464.915 643.364C464.915 645.023 465.161 646.417 465.653 647.545C466.153 648.674 466.85 649.527 467.744 650.102C468.638 650.678 469.672 650.966 470.847 650.966C471.506 650.966 472.116 650.879 472.676 650.705C473.244 650.53 473.748 650.277 474.188 649.943C474.627 649.602 474.991 649.189 475.278 648.705C475.574 648.22 475.778 647.667 475.892 647.045L480.869 647.068C480.741 648.136 480.419 649.167 479.903 650.159C479.396 651.144 478.71 652.027 477.847 652.807C476.991 653.58 475.968 654.193 474.778 654.648C473.597 655.095 472.259 655.318 470.767 655.318C468.691 655.318 466.835 654.848 465.199 653.909C463.57 652.97 462.282 651.61 461.335 649.83C460.396 648.049 459.926 645.894 459.926 643.364C459.926 640.826 460.403 638.667 461.358 636.886C462.313 635.106 463.608 633.75 465.244 632.818C466.881 631.879 468.722 631.409 470.767 631.409C472.116 631.409 473.366 631.598 474.517 631.977C475.676 632.356 476.703 632.909 477.597 633.636C478.491 634.356 479.218 635.239 479.778 636.284C480.347 637.33 480.71 638.527 480.869 639.875ZM505.784 643.364C505.784 645.902 505.303 648.061 504.341 649.841C503.386 651.621 502.083 652.981 500.432 653.92C498.788 654.852 496.939 655.318 494.886 655.318C492.818 655.318 490.962 654.848 489.318 653.909C487.674 652.97 486.375 651.61 485.42 649.83C484.466 648.049 483.989 645.894 483.989 643.364C483.989 640.826 484.466 638.667 485.42 636.886C486.375 635.106 487.674 633.75 489.318 632.818C490.962 631.879 492.818 631.409 494.886 631.409C496.939 631.409 498.788 631.879 500.432 632.818C502.083 633.75 503.386 635.106 504.341 636.886C505.303 638.667 505.784 640.826 505.784 643.364ZM500.795 643.364C500.795 641.72 500.549 640.333 500.057 639.205C499.572 638.076 498.886 637.22 498 636.636C497.114 636.053 496.076 635.761 494.886 635.761C493.697 635.761 492.659 636.053 491.773 636.636C490.886 637.22 490.197 638.076 489.705 639.205C489.22 640.333 488.977 641.72 488.977 643.364C488.977 645.008 489.22 646.394 489.705 647.523C490.197 648.652 490.886 649.508 491.773 650.091C492.659 650.674 493.697 650.966 494.886 650.966C496.076 650.966 497.114 650.674 498 650.091C498.886 649.508 499.572 648.652 500.057 647.523C500.549 646.394 500.795 645.008 500.795 643.364ZM517.679 655H509.429V631.727H517.747C520.088 631.727 522.103 632.193 523.793 633.125C525.482 634.049 526.781 635.379 527.69 637.114C528.607 638.848 529.065 640.924 529.065 643.341C529.065 645.765 528.607 647.848 527.69 649.591C526.781 651.333 525.474 652.67 523.77 653.602C522.073 654.534 520.043 655 517.679 655ZM514.349 650.784H517.474C518.929 650.784 520.152 650.527 521.145 650.011C522.145 649.489 522.895 648.682 523.395 647.591C523.902 646.492 524.156 645.076 524.156 643.341C524.156 641.621 523.902 640.216 523.395 639.125C522.895 638.034 522.149 637.231 521.156 636.716C520.164 636.201 518.94 635.943 517.486 635.943H514.349V650.784ZM532.71 655V631.727H548.392V635.784H537.631V641.33H547.585V645.386H537.631V650.943H548.438V655H532.71Z" fill="white"/>
<path d="M158.08 461.432V469H154.449V451.545H157.977V458.219H158.131C158.426 457.446 158.903 456.841 159.562 456.403C160.222 455.96 161.048 455.739 162.043 455.739C162.952 455.739 163.744 455.938 164.42 456.335C165.102 456.727 165.631 457.293 166.006 458.031C166.386 458.764 166.574 459.642 166.568 460.665V469H162.938V461.312C162.943 460.506 162.739 459.878 162.324 459.429C161.915 458.98 161.341 458.756 160.602 458.756C160.108 458.756 159.67 458.861 159.29 459.071C158.915 459.281 158.619 459.588 158.403 459.991C158.193 460.389 158.085 460.869 158.08 461.432ZM176.388 455.909V458.636H168.505V455.909H176.388ZM170.295 452.773H173.925V464.977C173.925 465.312 173.977 465.574 174.079 465.761C174.181 465.943 174.323 466.071 174.505 466.145C174.692 466.219 174.908 466.256 175.153 466.256C175.323 466.256 175.494 466.241 175.664 466.213C175.835 466.179 175.965 466.153 176.056 466.136L176.627 468.838C176.445 468.895 176.19 468.96 175.86 469.034C175.531 469.114 175.13 469.162 174.658 469.179C173.783 469.213 173.016 469.097 172.357 468.83C171.704 468.562 171.195 468.148 170.832 467.585C170.468 467.023 170.289 466.312 170.295 465.455V452.773ZM185.717 455.909V458.636H177.833V455.909H185.717ZM179.623 452.773H183.254V464.977C183.254 465.312 183.305 465.574 183.407 465.761C183.509 465.943 183.651 466.071 183.833 466.145C184.021 466.219 184.237 466.256 184.481 466.256C184.651 466.256 184.822 466.241 184.992 466.213C185.163 466.179 185.293 466.153 185.384 466.136L185.955 468.838C185.773 468.895 185.518 468.96 185.188 469.034C184.859 469.114 184.458 469.162 183.987 469.179C183.112 469.213 182.344 469.097 181.685 468.83C181.032 468.562 180.523 468.148 180.16 467.585C179.796 467.023 179.617 466.312 179.623 465.455V452.773ZM188.082 473.909V455.909H191.661V458.108H191.823C191.982 457.756 192.212 457.398 192.513 457.034C192.82 456.665 193.218 456.358 193.707 456.114C194.201 455.864 194.815 455.739 195.548 455.739C196.502 455.739 197.383 455.989 198.19 456.489C198.996 456.983 199.641 457.73 200.124 458.73C200.607 459.724 200.849 460.972 200.849 462.472C200.849 463.932 200.613 465.165 200.141 466.17C199.675 467.17 199.039 467.929 198.232 468.446C197.431 468.957 196.533 469.213 195.539 469.213C194.835 469.213 194.235 469.097 193.741 468.864C193.252 468.631 192.852 468.338 192.539 467.986C192.227 467.628 191.988 467.267 191.823 466.903H191.712V473.909H188.082ZM191.636 462.455C191.636 463.233 191.744 463.912 191.96 464.491C192.175 465.071 192.488 465.523 192.897 465.847C193.306 466.165 193.803 466.324 194.388 466.324C194.979 466.324 195.479 466.162 195.888 465.838C196.298 465.509 196.607 465.054 196.817 464.474C197.033 463.889 197.141 463.216 197.141 462.455C197.141 461.699 197.036 461.034 196.826 460.46C196.616 459.886 196.306 459.437 195.897 459.114C195.488 458.79 194.985 458.628 194.388 458.628C193.798 458.628 193.298 458.784 192.888 459.097C192.485 459.409 192.175 459.852 191.96 460.426C191.744 461 191.636 461.676 191.636 462.455ZM214.161 459.642L210.837 459.847C210.781 459.562 210.658 459.307 210.471 459.08C210.283 458.847 210.036 458.662 209.729 458.526C209.428 458.384 209.067 458.312 208.647 458.312C208.085 458.312 207.61 458.432 207.224 458.67C206.837 458.903 206.644 459.216 206.644 459.608C206.644 459.92 206.769 460.185 207.019 460.401C207.269 460.616 207.698 460.79 208.306 460.92L210.675 461.398C211.948 461.659 212.897 462.08 213.522 462.659C214.147 463.239 214.46 464 214.46 464.943C214.46 465.801 214.207 466.554 213.701 467.202C213.201 467.849 212.513 468.355 211.638 468.719C210.769 469.077 209.766 469.256 208.63 469.256C206.897 469.256 205.516 468.895 204.488 468.173C203.465 467.446 202.866 466.457 202.69 465.207L206.261 465.02C206.369 465.548 206.63 465.952 207.045 466.23C207.46 466.503 207.991 466.639 208.638 466.639C209.275 466.639 209.786 466.517 210.173 466.273C210.565 466.023 210.763 465.702 210.769 465.31C210.763 464.98 210.624 464.71 210.352 464.5C210.079 464.284 209.658 464.119 209.09 464.006L206.823 463.554C205.545 463.298 204.593 462.855 203.968 462.224C203.349 461.594 203.039 460.79 203.039 459.812C203.039 458.972 203.266 458.247 203.721 457.639C204.181 457.031 204.826 456.562 205.656 456.233C206.491 455.903 207.468 455.739 208.587 455.739C210.241 455.739 211.542 456.088 212.491 456.787C213.445 457.486 214.002 458.437 214.161 459.642ZM218.868 469.222C218.305 469.222 217.822 469.023 217.419 468.625C217.021 468.222 216.822 467.739 216.822 467.176C216.822 466.619 217.021 466.142 217.419 465.744C217.822 465.347 218.305 465.148 218.868 465.148C219.413 465.148 219.891 465.347 220.3 465.744C220.709 466.142 220.913 466.619 220.913 467.176C220.913 467.551 220.817 467.895 220.624 468.207C220.436 468.514 220.189 468.761 219.882 468.949C219.575 469.131 219.237 469.222 218.868 469.222ZM218.868 460.051C218.305 460.051 217.822 459.852 217.419 459.455C217.021 459.057 216.822 458.574 216.822 458.006C216.822 457.449 217.021 456.974 217.419 456.582C217.822 456.185 218.305 455.986 218.868 455.986C219.413 455.986 219.891 456.185 220.3 456.582C220.709 456.974 220.913 457.449 220.913 458.006C220.913 458.386 220.817 458.733 220.624 459.045C220.436 459.352 220.189 459.597 219.882 459.778C219.575 459.96 219.237 460.051 218.868 460.051ZM231.496 450.727L225.871 471.625H222.744L228.369 450.727H231.496ZM240.848 450.727L235.223 471.625H232.095L237.72 450.727H240.848ZM248.563 469.256C247.217 469.256 246.058 468.983 245.086 468.438C244.12 467.886 243.376 467.108 242.853 466.102C242.33 465.091 242.069 463.895 242.069 462.514C242.069 461.168 242.33 459.986 242.853 458.969C243.376 457.952 244.112 457.159 245.06 456.591C246.015 456.023 247.134 455.739 248.418 455.739C249.282 455.739 250.086 455.878 250.83 456.156C251.58 456.429 252.234 456.841 252.79 457.392C253.353 457.943 253.79 458.636 254.103 459.472C254.415 460.301 254.572 461.273 254.572 462.386V463.384H243.518V461.134H251.154C251.154 460.611 251.04 460.148 250.813 459.744C250.586 459.341 250.271 459.026 249.867 458.798C249.469 458.565 249.006 458.449 248.478 458.449C247.927 458.449 247.438 458.577 247.012 458.832C246.592 459.082 246.262 459.42 246.023 459.847C245.785 460.267 245.663 460.736 245.657 461.253V463.392C245.657 464.04 245.776 464.599 246.015 465.071C246.259 465.543 246.603 465.906 247.046 466.162C247.489 466.418 248.015 466.545 248.623 466.545C249.026 466.545 249.396 466.489 249.731 466.375C250.066 466.261 250.353 466.091 250.592 465.864C250.83 465.636 251.012 465.358 251.137 465.028L254.495 465.25C254.325 466.057 253.975 466.761 253.447 467.364C252.924 467.96 252.248 468.426 251.418 468.761C250.594 469.091 249.643 469.256 248.563 469.256ZM259.741 455.909L262.144 460.486L264.607 455.909H268.332L264.539 462.455L268.434 469H264.727L262.144 464.474L259.604 469H255.854L259.741 462.455L255.991 455.909H259.741ZM275.985 469.256C274.638 469.256 273.479 468.983 272.508 468.438C271.542 467.886 270.798 467.108 270.275 466.102C269.752 465.091 269.491 463.895 269.491 462.514C269.491 461.168 269.752 459.986 270.275 458.969C270.798 457.952 271.533 457.159 272.482 456.591C273.437 456.023 274.556 455.739 275.84 455.739C276.704 455.739 277.508 455.878 278.252 456.156C279.002 456.429 279.656 456.841 280.212 457.392C280.775 457.943 281.212 458.636 281.525 459.472C281.837 460.301 281.994 461.273 281.994 462.386V463.384H270.94V461.134H278.576C278.576 460.611 278.462 460.148 278.235 459.744C278.008 459.341 277.692 459.026 277.289 458.798C276.891 458.565 276.428 458.449 275.9 458.449C275.349 458.449 274.86 458.577 274.434 458.832C274.013 459.082 273.684 459.42 273.445 459.847C273.207 460.267 273.085 460.736 273.079 461.253V463.392C273.079 464.04 273.198 464.599 273.437 465.071C273.681 465.543 274.025 465.906 274.468 466.162C274.911 466.418 275.437 466.545 276.045 466.545C276.448 466.545 276.817 466.489 277.153 466.375C277.488 466.261 277.775 466.091 278.013 465.864C278.252 465.636 278.434 465.358 278.559 465.028L281.917 465.25C281.746 466.057 281.397 466.761 280.869 467.364C280.346 467.96 279.67 468.426 278.84 468.761C278.016 469.091 277.065 469.256 275.985 469.256ZM284.363 469V455.909H287.823V458.219H287.977C288.249 457.452 288.704 456.847 289.34 456.403C289.977 455.96 290.738 455.739 291.624 455.739C292.522 455.739 293.286 455.963 293.917 456.412C294.548 456.855 294.968 457.457 295.178 458.219H295.315C295.582 457.469 296.065 456.869 296.763 456.42C297.468 455.966 298.3 455.739 299.261 455.739C300.482 455.739 301.474 456.128 302.235 456.906C303.002 457.679 303.386 458.776 303.386 460.196V469H299.763V460.912C299.763 460.185 299.57 459.639 299.184 459.276C298.798 458.912 298.315 458.73 297.735 458.73C297.076 458.73 296.562 458.94 296.192 459.361C295.823 459.776 295.638 460.324 295.638 461.006V469H292.119V460.835C292.119 460.193 291.934 459.682 291.565 459.301C291.201 458.92 290.721 458.73 290.124 458.73C289.721 458.73 289.357 458.832 289.033 459.037C288.715 459.236 288.462 459.517 288.275 459.881C288.087 460.239 287.994 460.659 287.994 461.142V469H284.363ZM306.254 473.909V455.909H309.833V458.108H309.995C310.154 457.756 310.384 457.398 310.685 457.034C310.992 456.665 311.39 456.358 311.879 456.114C312.373 455.864 312.987 455.739 313.719 455.739C314.674 455.739 315.555 455.989 316.362 456.489C317.168 456.983 317.813 457.73 318.296 458.73C318.779 459.724 319.021 460.972 319.021 462.472C319.021 463.932 318.785 465.165 318.313 466.17C317.847 467.17 317.211 467.929 316.404 468.446C315.603 468.957 314.705 469.213 313.711 469.213C313.006 469.213 312.407 469.097 311.913 468.864C311.424 468.631 311.023 468.338 310.711 467.986C310.398 467.628 310.16 467.267 309.995 466.903H309.884V473.909H306.254ZM309.808 462.455C309.808 463.233 309.915 463.912 310.131 464.491C310.347 465.071 310.66 465.523 311.069 465.847C311.478 466.165 311.975 466.324 312.56 466.324C313.151 466.324 313.651 466.162 314.06 465.838C314.469 465.509 314.779 465.054 314.989 464.474C315.205 463.889 315.313 463.216 315.313 462.455C315.313 461.699 315.208 461.034 314.998 460.46C314.788 459.886 314.478 459.437 314.069 459.114C313.66 458.79 313.157 458.628 312.56 458.628C311.969 458.628 311.469 458.784 311.06 459.097C310.657 459.409 310.347 459.852 310.131 460.426C309.915 461 309.808 461.676 309.808 462.455ZM325.072 451.545V469H321.441V451.545H325.072ZM333.895 469.256C332.571 469.256 331.426 468.974 330.46 468.412C329.5 467.844 328.759 467.054 328.236 466.043C327.713 465.026 327.452 463.847 327.452 462.506C327.452 461.153 327.713 459.972 328.236 458.96C328.759 457.943 329.5 457.153 330.46 456.591C331.426 456.023 332.571 455.739 333.895 455.739C335.219 455.739 336.361 456.023 337.321 456.591C338.287 457.153 339.031 457.943 339.554 458.96C340.077 459.972 340.338 461.153 340.338 462.506C340.338 463.847 340.077 465.026 339.554 466.043C339.031 467.054 338.287 467.844 337.321 468.412C336.361 468.974 335.219 469.256 333.895 469.256ZM333.912 466.443C334.514 466.443 335.017 466.273 335.42 465.932C335.824 465.585 336.128 465.114 336.332 464.517C336.543 463.92 336.648 463.241 336.648 462.48C336.648 461.719 336.543 461.04 336.332 460.443C336.128 459.847 335.824 459.375 335.42 459.028C335.017 458.682 334.514 458.509 333.912 458.509C333.304 458.509 332.793 458.682 332.378 459.028C331.969 459.375 331.659 459.847 331.449 460.443C331.244 461.04 331.142 461.719 331.142 462.48C331.142 463.241 331.244 463.92 331.449 464.517C331.659 465.114 331.969 465.585 332.378 465.932C332.793 466.273 333.304 466.443 333.912 466.443ZM344.821 469.222C344.259 469.222 343.776 469.023 343.372 468.625C342.974 468.222 342.776 467.739 342.776 467.176C342.776 466.619 342.974 466.142 343.372 465.744C343.776 465.347 344.259 465.148 344.821 465.148C345.366 465.148 345.844 465.347 346.253 465.744C346.662 466.142 346.866 466.619 346.866 467.176C346.866 467.551 346.77 467.895 346.577 468.207C346.389 468.514 346.142 468.761 345.835 468.949C345.528 469.131 345.19 469.222 344.821 469.222ZM355.762 469.256C354.421 469.256 353.268 468.972 352.302 468.403C351.342 467.83 350.603 467.034 350.086 466.017C349.575 465 349.319 463.83 349.319 462.506C349.319 461.165 349.577 459.989 350.094 458.977C350.617 457.96 351.359 457.168 352.319 456.599C353.279 456.026 354.421 455.739 355.745 455.739C356.887 455.739 357.887 455.946 358.745 456.361C359.603 456.776 360.282 457.358 360.782 458.108C361.282 458.858 361.558 459.739 361.609 460.75H358.183C358.086 460.097 357.83 459.571 357.415 459.173C357.006 458.77 356.469 458.568 355.805 458.568C355.242 458.568 354.751 458.722 354.33 459.028C353.915 459.33 353.592 459.77 353.359 460.349C353.126 460.929 353.009 461.631 353.009 462.455C353.009 463.29 353.123 464 353.35 464.585C353.583 465.17 353.91 465.616 354.33 465.923C354.751 466.23 355.242 466.384 355.805 466.384C356.219 466.384 356.592 466.298 356.921 466.128C357.256 465.957 357.532 465.71 357.748 465.386C357.969 465.057 358.114 464.662 358.183 464.202H361.609C361.552 465.202 361.279 466.082 360.79 466.844C360.308 467.599 359.64 468.19 358.788 468.616C357.935 469.043 356.927 469.256 355.762 469.256ZM369.848 469.256C368.524 469.256 367.379 468.974 366.413 468.412C365.453 467.844 364.712 467.054 364.189 466.043C363.666 465.026 363.405 463.847 363.405 462.506C363.405 461.153 363.666 459.972 364.189 458.96C364.712 457.943 365.453 457.153 366.413 456.591C367.379 456.023 368.524 455.739 369.848 455.739C371.172 455.739 372.314 456.023 373.274 456.591C374.24 457.153 374.984 457.943 375.507 458.96C376.03 459.972 376.291 461.153 376.291 462.506C376.291 463.847 376.03 465.026 375.507 466.043C374.984 467.054 374.24 467.844 373.274 468.412C372.314 468.974 371.172 469.256 369.848 469.256ZM369.865 466.443C370.467 466.443 370.97 466.273 371.374 465.932C371.777 465.585 372.081 465.114 372.286 464.517C372.496 463.92 372.601 463.241 372.601 462.48C372.601 461.719 372.496 461.04 372.286 460.443C372.081 459.847 371.777 459.375 371.374 459.028C370.97 458.682 370.467 458.509 369.865 458.509C369.257 458.509 368.746 458.682 368.331 459.028C367.922 459.375 367.612 459.847 367.402 460.443C367.197 461.04 367.095 461.719 367.095 462.48C367.095 463.241 367.197 463.92 367.402 464.517C367.612 465.114 367.922 465.585 368.331 465.932C368.746 466.273 369.257 466.443 369.865 466.443ZM378.652 469V455.909H382.112V458.219H382.266C382.538 457.452 382.993 456.847 383.629 456.403C384.266 455.96 385.027 455.739 385.913 455.739C386.811 455.739 387.575 455.963 388.206 456.412C388.837 456.855 389.257 457.457 389.467 458.219H389.604C389.871 457.469 390.354 456.869 391.053 456.42C391.757 455.966 392.589 455.739 393.55 455.739C394.771 455.739 395.763 456.128 396.524 456.906C397.291 457.679 397.675 458.776 397.675 460.196V469H394.053V460.912C394.053 460.185 393.859 459.639 393.473 459.276C393.087 458.912 392.604 458.73 392.024 458.73C391.365 458.73 390.851 458.94 390.482 459.361C390.112 459.776 389.928 460.324 389.928 461.006V469H386.408V460.835C386.408 460.193 386.223 459.682 385.854 459.301C385.49 458.92 385.01 458.73 384.413 458.73C384.01 458.73 383.646 458.832 383.322 459.037C383.004 459.236 382.751 459.517 382.564 459.881C382.376 460.239 382.283 460.659 382.283 461.142V469H378.652Z" fill="#1E1E1E" fill-opacity="0.53"/>
<rect x="834" y="272" width="498" height="479" rx="17" stroke="#00C5F0" stroke-width="4"/>
<rect x="1264" y="687" width="70" height="66" rx="11" fill="#00C5F0"/>
<g clip-path="url(#clip0_101_3)">
<path d="M1282.5 734H1315.5V738H1282.5V734ZM1300.83 722.344L1311.96 710.2L1314.56 713.028L1299 730L1283.44 713.03L1286.04 710.2L1297.17 722.34V700H1300.83V722.344Z" fill="black"/>
</g>
<path d="M668.062 995.455C668.062 995.657 667.811 995.819 667.496 995.819C667.136 995.85 666.886 995.688 666.886 995.455C666.886 995.252 667.136 995.09 667.452 995.09C667.779 995.06 668.062 995.222 668.062 995.455ZM664.676 994.999C664.6 995.201 664.817 995.434 665.144 995.495C665.427 995.597 665.754 995.495 665.819 995.293C665.884 995.09 665.677 994.857 665.351 994.766C665.068 994.695 664.752 994.796 664.676 994.999ZM669.488 994.827C669.172 994.897 668.954 995.09 668.987 995.323C669.02 995.526 669.303 995.657 669.629 995.586C669.945 995.516 670.163 995.323 670.13 995.12C670.098 994.928 669.804 994.796 669.488 994.827ZM676.652 956C661.551 956 650 966.669 650 980.723C650 991.959 657.599 1001.57 668.454 1004.96C669.847 1005.19 670.337 1004.39 670.337 1003.73C670.337 1003.1 670.304 999.639 670.304 997.512C670.304 997.512 662.683 999.031 661.083 994.492C661.083 994.492 659.842 991.544 658.056 990.784C658.056 990.784 655.563 989.193 658.231 989.223C658.231 989.223 660.942 989.426 662.433 991.838C664.817 995.749 668.813 994.624 670.37 993.955C670.62 992.334 671.328 991.209 672.112 990.541C666.026 989.912 659.885 989.092 659.885 979.345C659.885 976.558 660.713 975.16 662.455 973.377C662.172 972.718 661.246 970.003 662.738 966.497C665.013 965.838 670.25 969.233 670.25 969.233C672.427 968.665 674.768 968.371 677.087 968.371C679.406 968.371 681.747 968.665 683.924 969.233C683.924 969.233 689.161 965.828 691.436 966.497C692.928 970.013 692.002 972.718 691.719 973.377C693.461 975.17 694.528 976.568 694.528 979.345C694.528 989.122 688.116 989.902 682.03 990.541C683.031 991.341 683.881 992.861 683.881 995.242C683.881 998.656 683.848 1002.88 683.848 1003.71C683.848 1004.37 684.349 1005.17 685.731 1004.94C696.619 1001.57 704 991.959 704 980.723C704 966.669 691.752 956 676.652 956ZM660.582 990.946C660.441 991.047 660.473 991.28 660.658 991.473C660.833 991.635 661.083 991.706 661.225 991.574C661.366 991.473 661.333 991.24 661.148 991.047C660.974 990.885 660.724 990.814 660.582 990.946ZM659.406 990.125C659.33 990.257 659.439 990.419 659.657 990.52C659.831 990.622 660.049 990.591 660.125 990.449C660.201 990.318 660.092 990.156 659.875 990.054C659.657 989.993 659.483 990.024 659.406 990.125ZM662.934 993.732C662.76 993.864 662.825 994.168 663.075 994.36C663.326 994.593 663.642 994.624 663.783 994.462C663.925 994.33 663.859 994.026 663.642 993.834C663.402 993.601 663.075 993.57 662.934 993.732ZM661.693 992.243C661.519 992.344 661.519 992.608 661.693 992.841C661.867 993.074 662.161 993.175 662.302 993.074C662.477 992.942 662.477 992.679 662.302 992.445C662.15 992.212 661.867 992.111 661.693 992.243Z" fill="#00C5F0"/>
<g clip-path="url(#clip1_101_3)">
<path d="M778.583 956H749.417C743.665 956 739 960.571 739 966.208V994.792C739 1000.43 743.665 1005 749.417 1005H778.583C784.337 1005 789 1000.43 789 994.792V966.208C789 960.571 784.337 956 778.583 956ZM755.667 994.792H749.417V972.333H755.667V994.792ZM752.542 969.745C750.529 969.745 748.896 968.132 748.896 966.143C748.896 964.154 750.529 962.542 752.542 962.542C754.554 962.542 756.187 964.154 756.187 966.143C756.187 968.132 754.556 969.745 752.542 969.745ZM780.667 994.792H774.417V983.35C774.417 976.474 766.083 976.994 766.083 983.35V994.792H759.833V972.333H766.083V975.937C768.992 970.657 780.667 970.267 780.667 980.992V994.792Z" fill="#00C5F0"/>
</g>
<rect x="153" y="412" width="57" height="34" fill="white"/>
<path d="M170.298 420.545H173.989V431.881C173.989 433.153 173.685 434.267 173.077 435.222C172.474 436.176 171.631 436.92 170.545 437.455C169.46 437.983 168.196 438.247 166.753 438.247C165.304 438.247 164.037 437.983 162.952 437.455C161.866 436.92 161.023 436.176 160.42 435.222C159.818 434.267 159.517 433.153 159.517 431.881V420.545H163.207V431.565C163.207 432.23 163.352 432.821 163.642 433.338C163.938 433.855 164.352 434.261 164.886 434.557C165.42 434.852 166.043 435 166.753 435C167.469 435 168.091 434.852 168.619 434.557C169.153 434.261 169.565 433.855 169.855 433.338C170.151 432.821 170.298 432.23 170.298 431.565V420.545ZM177.025 438V420.545H183.911C185.229 420.545 186.354 420.781 187.286 421.253C188.224 421.719 188.937 422.381 189.425 423.239C189.92 424.091 190.167 425.094 190.167 426.247C190.167 427.406 189.917 428.403 189.417 429.239C188.917 430.068 188.192 430.705 187.244 431.148C186.3 431.591 185.158 431.812 183.817 431.812H179.207V428.847H183.221C183.925 428.847 184.511 428.75 184.977 428.557C185.442 428.364 185.789 428.074 186.016 427.688C186.249 427.301 186.366 426.821 186.366 426.247C186.366 425.668 186.249 425.179 186.016 424.781C185.789 424.384 185.44 424.082 184.968 423.878C184.502 423.668 183.914 423.562 183.204 423.562H180.715V438H177.025ZM186.451 430.057L190.789 438H186.715L182.471 430.057H186.451ZM192.775 438V420.545H196.465V434.957H203.948V438H192.775Z" fill="black"/>
<path d="M137 524H389C393.418 524 397 527.582 397 532V576C397 580.418 393.418 584 389 584H137C132.582 584 129 580.418 129 576V532C129 527.582 132.582 524 137 524Z" stroke="#00C5F0" stroke-width="4"/>
<rect x="153" y="506" width="66" height="34" fill="white"/>
<path d="M174.918 520.656H171.185C171.116 520.173 170.977 519.744 170.767 519.369C170.557 518.989 170.287 518.665 169.957 518.398C169.628 518.131 169.247 517.926 168.815 517.784C168.389 517.642 167.926 517.571 167.426 517.571C166.523 517.571 165.736 517.795 165.065 518.244C164.395 518.687 163.875 519.335 163.506 520.188C163.136 521.034 162.952 522.062 162.952 523.273C162.952 524.517 163.136 525.562 163.506 526.409C163.881 527.256 164.403 527.895 165.074 528.327C165.744 528.759 166.52 528.974 167.401 528.974C167.895 528.974 168.352 528.909 168.773 528.778C169.199 528.648 169.577 528.457 169.906 528.207C170.236 527.952 170.509 527.642 170.724 527.278C170.946 526.915 171.099 526.5 171.185 526.034L174.918 526.051C174.821 526.852 174.58 527.625 174.193 528.369C173.813 529.108 173.298 529.77 172.651 530.355C172.009 530.935 171.241 531.395 170.349 531.736C169.463 532.071 168.46 532.239 167.341 532.239C165.784 532.239 164.392 531.886 163.165 531.182C161.943 530.477 160.977 529.457 160.267 528.122C159.562 526.787 159.21 525.17 159.21 523.273C159.21 521.369 159.568 519.75 160.284 518.415C161 517.08 161.972 516.062 163.199 515.364C164.426 514.659 165.807 514.307 167.341 514.307C168.352 514.307 169.29 514.449 170.153 514.733C171.023 515.017 171.793 515.432 172.463 515.977C173.134 516.517 173.679 517.179 174.099 517.963C174.526 518.747 174.798 519.645 174.918 520.656ZM193.604 523.273C193.604 525.176 193.243 526.795 192.521 528.131C191.805 529.466 190.828 530.486 189.589 531.19C188.357 531.889 186.97 532.239 185.43 532.239C183.879 532.239 182.487 531.886 181.254 531.182C180.021 530.477 179.047 529.457 178.331 528.122C177.615 526.787 177.257 525.17 177.257 523.273C177.257 521.369 177.615 519.75 178.331 518.415C179.047 517.08 180.021 516.062 181.254 515.364C182.487 514.659 183.879 514.307 185.43 514.307C186.97 514.307 188.357 514.659 189.589 515.364C190.828 516.062 191.805 517.08 192.521 518.415C193.243 519.75 193.604 521.369 193.604 523.273ZM189.862 523.273C189.862 522.04 189.678 521 189.308 520.153C188.945 519.307 188.43 518.665 187.766 518.227C187.101 517.79 186.322 517.571 185.43 517.571C184.538 517.571 183.76 517.79 183.095 518.227C182.43 518.665 181.913 519.307 181.544 520.153C181.18 521 180.999 522.04 180.999 523.273C180.999 524.506 181.18 525.545 181.544 526.392C181.913 527.239 182.43 527.881 183.095 528.318C183.76 528.756 184.538 528.974 185.43 528.974C186.322 528.974 187.101 528.756 187.766 528.318C188.43 527.881 188.945 527.239 189.308 526.392C189.678 525.545 189.862 524.506 189.862 523.273ZM196.337 532V514.545H203.224C204.542 514.545 205.667 514.781 206.599 515.253C207.536 515.719 208.249 516.381 208.738 517.239C209.232 518.091 209.479 519.094 209.479 520.247C209.479 521.406 209.229 522.403 208.729 523.239C208.229 524.068 207.505 524.705 206.556 525.148C205.613 525.591 204.471 525.812 203.13 525.812H198.519V522.847H202.533C203.238 522.847 203.823 522.75 204.289 522.557C204.755 522.364 205.102 522.074 205.329 521.688C205.562 521.301 205.678 520.821 205.678 520.247C205.678 519.668 205.562 519.179 205.329 518.781C205.102 518.384 204.752 518.082 204.281 517.878C203.815 517.668 203.227 517.562 202.516 517.562H200.028V532H196.337ZM205.763 524.057L210.102 532H206.028L201.783 524.057H205.763Z" fill="black"/>
<rect x="153" y="542" width="215" height="23" rx="6" fill="#8600F0"/>
<path d="M478 527H753C757.418 527 761 530.582 761 535V579C761 583.418 757.418 587 753 587H478C473.582 587 470 583.418 470 579V535C470 530.582 473.582 527 478 527Z" stroke="#00C5F0" stroke-width="4"/>
<rect x="494" y="509" width="129" height="34" fill="white"/>
<path d="M500.517 535V517.545H512.074V520.588H504.207V524.747H511.307V527.79H504.207V535H500.517ZM530.596 526.273C530.596 528.176 530.235 529.795 529.513 531.131C528.798 532.466 527.82 533.486 526.582 534.19C525.349 534.889 523.962 535.239 522.423 535.239C520.871 535.239 519.479 534.886 518.246 534.182C517.013 533.477 516.039 532.457 515.323 531.122C514.607 529.787 514.249 528.17 514.249 526.273C514.249 524.369 514.607 522.75 515.323 521.415C516.039 520.08 517.013 519.062 518.246 518.364C519.479 517.659 520.871 517.307 522.423 517.307C523.962 517.307 525.349 517.659 526.582 518.364C527.82 519.062 528.798 520.08 529.513 521.415C530.235 522.75 530.596 524.369 530.596 526.273ZM526.854 526.273C526.854 525.04 526.67 524 526.3 523.153C525.937 522.307 525.423 521.665 524.758 521.227C524.093 520.79 523.315 520.571 522.423 520.571C521.531 520.571 520.752 520.79 520.087 521.227C519.423 521.665 518.906 522.307 518.536 523.153C518.173 524 517.991 525.04 517.991 526.273C517.991 527.506 518.173 528.545 518.536 529.392C518.906 530.239 519.423 530.881 520.087 531.318C520.752 531.756 521.531 531.974 522.423 531.974C523.315 531.974 524.093 531.756 524.758 531.318C525.423 530.881 525.937 530.239 526.3 529.392C526.67 528.545 526.854 527.506 526.854 526.273ZM533.33 535V517.545H540.216C541.534 517.545 542.659 517.781 543.591 518.253C544.528 518.719 545.241 519.381 545.73 520.239C546.224 521.091 546.472 522.094 546.472 523.247C546.472 524.406 546.222 525.403 545.722 526.239C545.222 527.068 544.497 527.705 543.548 528.148C542.605 528.591 541.463 528.812 540.122 528.812H535.511V525.847H539.526C540.23 525.847 540.815 525.75 541.281 525.557C541.747 525.364 542.094 525.074 542.321 524.688C542.554 524.301 542.67 523.821 542.67 523.247C542.67 522.668 542.554 522.179 542.321 521.781C542.094 521.384 541.744 521.082 541.273 520.878C540.807 520.668 540.219 520.562 539.509 520.562H537.02V535H533.33ZM542.756 527.057L547.094 535H543.02L538.776 527.057H542.756ZM549.08 517.545H553.631L558.438 529.273H558.642L563.449 517.545H568V535H564.42V523.639H564.276L559.759 534.915H557.321L552.804 523.597H552.659V535H549.08V517.545ZM574.049 535H570.094L576.12 517.545H580.876L586.893 535H582.938L578.566 521.534H578.43L574.049 535ZM573.802 528.139H583.143V531.02H573.802V528.139ZM586.196 520.588V517.545H600.531V520.588H595.188V535H591.54V520.588H586.196ZM618.135 526.273C618.135 528.176 617.774 529.795 617.053 531.131C616.337 532.466 615.359 533.486 614.121 534.19C612.888 534.889 611.501 535.239 609.962 535.239C608.411 535.239 607.018 534.886 605.786 534.182C604.553 533.477 603.578 532.457 602.862 531.122C602.146 529.787 601.788 528.17 601.788 526.273C601.788 524.369 602.146 522.75 602.862 521.415C603.578 520.08 604.553 519.062 605.786 518.364C607.018 517.659 608.411 517.307 609.962 517.307C611.501 517.307 612.888 517.659 614.121 518.364C615.359 519.062 616.337 520.08 617.053 521.415C617.774 522.75 618.135 524.369 618.135 526.273ZM614.393 526.273C614.393 525.04 614.209 524 613.839 523.153C613.476 522.307 612.962 521.665 612.297 521.227C611.632 520.79 610.854 520.571 609.962 520.571C609.07 520.571 608.291 520.79 607.626 521.227C606.962 521.665 606.445 522.307 606.075 523.153C605.712 524 605.53 525.04 605.53 526.273C605.53 527.506 605.712 528.545 606.075 529.392C606.445 530.239 606.962 530.881 607.626 531.318C608.291 531.756 609.07 531.974 609.962 531.974C610.854 531.974 611.632 531.756 612.297 531.318C612.962 530.881 613.476 530.239 613.839 529.392C614.209 528.545 614.393 527.506 614.393 526.273Z" fill="black"/>
<path d="M507.506 547.545H511.153V559.716C511.153 560.841 510.901 561.818 510.395 562.648C509.895 563.477 509.199 564.116 508.307 564.565C507.415 565.014 506.378 565.239 505.196 565.239C504.145 565.239 503.19 565.054 502.332 564.685C501.48 564.31 500.804 563.741 500.304 562.98C499.804 562.213 499.557 561.25 499.562 560.091H503.236C503.247 560.551 503.341 560.946 503.517 561.276C503.699 561.599 503.946 561.849 504.259 562.026C504.577 562.196 504.952 562.281 505.384 562.281C505.838 562.281 506.222 562.185 506.534 561.991C506.852 561.793 507.094 561.503 507.259 561.122C507.423 560.741 507.506 560.273 507.506 559.716V547.545ZM514.205 565V547.545H521.091C522.415 547.545 523.543 547.798 524.474 548.304C525.406 548.804 526.116 549.5 526.605 550.392C527.099 551.278 527.347 552.301 527.347 553.46C527.347 554.619 527.097 555.642 526.597 556.528C526.097 557.415 525.372 558.105 524.423 558.599C523.48 559.094 522.338 559.341 520.997 559.341H516.608V556.384H520.401C521.111 556.384 521.696 556.261 522.156 556.017C522.622 555.767 522.969 555.423 523.196 554.986C523.429 554.543 523.545 554.034 523.545 553.46C523.545 552.881 523.429 552.375 523.196 551.943C522.969 551.506 522.622 551.168 522.156 550.929C521.69 550.685 521.099 550.562 520.384 550.562H517.895V565H514.205ZM529.744 565V547.545H541.505V550.588H533.434V554.747H540.9V557.79H533.434V561.957H541.539V565H529.744ZM556.013 553.188C555.893 552.773 555.726 552.406 555.51 552.088C555.294 551.764 555.03 551.491 554.717 551.27C554.411 551.043 554.058 550.869 553.661 550.75C553.268 550.631 552.834 550.571 552.357 550.571C551.464 550.571 550.68 550.793 550.004 551.236C549.334 551.679 548.811 552.324 548.436 553.17C548.061 554.011 547.874 555.04 547.874 556.256C547.874 557.472 548.058 558.506 548.428 559.358C548.797 560.21 549.32 560.861 549.996 561.31C550.672 561.753 551.47 561.974 552.391 561.974C553.226 561.974 553.939 561.827 554.53 561.531C555.126 561.23 555.581 560.807 555.893 560.261C556.212 559.716 556.371 559.071 556.371 558.327L557.121 558.438H552.621V555.659H559.925V557.858C559.925 559.392 559.601 560.71 558.953 561.812C558.305 562.909 557.413 563.756 556.277 564.352C555.141 564.943 553.839 565.239 552.374 565.239C550.737 565.239 549.3 564.878 548.061 564.156C546.822 563.429 545.857 562.398 545.163 561.062C544.476 559.722 544.132 558.131 544.132 556.29C544.132 554.875 544.337 553.614 544.746 552.506C545.161 551.392 545.74 550.449 546.484 549.676C547.229 548.903 548.095 548.315 549.084 547.912C550.072 547.509 551.143 547.307 552.297 547.307C553.286 547.307 554.206 547.452 555.058 547.741C555.911 548.026 556.666 548.429 557.325 548.952C557.99 549.474 558.533 550.097 558.953 550.818C559.374 551.534 559.643 552.324 559.763 553.188H556.013Z" fill="#1E1E1E" fill-opacity="0.53"/>
<defs>
<clipPath id="clip0_101_3">
<rect width="44" height="48" fill="white" transform="translate(1277 696)"/>
</clipPath>
<clipPath id="clip1_101_3">
<rect width="50" height="49" fill="white" transform="translate(739 956)"/>
</clipPath>
</defs>
</svg>
