<svg width="183" height="67" viewBox="0 0 183 67" fill="none" xmlns="http://www.w3.org/2000/svg">
<path d="M6.42045 41H1.2642V26.4545H6.46307C7.92614 26.4545 9.18561 26.7457 10.2415 27.3281C11.2973 27.9058 12.1094 28.7367 12.6776 29.821C13.2505 30.9053 13.5369 32.2027 13.5369 33.7131C13.5369 35.2282 13.2505 36.5303 12.6776 37.6193C12.1094 38.7083 11.2926 39.544 10.2273 40.1264C9.16667 40.7088 7.89773 41 6.42045 41ZM4.33949 38.3651H6.29261C7.2017 38.3651 7.96638 38.2041 8.58665 37.8821C9.21165 37.5554 9.6804 37.0511 9.9929 36.3693C10.3101 35.6828 10.4688 34.7973 10.4688 33.7131C10.4688 32.6383 10.3101 31.7599 9.9929 31.0781C9.6804 30.3963 9.21402 29.8944 8.59375 29.5724C7.97348 29.2505 7.20881 29.0895 6.29972 29.0895H4.33949V38.3651ZM15.815 41V26.4545H25.6161V28.9901H18.8903V32.456H25.1119V34.9915H18.8903V38.4645H25.6445V41H15.815ZM35.9517 30.6378C35.8949 30.0649 35.651 29.6198 35.2202 29.3026C34.7893 28.9853 34.2045 28.8267 33.4659 28.8267C32.964 28.8267 32.5402 28.8977 32.1946 29.0398C31.849 29.1771 31.5838 29.3688 31.3991 29.6151C31.2192 29.8613 31.1293 30.1406 31.1293 30.4531C31.1198 30.7135 31.1742 30.9408 31.2926 31.1349C31.4157 31.3291 31.5838 31.4972 31.7969 31.6392C32.0099 31.7765 32.2562 31.8973 32.5355 32.0014C32.8149 32.1009 33.1132 32.1861 33.4304 32.2571L34.7372 32.5696C35.3717 32.7116 35.9541 32.901 36.4844 33.1378C37.0147 33.3745 37.474 33.6657 37.8622 34.0114C38.2505 34.357 38.5511 34.7642 38.7642 35.233C38.982 35.7017 39.0933 36.2391 39.098 36.8452C39.0933 37.7353 38.866 38.5071 38.4162 39.1605C37.9711 39.8092 37.3272 40.3134 36.4844 40.6733C35.6463 41.0284 34.6354 41.206 33.4517 41.206C32.2775 41.206 31.2547 41.026 30.3835 40.6662C29.517 40.3063 28.84 39.7737 28.3523 39.0682C27.8693 38.358 27.616 37.4796 27.5923 36.4332H30.5682C30.6013 36.9209 30.741 37.3281 30.9872 37.6548C31.2382 37.9768 31.572 38.2206 31.9886 38.3864C32.41 38.5473 32.8859 38.6278 33.4162 38.6278C33.937 38.6278 34.3892 38.5521 34.7727 38.4006C35.161 38.2491 35.4616 38.0384 35.6747 37.7685C35.8878 37.4986 35.9943 37.1884 35.9943 36.8381C35.9943 36.5114 35.8973 36.2367 35.7031 36.0142C35.5137 35.7917 35.2344 35.6023 34.8651 35.446C34.5005 35.2898 34.053 35.1477 33.5227 35.0199L31.9389 34.6222C30.7126 34.3239 29.7443 33.8575 29.0341 33.223C28.3239 32.5885 27.9711 31.7339 27.9759 30.6591C27.9711 29.7784 28.2055 29.009 28.679 28.3509C29.1572 27.6927 29.813 27.179 30.6463 26.8097C31.4796 26.4403 32.4266 26.2557 33.4872 26.2557C34.5668 26.2557 35.509 26.4403 36.3139 26.8097C37.1236 27.179 37.7533 27.6927 38.2031 28.3509C38.6529 29.009 38.8849 29.7713 38.8991 30.6378H35.9517ZM41.1665 41V26.4545H44.2418V38.4645H50.4776V41H41.1665ZM55.5895 26.4545V41H52.5142V26.4545H55.5895ZM57.9634 41V39.1747L65.2219 28.9901H57.9492V26.4545H69.0856V28.2798L61.82 38.4645H69.0998V41H57.9634ZM71.4595 41V26.4545H81.2607V28.9901H74.5348V32.456H80.7564V34.9915H74.5348V38.4645H81.2891V41H71.4595Z" fill="#8600F0" fill-opacity="0.65"/>
<path fill-rule="evenodd" clip-rule="evenodd" d="M117.285 29.5225C119.572 31.7194 119.572 35.2807 117.285 37.4776L89.9991 63.6821C88.1693 65.4393 85.2024 65.4393 83.3727 63.6821C81.5424 61.9248 81.5424 59.0754 83.3727 57.3182L108.173 33.5001L83.3727 9.68201C81.5424 7.92462 81.5424 5.0754 83.3727 3.31801C85.2024 1.56066 88.1693 1.56066 89.9991 3.31801L117.285 29.5225Z" fill="#000012" stroke="#8600F0" stroke-opacity="0.6" stroke-width="3"/>
<path fill-rule="evenodd" clip-rule="evenodd" d="M147.285 29.5225C149.572 31.7194 149.572 35.2807 147.285 37.4776L119.999 63.6821C118.169 65.4393 115.202 65.4393 113.373 63.6821C111.542 61.9248 111.542 59.0754 113.373 57.3182L138.173 33.5001L113.373 9.68201C111.542 7.92462 111.542 5.0754 113.373 3.31801C115.202 1.56066 118.169 1.56066 119.999 3.31801L147.285 29.5225Z" fill="#000012" stroke="#8600F0" stroke-opacity="0.6" stroke-width="3"/>
<path fill-rule="evenodd" clip-rule="evenodd" d="M179.285 29.5225C181.572 31.7194 181.572 35.2807 179.285 37.4776L151.999 63.6821C150.169 65.4393 147.202 65.4393 145.373 63.6821C143.542 61.9248 143.542 59.0754 145.373 57.3182L170.173 33.5001L145.373 9.68201C143.542 7.92462 143.542 5.0754 145.373 3.31801C147.202 1.56066 150.169 1.56066 151.999 3.31801L179.285 29.5225Z" fill="#000012" stroke="#8600F0" stroke-opacity="0.6" stroke-width="3"/>
</svg>
