<svg width="93" height="92" viewBox="0 0 93 92" fill="none" xmlns="http://www.w3.org/2000/svg">
<g clip-path="url(#clip0_123_37)">
<path d="M92.8763 35.4566C92.5594 34.4955 91.7013 33.8098 90.686 33.7027L60.9254 30.7151L48.8579 3.64532C48.4456 2.72761 47.5205 2.12601 46.5 2.12601C45.4796 2.12601 44.5545 2.72252 44.1421 3.65042L32.072 30.7176L2.31663 33.7027C1.30134 33.8047 0.440655 34.4981 0.126274 35.4566C-0.190683 36.4176 0.0979285 37.473 0.860688 38.146L23.1559 57.8715L16.8348 86.7869C16.621 87.7734 17.0126 88.7931 17.8398 89.3871C18.2908 89.7108 18.8216 89.874 19.355 89.874C19.8008 89.874 20.2492 89.7593 20.6512 89.5247L46.5026 74.6375L72.3488 89.5247C73.2301 90.0269 74.333 89.9785 75.1602 89.3743C75.9848 88.7906 76.3816 87.7607 76.1678 86.7742L69.8466 57.8562L92.1445 38.1332C92.9021 37.4704 93.1933 36.4151 92.8763 35.4566ZM65.2881 55.0572C64.5975 55.669 64.2909 56.5995 64.4867 57.4968L69.8904 82.2111L47.7962 69.4907C46.9948 69.0268 46.0052 69.0268 45.2038 69.4907L23.1044 82.2111L28.5082 57.4968C28.704 56.5995 28.3973 55.669 27.7067 55.0572L8.64805 38.1995L34.082 35.6452C35.0045 35.556 35.8033 34.9722 36.1796 34.1361L46.4974 10.9972L56.8127 34.1361C57.189 34.9722 57.9878 35.556 58.9103 35.6452L84.3442 38.1995L65.2881 55.0572Z" fill="black"/>
</g>
<defs>
<clipPath id="clip0_123_37">
<rect width="93" height="92" fill="white"/>
</clipPath>
</defs>
</svg>
