<svg width="1440" height="1024" viewBox="0 0 1440 1024" fill="none" xmlns="http://www.w3.org/2000/svg">
<rect width="1440" height="1024" fill="#2E2E2E"/>
<rect x="162.5" y="451.5" width="546" height="367" rx="8.5" fill="#2E2E2E" stroke="#8B3F00" stroke-width="3"/>
<rect x="809" y="380" width="136" height="45" rx="10" fill="#E46700"/>
<path d="M833.728 412V409.6H836.44V397.6H833.728V395.2H841.744V397.6H839.032V409.6H841.744V412H833.728ZM845.189 412V399.4H847.661V401.992L847.229 402.28C847.389 401.72 847.701 401.208 848.165 400.744C848.629 400.264 849.181 399.88 849.821 399.592C850.461 399.288 851.117 399.136 851.789 399.136C852.749 399.136 853.549 399.328 854.189 399.712C854.829 400.08 855.309 400.648 855.629 401.416C855.949 402.184 856.109 403.152 856.109 404.32V412H853.637V404.488C853.637 403.768 853.541 403.176 853.349 402.712C853.157 402.232 852.861 401.888 852.461 401.68C852.061 401.456 851.565 401.36 850.973 401.392C850.493 401.392 850.053 401.472 849.653 401.632C849.253 401.776 848.901 401.984 848.597 402.256C848.309 402.528 848.077 402.848 847.901 403.216C847.741 403.568 847.661 403.952 847.661 404.368V412H846.437C846.229 412 846.021 412 845.813 412C845.605 412 845.397 412 845.189 412ZM865.102 417.52C864.206 417.52 863.31 417.376 862.414 417.088C861.534 416.816 860.822 416.456 860.278 416.008L861.19 414.088C861.51 414.328 861.886 414.536 862.318 414.712C862.75 414.904 863.206 415.048 863.686 415.144C864.166 415.256 864.638 415.312 865.102 415.312C865.982 415.312 866.718 415.168 867.31 414.88C867.902 414.592 868.35 414.168 868.654 413.608C868.958 413.048 869.11 412.352 869.11 411.52V409.096L869.374 409.264C869.294 409.76 869.03 410.24 868.582 410.704C868.15 411.152 867.606 411.52 866.95 411.808C866.294 412.096 865.622 412.24 864.934 412.24C863.734 412.24 862.662 411.96 861.718 411.4C860.79 410.824 860.054 410.048 859.51 409.072C858.966 408.08 858.694 406.952 858.694 405.688C858.694 404.424 858.958 403.304 859.486 402.328C860.03 401.336 860.766 400.56 861.694 400C862.638 399.424 863.694 399.136 864.862 399.136C865.342 399.136 865.806 399.2 866.254 399.328C866.702 399.44 867.118 399.608 867.502 399.832C867.886 400.04 868.23 400.272 868.534 400.528C868.838 400.784 869.086 401.056 869.278 401.344C869.47 401.632 869.59 401.904 869.638 402.16L869.11 402.352V399.4H871.582V411.232C871.582 412.24 871.43 413.128 871.126 413.896C870.838 414.68 870.414 415.336 869.854 415.864C869.294 416.408 868.614 416.816 867.814 417.088C867.014 417.376 866.11 417.52 865.102 417.52ZM865.198 409.96C865.982 409.96 866.678 409.776 867.286 409.408C867.894 409.04 868.366 408.536 868.702 407.896C869.038 407.256 869.206 406.52 869.206 405.688C869.206 404.856 869.03 404.12 868.678 403.48C868.342 402.824 867.87 402.312 867.262 401.944C866.67 401.576 865.982 401.392 865.198 401.392C864.43 401.392 863.742 401.584 863.134 401.968C862.542 402.336 862.07 402.848 861.718 403.504C861.382 404.144 861.214 404.872 861.214 405.688C861.214 406.504 861.382 407.24 861.718 407.896C862.07 408.536 862.542 409.04 863.134 409.408C863.742 409.776 864.43 409.96 865.198 409.96ZM875.096 412V394.24H877.568V412H875.096ZM886.717 412.24C885.421 412.24 884.269 411.968 883.261 411.424C882.269 410.864 881.485 410.104 880.909 409.144C880.349 408.184 880.069 407.08 880.069 405.832C880.069 404.84 880.229 403.936 880.549 403.12C880.869 402.304 881.309 401.6 881.869 401.008C882.445 400.4 883.125 399.936 883.909 399.616C884.709 399.28 885.573 399.112 886.501 399.112C887.317 399.112 888.077 399.272 888.781 399.592C889.485 399.896 890.093 400.32 890.605 400.864C891.133 401.408 891.533 402.056 891.805 402.808C892.093 403.544 892.229 404.352 892.213 405.232L892.189 406.288H881.893L881.341 404.32H890.053L889.693 404.728V404.152C889.645 403.624 889.469 403.152 889.165 402.736C888.861 402.32 888.477 401.992 888.013 401.752C887.549 401.512 887.045 401.392 886.501 401.392C885.637 401.392 884.909 401.56 884.317 401.896C883.725 402.216 883.277 402.696 882.973 403.336C882.669 403.96 882.517 404.736 882.517 405.664C882.517 406.544 882.701 407.312 883.069 407.968C883.437 408.608 883.957 409.104 884.629 409.456C885.301 409.808 886.077 409.984 886.957 409.984C887.581 409.984 888.157 409.88 888.685 409.672C889.229 409.464 889.813 409.088 890.437 408.544L891.685 410.296C891.301 410.68 890.829 411.016 890.269 411.304C889.725 411.592 889.141 411.824 888.517 412C887.909 412.16 887.309 412.24 886.717 412.24ZM883.621 397.432L882.709 396.64L885.469 393.928H887.533L890.293 396.64L889.381 397.432L886.141 395.68H886.861L883.621 397.432ZM899.1 412.24C898.044 412.24 897.092 412.056 896.244 411.688C895.396 411.32 894.692 410.776 894.132 410.056L895.812 408.616C896.292 409.176 896.812 409.584 897.372 409.84C897.948 410.08 898.596 410.2 899.316 410.2C899.604 410.2 899.868 410.168 900.108 410.104C900.364 410.024 900.58 409.912 900.756 409.768C900.948 409.624 901.092 409.456 901.188 409.264C901.284 409.056 901.332 408.832 901.332 408.592C901.332 408.176 901.18 407.84 900.876 407.584C900.716 407.472 900.46 407.352 900.108 407.224C899.772 407.08 899.332 406.936 898.788 406.792C897.86 406.552 897.1 406.28 896.508 405.976C895.916 405.672 895.46 405.328 895.14 404.944C894.9 404.64 894.724 404.312 894.612 403.96C894.5 403.592 894.444 403.192 894.444 402.76C894.444 402.232 894.556 401.752 894.78 401.32C895.02 400.872 895.34 400.488 895.74 400.168C896.156 399.832 896.636 399.576 897.18 399.4C897.74 399.224 898.332 399.136 898.956 399.136C899.548 399.136 900.132 399.216 900.708 399.376C901.3 399.536 901.844 399.768 902.34 400.072C902.836 400.376 903.252 400.736 903.588 401.152L902.172 402.712C901.868 402.408 901.532 402.144 901.164 401.92C900.812 401.68 900.452 401.496 900.084 401.368C899.716 401.24 899.38 401.176 899.076 401.176C898.74 401.176 898.436 401.208 898.164 401.272C897.892 401.336 897.66 401.432 897.468 401.56C897.292 401.688 897.156 401.848 897.06 402.04C896.964 402.232 896.916 402.448 896.916 402.688C896.932 402.896 896.98 403.096 897.06 403.288C897.156 403.464 897.284 403.616 897.444 403.744C897.62 403.872 897.884 404.008 898.236 404.152C898.588 404.296 899.036 404.432 899.58 404.56C900.38 404.768 901.036 405 901.548 405.256C902.076 405.496 902.492 405.776 902.796 406.096C903.116 406.4 903.34 406.752 903.468 407.152C903.596 407.552 903.66 408 903.66 408.496C903.66 409.216 903.452 409.864 903.036 410.44C902.636 411 902.092 411.44 901.404 411.76C900.716 412.08 899.948 412.24 899.1 412.24Z" fill="#1E1E1E"/>
<rect x="731.5" y="451.5" width="546" height="367" rx="8.5" fill="#2E2E2E" stroke="#8B3F00" stroke-width="3"/>
<path d="M731.704 412.28V394.304H734.992L735.088 397.16L734.464 396.944C734.576 396.432 734.848 395.96 735.28 395.528C735.728 395.096 736.28 394.744 736.936 394.472C737.592 394.2 738.28 394.064 739 394.064C740.104 394.064 741.08 394.352 741.928 394.928C742.792 395.488 743.472 396.264 743.968 397.256C744.48 398.232 744.736 399.36 744.736 400.64C744.736 401.904 744.488 403.032 743.992 404.024C743.496 405.016 742.816 405.8 741.952 406.376C741.088 406.936 740.104 407.216 739 407.216C738.264 407.216 737.56 407.08 736.888 406.808C736.232 406.52 735.672 406.144 735.208 405.68C734.744 405.216 734.456 404.72 734.344 404.192L735.136 403.856V412.28H731.704ZM738.232 404.288C738.856 404.288 739.408 404.136 739.888 403.832C740.368 403.528 740.744 403.104 741.016 402.56C741.288 402 741.424 401.36 741.424 400.64C741.424 399.92 741.288 399.288 741.016 398.744C740.744 398.2 740.368 397.776 739.888 397.472C739.424 397.168 738.872 397.016 738.232 397.016C737.592 397.016 737.032 397.168 736.552 397.472C736.072 397.76 735.696 398.184 735.424 398.744C735.152 399.288 735.016 399.92 735.016 400.64C735.016 401.36 735.152 402 735.424 402.56C735.696 403.104 736.072 403.528 736.552 403.832C737.032 404.136 737.592 404.288 738.232 404.288ZM752.065 407.24C751.009 407.24 750.057 406.952 749.209 406.376C748.361 405.8 747.689 405.016 747.193 404.024C746.697 403.032 746.449 401.896 746.449 400.616C746.449 399.336 746.697 398.208 747.193 397.232C747.705 396.24 748.393 395.464 749.257 394.904C750.121 394.328 751.105 394.04 752.209 394.04C752.833 394.04 753.401 394.136 753.913 394.328C754.441 394.504 754.897 394.752 755.281 395.072C755.681 395.392 756.017 395.76 756.289 396.176C756.561 396.592 756.753 397.04 756.865 397.52L756.145 397.4V394.304H759.529V407H756.097V403.952L756.865 403.88C756.737 404.328 756.529 404.752 756.241 405.152C755.953 405.552 755.593 405.912 755.161 406.232C754.745 406.536 754.273 406.784 753.745 406.976C753.217 407.152 752.657 407.24 752.065 407.24ZM753.001 404.288C753.641 404.288 754.201 404.136 754.681 403.832C755.161 403.528 755.529 403.104 755.785 402.56C756.057 402 756.193 401.352 756.193 400.616C756.193 399.896 756.057 399.264 755.785 398.72C755.529 398.176 755.161 397.752 754.681 397.448C754.201 397.128 753.641 396.968 753.001 396.968C752.377 396.968 751.825 397.128 751.345 397.448C750.881 397.752 750.513 398.176 750.241 398.72C749.969 399.264 749.833 399.896 749.833 400.616C749.833 401.352 749.969 402 750.241 402.56C750.513 403.104 750.881 403.528 751.345 403.832C751.825 404.136 752.377 404.288 753.001 404.288ZM762.946 407V394.304H766.234L766.354 398.384L765.778 397.544C765.97 396.888 766.282 396.296 766.714 395.768C767.146 395.224 767.65 394.8 768.226 394.496C768.818 394.192 769.434 394.04 770.074 394.04C770.346 394.04 770.61 394.064 770.866 394.112C771.122 394.16 771.338 394.216 771.514 394.28L770.602 398.024C770.41 397.928 770.178 397.848 769.906 397.784C769.634 397.704 769.354 397.664 769.066 397.664C768.682 397.664 768.322 397.736 767.986 397.88C767.666 398.008 767.386 398.2 767.146 398.456C766.906 398.696 766.714 398.984 766.57 399.32C766.442 399.656 766.378 400.024 766.378 400.424V407H762.946ZM777.683 407.24C776.627 407.24 775.675 406.952 774.827 406.376C773.979 405.8 773.307 405.016 772.811 404.024C772.315 403.032 772.067 401.896 772.067 400.616C772.067 399.336 772.315 398.208 772.811 397.232C773.323 396.24 774.011 395.464 774.875 394.904C775.739 394.328 776.723 394.04 777.827 394.04C778.451 394.04 779.019 394.136 779.531 394.328C780.059 394.504 780.515 394.752 780.899 395.072C781.299 395.392 781.635 395.76 781.907 396.176C782.179 396.592 782.371 397.04 782.483 397.52L781.763 397.4V394.304H785.147V407H781.715V403.952L782.483 403.88C782.355 404.328 782.147 404.752 781.859 405.152C781.571 405.552 781.211 405.912 780.779 406.232C780.363 406.536 779.891 406.784 779.363 406.976C778.835 407.152 778.275 407.24 777.683 407.24ZM778.619 404.288C779.259 404.288 779.819 404.136 780.299 403.832C780.779 403.528 781.147 403.104 781.403 402.56C781.675 402 781.811 401.352 781.811 400.616C781.811 399.896 781.675 399.264 781.403 398.72C781.147 398.176 780.779 397.752 780.299 397.448C779.819 397.128 779.259 396.968 778.619 396.968C777.995 396.968 777.443 397.128 776.963 397.448C776.499 397.752 776.131 398.176 775.859 398.72C775.587 399.264 775.451 399.896 775.451 400.616C775.451 401.352 775.587 402 775.859 402.56C776.131 403.104 776.499 403.528 776.963 403.832C777.443 404.136 777.995 404.288 778.619 404.288ZM789.835 407.24C789.211 407.24 788.731 407.064 788.395 406.712C788.059 406.36 787.891 405.856 787.891 405.2C787.891 404.608 788.067 404.128 788.419 403.76C788.787 403.376 789.259 403.184 789.835 403.184C790.443 403.184 790.915 403.36 791.251 403.712C791.587 404.064 791.755 404.56 791.755 405.2C791.755 405.808 791.579 406.304 791.227 406.688C790.875 407.056 790.411 407.24 789.835 407.24ZM789.835 398.144C789.211 398.144 788.731 397.968 788.395 397.616C788.059 397.264 787.891 396.76 787.891 396.104C787.891 395.512 788.067 395.032 788.419 394.664C788.787 394.28 789.259 394.088 789.835 394.088C790.443 394.088 790.915 394.264 791.251 394.616C791.587 394.968 791.755 395.464 791.755 396.104C791.755 396.712 791.579 397.208 791.227 397.592C790.875 397.96 790.411 398.144 789.835 398.144Z" fill="#8B3F00"/>
<path d="M817 153.013C817 142.3 811.773 132.334 802.281 124.949C793.222 117.9 781.251 114.018 768.573 114.018C755.894 114.019 743.922 117.9 734.863 124.949C732.381 126.881 730.197 128.992 728.316 131.244C722.98 129.656 717.284 128.814 711.428 128.814C698.75 128.814 686.779 132.696 677.719 139.745C668.227 147.13 663 157.095 663 167.807C663 178.475 668.307 188.534 677.679 195.838L673.279 214.061C672.834 215.901 673.456 217.848 674.855 219.005C675.638 219.652 676.579 219.982 677.526 219.982C678.27 219.982 679.018 219.779 679.693 219.365L701.531 205.99C704.775 206.528 708.097 206.801 711.427 206.801C724.106 206.801 736.078 202.92 745.137 195.872C747.617 193.942 749.8 191.833 751.677 189.581C757.015 191.167 762.715 192.006 768.572 192.006C771.9 192.006 775.221 191.733 778.468 191.195L800.307 204.57C800.982 204.983 801.73 205.187 802.474 205.187C803.42 205.187 804.363 204.858 805.146 204.209C806.545 203.053 807.166 201.105 806.721 199.265L802.321 181.042C811.693 173.738 817 163.679 817 153.013ZM794.975 174.969C793.343 176.062 792.56 178.174 793.044 180.179L795.612 190.812L781.451 182.14C780.787 181.732 780.039 181.522 779.283 181.522C779.024 181.522 778.763 181.546 778.505 181.597C775.268 182.225 771.926 182.544 768.573 182.544C746.708 182.544 728.921 169.296 728.921 153.012C728.921 136.728 746.708 123.479 768.573 123.478C790.437 123.478 808.224 136.727 808.224 153.012C808.224 161.326 803.394 169.33 794.975 174.969Z" fill="#E46700"/>
<path d="M746.914 148.689C744.1 148.689 741.811 151.156 741.811 154.188C741.811 157.221 744.1 159.688 746.914 159.688C749.728 159.688 752.017 157.221 752.017 154.188C752.017 151.156 749.728 148.689 746.914 148.689Z" fill="#E46700"/>
<path d="M761.353 148.689C758.539 148.689 756.251 151.156 756.251 154.188C756.251 157.221 758.539 159.688 761.353 159.688C764.167 159.688 766.456 157.221 766.456 154.188C766.455 151.156 764.166 148.689 761.353 148.689Z" fill="#E46700"/>
<path d="M775.792 148.689C772.978 148.689 770.688 151.156 770.688 154.188C770.688 157.221 772.977 159.688 775.792 159.688C778.605 159.688 780.893 157.221 780.893 154.188C780.893 151.156 778.605 148.689 775.792 148.689Z" fill="#E46700"/>
<path d="M790.231 148.689C787.417 148.689 785.128 151.156 785.128 154.188C785.128 157.221 787.417 159.688 790.231 159.688C793.044 159.688 795.332 157.221 795.332 154.188C795.332 151.156 793.044 148.689 790.231 148.689Z" fill="#E46700"/>
<path d="M590.2 295H581.56V268.12H571.48V261.4H600.28V268.12H590.2V295ZM603.646 261.4H623.806C627.166 261.4 629.598 262.168 631.102 263.704C632.638 265.208 633.406 267.64 633.406 271V275.32C633.406 277.976 632.958 280.04 632.062 281.512C631.198 282.984 629.806 283.96 627.886 284.44L633.886 295H624.526L619.006 284.92H612.286V295H603.646V261.4ZM624.766 271C624.766 269.08 623.806 268.12 621.886 268.12H612.286V278.2H621.886C623.806 278.2 624.766 277.24 624.766 275.32V271ZM644.193 295H634.832L647.553 261.4H657.153L669.873 295H660.513L658.353 289H646.353L644.193 295ZM648.513 282.76H656.193L652.353 271.48L648.513 282.76ZM701.551 295H692.431L680.911 274.84V295H672.271V261.4H681.391L692.911 281.56V261.4H701.551V295ZM706.325 288.04C715.093 288.52 721.029 288.76 724.133 288.76C724.869 288.76 725.445 288.552 725.861 288.136C726.309 287.688 726.533 287.096 726.533 286.36V282.04H715.493C712.133 282.04 709.685 281.288 708.149 279.784C706.645 278.248 705.893 275.8 705.893 272.44V271C705.893 267.64 706.645 265.208 708.149 263.704C709.685 262.168 712.133 261.4 715.493 261.4H732.341V268.12H717.413C715.493 268.12 714.533 269.08 714.533 271V271.96C714.533 273.88 715.493 274.84 717.413 274.84H726.053C729.189 274.84 731.493 275.576 732.965 277.048C734.437 278.52 735.173 280.824 735.173 283.96V286.36C735.173 289.496 734.437 291.8 732.965 293.272C731.493 294.744 729.189 295.48 726.053 295.48C724.421 295.48 722.693 295.448 720.869 295.384L716.453 295.192C713.189 295.032 709.813 294.808 706.325 294.52V288.04Z" fill="#E46700"/>
<path d="M755.329 295H738.049V288.28H742.369V268.12H738.049V261.4H755.329V268.12H751.009V288.28H755.329V295ZM788.446 276.28L781.726 288.28H775.006L768.286 276.28V295H759.646V261.4H768.766L778.366 279.16L787.966 261.4H797.086V295H788.446V276.28ZM802.864 261.4H823.024C826.384 261.4 828.816 262.168 830.32 263.704C831.856 265.208 832.624 267.64 832.624 271V275.8C832.624 279.16 831.856 281.608 830.32 283.144C828.816 284.648 826.384 285.4 823.024 285.4H811.504V295H802.864V261.4ZM823.984 271C823.984 269.08 823.024 268.12 821.104 268.12H811.504V278.68H821.104C823.024 278.68 823.984 277.72 823.984 275.8V271ZM845.583 288.28H863.103V295H836.943V261.4H845.583V288.28ZM893.114 295H866.474V261.4H893.114V268.12H875.114V274.6H889.274V281.32H875.114V288.28H893.114V295Z" fill="white"/>
<path opacity="0.9" d="M934.304 399.832L929.24 408.448H926.84L921.776 399.832H924.536L928.256 406.192L927.776 406.264L931.592 399.832H934.304Z" fill="#1E1E1E"/>
<rect x="614" y="882" width="211" height="45" rx="5" fill="#E46700"/>
<path d="M659.544 913V898.696H654.84V896.2H666.984V898.696H662.136V913H659.544ZM670.18 913V896.2H677.332C678.292 896.2 679.172 896.44 679.972 896.92C680.788 897.384 681.436 898.024 681.916 898.84C682.396 899.64 682.636 900.544 682.636 901.552C682.636 902.464 682.396 903.312 681.916 904.096C681.436 904.88 680.796 905.512 679.996 905.992C679.196 906.456 678.308 906.688 677.332 906.688H672.772V913H670.18ZM680.164 913L675.892 905.416L678.556 904.816L683.308 913.024L680.164 913ZM672.772 904.192H677.572C678.036 904.192 678.452 904.08 678.82 903.856C679.188 903.616 679.476 903.296 679.684 902.896C679.892 902.48 679.996 902.024 679.996 901.528C679.996 900.968 679.86 900.48 679.588 900.064C679.332 899.632 678.964 899.296 678.484 899.056C678.02 898.816 677.492 898.696 676.9 898.696H672.772V904.192ZM685.116 913L691.62 896.2H694.26L700.716 913H697.956L694.116 902.872C694.068 902.76 693.972 902.488 693.828 902.056C693.7 901.624 693.548 901.144 693.372 900.616C693.196 900.088 693.036 899.608 692.892 899.176C692.748 898.728 692.652 898.44 692.604 898.312L693.156 898.288C693.06 898.56 692.94 898.904 692.796 899.32C692.668 899.736 692.524 900.176 692.364 900.64C692.22 901.104 692.076 901.544 691.932 901.96C691.788 902.36 691.668 902.696 691.572 902.968L687.756 913H685.116ZM687.996 908.824L688.956 906.328H696.588L697.692 908.824H687.996ZM703.672 913V896.2H710.248C711.448 896.2 712.528 896.4 713.488 896.8C714.464 897.2 715.296 897.776 715.984 898.528C716.672 899.28 717.2 900.168 717.568 901.192C717.936 902.216 718.12 903.352 718.12 904.6C718.12 905.848 717.936 906.992 717.568 908.032C717.2 909.056 716.672 909.944 715.984 910.696C715.312 911.432 714.488 912 713.512 912.4C712.536 912.8 711.448 913 710.248 913H703.672ZM706.264 910.768L706.192 910.504H710.128C710.976 910.504 711.728 910.368 712.384 910.096C713.056 909.824 713.616 909.44 714.064 908.944C714.528 908.432 714.88 907.808 715.12 907.072C715.36 906.336 715.48 905.512 715.48 904.6C715.48 903.688 715.36 902.872 715.12 902.152C714.88 901.416 714.528 900.792 714.064 900.28C713.6 899.768 713.04 899.376 712.384 899.104C711.728 898.832 710.976 898.696 710.128 898.696H706.12L706.264 898.48V910.768ZM728.153 913.144C726.857 913.144 725.697 912.864 724.673 912.304C723.649 911.728 722.841 910.944 722.249 909.952C721.673 908.944 721.385 907.808 721.385 906.544V896.176H723.977V906.328C723.977 907.144 724.169 907.88 724.553 908.536C724.937 909.176 725.441 909.688 726.065 910.072C726.705 910.456 727.401 910.648 728.153 910.648C728.953 910.648 729.673 910.456 730.313 910.072C730.969 909.688 731.489 909.176 731.873 908.536C732.257 907.88 732.449 907.144 732.449 906.328V896.176H734.921V906.544C734.921 907.808 734.625 908.944 734.033 909.952C733.457 910.944 732.657 911.728 731.633 912.304C730.609 912.864 729.449 913.144 728.153 913.144ZM738.479 913V911.104L748.055 898.288L748.415 898.696H739.103V896.2H751.271V898.072L741.743 910.912L741.359 910.504H751.535V913H738.479ZM754.587 913V910.6H757.299V898.6H754.587V896.2H762.603V898.6H759.891V910.6H762.603V913H754.587ZM766.672 913V896.2H773.824C774.784 896.2 775.664 896.44 776.464 896.92C777.28 897.384 777.928 898.024 778.408 898.84C778.888 899.64 779.128 900.544 779.128 901.552C779.128 902.464 778.888 903.312 778.408 904.096C777.928 904.88 777.288 905.512 776.488 905.992C775.688 906.456 774.8 906.688 773.824 906.688H769.264V913H766.672ZM776.656 913L772.384 905.416L775.048 904.816L779.8 913.024L776.656 913ZM769.264 904.192H774.064C774.528 904.192 774.944 904.08 775.312 903.856C775.68 903.616 775.968 903.296 776.176 902.896C776.384 902.48 776.488 902.024 776.488 901.528C776.488 900.968 776.352 900.48 776.08 900.064C775.824 899.632 775.456 899.296 774.976 899.056C774.512 898.816 773.984 898.696 773.392 898.696H769.264V904.192Z" fill="#1E1E1E"/>
<path d="M182.352 498V481.2H192.936V483.696H184.944V495.504H192.936V498H182.352ZM183.528 490.632V488.136H191.616V490.632H183.528ZM200.67 498.24C199.614 498.24 198.662 498.056 197.814 497.688C196.966 497.32 196.262 496.776 195.702 496.056L197.382 494.616C197.862 495.176 198.382 495.584 198.942 495.84C199.518 496.08 200.166 496.2 200.886 496.2C201.174 496.2 201.438 496.168 201.678 496.104C201.934 496.024 202.15 495.912 202.326 495.768C202.518 495.624 202.662 495.456 202.758 495.264C202.854 495.056 202.902 494.832 202.902 494.592C202.902 494.176 202.75 493.84 202.446 493.584C202.286 493.472 202.03 493.352 201.678 493.224C201.342 493.08 200.902 492.936 200.358 492.792C199.43 492.552 198.67 492.28 198.078 491.976C197.486 491.672 197.03 491.328 196.71 490.944C196.47 490.64 196.294 490.312 196.182 489.96C196.07 489.592 196.014 489.192 196.014 488.76C196.014 488.232 196.126 487.752 196.35 487.32C196.59 486.872 196.91 486.488 197.31 486.168C197.726 485.832 198.206 485.576 198.75 485.4C199.31 485.224 199.902 485.136 200.526 485.136C201.118 485.136 201.702 485.216 202.278 485.376C202.87 485.536 203.414 485.768 203.91 486.072C204.406 486.376 204.822 486.736 205.158 487.152L203.742 488.712C203.438 488.408 203.102 488.144 202.734 487.92C202.382 487.68 202.022 487.496 201.654 487.368C201.286 487.24 200.95 487.176 200.646 487.176C200.31 487.176 200.006 487.208 199.734 487.272C199.462 487.336 199.23 487.432 199.038 487.56C198.862 487.688 198.726 487.848 198.63 488.04C198.534 488.232 198.486 488.448 198.486 488.688C198.502 488.896 198.55 489.096 198.63 489.288C198.726 489.464 198.854 489.616 199.014 489.744C199.19 489.872 199.454 490.008 199.806 490.152C200.158 490.296 200.606 490.432 201.15 490.56C201.95 490.768 202.606 491 203.118 491.256C203.646 491.496 204.062 491.776 204.366 492.096C204.686 492.4 204.91 492.752 205.038 493.152C205.166 493.552 205.23 494 205.23 494.496C205.23 495.216 205.022 495.864 204.606 496.44C204.206 497 203.662 497.44 202.974 497.76C202.286 498.08 201.518 498.24 200.67 498.24ZM213.307 498.24C212.139 498.24 211.091 497.952 210.163 497.376C209.251 496.8 208.523 496.016 207.979 495.024C207.451 494.032 207.187 492.92 207.187 491.688C207.187 490.456 207.451 489.344 207.979 488.352C208.523 487.36 209.251 486.576 210.163 486C211.091 485.424 212.139 485.136 213.307 485.136C214.427 485.136 215.443 485.368 216.355 485.832C217.283 486.28 217.987 486.896 218.467 487.68L217.099 489.36C216.843 488.992 216.515 488.656 216.115 488.352C215.715 488.048 215.291 487.808 214.843 487.632C214.395 487.456 213.963 487.368 213.547 487.368C212.779 487.368 212.091 487.56 211.483 487.944C210.891 488.312 210.419 488.824 210.067 489.48C209.715 490.136 209.539 490.872 209.539 491.688C209.539 492.504 209.723 493.24 210.091 493.896C210.459 494.536 210.947 495.048 211.555 495.432C212.163 495.816 212.835 496.008 213.571 496.008C214.003 496.008 214.419 495.936 214.819 495.792C215.235 495.648 215.635 495.432 216.019 495.144C216.403 494.856 216.763 494.504 217.099 494.088L218.467 495.768C217.955 496.488 217.219 497.08 216.259 497.544C215.315 498.008 214.331 498.24 213.307 498.24ZM220.798 498V485.4H223.294V489.36L223.054 488.4C223.23 487.792 223.526 487.24 223.942 486.744C224.374 486.248 224.862 485.856 225.406 485.568C225.966 485.28 226.542 485.136 227.134 485.136C227.406 485.136 227.662 485.16 227.902 485.208C228.158 485.256 228.358 485.312 228.502 485.376L227.854 488.064C227.662 487.984 227.446 487.92 227.206 487.872C226.982 487.808 226.758 487.776 226.534 487.776C226.102 487.776 225.686 487.864 225.286 488.04C224.902 488.2 224.558 488.432 224.254 488.736C223.966 489.024 223.734 489.368 223.558 489.768C223.382 490.152 223.294 490.576 223.294 491.04V498H220.798ZM235.819 498.24C234.523 498.24 233.371 497.968 232.363 497.424C231.371 496.864 230.587 496.104 230.011 495.144C229.451 494.184 229.171 493.08 229.171 491.832C229.171 490.84 229.331 489.936 229.651 489.12C229.971 488.304 230.411 487.6 230.971 487.008C231.547 486.4 232.227 485.936 233.011 485.616C233.811 485.28 234.675 485.112 235.603 485.112C236.419 485.112 237.179 485.272 237.883 485.592C238.587 485.896 239.195 486.32 239.707 486.864C240.235 487.408 240.635 488.056 240.907 488.808C241.195 489.544 241.331 490.352 241.315 491.232L241.291 492.288H230.995L230.443 490.32H239.155L238.795 490.728V490.152C238.747 489.624 238.571 489.152 238.267 488.736C237.963 488.32 237.579 487.992 237.115 487.752C236.651 487.512 236.147 487.392 235.603 487.392C234.739 487.392 234.011 487.56 233.419 487.896C232.827 488.216 232.379 488.696 232.075 489.336C231.771 489.96 231.619 490.736 231.619 491.664C231.619 492.544 231.803 493.312 232.171 493.968C232.539 494.608 233.059 495.104 233.731 495.456C234.403 495.808 235.179 495.984 236.059 495.984C236.683 495.984 237.259 495.88 237.787 495.672C238.331 495.464 238.915 495.088 239.539 494.544L240.787 496.296C240.403 496.68 239.931 497.016 239.371 497.304C238.827 497.592 238.243 497.824 237.619 498C237.011 498.16 236.411 498.24 235.819 498.24ZM247.895 498L242.567 485.4H245.231L249.071 494.832L248.615 495.048L252.719 485.4H255.263L249.671 498H247.895ZM262.021 498.24C260.981 498.24 260.029 497.952 259.165 497.376C258.317 496.8 257.637 496.016 257.125 495.024C256.613 494.032 256.357 492.912 256.357 491.664C256.357 490.4 256.613 489.28 257.125 488.304C257.653 487.312 258.357 486.536 259.237 485.976C260.133 485.416 261.133 485.136 262.237 485.136C262.893 485.136 263.493 485.232 264.037 485.424C264.581 485.616 265.053 485.888 265.453 486.24C265.869 486.576 266.205 486.968 266.461 487.416C266.733 487.864 266.901 488.344 266.965 488.856L266.413 488.664V485.4H268.909V498H266.413V495L266.989 494.832C266.893 495.264 266.693 495.688 266.389 496.104C266.101 496.504 265.725 496.864 265.261 497.184C264.813 497.504 264.309 497.76 263.749 497.952C263.205 498.144 262.629 498.24 262.021 498.24ZM262.669 495.96C263.421 495.96 264.085 495.776 264.661 495.408C265.237 495.04 265.685 494.536 266.005 493.896C266.341 493.24 266.509 492.496 266.509 491.664C266.509 490.848 266.341 490.12 266.005 489.48C265.685 488.84 265.237 488.336 264.661 487.968C264.085 487.6 263.421 487.416 262.669 487.416C261.933 487.416 261.277 487.6 260.701 487.968C260.141 488.336 259.693 488.84 259.357 489.48C259.037 490.12 258.877 490.848 258.877 491.664C258.877 492.496 259.037 493.24 259.357 493.896C259.693 494.536 260.141 495.04 260.701 495.408C261.277 495.776 261.933 495.96 262.669 495.96ZM283.935 498.24C282.895 498.24 281.943 497.952 281.079 497.376C280.231 496.8 279.551 496.016 279.039 495.024C278.527 494.032 278.271 492.912 278.271 491.664C278.271 490.4 278.527 489.28 279.039 488.304C279.567 487.312 280.271 486.536 281.151 485.976C282.047 485.416 283.047 485.136 284.151 485.136C284.807 485.136 285.407 485.232 285.951 485.424C286.495 485.616 286.967 485.888 287.367 486.24C287.783 486.576 288.119 486.968 288.375 487.416C288.647 487.864 288.815 488.344 288.879 488.856L288.327 488.664V485.4H290.823V498H288.327V495L288.903 494.832C288.807 495.264 288.607 495.688 288.303 496.104C288.015 496.504 287.639 496.864 287.175 497.184C286.727 497.504 286.223 497.76 285.663 497.952C285.119 498.144 284.543 498.24 283.935 498.24ZM284.583 495.96C285.335 495.96 285.999 495.776 286.575 495.408C287.151 495.04 287.599 494.536 287.919 493.896C288.255 493.24 288.423 492.496 288.423 491.664C288.423 490.848 288.255 490.12 287.919 489.48C287.599 488.84 287.151 488.336 286.575 487.968C285.999 487.6 285.335 487.416 284.583 487.416C283.847 487.416 283.191 487.6 282.615 487.968C282.055 488.336 281.607 488.84 281.271 489.48C280.951 490.12 280.791 490.848 280.791 491.664C280.791 492.496 280.951 493.24 281.271 493.896C281.607 494.536 282.055 495.04 282.615 495.408C283.191 495.776 283.847 495.96 284.583 495.96ZM294.323 498V480.24H296.795V498H294.323ZM305.704 503.52C304.808 503.52 303.912 503.376 303.016 503.088C302.136 502.816 301.424 502.456 300.88 502.008L301.792 500.088C302.112 500.328 302.488 500.536 302.92 500.712C303.352 500.904 303.808 501.048 304.288 501.144C304.768 501.256 305.24 501.312 305.704 501.312C306.584 501.312 307.32 501.168 307.912 500.88C308.504 500.592 308.952 500.168 309.256 499.608C309.56 499.048 309.712 498.352 309.712 497.52V495.096L309.976 495.264C309.896 495.76 309.632 496.24 309.184 496.704C308.752 497.152 308.208 497.52 307.552 497.808C306.896 498.096 306.224 498.24 305.536 498.24C304.336 498.24 303.264 497.96 302.32 497.4C301.392 496.824 300.656 496.048 300.112 495.072C299.568 494.08 299.296 492.952 299.296 491.688C299.296 490.424 299.56 489.304 300.088 488.328C300.632 487.336 301.368 486.56 302.296 486C303.24 485.424 304.296 485.136 305.464 485.136C305.944 485.136 306.408 485.2 306.856 485.328C307.304 485.44 307.72 485.608 308.104 485.832C308.488 486.04 308.832 486.272 309.136 486.528C309.44 486.784 309.688 487.056 309.88 487.344C310.072 487.632 310.192 487.904 310.24 488.16L309.712 488.352V485.4H312.184V497.232C312.184 498.24 312.032 499.128 311.728 499.896C311.44 500.68 311.016 501.336 310.456 501.864C309.896 502.408 309.216 502.816 308.416 503.088C307.616 503.376 306.712 503.52 305.704 503.52ZM305.8 495.96C306.584 495.96 307.28 495.776 307.888 495.408C308.496 495.04 308.968 494.536 309.304 493.896C309.64 493.256 309.808 492.52 309.808 491.688C309.808 490.856 309.632 490.12 309.28 489.48C308.944 488.824 308.472 488.312 307.864 487.944C307.272 487.576 306.584 487.392 305.8 487.392C305.032 487.392 304.344 487.584 303.736 487.968C303.144 488.336 302.672 488.848 302.32 489.504C301.984 490.144 301.816 490.872 301.816 491.688C301.816 492.504 301.984 493.24 302.32 493.896C302.672 494.536 303.144 495.04 303.736 495.408C304.344 495.776 305.032 495.96 305.8 495.96ZM321.314 498.24C320.082 498.24 318.978 497.96 318.002 497.4C317.042 496.824 316.282 496.048 315.722 495.072C315.162 494.08 314.882 492.952 314.882 491.688C314.882 490.424 315.162 489.304 315.722 488.328C316.282 487.336 317.042 486.56 318.002 486C318.978 485.424 320.082 485.136 321.314 485.136C322.53 485.136 323.618 485.424 324.578 486C325.554 486.56 326.322 487.336 326.882 488.328C327.442 489.304 327.722 490.424 327.722 491.688C327.722 492.952 327.442 494.08 326.882 495.072C326.322 496.048 325.554 496.824 324.578 497.4C323.618 497.96 322.53 498.24 321.314 498.24ZM321.314 495.984C322.066 495.984 322.738 495.8 323.33 495.432C323.922 495.048 324.386 494.536 324.722 493.896C325.058 493.24 325.218 492.504 325.202 491.688C325.218 490.856 325.058 490.12 324.722 489.48C324.386 488.824 323.922 488.312 323.33 487.944C322.738 487.576 322.066 487.392 321.314 487.392C320.562 487.392 319.882 487.584 319.274 487.968C318.682 488.336 318.218 488.848 317.882 489.504C317.546 490.144 317.386 490.872 317.402 491.688C317.386 492.504 317.546 493.24 317.882 493.896C318.218 494.536 318.682 495.048 319.274 495.432C319.882 495.8 320.562 495.984 321.314 495.984Z" fill="white" fill-opacity="0.3"/>
<path d="M759.536 498.24C758.624 498.24 757.776 498.12 756.992 497.88C756.224 497.64 755.52 497.28 754.88 496.8C754.256 496.304 753.696 495.696 753.2 494.976L754.976 492.936C755.76 494.056 756.512 494.832 757.232 495.264C757.952 495.696 758.808 495.912 759.8 495.912C760.408 495.912 760.96 495.816 761.456 495.624C761.952 495.432 762.344 495.168 762.632 494.832C762.92 494.496 763.064 494.112 763.064 493.68C763.064 493.392 763.016 493.12 762.92 492.864C762.824 492.608 762.672 492.376 762.464 492.168C762.272 491.96 762.016 491.768 761.696 491.592C761.392 491.416 761.032 491.264 760.616 491.136C760.2 490.992 759.72 490.872 759.176 490.776C758.312 490.6 757.56 490.368 756.92 490.08C756.28 489.792 755.744 489.432 755.312 489C754.88 488.568 754.56 488.08 754.352 487.536C754.144 486.976 754.04 486.352 754.04 485.664C754.04 484.992 754.184 484.368 754.472 483.792C754.776 483.216 755.184 482.72 755.696 482.304C756.224 481.872 756.84 481.544 757.544 481.32C758.248 481.08 759.008 480.96 759.824 480.96C760.688 480.96 761.48 481.072 762.2 481.296C762.92 481.52 763.56 481.856 764.12 482.304C764.68 482.736 765.144 483.272 765.512 483.912L763.688 485.712C763.368 485.184 763.008 484.744 762.608 484.392C762.208 484.024 761.768 483.752 761.288 483.576C760.808 483.384 760.296 483.288 759.752 483.288C759.128 483.288 758.584 483.384 758.12 483.576C757.656 483.768 757.288 484.04 757.016 484.392C756.76 484.728 756.632 485.128 756.632 485.592C756.632 485.928 756.696 486.24 756.824 486.528C756.952 486.8 757.144 487.048 757.4 487.272C757.672 487.48 758.032 487.672 758.48 487.848C758.928 488.008 759.464 488.152 760.088 488.28C760.968 488.472 761.752 488.72 762.44 489.024C763.128 489.312 763.712 489.656 764.192 490.056C764.672 490.456 765.032 490.904 765.272 491.4C765.528 491.896 765.656 492.432 765.656 493.008C765.656 494.08 765.408 495.008 764.912 495.792C764.416 496.576 763.712 497.184 762.8 497.616C761.888 498.032 760.8 498.24 759.536 498.24ZM774.585 498.24C773.289 498.24 772.137 497.968 771.129 497.424C770.137 496.864 769.353 496.104 768.777 495.144C768.217 494.184 767.937 493.08 767.937 491.832C767.937 490.84 768.097 489.936 768.417 489.12C768.737 488.304 769.177 487.6 769.737 487.008C770.313 486.4 770.993 485.936 771.777 485.616C772.577 485.28 773.441 485.112 774.369 485.112C775.185 485.112 775.945 485.272 776.649 485.592C777.353 485.896 777.961 486.32 778.473 486.864C779.001 487.408 779.401 488.056 779.673 488.808C779.961 489.544 780.097 490.352 780.081 491.232L780.057 492.288H769.761L769.209 490.32H777.921L777.561 490.728V490.152C777.513 489.624 777.337 489.152 777.033 488.736C776.729 488.32 776.345 487.992 775.881 487.752C775.417 487.512 774.913 487.392 774.369 487.392C773.505 487.392 772.777 487.56 772.185 487.896C771.593 488.216 771.145 488.696 770.841 489.336C770.537 489.96 770.385 490.736 770.385 491.664C770.385 492.544 770.569 493.312 770.937 493.968C771.305 494.608 771.825 495.104 772.497 495.456C773.169 495.808 773.945 495.984 774.825 495.984C775.449 495.984 776.025 495.88 776.553 495.672C777.097 495.464 777.681 495.088 778.305 494.544L779.553 496.296C779.169 496.68 778.697 497.016 778.137 497.304C777.593 497.592 777.009 497.824 776.385 498C775.777 498.16 775.177 498.24 774.585 498.24ZM782.815 498V480.24H785.287V498H782.815ZM794.436 498.24C793.14 498.24 791.988 497.968 790.98 497.424C789.988 496.864 789.204 496.104 788.628 495.144C788.068 494.184 787.788 493.08 787.788 491.832C787.788 490.84 787.948 489.936 788.268 489.12C788.588 488.304 789.028 487.6 789.588 487.008C790.164 486.4 790.844 485.936 791.628 485.616C792.428 485.28 793.292 485.112 794.22 485.112C795.036 485.112 795.796 485.272 796.5 485.592C797.204 485.896 797.812 486.32 798.324 486.864C798.852 487.408 799.252 488.056 799.524 488.808C799.812 489.544 799.948 490.352 799.932 491.232L799.908 492.288H789.612L789.06 490.32H797.772L797.412 490.728V490.152C797.364 489.624 797.188 489.152 796.884 488.736C796.58 488.32 796.196 487.992 795.732 487.752C795.268 487.512 794.764 487.392 794.22 487.392C793.356 487.392 792.628 487.56 792.036 487.896C791.444 488.216 790.996 488.696 790.692 489.336C790.388 489.96 790.236 490.736 790.236 491.664C790.236 492.544 790.42 493.312 790.788 493.968C791.156 494.608 791.676 495.104 792.348 495.456C793.02 495.808 793.796 495.984 794.676 495.984C795.3 495.984 795.876 495.88 796.404 495.672C796.948 495.464 797.532 495.088 798.156 494.544L799.404 496.296C799.02 496.68 798.548 497.016 797.988 497.304C797.444 497.592 796.86 497.824 796.236 498C795.628 498.16 795.028 498.24 794.436 498.24ZM807.971 498.24C806.803 498.24 805.755 497.952 804.827 497.376C803.915 496.8 803.187 496.016 802.643 495.024C802.115 494.032 801.851 492.92 801.851 491.688C801.851 490.456 802.115 489.344 802.643 488.352C803.187 487.36 803.915 486.576 804.827 486C805.755 485.424 806.803 485.136 807.971 485.136C809.091 485.136 810.107 485.368 811.019 485.832C811.947 486.28 812.651 486.896 813.131 487.68L811.763 489.36C811.507 488.992 811.179 488.656 810.779 488.352C810.379 488.048 809.955 487.808 809.507 487.632C809.059 487.456 808.627 487.368 808.211 487.368C807.443 487.368 806.755 487.56 806.147 487.944C805.555 488.312 805.083 488.824 804.731 489.48C804.379 490.136 804.203 490.872 804.203 491.688C804.203 492.504 804.387 493.24 804.755 493.896C805.123 494.536 805.611 495.048 806.219 495.432C806.827 495.816 807.499 496.008 808.235 496.008C808.667 496.008 809.083 495.936 809.483 495.792C809.899 495.648 810.299 495.432 810.683 495.144C811.067 494.856 811.427 494.504 811.763 494.088L813.131 495.768C812.619 496.488 811.883 497.08 810.923 497.544C809.979 498.008 808.995 498.24 807.971 498.24ZM815.87 498V485.4H818.342V498H815.87ZM817.07 482.616C816.542 482.616 816.134 482.48 815.846 482.208C815.558 481.936 815.414 481.552 815.414 481.056C815.414 480.592 815.558 480.216 815.846 479.928C816.15 479.64 816.558 479.496 817.07 479.496C817.598 479.496 818.006 479.632 818.294 479.904C818.582 480.176 818.726 480.56 818.726 481.056C818.726 481.52 818.574 481.896 818.27 482.184C817.982 482.472 817.582 482.616 817.07 482.616ZM827.806 498.24C826.574 498.24 825.47 497.96 824.494 497.4C823.534 496.824 822.774 496.048 822.214 495.072C821.654 494.08 821.374 492.952 821.374 491.688C821.374 490.424 821.654 489.304 822.214 488.328C822.774 487.336 823.534 486.56 824.494 486C825.47 485.424 826.574 485.136 827.806 485.136C829.022 485.136 830.11 485.424 831.07 486C832.046 486.56 832.814 487.336 833.374 488.328C833.934 489.304 834.214 490.424 834.214 491.688C834.214 492.952 833.934 494.08 833.374 495.072C832.814 496.048 832.046 496.824 831.07 497.4C830.11 497.96 829.022 498.24 827.806 498.24ZM827.806 495.984C828.558 495.984 829.23 495.8 829.822 495.432C830.414 495.048 830.878 494.536 831.214 493.896C831.55 493.24 831.71 492.504 831.694 491.688C831.71 490.856 831.55 490.12 831.214 489.48C830.878 488.824 830.414 488.312 829.822 487.944C829.23 487.576 828.558 487.392 827.806 487.392C827.054 487.392 826.374 487.584 825.766 487.968C825.174 488.336 824.71 488.848 824.374 489.504C824.038 490.144 823.878 490.872 823.894 491.688C823.878 492.504 824.038 493.24 824.374 493.896C824.71 494.536 825.174 495.048 825.766 495.432C826.374 495.8 827.054 495.984 827.806 495.984ZM836.908 498V485.4H839.38V487.992L838.948 488.28C839.108 487.72 839.42 487.208 839.884 486.744C840.348 486.264 840.9 485.88 841.54 485.592C842.18 485.288 842.836 485.136 843.508 485.136C844.468 485.136 845.268 485.328 845.908 485.712C846.548 486.08 847.028 486.648 847.348 487.416C847.668 488.184 847.828 489.152 847.828 490.32V498H845.356V490.488C845.356 489.768 845.26 489.176 845.068 488.712C844.876 488.232 844.58 487.888 844.18 487.68C843.78 487.456 843.284 487.36 842.692 487.392C842.212 487.392 841.772 487.472 841.372 487.632C840.972 487.776 840.62 487.984 840.316 488.256C840.028 488.528 839.796 488.848 839.62 489.216C839.46 489.568 839.38 489.952 839.38 490.368V498H838.156C837.948 498 837.74 498 837.532 498C837.324 498 837.116 498 836.908 498ZM857.061 498.24C855.765 498.24 854.613 497.968 853.605 497.424C852.613 496.864 851.829 496.104 851.253 495.144C850.693 494.184 850.413 493.08 850.413 491.832C850.413 490.84 850.573 489.936 850.893 489.12C851.213 488.304 851.653 487.6 852.213 487.008C852.789 486.4 853.469 485.936 854.253 485.616C855.053 485.28 855.917 485.112 856.845 485.112C857.661 485.112 858.421 485.272 859.125 485.592C859.829 485.896 860.437 486.32 860.949 486.864C861.477 487.408 861.877 488.056 862.149 488.808C862.437 489.544 862.573 490.352 862.557 491.232L862.533 492.288H852.237L851.685 490.32H860.397L860.037 490.728V490.152C859.989 489.624 859.813 489.152 859.509 488.736C859.205 488.32 858.821 487.992 858.357 487.752C857.893 487.512 857.389 487.392 856.845 487.392C855.981 487.392 855.253 487.56 854.661 487.896C854.069 488.216 853.621 488.696 853.317 489.336C853.013 489.96 852.861 490.736 852.861 491.664C852.861 492.544 853.045 493.312 853.413 493.968C853.781 494.608 854.301 495.104 854.973 495.456C855.645 495.808 856.421 495.984 857.301 495.984C857.925 495.984 858.501 495.88 859.029 495.672C859.573 495.464 860.157 495.088 860.781 494.544L862.029 496.296C861.645 496.68 861.173 497.016 860.613 497.304C860.069 497.592 859.485 497.824 858.861 498C858.253 498.16 857.653 498.24 857.061 498.24ZM876.386 498.24C875.49 498.24 874.706 498.032 874.034 497.616C873.378 497.2 872.866 496.616 872.498 495.864C872.146 495.112 871.97 494.216 871.97 493.176V485.4H874.442V492.504C874.442 493.24 874.554 493.88 874.778 494.424C875.018 494.952 875.354 495.36 875.786 495.648C876.234 495.936 876.77 496.08 877.394 496.08C877.858 496.08 878.282 496.008 878.666 495.864C879.05 495.704 879.378 495.488 879.65 495.216C879.938 494.944 880.162 494.616 880.322 494.232C880.482 493.848 880.562 493.432 880.562 492.984V485.4H883.034V498H880.562V495.36L880.994 495.072C880.802 495.664 880.474 496.2 880.01 496.68C879.562 497.16 879.026 497.544 878.402 497.832C877.778 498.104 877.106 498.24 876.386 498.24ZM886.453 498V485.4H888.949V488.088L888.493 488.376C888.621 487.96 888.821 487.56 889.093 487.176C889.381 486.792 889.725 486.456 890.125 486.168C890.541 485.864 890.981 485.624 891.445 485.448C891.925 485.272 892.413 485.184 892.909 485.184C893.629 485.184 894.261 485.304 894.805 485.544C895.349 485.784 895.797 486.144 896.149 486.624C896.501 487.104 896.757 487.704 896.917 488.424L896.533 488.328L896.701 487.92C896.877 487.552 897.117 487.208 897.421 486.888C897.741 486.552 898.101 486.256 898.501 486C898.901 485.744 899.325 485.544 899.773 485.4C900.221 485.256 900.661 485.184 901.093 485.184C902.037 485.184 902.813 485.376 903.421 485.76C904.045 486.144 904.509 486.728 904.813 487.512C905.133 488.296 905.293 489.272 905.293 490.44V498H902.797V490.584C902.797 489.864 902.701 489.28 902.509 488.832C902.333 488.368 902.061 488.024 901.693 487.8C901.325 487.576 900.853 487.464 900.277 487.464C899.829 487.464 899.405 487.544 899.005 487.704C898.621 487.848 898.285 488.056 897.997 488.328C897.709 488.6 897.485 488.92 897.325 489.288C897.165 489.64 897.085 490.032 897.085 490.464V498H894.589V490.536C894.589 489.88 894.493 489.328 894.301 488.88C894.109 488.416 893.829 488.064 893.461 487.824C893.093 487.584 892.645 487.464 892.117 487.464C891.669 487.464 891.253 487.544 890.869 487.704C890.485 487.848 890.149 488.056 889.861 488.328C889.573 488.584 889.349 488.896 889.189 489.264C889.029 489.616 888.949 490 888.949 490.416V498H886.453ZM913.451 498.24C912.411 498.24 911.459 497.952 910.595 497.376C909.747 496.8 909.067 496.016 908.555 495.024C908.043 494.032 907.787 492.912 907.787 491.664C907.787 490.4 908.043 489.28 908.555 488.304C909.083 487.312 909.787 486.536 910.667 485.976C911.563 485.416 912.563 485.136 913.667 485.136C914.323 485.136 914.923 485.232 915.467 485.424C916.011 485.616 916.483 485.888 916.883 486.24C917.299 486.576 917.635 486.968 917.891 487.416C918.163 487.864 918.331 488.344 918.395 488.856L917.843 488.664V485.4H920.339V498H917.843V495L918.419 494.832C918.323 495.264 918.123 495.688 917.819 496.104C917.531 496.504 917.155 496.864 916.691 497.184C916.243 497.504 915.739 497.76 915.179 497.952C914.635 498.144 914.059 498.24 913.451 498.24ZM914.099 495.96C914.851 495.96 915.515 495.776 916.091 495.408C916.667 495.04 917.115 494.536 917.435 493.896C917.771 493.24 917.939 492.496 917.939 491.664C917.939 490.848 917.771 490.12 917.435 489.48C917.115 488.84 916.667 488.336 916.091 487.968C915.515 487.6 914.851 487.416 914.099 487.416C913.363 487.416 912.707 487.6 912.131 487.968C911.571 488.336 911.123 488.84 910.787 489.48C910.467 490.12 910.307 490.848 910.307 491.664C910.307 492.496 910.467 493.24 910.787 493.896C911.123 494.536 911.571 495.04 912.131 495.408C912.707 495.776 913.363 495.96 914.099 495.96ZM930.565 498V480.24H933.037V498H930.565ZM936.493 498V485.4H938.965V498H936.493ZM936.013 483.456L935.197 482.232L938.629 479.232L940.189 481.2L936.013 483.456ZM942.376 498V485.4H944.848V487.992L944.416 488.28C944.576 487.72 944.888 487.208 945.352 486.744C945.816 486.264 946.368 485.88 947.008 485.592C947.648 485.288 948.304 485.136 948.976 485.136C949.936 485.136 950.736 485.328 951.376 485.712C952.016 486.08 952.496 486.648 952.816 487.416C953.136 488.184 953.296 489.152 953.296 490.32V498H950.824V490.488C950.824 489.768 950.728 489.176 950.536 488.712C950.344 488.232 950.048 487.888 949.648 487.68C949.248 487.456 948.752 487.36 948.16 487.392C947.68 487.392 947.24 487.472 946.84 487.632C946.44 487.776 946.088 487.984 945.784 488.256C945.496 488.528 945.264 488.848 945.088 489.216C944.928 489.568 944.848 489.952 944.848 490.368V498H943.624C943.416 498 943.208 498 943 498C942.792 498 942.584 498 942.376 498ZM962.29 503.52C961.394 503.52 960.498 503.376 959.602 503.088C958.722 502.816 958.01 502.456 957.466 502.008L958.378 500.088C958.698 500.328 959.074 500.536 959.506 500.712C959.938 500.904 960.394 501.048 960.874 501.144C961.354 501.256 961.826 501.312 962.29 501.312C963.17 501.312 963.906 501.168 964.498 500.88C965.09 500.592 965.538 500.168 965.842 499.608C966.146 499.048 966.298 498.352 966.298 497.52V495.096L966.562 495.264C966.482 495.76 966.218 496.24 965.77 496.704C965.338 497.152 964.794 497.52 964.138 497.808C963.482 498.096 962.81 498.24 962.122 498.24C960.922 498.24 959.85 497.96 958.906 497.4C957.978 496.824 957.242 496.048 956.698 495.072C956.154 494.08 955.882 492.952 955.882 491.688C955.882 490.424 956.146 489.304 956.674 488.328C957.218 487.336 957.954 486.56 958.882 486C959.826 485.424 960.882 485.136 962.05 485.136C962.53 485.136 962.994 485.2 963.442 485.328C963.89 485.44 964.306 485.608 964.69 485.832C965.074 486.04 965.418 486.272 965.722 486.528C966.026 486.784 966.274 487.056 966.466 487.344C966.658 487.632 966.778 487.904 966.826 488.16L966.298 488.352V485.4H968.77V497.232C968.77 498.24 968.618 499.128 968.314 499.896C968.026 500.68 967.602 501.336 967.042 501.864C966.482 502.408 965.802 502.816 965.002 503.088C964.202 503.376 963.298 503.52 962.29 503.52ZM962.386 495.96C963.17 495.96 963.866 495.776 964.474 495.408C965.082 495.04 965.554 494.536 965.89 493.896C966.226 493.256 966.394 492.52 966.394 491.688C966.394 490.856 966.218 490.12 965.866 489.48C965.53 488.824 965.058 488.312 964.45 487.944C963.858 487.576 963.17 487.392 962.386 487.392C961.618 487.392 960.93 487.584 960.322 487.968C959.73 488.336 959.258 488.848 958.906 489.504C958.57 490.144 958.402 490.872 958.402 491.688C958.402 492.504 958.57 493.24 958.906 493.896C959.258 494.536 959.73 495.04 960.322 495.408C960.93 495.776 961.618 495.96 962.386 495.96ZM976.464 498.24C975.568 498.24 974.784 498.032 974.112 497.616C973.456 497.2 972.944 496.616 972.576 495.864C972.224 495.112 972.048 494.216 972.048 493.176V485.4H974.52V492.504C974.52 493.24 974.632 493.88 974.856 494.424C975.096 494.952 975.432 495.36 975.864 495.648C976.312 495.936 976.848 496.08 977.472 496.08C977.936 496.08 978.36 496.008 978.744 495.864C979.128 495.704 979.456 495.488 979.728 495.216C980.016 494.944 980.24 494.616 980.4 494.232C980.56 493.848 980.64 493.432 980.64 492.984V485.4H983.112V498H980.64V495.36L981.072 495.072C980.88 495.664 980.552 496.2 980.088 496.68C979.64 497.16 979.104 497.544 978.48 497.832C977.856 498.104 977.184 498.24 976.464 498.24ZM991.428 498.24C990.388 498.24 989.436 497.952 988.572 497.376C987.724 496.8 987.044 496.016 986.532 495.024C986.02 494.032 985.764 492.912 985.764 491.664C985.764 490.4 986.02 489.28 986.532 488.304C987.06 487.312 987.764 486.536 988.644 485.976C989.54 485.416 990.54 485.136 991.644 485.136C992.3 485.136 992.9 485.232 993.444 485.424C993.988 485.616 994.46 485.888 994.86 486.24C995.276 486.576 995.612 486.968 995.868 487.416C996.14 487.864 996.308 488.344 996.372 488.856L995.82 488.664V485.4H998.316V498H995.82V495L996.396 494.832C996.3 495.264 996.1 495.688 995.796 496.104C995.508 496.504 995.132 496.864 994.668 497.184C994.22 497.504 993.716 497.76 993.156 497.952C992.612 498.144 992.036 498.24 991.428 498.24ZM992.076 495.96C992.828 495.96 993.492 495.776 994.068 495.408C994.644 495.04 995.092 494.536 995.412 493.896C995.748 493.24 995.916 492.496 995.916 491.664C995.916 490.848 995.748 490.12 995.412 489.48C995.092 488.84 994.644 488.336 994.068 487.968C993.492 487.6 992.828 487.416 992.076 487.416C991.34 487.416 990.684 487.6 990.108 487.968C989.548 488.336 989.1 488.84 988.764 489.48C988.444 490.12 988.284 490.848 988.284 491.664C988.284 492.496 988.444 493.24 988.764 493.896C989.1 494.536 989.548 495.04 990.108 495.408C990.684 495.776 991.34 495.96 992.076 495.96Z" fill="white" fill-opacity="0.3"/>
</svg>
