<svg width="1440" height="1024" viewBox="0 0 1440 1024" fill="none" xmlns="http://www.w3.org/2000/svg">
<rect width="1440" height="1024" fill="#1E1E1E"/>
<rect width="1440" height="1024" fill="#1E1E1E"/>
<rect x="129.5" y="449.5" width="546" height="367" rx="8.5" fill="#1E1E1E" stroke="#8B3F00" stroke-width="3"/>
<rect x="806" y="375" width="136" height="45" rx="10" fill="#E46700"/>
<path d="M830.728 407V404.6H833.44V392.6H830.728V390.2H838.744V392.6H836.032V404.6H838.744V407H830.728ZM842.189 407V394.4H844.661V396.992L844.229 397.28C844.389 396.72 844.701 396.208 845.165 395.744C845.629 395.264 846.181 394.88 846.821 394.592C847.461 394.288 848.117 394.136 848.789 394.136C849.749 394.136 850.549 394.328 851.189 394.712C851.829 395.08 852.309 395.648 852.629 396.416C852.949 397.184 853.109 398.152 853.109 399.32V407H850.637V399.488C850.637 398.768 850.541 398.176 850.349 397.712C850.157 397.232 849.861 396.888 849.461 396.68C849.061 396.456 848.565 396.36 847.973 396.392C847.493 396.392 847.053 396.472 846.653 396.632C846.253 396.776 845.901 396.984 845.597 397.256C845.309 397.528 845.077 397.848 844.901 398.216C844.741 398.568 844.661 398.952 844.661 399.368V407H843.437C843.229 407 843.021 407 842.813 407C842.605 407 842.397 407 842.189 407ZM862.102 412.52C861.206 412.52 860.31 412.376 859.414 412.088C858.534 411.816 857.822 411.456 857.278 411.008L858.19 409.088C858.51 409.328 858.886 409.536 859.318 409.712C859.75 409.904 860.206 410.048 860.686 410.144C861.166 410.256 861.638 410.312 862.102 410.312C862.982 410.312 863.718 410.168 864.31 409.88C864.902 409.592 865.35 409.168 865.654 408.608C865.958 408.048 866.11 407.352 866.11 406.52V404.096L866.374 404.264C866.294 404.76 866.03 405.24 865.582 405.704C865.15 406.152 864.606 406.52 863.95 406.808C863.294 407.096 862.622 407.24 861.934 407.24C860.734 407.24 859.662 406.96 858.718 406.4C857.79 405.824 857.054 405.048 856.51 404.072C855.966 403.08 855.694 401.952 855.694 400.688C855.694 399.424 855.958 398.304 856.486 397.328C857.03 396.336 857.766 395.56 858.694 395C859.638 394.424 860.694 394.136 861.862 394.136C862.342 394.136 862.806 394.2 863.254 394.328C863.702 394.44 864.118 394.608 864.502 394.832C864.886 395.04 865.23 395.272 865.534 395.528C865.838 395.784 866.086 396.056 866.278 396.344C866.47 396.632 866.59 396.904 866.638 397.16L866.11 397.352V394.4H868.582V406.232C868.582 407.24 868.43 408.128 868.126 408.896C867.838 409.68 867.414 410.336 866.854 410.864C866.294 411.408 865.614 411.816 864.814 412.088C864.014 412.376 863.11 412.52 862.102 412.52ZM862.198 404.96C862.982 404.96 863.678 404.776 864.286 404.408C864.894 404.04 865.366 403.536 865.702 402.896C866.038 402.256 866.206 401.52 866.206 400.688C866.206 399.856 866.03 399.12 865.678 398.48C865.342 397.824 864.87 397.312 864.262 396.944C863.67 396.576 862.982 396.392 862.198 396.392C861.43 396.392 860.742 396.584 860.134 396.968C859.542 397.336 859.07 397.848 858.718 398.504C858.382 399.144 858.214 399.872 858.214 400.688C858.214 401.504 858.382 402.24 858.718 402.896C859.07 403.536 859.542 404.04 860.134 404.408C860.742 404.776 861.43 404.96 862.198 404.96ZM872.096 407V389.24H874.568V407H872.096ZM883.717 407.24C882.421 407.24 881.269 406.968 880.261 406.424C879.269 405.864 878.485 405.104 877.909 404.144C877.349 403.184 877.069 402.08 877.069 400.832C877.069 399.84 877.229 398.936 877.549 398.12C877.869 397.304 878.309 396.6 878.869 396.008C879.445 395.4 880.125 394.936 880.909 394.616C881.709 394.28 882.573 394.112 883.501 394.112C884.317 394.112 885.077 394.272 885.781 394.592C886.485 394.896 887.093 395.32 887.605 395.864C888.133 396.408 888.533 397.056 888.805 397.808C889.093 398.544 889.229 399.352 889.213 400.232L889.189 401.288H878.893L878.341 399.32H887.053L886.693 399.728V399.152C886.645 398.624 886.469 398.152 886.165 397.736C885.861 397.32 885.477 396.992 885.013 396.752C884.549 396.512 884.045 396.392 883.501 396.392C882.637 396.392 881.909 396.56 881.317 396.896C880.725 397.216 880.277 397.696 879.973 398.336C879.669 398.96 879.517 399.736 879.517 400.664C879.517 401.544 879.701 402.312 880.069 402.968C880.437 403.608 880.957 404.104 881.629 404.456C882.301 404.808 883.077 404.984 883.957 404.984C884.581 404.984 885.157 404.88 885.685 404.672C886.229 404.464 886.813 404.088 887.437 403.544L888.685 405.296C888.301 405.68 887.829 406.016 887.269 406.304C886.725 406.592 886.141 406.824 885.517 407C884.909 407.16 884.309 407.24 883.717 407.24ZM880.621 392.432L879.709 391.64L882.469 388.928H884.533L887.293 391.64L886.381 392.432L883.141 390.68H883.861L880.621 392.432ZM896.1 407.24C895.044 407.24 894.092 407.056 893.244 406.688C892.396 406.32 891.692 405.776 891.132 405.056L892.812 403.616C893.292 404.176 893.812 404.584 894.372 404.84C894.948 405.08 895.596 405.2 896.316 405.2C896.604 405.2 896.868 405.168 897.108 405.104C897.364 405.024 897.58 404.912 897.756 404.768C897.948 404.624 898.092 404.456 898.188 404.264C898.284 404.056 898.332 403.832 898.332 403.592C898.332 403.176 898.18 402.84 897.876 402.584C897.716 402.472 897.46 402.352 897.108 402.224C896.772 402.08 896.332 401.936 895.788 401.792C894.86 401.552 894.1 401.28 893.508 400.976C892.916 400.672 892.46 400.328 892.14 399.944C891.9 399.64 891.724 399.312 891.612 398.96C891.5 398.592 891.444 398.192 891.444 397.76C891.444 397.232 891.556 396.752 891.78 396.32C892.02 395.872 892.34 395.488 892.74 395.168C893.156 394.832 893.636 394.576 894.18 394.4C894.74 394.224 895.332 394.136 895.956 394.136C896.548 394.136 897.132 394.216 897.708 394.376C898.3 394.536 898.844 394.768 899.34 395.072C899.836 395.376 900.252 395.736 900.588 396.152L899.172 397.712C898.868 397.408 898.532 397.144 898.164 396.92C897.812 396.68 897.452 396.496 897.084 396.368C896.716 396.24 896.38 396.176 896.076 396.176C895.74 396.176 895.436 396.208 895.164 396.272C894.892 396.336 894.66 396.432 894.468 396.56C894.292 396.688 894.156 396.848 894.06 397.04C893.964 397.232 893.916 397.448 893.916 397.688C893.932 397.896 893.98 398.096 894.06 398.288C894.156 398.464 894.284 398.616 894.444 398.744C894.62 398.872 894.884 399.008 895.236 399.152C895.588 399.296 896.036 399.432 896.58 399.56C897.38 399.768 898.036 400 898.548 400.256C899.076 400.496 899.492 400.776 899.796 401.096C900.116 401.4 900.34 401.752 900.468 402.152C900.596 402.552 900.66 403 900.66 403.496C900.66 404.216 900.452 404.864 900.036 405.44C899.636 406 899.092 406.44 898.404 406.76C897.716 407.08 896.948 407.24 896.1 407.24Z" fill="#1E1E1E"/>
<rect x="763.5" y="449.5" width="546" height="367" rx="8.5" fill="#1E1E1E" stroke="#8B3F00" stroke-width="3"/>
<path d="M767.688 405V391.44H762.792V388.2H776.328V391.44H771.288V405H767.688ZM782.335 405.24C781.039 405.24 779.879 404.96 778.855 404.4C777.847 403.824 777.047 403.04 776.455 402.048C775.879 401.056 775.591 399.92 775.591 398.64C775.591 397.36 775.879 396.232 776.455 395.256C777.047 394.264 777.847 393.48 778.855 392.904C779.879 392.328 781.039 392.04 782.335 392.04C783.615 392.04 784.759 392.328 785.767 392.904C786.791 393.48 787.591 394.264 788.167 395.256C788.743 396.232 789.031 397.36 789.031 398.64C789.031 399.92 788.743 401.056 788.167 402.048C787.591 403.04 786.791 403.824 785.767 404.4C784.759 404.96 783.615 405.24 782.335 405.24ZM782.335 402.264C782.959 402.264 783.519 402.112 784.015 401.808C784.511 401.488 784.895 401.056 785.167 400.512C785.455 399.952 785.599 399.328 785.599 398.64C785.599 397.936 785.455 397.312 785.167 396.768C784.895 396.208 784.511 395.776 784.015 395.472C783.519 395.152 782.959 394.992 782.335 394.992C781.695 394.992 781.127 395.152 780.631 395.472C780.135 395.792 779.743 396.224 779.455 396.768C779.167 397.312 779.031 397.936 779.047 398.64C779.031 399.328 779.167 399.952 779.455 400.512C779.743 401.056 780.135 401.488 780.631 401.808C781.127 402.112 781.695 402.264 782.335 402.264ZM792.867 405.24C792.243 405.24 791.763 405.064 791.427 404.712C791.091 404.36 790.923 403.856 790.923 403.2C790.923 402.608 791.099 402.128 791.451 401.76C791.819 401.376 792.291 401.184 792.867 401.184C793.475 401.184 793.947 401.36 794.283 401.712C794.619 402.064 794.787 402.56 794.787 403.2C794.787 403.808 794.611 404.304 794.259 404.688C793.907 405.056 793.443 405.24 792.867 405.24ZM792.867 396.144C792.243 396.144 791.763 395.968 791.427 395.616C791.091 395.264 790.923 394.76 790.923 394.104C790.923 393.512 791.099 393.032 791.451 392.664C791.819 392.28 792.291 392.088 792.867 392.088C793.475 392.088 793.947 392.264 794.283 392.616C794.619 392.968 794.787 393.464 794.787 394.104C794.787 394.712 794.611 395.208 794.259 395.592C793.907 395.96 793.443 396.144 792.867 396.144Z" fill="#8B3F00"/>
<path d="M819 143.013C819 132.3 813.773 122.334 804.281 114.949C795.222 107.9 783.251 104.018 770.573 104.018C757.894 104.019 745.922 107.9 736.863 114.949C734.381 116.881 732.197 118.992 730.316 121.244C724.98 119.656 719.284 118.814 713.428 118.814C700.75 118.814 688.779 122.696 679.719 129.745C670.227 137.13 665 147.095 665 157.807C665 168.475 670.307 178.534 679.679 185.838L675.279 204.061C674.834 205.901 675.456 207.848 676.855 209.005C677.638 209.652 678.579 209.982 679.526 209.982C680.27 209.982 681.018 209.779 681.693 209.365L703.531 195.99C706.775 196.528 710.097 196.801 713.427 196.801C726.106 196.801 738.078 192.92 747.137 185.872C749.617 183.942 751.8 181.833 753.677 179.581C759.015 181.167 764.715 182.006 770.572 182.006C773.9 182.006 777.221 181.733 780.468 181.195L802.307 194.57C802.982 194.983 803.73 195.187 804.474 195.187C805.42 195.187 806.363 194.858 807.146 194.209C808.545 193.053 809.166 191.105 808.721 189.265L804.321 171.042C813.693 163.738 819 153.679 819 143.013ZM796.975 164.969C795.343 166.062 794.56 168.174 795.044 170.179L797.612 180.812L783.451 172.14C782.787 171.732 782.039 171.522 781.283 171.522C781.024 171.522 780.763 171.546 780.505 171.597C777.268 172.225 773.926 172.544 770.573 172.544C748.708 172.544 730.921 159.296 730.921 143.012C730.921 126.728 748.708 113.479 770.573 113.478C792.437 113.478 810.224 126.727 810.224 143.012C810.224 151.326 805.394 159.33 796.975 164.969Z" fill="#E46700"/>
<path d="M748.914 138.689C746.1 138.689 743.811 141.156 743.811 144.188C743.811 147.221 746.1 149.688 748.914 149.688C751.728 149.688 754.017 147.221 754.017 144.188C754.017 141.156 751.728 138.689 748.914 138.689Z" fill="#E46700"/>
<path d="M763.353 138.689C760.539 138.689 758.251 141.156 758.251 144.188C758.251 147.221 760.539 149.688 763.353 149.688C766.167 149.688 768.456 147.221 768.456 144.188C768.455 141.156 766.166 138.689 763.353 138.689Z" fill="#E46700"/>
<path d="M777.792 138.689C774.978 138.689 772.688 141.156 772.688 144.188C772.688 147.221 774.977 149.688 777.792 149.688C780.605 149.688 782.893 147.221 782.893 144.188C782.893 141.156 780.605 138.689 777.792 138.689Z" fill="#E46700"/>
<path d="M792.231 138.689C789.417 138.689 787.128 141.156 787.128 144.188C787.128 147.221 789.417 149.688 792.231 149.688C795.044 149.688 797.332 147.221 797.332 144.188C797.332 141.156 795.044 138.689 792.231 138.689Z" fill="#E46700"/>
<path d="M592.2 285H583.56V258.12H573.48V251.4H602.28V258.12H592.2V285ZM605.646 251.4H625.806C629.166 251.4 631.598 252.168 633.102 253.704C634.638 255.208 635.406 257.64 635.406 261V265.32C635.406 267.976 634.958 270.04 634.062 271.512C633.198 272.984 631.806 273.96 629.886 274.44L635.886 285H626.526L621.006 274.92H614.286V285H605.646V251.4ZM626.766 261C626.766 259.08 625.806 258.12 623.886 258.12H614.286V268.2H623.886C625.806 268.2 626.766 267.24 626.766 265.32V261ZM646.193 285H636.832L649.553 251.4H659.153L671.873 285H662.513L660.353 279H648.353L646.193 285ZM650.513 272.76H658.193L654.353 261.48L650.513 272.76ZM703.551 285H694.431L682.911 264.84V285H674.271V251.4H683.391L694.911 271.56V251.4H703.551V285ZM708.325 278.04C717.093 278.52 723.029 278.76 726.133 278.76C726.869 278.76 727.445 278.552 727.861 278.136C728.309 277.688 728.533 277.096 728.533 276.36V272.04H717.493C714.133 272.04 711.685 271.288 710.149 269.784C708.645 268.248 707.893 265.8 707.893 262.44V261C707.893 257.64 708.645 255.208 710.149 253.704C711.685 252.168 714.133 251.4 717.493 251.4H734.341V258.12H719.413C717.493 258.12 716.533 259.08 716.533 261V261.96C716.533 263.88 717.493 264.84 719.413 264.84H728.053C731.189 264.84 733.493 265.576 734.965 267.048C736.437 268.52 737.173 270.824 737.173 273.96V276.36C737.173 279.496 736.437 281.8 734.965 283.272C733.493 284.744 731.189 285.48 728.053 285.48C726.421 285.48 724.693 285.448 722.869 285.384L718.453 285.192C715.189 285.032 711.813 284.808 708.325 284.52V278.04Z" fill="#E46700"/>
<path d="M757.329 285H740.049V278.28H744.369V258.12H740.049V251.4H757.329V258.12H753.009V278.28H757.329V285ZM790.446 266.28L783.726 278.28H777.006L770.286 266.28V285H761.646V251.4H770.766L780.366 269.16L789.966 251.4H799.086V285H790.446V266.28ZM804.864 251.4H825.024C828.384 251.4 830.816 252.168 832.32 253.704C833.856 255.208 834.624 257.64 834.624 261V265.8C834.624 269.16 833.856 271.608 832.32 273.144C830.816 274.648 828.384 275.4 825.024 275.4H813.504V285H804.864V251.4ZM825.984 261C825.984 259.08 825.024 258.12 823.104 258.12H813.504V268.68H823.104C825.024 268.68 825.984 267.72 825.984 265.8V261ZM847.583 278.28H865.103V285H838.943V251.4H847.583V278.28ZM895.114 285H868.474V251.4H895.114V258.12H877.114V264.6H891.274V271.32H877.114V278.28H895.114V285Z" fill="white"/>
<path opacity="0.9" d="M931.304 394.832L926.24 403.448H923.84L918.776 394.832H921.536L925.256 401.192L924.776 401.264L928.592 394.832H931.304Z" fill="#1E1E1E"/>
<rect x="654" y="882" width="130" height="45" rx="10" fill="#E46700"/>
<path d="M670.544 913V898.696H665.84V896.2H677.984V898.696H673.136V913H670.544ZM679.126 913V900.4H681.622V904.36L681.382 903.4C681.558 902.792 681.854 902.24 682.27 901.744C682.702 901.248 683.19 900.856 683.734 900.568C684.294 900.28 684.87 900.136 685.462 900.136C685.734 900.136 685.99 900.16 686.23 900.208C686.486 900.256 686.686 900.312 686.83 900.376L686.182 903.064C685.99 902.984 685.774 902.92 685.534 902.872C685.31 902.808 685.086 902.776 684.862 902.776C684.43 902.776 684.014 902.864 683.614 903.04C683.23 903.2 682.886 903.432 682.582 903.736C682.294 904.024 682.062 904.368 681.886 904.768C681.71 905.152 681.622 905.576 681.622 906.04V913H679.126ZM693.115 913.24C692.075 913.24 691.123 912.952 690.259 912.376C689.411 911.8 688.731 911.016 688.219 910.024C687.707 909.032 687.451 907.912 687.451 906.664C687.451 905.4 687.707 904.28 688.219 903.304C688.747 902.312 689.451 901.536 690.331 900.976C691.227 900.416 692.227 900.136 693.331 900.136C693.987 900.136 694.587 900.232 695.131 900.424C695.675 900.616 696.147 900.888 696.547 901.24C696.963 901.576 697.299 901.968 697.555 902.416C697.827 902.864 697.995 903.344 698.059 903.856L697.507 903.664V900.4H700.003V913H697.507V910L698.083 909.832C697.987 910.264 697.787 910.688 697.483 911.104C697.195 911.504 696.819 911.864 696.355 912.184C695.907 912.504 695.403 912.76 694.843 912.952C694.299 913.144 693.723 913.24 693.115 913.24ZM693.763 910.96C694.515 910.96 695.179 910.776 695.755 910.408C696.331 910.04 696.779 909.536 697.099 908.896C697.435 908.24 697.603 907.496 697.603 906.664C697.603 905.848 697.435 905.12 697.099 904.48C696.779 903.84 696.331 903.336 695.755 902.968C695.179 902.6 694.515 902.416 693.763 902.416C693.027 902.416 692.371 902.6 691.795 902.968C691.235 903.336 690.787 903.84 690.451 904.48C690.131 905.12 689.971 905.848 689.971 906.664C689.971 907.496 690.131 908.24 690.451 908.896C690.787 909.536 691.235 910.04 691.795 910.408C692.371 910.776 693.027 910.96 693.763 910.96ZM703.455 913V900.4H705.927V902.992L705.495 903.28C705.655 902.72 705.967 902.208 706.431 901.744C706.895 901.264 707.447 900.88 708.087 900.592C708.727 900.288 709.383 900.136 710.055 900.136C711.015 900.136 711.815 900.328 712.455 900.712C713.095 901.08 713.575 901.648 713.895 902.416C714.215 903.184 714.375 904.152 714.375 905.32V913H711.903V905.488C711.903 904.768 711.807 904.176 711.615 903.712C711.423 903.232 711.127 902.888 710.727 902.68C710.327 902.456 709.831 902.36 709.239 902.392C708.759 902.392 708.319 902.472 707.919 902.632C707.519 902.776 707.167 902.984 706.863 903.256C706.575 903.528 706.343 903.848 706.167 904.216C706.007 904.568 705.927 904.952 705.927 905.368V913H704.703C704.495 913 704.287 913 704.079 913C703.871 913 703.663 913 703.455 913ZM721.928 913.24C720.872 913.24 719.92 913.056 719.072 912.688C718.224 912.32 717.52 911.776 716.96 911.056L718.64 909.616C719.12 910.176 719.64 910.584 720.2 910.84C720.776 911.08 721.424 911.2 722.144 911.2C722.432 911.2 722.696 911.168 722.936 911.104C723.192 911.024 723.408 910.912 723.584 910.768C723.776 910.624 723.92 910.456 724.016 910.264C724.112 910.056 724.16 909.832 724.16 909.592C724.16 909.176 724.008 908.84 723.704 908.584C723.544 908.472 723.288 908.352 722.936 908.224C722.6 908.08 722.16 907.936 721.616 907.792C720.688 907.552 719.928 907.28 719.336 906.976C718.744 906.672 718.288 906.328 717.968 905.944C717.728 905.64 717.552 905.312 717.44 904.96C717.328 904.592 717.272 904.192 717.272 903.76C717.272 903.232 717.384 902.752 717.608 902.32C717.848 901.872 718.168 901.488 718.568 901.168C718.984 900.832 719.464 900.576 720.008 900.4C720.568 900.224 721.16 900.136 721.784 900.136C722.376 900.136 722.96 900.216 723.536 900.376C724.128 900.536 724.672 900.768 725.168 901.072C725.664 901.376 726.08 901.736 726.416 902.152L725 903.712C724.696 903.408 724.36 903.144 723.992 902.92C723.64 902.68 723.28 902.496 722.912 902.368C722.544 902.24 722.208 902.176 721.904 902.176C721.568 902.176 721.264 902.208 720.992 902.272C720.72 902.336 720.488 902.432 720.296 902.56C720.12 902.688 719.984 902.848 719.888 903.04C719.792 903.232 719.744 903.448 719.744 903.688C719.76 903.896 719.808 904.096 719.888 904.288C719.984 904.464 720.112 904.616 720.272 904.744C720.448 904.872 720.712 905.008 721.064 905.152C721.416 905.296 721.864 905.432 722.408 905.56C723.208 905.768 723.864 906 724.376 906.256C724.904 906.496 725.32 906.776 725.624 907.096C725.944 907.4 726.168 907.752 726.296 908.152C726.424 908.552 726.488 909 726.488 909.496C726.488 910.216 726.28 910.864 725.864 911.44C725.464 912 724.92 912.44 724.232 912.76C723.544 913.08 722.776 913.24 721.928 913.24ZM729.26 913V895.24H731.732V913H729.26ZM739.849 913.24C738.809 913.24 737.857 912.952 736.993 912.376C736.145 911.8 735.465 911.016 734.953 910.024C734.441 909.032 734.185 907.912 734.185 906.664C734.185 905.4 734.441 904.28 734.953 903.304C735.481 902.312 736.185 901.536 737.065 900.976C737.961 900.416 738.961 900.136 740.065 900.136C740.721 900.136 741.321 900.232 741.865 900.424C742.409 900.616 742.881 900.888 743.281 901.24C743.697 901.576 744.033 901.968 744.289 902.416C744.561 902.864 744.729 903.344 744.793 903.856L744.241 903.664V900.4H746.737V913H744.241V910L744.817 909.832C744.721 910.264 744.521 910.688 744.217 911.104C743.929 911.504 743.553 911.864 743.089 912.184C742.641 912.504 742.137 912.76 741.577 912.952C741.033 913.144 740.457 913.24 739.849 913.24ZM740.497 910.96C741.249 910.96 741.913 910.776 742.489 910.408C743.065 910.04 743.513 909.536 743.833 908.896C744.169 908.24 744.337 907.496 744.337 906.664C744.337 905.848 744.169 905.12 743.833 904.48C743.513 903.84 743.065 903.336 742.489 902.968C741.913 902.6 741.249 902.416 740.497 902.416C739.761 902.416 739.105 902.6 738.529 902.968C737.969 903.336 737.521 903.84 737.185 904.48C736.865 905.12 736.705 905.848 736.705 906.664C736.705 907.496 736.865 908.24 737.185 908.896C737.521 909.536 737.969 910.04 738.529 910.408C739.105 910.776 739.761 910.96 740.497 910.96ZM751.749 913V897.184H754.221V913H751.749ZM749.133 902.8V900.4H757.149V902.8H749.133ZM765.163 913.24C763.867 913.24 762.715 912.968 761.707 912.424C760.715 911.864 759.931 911.104 759.355 910.144C758.795 909.184 758.515 908.08 758.515 906.832C758.515 905.84 758.675 904.936 758.995 904.12C759.315 903.304 759.755 902.6 760.315 902.008C760.891 901.4 761.571 900.936 762.355 900.616C763.155 900.28 764.019 900.112 764.947 900.112C765.763 900.112 766.523 900.272 767.227 900.592C767.931 900.896 768.539 901.32 769.051 901.864C769.579 902.408 769.979 903.056 770.251 903.808C770.539 904.544 770.675 905.352 770.659 906.232L770.635 907.288H760.339L759.787 905.32H768.499L768.139 905.728V905.152C768.091 904.624 767.915 904.152 767.611 903.736C767.307 903.32 766.923 902.992 766.459 902.752C765.995 902.512 765.491 902.392 764.947 902.392C764.083 902.392 763.355 902.56 762.763 902.896C762.171 903.216 761.723 903.696 761.419 904.336C761.115 904.96 760.963 905.736 760.963 906.664C760.963 907.544 761.147 908.312 761.515 908.968C761.883 909.608 762.403 910.104 763.075 910.456C763.747 910.808 764.523 910.984 765.403 910.984C766.027 910.984 766.603 910.88 767.131 910.672C767.675 910.464 768.259 910.088 768.883 909.544L770.131 911.296C769.747 911.68 769.275 912.016 768.715 912.304C768.171 912.592 767.587 912.824 766.963 913C766.355 913.16 765.755 913.24 765.163 913.24Z" fill="#1E1E1E"/>
<path d="M149.352 496V479.2H159.936V481.696H151.944V493.504H159.936V496H149.352ZM150.528 488.632V486.136H158.616V488.632H150.528ZM163.47 496V483.4H165.942V485.992L165.51 486.28C165.67 485.72 165.982 485.208 166.446 484.744C166.91 484.264 167.462 483.88 168.102 483.592C168.742 483.288 169.398 483.136 170.07 483.136C171.03 483.136 171.83 483.328 172.47 483.712C173.11 484.08 173.59 484.648 173.91 485.416C174.23 486.184 174.39 487.152 174.39 488.32V496H171.918V488.488C171.918 487.768 171.822 487.176 171.63 486.712C171.438 486.232 171.142 485.888 170.742 485.68C170.342 485.456 169.846 485.36 169.254 485.392C168.774 485.392 168.334 485.472 167.934 485.632C167.534 485.776 167.182 485.984 166.878 486.256C166.59 486.528 166.358 486.848 166.182 487.216C166.022 487.568 165.942 487.952 165.942 488.368V496H164.718C164.51 496 164.302 496 164.094 496C163.886 496 163.678 496 163.47 496ZM179.304 496V480.184H181.776V496H179.304ZM176.688 485.8V483.4H184.704V485.8H176.688ZM192.717 496.24C191.421 496.24 190.269 495.968 189.261 495.424C188.269 494.864 187.485 494.104 186.909 493.144C186.349 492.184 186.069 491.08 186.069 489.832C186.069 488.84 186.229 487.936 186.549 487.12C186.869 486.304 187.309 485.6 187.869 485.008C188.445 484.4 189.125 483.936 189.909 483.616C190.709 483.28 191.573 483.112 192.501 483.112C193.317 483.112 194.077 483.272 194.781 483.592C195.485 483.896 196.093 484.32 196.605 484.864C197.133 485.408 197.533 486.056 197.805 486.808C198.093 487.544 198.229 488.352 198.213 489.232L198.189 490.288H187.893L187.341 488.32H196.053L195.693 488.728V488.152C195.645 487.624 195.469 487.152 195.165 486.736C194.861 486.32 194.477 485.992 194.013 485.752C193.549 485.512 193.045 485.392 192.501 485.392C191.637 485.392 190.909 485.56 190.317 485.896C189.725 486.216 189.277 486.696 188.973 487.336C188.669 487.96 188.517 488.736 188.517 489.664C188.517 490.544 188.701 491.312 189.069 491.968C189.437 492.608 189.957 493.104 190.629 493.456C191.301 493.808 192.077 493.984 192.957 493.984C193.581 493.984 194.157 493.88 194.685 493.672C195.229 493.464 195.813 493.088 196.437 492.544L197.685 494.296C197.301 494.68 196.829 495.016 196.269 495.304C195.725 495.592 195.141 495.824 194.517 496C193.909 496.16 193.309 496.24 192.717 496.24ZM200.9 496V483.4H203.396V487.36L203.156 486.4C203.332 485.792 203.628 485.24 204.044 484.744C204.476 484.248 204.964 483.856 205.508 483.568C206.068 483.28 206.644 483.136 207.236 483.136C207.508 483.136 207.764 483.16 208.004 483.208C208.26 483.256 208.46 483.312 208.604 483.376L207.956 486.064C207.764 485.984 207.548 485.92 207.308 485.872C207.084 485.808 206.86 485.776 206.636 485.776C206.204 485.776 205.788 485.864 205.388 486.04C205.004 486.2 204.66 486.432 204.356 486.736C204.068 487.024 203.836 487.368 203.66 487.768C203.484 488.152 203.396 488.576 203.396 489.04V496H200.9ZM222.154 496.24C221.114 496.24 220.162 495.952 219.298 495.376C218.45 494.8 217.77 494.016 217.258 493.024C216.746 492.032 216.49 490.912 216.49 489.664C216.49 488.4 216.746 487.28 217.258 486.304C217.786 485.312 218.49 484.536 219.37 483.976C220.266 483.416 221.266 483.136 222.37 483.136C223.026 483.136 223.626 483.232 224.17 483.424C224.714 483.616 225.186 483.888 225.586 484.24C226.002 484.576 226.338 484.968 226.594 485.416C226.866 485.864 227.034 486.344 227.098 486.856L226.546 486.664V483.4H229.042V496H226.546V493L227.122 492.832C227.026 493.264 226.826 493.688 226.522 494.104C226.234 494.504 225.858 494.864 225.394 495.184C224.946 495.504 224.442 495.76 223.882 495.952C223.338 496.144 222.762 496.24 222.154 496.24ZM222.802 493.96C223.554 493.96 224.218 493.776 224.794 493.408C225.37 493.04 225.818 492.536 226.138 491.896C226.474 491.24 226.642 490.496 226.642 489.664C226.642 488.848 226.474 488.12 226.138 487.48C225.818 486.84 225.37 486.336 224.794 485.968C224.218 485.6 223.554 485.416 222.802 485.416C222.066 485.416 221.41 485.6 220.834 485.968C220.274 486.336 219.826 486.84 219.49 487.48C219.17 488.12 219.01 488.848 219.01 489.664C219.01 490.496 219.17 491.24 219.49 491.896C219.826 492.536 220.274 493.04 220.834 493.408C221.41 493.776 222.066 493.96 222.802 493.96ZM240.78 496V480.184H243.252V496H240.78ZM238.164 485.8V483.4H246.18V485.8H238.164ZM254.194 496.24C252.898 496.24 251.746 495.968 250.738 495.424C249.746 494.864 248.962 494.104 248.386 493.144C247.826 492.184 247.546 491.08 247.546 489.832C247.546 488.84 247.706 487.936 248.026 487.12C248.346 486.304 248.786 485.6 249.346 485.008C249.922 484.4 250.602 483.936 251.386 483.616C252.186 483.28 253.05 483.112 253.978 483.112C254.794 483.112 255.554 483.272 256.258 483.592C256.962 483.896 257.57 484.32 258.082 484.864C258.61 485.408 259.01 486.056 259.282 486.808C259.57 487.544 259.706 488.352 259.69 489.232L259.666 490.288H249.37L248.818 488.32H257.53L257.17 488.728V488.152C257.122 487.624 256.946 487.152 256.642 486.736C256.338 486.32 255.954 485.992 255.49 485.752C255.026 485.512 254.522 485.392 253.978 485.392C253.114 485.392 252.386 485.56 251.794 485.896C251.202 486.216 250.754 486.696 250.45 487.336C250.146 487.96 249.994 488.736 249.994 489.664C249.994 490.544 250.178 491.312 250.546 491.968C250.914 492.608 251.434 493.104 252.106 493.456C252.778 493.808 253.554 493.984 254.434 493.984C255.058 493.984 255.634 493.88 256.162 493.672C256.706 493.464 257.29 493.088 257.914 492.544L259.162 494.296C258.778 494.68 258.306 495.016 257.746 495.304C257.202 495.592 256.618 495.824 255.994 496C255.386 496.16 254.786 496.24 254.194 496.24ZM270.682 496L266.602 490.696L266.242 490.24L260.938 483.4H264.058L268.066 488.632L268.474 489.16L273.706 496H270.682ZM260.962 496L265.93 489.52L267.394 491.272L263.89 496H260.962ZM268.618 489.904L267.25 488.176L270.346 483.4H273.274L268.618 489.904ZM277.343 496V480.184H279.815V496H277.343ZM274.727 485.8V483.4H282.743V485.8H274.727Z" fill="white" fill-opacity="0.3"/>
<path d="M791.536 496.24C790.624 496.24 789.776 496.12 788.992 495.88C788.224 495.64 787.52 495.28 786.88 494.8C786.256 494.304 785.696 493.696 785.2 492.976L786.976 490.936C787.76 492.056 788.512 492.832 789.232 493.264C789.952 493.696 790.808 493.912 791.8 493.912C792.408 493.912 792.96 493.816 793.456 493.624C793.952 493.432 794.344 493.168 794.632 492.832C794.92 492.496 795.064 492.112 795.064 491.68C795.064 491.392 795.016 491.12 794.92 490.864C794.824 490.608 794.672 490.376 794.464 490.168C794.272 489.96 794.016 489.768 793.696 489.592C793.392 489.416 793.032 489.264 792.616 489.136C792.2 488.992 791.72 488.872 791.176 488.776C790.312 488.6 789.56 488.368 788.92 488.08C788.28 487.792 787.744 487.432 787.312 487C786.88 486.568 786.56 486.08 786.352 485.536C786.144 484.976 786.04 484.352 786.04 483.664C786.04 482.992 786.184 482.368 786.472 481.792C786.776 481.216 787.184 480.72 787.696 480.304C788.224 479.872 788.84 479.544 789.544 479.32C790.248 479.08 791.008 478.96 791.824 478.96C792.688 478.96 793.48 479.072 794.2 479.296C794.92 479.52 795.56 479.856 796.12 480.304C796.68 480.736 797.144 481.272 797.512 481.912L795.688 483.712C795.368 483.184 795.008 482.744 794.608 482.392C794.208 482.024 793.768 481.752 793.288 481.576C792.808 481.384 792.296 481.288 791.752 481.288C791.128 481.288 790.584 481.384 790.12 481.576C789.656 481.768 789.288 482.04 789.016 482.392C788.76 482.728 788.632 483.128 788.632 483.592C788.632 483.928 788.696 484.24 788.824 484.528C788.952 484.8 789.144 485.048 789.4 485.272C789.672 485.48 790.032 485.672 790.48 485.848C790.928 486.008 791.464 486.152 792.088 486.28C792.968 486.472 793.752 486.72 794.44 487.024C795.128 487.312 795.712 487.656 796.192 488.056C796.672 488.456 797.032 488.904 797.272 489.4C797.528 489.896 797.656 490.432 797.656 491.008C797.656 492.08 797.408 493.008 796.912 493.792C796.416 494.576 795.712 495.184 794.8 495.616C793.888 496.032 792.8 496.24 791.536 496.24ZM806.585 496.24C805.289 496.24 804.137 495.968 803.129 495.424C802.137 494.864 801.353 494.104 800.777 493.144C800.217 492.184 799.937 491.08 799.937 489.832C799.937 488.84 800.097 487.936 800.417 487.12C800.737 486.304 801.177 485.6 801.737 485.008C802.313 484.4 802.993 483.936 803.777 483.616C804.577 483.28 805.441 483.112 806.369 483.112C807.185 483.112 807.945 483.272 808.649 483.592C809.353 483.896 809.961 484.32 810.473 484.864C811.001 485.408 811.401 486.056 811.673 486.808C811.961 487.544 812.097 488.352 812.081 489.232L812.057 490.288H801.761L801.209 488.32H809.921L809.561 488.728V488.152C809.513 487.624 809.337 487.152 809.033 486.736C808.729 486.32 808.345 485.992 807.881 485.752C807.417 485.512 806.913 485.392 806.369 485.392C805.505 485.392 804.777 485.56 804.185 485.896C803.593 486.216 803.145 486.696 802.841 487.336C802.537 487.96 802.385 488.736 802.385 489.664C802.385 490.544 802.569 491.312 802.937 491.968C803.305 492.608 803.825 493.104 804.497 493.456C805.169 493.808 805.945 493.984 806.825 493.984C807.449 493.984 808.025 493.88 808.553 493.672C809.097 493.464 809.681 493.088 810.305 492.544L811.553 494.296C811.169 494.68 810.697 495.016 810.137 495.304C809.593 495.592 809.009 495.824 808.385 496C807.777 496.16 807.177 496.24 806.585 496.24ZM814.815 496V478.24H817.287V496H814.815ZM826.436 496.24C825.14 496.24 823.988 495.968 822.98 495.424C821.988 494.864 821.204 494.104 820.628 493.144C820.068 492.184 819.788 491.08 819.788 489.832C819.788 488.84 819.948 487.936 820.268 487.12C820.588 486.304 821.028 485.6 821.588 485.008C822.164 484.4 822.844 483.936 823.628 483.616C824.428 483.28 825.292 483.112 826.22 483.112C827.036 483.112 827.796 483.272 828.5 483.592C829.204 483.896 829.812 484.32 830.324 484.864C830.852 485.408 831.252 486.056 831.524 486.808C831.812 487.544 831.948 488.352 831.932 489.232L831.908 490.288H821.612L821.06 488.32H829.772L829.412 488.728V488.152C829.364 487.624 829.188 487.152 828.884 486.736C828.58 486.32 828.196 485.992 827.732 485.752C827.268 485.512 826.764 485.392 826.22 485.392C825.356 485.392 824.628 485.56 824.036 485.896C823.444 486.216 822.996 486.696 822.692 487.336C822.388 487.96 822.236 488.736 822.236 489.664C822.236 490.544 822.42 491.312 822.788 491.968C823.156 492.608 823.676 493.104 824.348 493.456C825.02 493.808 825.796 493.984 826.676 493.984C827.3 493.984 827.876 493.88 828.404 493.672C828.948 493.464 829.532 493.088 830.156 492.544L831.404 494.296C831.02 494.68 830.548 495.016 829.988 495.304C829.444 495.592 828.86 495.824 828.236 496C827.628 496.16 827.028 496.24 826.436 496.24ZM839.971 496.24C838.803 496.24 837.755 495.952 836.827 495.376C835.915 494.8 835.187 494.016 834.643 493.024C834.115 492.032 833.851 490.92 833.851 489.688C833.851 488.456 834.115 487.344 834.643 486.352C835.187 485.36 835.915 484.576 836.827 484C837.755 483.424 838.803 483.136 839.971 483.136C841.091 483.136 842.107 483.368 843.019 483.832C843.947 484.28 844.651 484.896 845.131 485.68L843.763 487.36C843.507 486.992 843.179 486.656 842.779 486.352C842.379 486.048 841.955 485.808 841.507 485.632C841.059 485.456 840.627 485.368 840.211 485.368C839.443 485.368 838.755 485.56 838.147 485.944C837.555 486.312 837.083 486.824 836.731 487.48C836.379 488.136 836.203 488.872 836.203 489.688C836.203 490.504 836.387 491.24 836.755 491.896C837.123 492.536 837.611 493.048 838.219 493.432C838.827 493.816 839.499 494.008 840.235 494.008C840.667 494.008 841.083 493.936 841.483 493.792C841.899 493.648 842.299 493.432 842.683 493.144C843.067 492.856 843.427 492.504 843.763 492.088L845.131 493.768C844.619 494.488 843.883 495.08 842.923 495.544C841.979 496.008 840.995 496.24 839.971 496.24ZM849.022 496V480.184H851.494V496H849.022ZM846.406 485.8V483.4H854.422V485.8H846.406ZM868.248 496.24C867.208 496.24 866.256 495.952 865.392 495.376C864.544 494.8 863.864 494.016 863.352 493.024C862.84 492.032 862.584 490.912 862.584 489.664C862.584 488.4 862.84 487.28 863.352 486.304C863.88 485.312 864.584 484.536 865.464 483.976C866.36 483.416 867.36 483.136 868.464 483.136C869.12 483.136 869.72 483.232 870.264 483.424C870.808 483.616 871.28 483.888 871.68 484.24C872.096 484.576 872.432 484.968 872.688 485.416C872.96 485.864 873.128 486.344 873.192 486.856L872.64 486.664V483.4H875.136V496H872.64V493L873.216 492.832C873.12 493.264 872.92 493.688 872.616 494.104C872.328 494.504 871.952 494.864 871.488 495.184C871.04 495.504 870.536 495.76 869.976 495.952C869.432 496.144 868.856 496.24 868.248 496.24ZM868.896 493.96C869.648 493.96 870.312 493.776 870.888 493.408C871.464 493.04 871.912 492.536 872.232 491.896C872.568 491.24 872.736 490.496 872.736 489.664C872.736 488.848 872.568 488.12 872.232 487.48C871.912 486.84 871.464 486.336 870.888 485.968C870.312 485.6 869.648 485.416 868.896 485.416C868.16 485.416 867.504 485.6 866.928 485.968C866.368 486.336 865.92 486.84 865.584 487.48C865.264 488.12 865.104 488.848 865.104 489.664C865.104 490.496 865.264 491.24 865.584 491.896C865.92 492.536 866.368 493.04 866.928 493.408C867.504 493.776 868.16 493.96 868.896 493.96ZM885.362 496V478.24H887.834V496H885.362ZM895.951 496.24C894.911 496.24 893.959 495.952 893.095 495.376C892.247 494.8 891.567 494.016 891.055 493.024C890.543 492.032 890.287 490.912 890.287 489.664C890.287 488.4 890.543 487.28 891.055 486.304C891.583 485.312 892.287 484.536 893.167 483.976C894.063 483.416 895.063 483.136 896.167 483.136C896.823 483.136 897.423 483.232 897.967 483.424C898.511 483.616 898.983 483.888 899.383 484.24C899.799 484.576 900.135 484.968 900.391 485.416C900.663 485.864 900.831 486.344 900.895 486.856L900.343 486.664V483.4H902.839V496H900.343V493L900.919 492.832C900.823 493.264 900.623 493.688 900.319 494.104C900.031 494.504 899.655 494.864 899.191 495.184C898.743 495.504 898.239 495.76 897.679 495.952C897.135 496.144 896.559 496.24 895.951 496.24ZM896.599 493.96C897.351 493.96 898.015 493.776 898.591 493.408C899.167 493.04 899.615 492.536 899.935 491.896C900.271 491.24 900.439 490.496 900.439 489.664C900.439 488.848 900.271 488.12 899.935 487.48C899.615 486.84 899.167 486.336 898.591 485.968C898.015 485.6 897.351 485.416 896.599 485.416C895.863 485.416 895.207 485.6 894.631 485.968C894.071 486.336 893.623 486.84 893.287 487.48C892.967 488.12 892.807 488.848 892.807 489.664C892.807 490.496 892.967 491.24 893.287 491.896C893.623 492.536 894.071 493.04 894.631 493.408C895.207 493.776 895.863 493.96 896.599 493.96ZM906.291 496V483.4H908.763V485.992L908.331 486.28C908.491 485.72 908.803 485.208 909.267 484.744C909.731 484.264 910.283 483.88 910.923 483.592C911.563 483.288 912.219 483.136 912.891 483.136C913.851 483.136 914.651 483.328 915.291 483.712C915.931 484.08 916.411 484.648 916.731 485.416C917.051 486.184 917.211 487.152 917.211 488.32V496H914.739V488.488C914.739 487.768 914.643 487.176 914.451 486.712C914.259 486.232 913.963 485.888 913.563 485.68C913.163 485.456 912.667 485.36 912.075 485.392C911.595 485.392 911.155 485.472 910.755 485.632C910.355 485.776 910.003 485.984 909.699 486.256C909.411 486.528 909.179 486.848 909.003 487.216C908.843 487.568 908.763 487.952 908.763 488.368V496H907.539C907.331 496 907.123 496 906.915 496C906.707 496 906.499 496 906.291 496ZM926.204 501.52C925.308 501.52 924.412 501.376 923.516 501.088C922.636 500.816 921.924 500.456 921.38 500.008L922.292 498.088C922.612 498.328 922.988 498.536 923.42 498.712C923.852 498.904 924.308 499.048 924.788 499.144C925.268 499.256 925.74 499.312 926.204 499.312C927.084 499.312 927.82 499.168 928.412 498.88C929.004 498.592 929.452 498.168 929.756 497.608C930.06 497.048 930.212 496.352 930.212 495.52V493.096L930.476 493.264C930.396 493.76 930.132 494.24 929.684 494.704C929.252 495.152 928.708 495.52 928.052 495.808C927.396 496.096 926.724 496.24 926.036 496.24C924.836 496.24 923.764 495.96 922.82 495.4C921.892 494.824 921.156 494.048 920.612 493.072C920.068 492.08 919.796 490.952 919.796 489.688C919.796 488.424 920.06 487.304 920.588 486.328C921.132 485.336 921.868 484.56 922.796 484C923.74 483.424 924.796 483.136 925.964 483.136C926.444 483.136 926.908 483.2 927.356 483.328C927.804 483.44 928.22 483.608 928.604 483.832C928.988 484.04 929.332 484.272 929.636 484.528C929.94 484.784 930.188 485.056 930.38 485.344C930.572 485.632 930.692 485.904 930.74 486.16L930.212 486.352V483.4H932.684V495.232C932.684 496.24 932.532 497.128 932.228 497.896C931.94 498.68 931.516 499.336 930.956 499.864C930.396 500.408 929.716 500.816 928.916 501.088C928.116 501.376 927.212 501.52 926.204 501.52ZM926.3 493.96C927.084 493.96 927.78 493.776 928.388 493.408C928.996 493.04 929.468 492.536 929.804 491.896C930.14 491.256 930.308 490.52 930.308 489.688C930.308 488.856 930.132 488.12 929.78 487.48C929.444 486.824 928.972 486.312 928.364 485.944C927.772 485.576 927.084 485.392 926.3 485.392C925.532 485.392 924.844 485.584 924.236 485.968C923.644 486.336 923.172 486.848 922.82 487.504C922.484 488.144 922.316 488.872 922.316 489.688C922.316 490.504 922.484 491.24 922.82 491.896C923.172 492.536 923.644 493.04 924.236 493.408C924.844 493.776 925.532 493.96 926.3 493.96ZM940.378 496.24C939.482 496.24 938.698 496.032 938.026 495.616C937.37 495.2 936.858 494.616 936.49 493.864C936.138 493.112 935.962 492.216 935.962 491.176V483.4H938.434V490.504C938.434 491.24 938.546 491.88 938.77 492.424C939.01 492.952 939.346 493.36 939.778 493.648C940.226 493.936 940.762 494.08 941.386 494.08C941.85 494.08 942.274 494.008 942.658 493.864C943.042 493.704 943.37 493.488 943.642 493.216C943.93 492.944 944.154 492.616 944.314 492.232C944.474 491.848 944.554 491.432 944.554 490.984V483.4H947.026V496H944.554V493.36L944.986 493.072C944.794 493.664 944.466 494.2 944.002 494.68C943.554 495.16 943.018 495.544 942.394 495.832C941.77 496.104 941.098 496.24 940.378 496.24ZM955.342 496.24C954.302 496.24 953.35 495.952 952.486 495.376C951.638 494.8 950.958 494.016 950.446 493.024C949.934 492.032 949.678 490.912 949.678 489.664C949.678 488.4 949.934 487.28 950.446 486.304C950.974 485.312 951.678 484.536 952.558 483.976C953.454 483.416 954.454 483.136 955.558 483.136C956.214 483.136 956.814 483.232 957.358 483.424C957.902 483.616 958.374 483.888 958.774 484.24C959.19 484.576 959.526 484.968 959.782 485.416C960.054 485.864 960.222 486.344 960.286 486.856L959.734 486.664V483.4H962.23V496H959.734V493L960.31 492.832C960.214 493.264 960.014 493.688 959.71 494.104C959.422 494.504 959.046 494.864 958.582 495.184C958.134 495.504 957.63 495.76 957.07 495.952C956.526 496.144 955.95 496.24 955.342 496.24ZM955.99 493.96C956.742 493.96 957.406 493.776 957.982 493.408C958.558 493.04 959.006 492.536 959.326 491.896C959.662 491.24 959.83 490.496 959.83 489.664C959.83 488.848 959.662 488.12 959.326 487.48C959.006 486.84 958.558 486.336 957.982 485.968C957.406 485.6 956.742 485.416 955.99 485.416C955.254 485.416 954.598 485.6 954.022 485.968C953.462 486.336 953.014 486.84 952.678 487.48C952.358 488.12 952.198 488.848 952.198 489.664C952.198 490.496 952.358 491.24 952.678 491.896C953.014 492.536 953.462 493.04 954.022 493.408C954.598 493.776 955.254 493.96 955.99 493.96ZM971.321 501.52C970.425 501.52 969.529 501.376 968.633 501.088C967.753 500.816 967.041 500.456 966.497 500.008L967.409 498.088C967.729 498.328 968.105 498.536 968.537 498.712C968.969 498.904 969.425 499.048 969.905 499.144C970.385 499.256 970.857 499.312 971.321 499.312C972.201 499.312 972.937 499.168 973.529 498.88C974.121 498.592 974.569 498.168 974.873 497.608C975.177 497.048 975.329 496.352 975.329 495.52V493.096L975.593 493.264C975.513 493.76 975.249 494.24 974.801 494.704C974.369 495.152 973.825 495.52 973.169 495.808C972.513 496.096 971.841 496.24 971.153 496.24C969.953 496.24 968.881 495.96 967.937 495.4C967.009 494.824 966.273 494.048 965.729 493.072C965.185 492.08 964.913 490.952 964.913 489.688C964.913 488.424 965.177 487.304 965.705 486.328C966.249 485.336 966.985 484.56 967.913 484C968.857 483.424 969.913 483.136 971.081 483.136C971.561 483.136 972.025 483.2 972.473 483.328C972.921 483.44 973.337 483.608 973.721 483.832C974.105 484.04 974.449 484.272 974.753 484.528C975.057 484.784 975.305 485.056 975.497 485.344C975.689 485.632 975.809 485.904 975.857 486.16L975.329 486.352V483.4H977.801V495.232C977.801 496.24 977.649 497.128 977.345 497.896C977.057 498.68 976.633 499.336 976.073 499.864C975.513 500.408 974.833 500.816 974.033 501.088C973.233 501.376 972.329 501.52 971.321 501.52ZM971.417 493.96C972.201 493.96 972.897 493.776 973.505 493.408C974.113 493.04 974.585 492.536 974.921 491.896C975.257 491.256 975.425 490.52 975.425 489.688C975.425 488.856 975.249 488.12 974.897 487.48C974.561 486.824 974.089 486.312 973.481 485.944C972.889 485.576 972.201 485.392 971.417 485.392C970.649 485.392 969.961 485.584 969.353 485.968C968.761 486.336 968.289 486.848 967.937 487.504C967.601 488.144 967.433 488.872 967.433 489.688C967.433 490.504 967.601 491.24 967.937 491.896C968.289 492.536 968.761 493.04 969.353 493.408C969.961 493.776 970.649 493.96 971.417 493.96ZM987.147 496.24C985.851 496.24 984.699 495.968 983.691 495.424C982.699 494.864 981.915 494.104 981.339 493.144C980.779 492.184 980.499 491.08 980.499 489.832C980.499 488.84 980.659 487.936 980.979 487.12C981.299 486.304 981.739 485.6 982.299 485.008C982.875 484.4 983.555 483.936 984.339 483.616C985.139 483.28 986.003 483.112 986.931 483.112C987.747 483.112 988.507 483.272 989.211 483.592C989.915 483.896 990.523 484.32 991.035 484.864C991.563 485.408 991.963 486.056 992.235 486.808C992.523 487.544 992.659 488.352 992.643 489.232L992.619 490.288H982.323L981.771 488.32H990.483L990.123 488.728V488.152C990.075 487.624 989.899 487.152 989.595 486.736C989.291 486.32 988.907 485.992 988.443 485.752C987.979 485.512 987.475 485.392 986.931 485.392C986.067 485.392 985.339 485.56 984.747 485.896C984.155 486.216 983.707 486.696 983.403 487.336C983.099 487.96 982.947 488.736 982.947 489.664C982.947 490.544 983.131 491.312 983.499 491.968C983.867 492.608 984.387 493.104 985.059 493.456C985.731 493.808 986.507 493.984 987.387 493.984C988.011 493.984 988.587 493.88 989.115 493.672C989.659 493.464 990.243 493.088 990.867 492.544L992.115 494.296C991.731 494.68 991.259 495.016 990.699 495.304C990.155 495.592 989.571 495.824 988.947 496C988.339 496.16 987.739 496.24 987.147 496.24Z" fill="white" fill-opacity="0.3"/>
</svg>
