<svg width="67" height="66" viewBox="0 0 67 66" fill="none" xmlns="http://www.w3.org/2000/svg">
<g clip-path="url(#clip0_391_7)">
<path fill-rule="evenodd" clip-rule="evenodd" d="M29.5225 3.71547C31.7194 1.42818 35.2807 1.42818 37.4776 3.71547L63.6821 31.0009C65.4393 32.8307 65.4393 35.7976 63.6821 37.6273C61.9248 39.4576 59.0754 39.4576 57.3182 37.6273L33.5001 12.8267L9.68201 37.6273C7.92462 39.4576 5.0754 39.4576 3.31801 37.6273C1.56066 35.7976 1.56066 32.8307 3.31801 31.0009L29.5225 3.71547Z" fill="#000012" stroke="#8600F0" stroke-width="3"/>
<path d="M7.33949 46.4545V61H4.2642V46.4545H7.33949ZM22.0359 46.4545V61H19.3796L13.0515 51.8452H12.945V61H9.86967V46.4545H12.5685L18.8469 55.6023H18.9748V46.4545H22.0359ZM27.652 46.4545V61H24.5767V46.4545H27.652ZM25.0384 45.0483L26.544 41.8168H29.3423L27.1761 45.0483H25.0384ZM43.016 51.5469H39.9052C39.8484 51.1444 39.7324 50.7869 39.5572 50.4744C39.382 50.1572 39.1571 49.8873 38.8825 49.6648C38.6078 49.4422 38.2906 49.2718 37.9308 49.1534C37.5756 49.035 37.1897 48.9759 36.7731 48.9759C36.0202 48.9759 35.3645 49.1629 34.8058 49.5369C34.247 49.9062 33.8138 50.446 33.506 51.1562C33.1983 51.8617 33.0444 52.7187 33.0444 53.7273C33.0444 54.7642 33.1983 55.6354 33.506 56.3409C33.8185 57.0464 34.2541 57.5791 34.8129 57.9389C35.3716 58.2988 36.0179 58.4787 36.7518 58.4787C37.1637 58.4787 37.5449 58.4242 37.8952 58.3153C38.2504 58.2064 38.5652 58.0478 38.8398 57.8395C39.1145 57.6264 39.3417 57.3684 39.5217 57.0653C39.7063 56.7623 39.8342 56.4167 39.9052 56.0284L43.016 56.0426C42.9355 56.7102 42.7343 57.3542 42.4123 57.9744C42.0951 58.59 41.6665 59.1416 41.1268 59.6293C40.5917 60.1122 39.9525 60.4957 39.2092 60.7798C38.4705 61.0592 37.6348 61.1989 36.7021 61.1989C35.4047 61.1989 34.2447 60.9053 33.2219 60.3182C32.204 59.7311 31.399 58.8812 30.8072 57.7685C30.2201 56.6558 29.9265 55.3087 29.9265 53.7273C29.9265 52.1411 30.2248 50.7917 30.8214 49.679C31.418 48.5663 32.2276 47.7187 33.2504 47.1364C34.2731 46.5492 35.4237 46.2557 36.7021 46.2557C37.5449 46.2557 38.3261 46.3741 39.0458 46.6108C39.7702 46.8475 40.4118 47.1932 40.9705 47.6477C41.5292 48.0975 41.9838 48.6491 42.3342 49.3026C42.6893 49.956 42.9165 50.7041 43.016 51.5469ZM48.2965 46.4545V61H45.2212V46.4545H48.2965ZM64.1932 53.7273C64.1932 55.3134 63.8925 56.6629 63.2912 57.7756C62.6946 58.8883 61.8802 59.7382 60.848 60.3253C59.8205 60.9077 58.6652 61.1989 57.3821 61.1989C56.0895 61.1989 54.9295 60.9053 53.902 60.3182C52.8745 59.7311 52.0625 58.8812 51.4659 57.7685C50.8693 56.6558 50.571 55.3087 50.571 53.7273C50.571 52.1411 50.8693 50.7917 51.4659 49.679C52.0625 48.5663 52.8745 47.7187 53.902 47.1364C54.9295 46.5492 56.0895 46.2557 57.3821 46.2557C58.6652 46.2557 59.8205 46.5492 60.848 47.1364C61.8802 47.7187 62.6946 48.5663 63.2912 49.679C63.8925 50.7917 64.1932 52.1411 64.1932 53.7273ZM61.0753 53.7273C61.0753 52.6998 60.9214 51.8333 60.6136 51.1278C60.3106 50.4223 59.8821 49.8873 59.3281 49.5227C58.7741 49.1581 58.1255 48.9759 57.3821 48.9759C56.6387 48.9759 55.9901 49.1581 55.4361 49.5227C54.8821 49.8873 54.4512 50.4223 54.1435 51.1278C53.8404 51.8333 53.6889 52.6998 53.6889 53.7273C53.6889 54.7547 53.8404 55.6212 54.1435 56.3267C54.4512 57.0322 54.8821 57.5672 55.4361 57.9318C55.9901 58.2964 56.6387 58.4787 57.3821 58.4787C58.1255 58.4787 58.7741 58.2964 59.3281 57.9318C59.8821 57.5672 60.3106 57.0322 60.6136 56.3267C60.9214 55.6212 61.0753 54.7547 61.0753 53.7273Z" fill="#8600F0"/>
</g>
<defs>
<clipPath id="clip0_391_7">
<rect width="67" height="66" fill="white"/>
</clipPath>
</defs>
</svg>
