<svg width="1440" height="1024" viewBox="0 0 1440 1024" fill="none" xmlns="http://www.w3.org/2000/svg">
<rect width="1440" height="1024" fill="#000D81"/>
<path d="M818.862 186.844C818.862 180.558 817.677 174.544 815.525 169.01L832 159.499L828.267 153.033L824.534 146.567L808.063 156.077C800.507 146.63 789.559 140.01 777.08 138.084V119.064H762.147V138.056C756.681 138.879 751.506 140.603 746.777 143.07C752.765 146.059 758.297 150.028 763.167 154.898C773.196 164.927 779.414 177.755 781.09 191.619C788.199 194.621 794.609 199.228 799.783 205.145C803.132 208.975 805.852 213.249 807.908 217.807C807.921 217.79 807.935 217.774 807.948 217.757L824.443 227.28L828.177 220.814L831.91 214.348L815.46 204.851C817.655 199.269 818.862 193.195 818.862 186.844Z" fill="#FFC107"/>
<path d="M766.476 202.921C766.567 201.716 766.614 200.501 766.614 199.273C766.614 172.861 745.203 151.45 718.791 151.45C693.502 151.45 672.801 171.08 671.085 195.931C649.55 196.159 632 213.843 632 235.431C632 257.158 649.777 274.936 671.505 274.936H761.301C781.208 274.936 797.495 258.648 797.495 238.741C797.495 220.591 783.955 205.452 766.476 202.921Z" fill="white"/>
<path d="M686.077 242L677.753 212.909H684.472L689.287 233.122H689.528L694.841 212.909H700.594L705.892 233.165H706.148L710.963 212.909H717.682L709.358 242H703.364L697.824 222.98H697.597L692.071 242H686.077Z" fill="#000D81"/>
<path d="M686.077 242L685.115 242.275L685.323 243H686.077V242ZM677.753 212.909V211.909H676.427L676.791 213.184L677.753 212.909ZM684.472 212.909L685.444 212.677L685.261 211.909H684.472V212.909ZM689.287 233.122L688.314 233.354L688.497 234.122H689.287V233.122ZM689.528 233.122V234.122H690.3L690.496 233.376L689.528 233.122ZM694.841 212.909V211.909H694.07L693.874 212.655L694.841 212.909ZM700.594 212.909L701.561 212.656L701.366 211.909H700.594V212.909ZM705.892 233.165L704.925 233.418L705.12 234.165H705.892V233.165ZM706.148 233.165V234.165H706.938L707.121 233.396L706.148 233.165ZM710.963 212.909V211.909H710.173L709.99 212.678L710.963 212.909ZM717.682 212.909L718.643 213.184L719.008 211.909H717.682V212.909ZM709.358 242V243H710.112L710.319 242.275L709.358 242ZM703.364 242L702.404 242.28L702.613 243H703.364V242ZM697.824 222.98L698.784 222.7L698.574 221.98H697.824V222.98ZM697.597 222.98V221.98H696.846L696.636 222.701L697.597 222.98ZM692.071 242V243H692.822L693.031 242.279L692.071 242ZM687.038 241.725L678.714 212.634L676.791 213.184L685.115 242.275L687.038 241.725ZM677.753 213.909H684.472V211.909H677.753V213.909ZM683.499 213.141L688.314 233.354L690.26 232.89L685.444 212.677L683.499 213.141ZM689.287 234.122H689.528V232.122H689.287V234.122ZM690.496 233.376L695.808 213.163L693.874 212.655L688.561 232.868L690.496 233.376ZM694.841 213.909H700.594V211.909H694.841V213.909ZM699.626 213.162L704.925 233.418L706.859 232.912L701.561 212.656L699.626 213.162ZM705.892 234.165H706.148V232.165H705.892V234.165ZM707.121 233.396L711.936 213.14L709.99 212.678L705.175 232.933L707.121 233.396ZM710.963 213.909H717.682V211.909H710.963V213.909ZM716.72 212.634L708.397 241.725L710.319 242.275L718.643 213.184L716.72 212.634ZM709.358 241H703.364V243H709.358V241ZM704.324 241.72L698.784 222.7L696.864 223.26L702.404 242.28L704.324 241.72ZM697.824 221.98H697.597V223.98H697.824V221.98ZM696.636 222.701L691.111 241.721L693.031 242.279L698.557 223.259L696.636 222.701ZM692.071 241H686.077V243H692.071V241Z" fill="#000D81"/>
<path d="M744.923 213L753.247 242.091H746.528L741.713 221.878H741.472L736.159 242.091H730.406L725.108 221.835H724.852L720.037 242.091H713.318L721.642 213H727.636L733.176 232.02H733.403L738.929 213H744.923Z" fill="#000D81"/>
<path d="M744.923 213L745.885 212.725L745.677 212H744.923V213ZM753.247 242.091V243.091H754.573L754.209 241.816L753.247 242.091ZM746.528 242.091L745.556 242.323L745.739 243.091H746.528V242.091ZM741.713 221.878L742.686 221.646L742.503 220.878H741.713V221.878ZM741.472 221.878V220.878H740.7L740.504 221.624L741.472 221.878ZM736.159 242.091V243.091H736.93L737.126 242.345L736.159 242.091ZM730.406 242.091L729.439 242.344L729.634 243.091H730.406V242.091ZM725.108 221.835L726.075 221.582L725.88 220.835H725.108V221.835ZM724.852 221.835V220.835H724.062L723.879 221.604L724.852 221.835ZM720.037 242.091V243.091H720.827L721.01 242.322L720.037 242.091ZM713.318 242.091L712.357 241.816L711.992 243.091H713.318V242.091ZM721.642 213V212H720.888L720.681 212.725L721.642 213ZM727.636 213L728.596 212.72L728.387 212H727.636V213ZM733.176 232.02L732.216 232.3L732.426 233.02H733.176V232.02ZM733.403 232.02V233.02H734.154L734.364 232.299L733.403 232.02ZM738.929 213V212H738.178L737.969 212.721L738.929 213ZM743.962 213.275L752.286 242.366L754.209 241.816L745.885 212.725L743.962 213.275ZM753.247 241.091H746.528V243.091H753.247V241.091ZM747.501 241.859L742.686 221.646L740.74 222.11L745.556 242.323L747.501 241.859ZM741.713 220.878H741.472V222.878H741.713V220.878ZM740.504 221.624L735.192 241.837L737.126 242.345L742.439 222.132L740.504 221.624ZM736.159 241.091H730.406V243.091H736.159V241.091ZM731.374 241.838L726.075 221.582L724.141 222.088L729.439 242.344L731.374 241.838ZM725.108 220.835H724.852V222.835H725.108V220.835ZM723.879 221.604L719.064 241.86L721.01 242.322L725.825 222.067L723.879 221.604ZM720.037 241.091H713.318V243.091H720.037V241.091ZM714.28 242.366L722.603 213.275L720.681 212.725L712.357 241.816L714.28 242.366ZM721.642 214H727.636V212H721.642V214ZM726.676 213.28L732.216 232.3L734.136 231.74L728.596 212.72L726.676 213.28ZM733.176 233.02H733.403V231.02H733.176V233.02ZM734.364 232.299L739.889 213.279L737.969 212.721L732.443 231.741L734.364 232.299ZM738.929 214H744.923V212H738.929V214Z" fill="#000D81"/>
<rect x="387.506" y="389.5" width="664" height="50" rx="25" stroke="white" stroke-width="3"/>
<path d="M1027.21 417.63L1034.31 425.33" stroke="#FFC107" stroke-width="3" stroke-linecap="round" stroke-linejoin="round"/>
<path d="M1029.58 411.47C1029.58 416.148 1025.87 419.94 1021.29 419.94C1016.72 419.94 1013.01 416.148 1013.01 411.47C1013.01 406.792 1016.72 403 1021.29 403C1025.87 403 1029.58 406.792 1029.58 411.47Z" stroke="#FFC107" stroke-width="3"/>
<path d="M622.31 554.276C622.196 553.13 621.708 552.24 620.847 551.605C619.985 550.971 618.815 550.653 617.338 550.653C616.334 550.653 615.487 550.795 614.795 551.08C614.104 551.354 613.574 551.738 613.205 552.23C612.845 552.723 612.665 553.281 612.665 553.906C612.646 554.427 612.755 554.882 612.991 555.27C613.238 555.658 613.574 555.994 614 556.278C614.426 556.553 614.919 556.795 615.477 557.003C616.036 557.202 616.633 557.372 617.267 557.514L619.881 558.139C621.15 558.423 622.314 558.802 623.375 559.276C624.436 559.749 625.354 560.331 626.131 561.023C626.907 561.714 627.509 562.528 627.935 563.466C628.37 564.403 628.593 565.478 628.602 566.69C628.593 568.471 628.138 570.014 627.239 571.321C626.348 572.618 625.061 573.627 623.375 574.347C621.699 575.057 619.677 575.412 617.31 575.412C614.961 575.412 612.916 575.052 611.173 574.332C609.44 573.613 608.086 572.547 607.111 571.136C606.145 569.716 605.638 567.959 605.591 565.866H611.543C611.609 566.842 611.888 567.656 612.381 568.31C612.883 568.954 613.55 569.441 614.384 569.773C615.226 570.095 616.178 570.256 617.239 570.256C618.28 570.256 619.185 570.104 619.952 569.801C620.728 569.498 621.33 569.077 621.756 568.537C622.182 567.997 622.395 567.377 622.395 566.676C622.395 566.023 622.201 565.473 621.812 565.028C621.434 564.583 620.875 564.205 620.136 563.892C619.407 563.58 618.512 563.295 617.452 563.04L614.284 562.244C611.831 561.648 609.895 560.715 608.474 559.446C607.054 558.177 606.348 556.468 606.358 554.318C606.348 552.557 606.817 551.018 607.764 549.702C608.721 548.385 610.032 547.358 611.699 546.619C613.366 545.881 615.259 545.511 617.381 545.511C619.54 545.511 621.424 545.881 623.034 546.619C624.653 547.358 625.913 548.385 626.812 549.702C627.712 551.018 628.176 552.543 628.205 554.276H622.31ZM638.847 575.412C637.455 575.412 636.215 575.17 635.126 574.688C634.037 574.195 633.175 573.471 632.54 572.514C631.915 571.548 631.603 570.346 631.603 568.906C631.603 567.694 631.826 566.676 632.271 565.852C632.716 565.028 633.322 564.366 634.089 563.864C634.856 563.362 635.727 562.983 636.702 562.727C637.687 562.472 638.719 562.292 639.799 562.188C641.068 562.055 642.091 561.932 642.867 561.818C643.644 561.695 644.207 561.515 644.558 561.278C644.908 561.042 645.083 560.691 645.083 560.227V560.142C645.083 559.242 644.799 558.546 644.231 558.054C643.672 557.562 642.877 557.315 641.844 557.315C640.755 557.315 639.889 557.557 639.245 558.04C638.601 558.513 638.175 559.11 637.967 559.83L632.37 559.375C632.654 558.049 633.213 556.903 634.046 555.938C634.879 554.962 635.954 554.214 637.271 553.693C638.596 553.163 640.13 552.898 641.873 552.898C643.085 552.898 644.245 553.04 645.353 553.324C646.47 553.608 647.46 554.048 648.322 554.645C649.193 555.241 649.879 556.009 650.381 556.946C650.883 557.874 651.134 558.987 651.134 560.284V575H645.396V571.974H645.225C644.875 572.656 644.406 573.258 643.819 573.778C643.232 574.29 642.526 574.692 641.702 574.986C640.879 575.27 639.927 575.412 638.847 575.412ZM640.58 571.236C641.47 571.236 642.256 571.061 642.938 570.71C643.62 570.35 644.155 569.867 644.543 569.261C644.932 568.655 645.126 567.969 645.126 567.202V564.886C644.936 565.009 644.676 565.123 644.344 565.227C644.022 565.322 643.658 565.412 643.251 565.497C642.844 565.573 642.436 565.644 642.029 565.71C641.622 565.767 641.253 565.819 640.921 565.866C640.211 565.971 639.591 566.136 639.06 566.364C638.53 566.591 638.118 566.899 637.825 567.287C637.531 567.666 637.384 568.139 637.384 568.707C637.384 569.531 637.683 570.161 638.279 570.597C638.885 571.023 639.652 571.236 640.58 571.236ZM638.038 550.497L634.671 550.455C634.671 548.646 635.116 547.259 636.006 546.293C636.906 545.327 638 544.839 639.288 544.83C639.951 544.83 640.519 544.938 640.992 545.156C641.475 545.365 641.906 545.611 642.285 545.895C642.673 546.179 643.042 546.43 643.393 546.648C643.743 546.856 644.122 546.96 644.529 546.96C645.078 546.951 645.495 546.747 645.779 546.349C646.073 545.942 646.219 545.412 646.219 544.759L649.529 544.858C649.51 546.648 649.056 548.03 648.165 549.006C647.275 549.972 646.191 550.459 644.913 550.469C644.202 550.469 643.606 550.365 643.123 550.156C642.649 549.938 642.233 549.692 641.873 549.418C641.513 549.134 641.163 548.883 640.822 548.665C640.481 548.447 640.097 548.338 639.671 548.338C639.179 548.338 638.781 548.532 638.478 548.92C638.184 549.309 638.038 549.834 638.038 550.497ZM665.687 575.426C663.48 575.426 661.572 574.957 659.962 574.02C658.362 573.073 657.126 571.757 656.255 570.071C655.384 568.376 654.948 566.411 654.948 564.176C654.948 561.922 655.384 559.953 656.255 558.267C657.126 556.572 658.362 555.256 659.962 554.318C661.572 553.371 663.48 552.898 665.687 552.898C667.893 552.898 669.797 553.371 671.397 554.318C673.007 555.256 674.247 556.572 675.119 558.267C675.99 559.953 676.425 561.922 676.425 564.176C676.425 566.411 675.99 568.376 675.119 570.071C674.247 571.757 673.007 573.073 671.397 574.02C669.797 574.957 667.893 575.426 665.687 575.426ZM665.715 570.739C666.719 570.739 667.557 570.455 668.229 569.886C668.902 569.309 669.408 568.523 669.749 567.528C670.1 566.534 670.275 565.402 670.275 564.134C670.275 562.865 670.1 561.733 669.749 560.739C669.408 559.744 668.902 558.958 668.229 558.381C667.557 557.803 666.719 557.514 665.715 557.514C664.702 557.514 663.85 557.803 663.158 558.381C662.477 558.958 661.96 559.744 661.61 560.739C661.269 561.733 661.099 562.865 661.099 564.134C661.099 565.402 661.269 566.534 661.61 567.528C661.96 568.523 662.477 569.309 663.158 569.886C663.85 570.455 664.702 570.739 665.715 570.739ZM689.732 575V545.909H701.209C703.415 545.909 705.295 546.33 706.848 547.173C708.401 548.007 709.585 549.167 710.399 550.653C711.223 552.131 711.635 553.835 711.635 555.767C711.635 557.699 711.218 559.403 710.385 560.881C709.552 562.358 708.344 563.509 706.763 564.332C705.191 565.156 703.287 565.568 701.053 565.568H693.737V560.639H700.058C701.242 560.639 702.217 560.436 702.984 560.028C703.761 559.612 704.339 559.039 704.717 558.31C705.106 557.571 705.3 556.723 705.3 555.767C705.3 554.801 705.106 553.958 704.717 553.239C704.339 552.509 703.761 551.946 702.984 551.548C702.208 551.141 701.223 550.938 700.03 550.938H695.882V575H689.732ZM721.152 575.412C719.76 575.412 718.519 575.17 717.43 574.688C716.341 574.195 715.48 573.471 714.845 572.514C714.22 571.548 713.908 570.346 713.908 568.906C713.908 567.694 714.13 566.676 714.575 565.852C715.02 565.028 715.626 564.366 716.393 563.864C717.161 563.362 718.032 562.983 719.007 562.727C719.992 562.472 721.024 562.292 722.104 562.188C723.373 562.055 724.395 561.932 725.172 561.818C725.948 561.695 726.512 561.515 726.862 561.278C727.213 561.042 727.388 560.691 727.388 560.227V560.142C727.388 559.242 727.104 558.546 726.536 558.054C725.977 557.562 725.181 557.315 724.149 557.315C723.06 557.315 722.194 557.557 721.55 558.04C720.906 558.513 720.48 559.11 720.271 559.83L714.675 559.375C714.959 558.049 715.518 556.903 716.351 555.938C717.184 554.962 718.259 554.214 719.575 553.693C720.901 553.163 722.435 552.898 724.178 552.898C725.39 552.898 726.55 553.04 727.658 553.324C728.775 553.608 729.765 554.048 730.626 554.645C731.498 555.241 732.184 556.009 732.686 556.946C733.188 557.874 733.439 558.987 733.439 560.284V575H727.7V571.974H727.53C727.179 572.656 726.711 573.258 726.124 573.778C725.536 574.29 724.831 574.692 724.007 574.986C723.183 575.27 722.232 575.412 721.152 575.412ZM722.885 571.236C723.775 571.236 724.561 571.061 725.243 570.71C725.925 570.35 726.46 569.867 726.848 569.261C727.236 568.655 727.43 567.969 727.43 567.202V564.886C727.241 565.009 726.981 565.123 726.649 565.227C726.327 565.322 725.963 565.412 725.555 565.497C725.148 565.573 724.741 565.644 724.334 565.71C723.927 565.767 723.557 565.819 723.226 565.866C722.516 565.971 721.895 566.136 721.365 566.364C720.835 566.591 720.423 566.899 720.129 567.287C719.836 567.666 719.689 568.139 719.689 568.707C719.689 569.531 719.987 570.161 720.584 570.597C721.19 571.023 721.957 571.236 722.885 571.236ZM752.125 565.71V553.182H758.176V575H752.366V571.037H752.139C751.647 572.315 750.828 573.343 749.682 574.119C748.545 574.896 747.158 575.284 745.52 575.284C744.062 575.284 742.778 574.953 741.67 574.29C740.563 573.627 739.696 572.685 739.071 571.463C738.455 570.241 738.143 568.778 738.134 567.074V553.182H744.185V565.994C744.194 567.282 744.54 568.3 745.222 569.048C745.903 569.796 746.817 570.17 747.963 570.17C748.692 570.17 749.374 570.005 750.009 569.673C750.643 569.332 751.154 568.83 751.543 568.168C751.94 567.505 752.134 566.686 752.125 565.71ZM769.067 545.909V575H763.016V545.909H769.067ZM783.773 575.426C781.566 575.426 779.658 574.957 778.048 574.02C776.448 573.073 775.212 571.757 774.341 570.071C773.47 568.376 773.034 566.411 773.034 564.176C773.034 561.922 773.47 559.953 774.341 558.267C775.212 556.572 776.448 555.256 778.048 554.318C779.658 553.371 781.566 552.898 783.773 552.898C785.979 552.898 787.883 553.371 789.483 554.318C791.093 555.256 792.333 556.572 793.205 558.267C794.076 559.953 794.511 561.922 794.511 564.176C794.511 566.411 794.076 568.376 793.205 570.071C792.333 571.757 791.093 573.073 789.483 574.02C787.883 574.957 785.979 575.426 783.773 575.426ZM783.801 570.739C784.805 570.739 785.643 570.455 786.315 569.886C786.988 569.309 787.494 568.523 787.835 567.528C788.186 566.534 788.361 565.402 788.361 564.134C788.361 562.865 788.186 561.733 787.835 560.739C787.494 559.744 786.988 558.958 786.315 558.381C785.643 557.803 784.805 557.514 783.801 557.514C782.788 557.514 781.936 557.803 781.244 558.381C780.563 558.958 780.046 559.744 779.696 560.739C779.355 561.733 779.185 562.865 779.185 564.134C779.185 565.402 779.355 566.534 779.696 567.528C780.046 568.523 780.563 569.309 781.244 569.886C781.936 570.455 782.788 570.739 783.801 570.739Z" fill="white"/>
<path d="M686.098 696.547H682.987C682.93 696.144 682.814 695.787 682.639 695.474C682.464 695.157 682.239 694.887 681.964 694.665C681.69 694.442 681.373 694.272 681.013 694.153C680.658 694.035 680.272 693.976 679.855 693.976C679.102 693.976 678.446 694.163 677.888 694.537C677.329 694.906 676.896 695.446 676.588 696.156C676.28 696.862 676.126 697.719 676.126 698.727C676.126 699.764 676.28 700.635 676.588 701.341C676.901 702.046 677.336 702.579 677.895 702.939C678.454 703.299 679.1 703.479 679.834 703.479C680.246 703.479 680.627 703.424 680.977 703.315C681.332 703.206 681.647 703.048 681.922 702.839C682.196 702.626 682.424 702.368 682.604 702.065C682.788 701.762 682.916 701.417 682.987 701.028L686.098 701.043C686.018 701.71 685.816 702.354 685.494 702.974C685.177 703.59 684.749 704.142 684.209 704.629C683.674 705.112 683.035 705.496 682.291 705.78C681.553 706.059 680.717 706.199 679.784 706.199C678.487 706.199 677.327 705.905 676.304 705.318C675.286 704.731 674.481 703.881 673.889 702.768C673.302 701.656 673.009 700.309 673.009 698.727C673.009 697.141 673.307 695.792 673.903 694.679C674.5 693.566 675.31 692.719 676.332 692.136C677.355 691.549 678.506 691.256 679.784 691.256C680.627 691.256 681.408 691.374 682.128 691.611C682.852 691.848 683.494 692.193 684.053 692.648C684.611 693.098 685.066 693.649 685.416 694.303C685.771 694.956 685.999 695.704 686.098 696.547ZM693.218 706.213C692.096 706.213 691.13 705.986 690.32 705.531C689.515 705.072 688.895 704.423 688.46 703.585C688.024 702.742 687.806 701.746 687.806 700.595C687.806 699.473 688.024 698.488 688.46 697.641C688.895 696.793 689.508 696.133 690.299 695.659C691.094 695.186 692.027 694.949 693.097 694.949C693.817 694.949 694.487 695.065 695.107 695.297C695.732 695.524 696.277 695.867 696.741 696.327C697.21 696.786 697.574 697.364 697.835 698.06C698.095 698.751 698.225 699.561 698.225 700.489V701.32H689.013V699.445H695.377C695.377 699.009 695.282 698.623 695.093 698.287C694.904 697.951 694.641 697.688 694.305 697.499C693.973 697.304 693.587 697.207 693.147 697.207C692.688 697.207 692.281 697.314 691.925 697.527C691.575 697.735 691.3 698.017 691.102 698.372C690.903 698.723 690.801 699.113 690.796 699.544V701.327C690.796 701.866 690.896 702.333 691.094 702.726C691.298 703.119 691.585 703.422 691.954 703.635C692.323 703.848 692.761 703.955 693.268 703.955C693.604 703.955 693.912 703.907 694.191 703.812C694.47 703.718 694.71 703.576 694.908 703.386C695.107 703.197 695.259 702.965 695.363 702.69L698.161 702.875C698.019 703.547 697.728 704.134 697.288 704.636C696.852 705.134 696.289 705.522 695.597 705.801C694.911 706.076 694.118 706.213 693.218 706.213ZM691.94 693.685L693.445 690.453H696.244L694.077 693.685H691.94ZM707.195 701.355V695.091H710.221V706H707.316V704.018H707.202C706.956 704.658 706.547 705.171 705.974 705.56C705.406 705.948 704.712 706.142 703.893 706.142C703.164 706.142 702.522 705.976 701.968 705.645C701.414 705.313 700.981 704.842 700.668 704.232C700.361 703.621 700.204 702.889 700.2 702.037V695.091H703.225V701.497C703.23 702.141 703.403 702.65 703.744 703.024C704.085 703.398 704.541 703.585 705.114 703.585C705.479 703.585 705.82 703.502 706.137 703.337C706.454 703.166 706.71 702.915 706.904 702.584C707.103 702.252 707.2 701.843 707.195 701.355ZM720.295 691.455V706H717.27V691.455H720.295ZM722.719 706V695.091H725.745V706H722.719ZM724.239 693.685C723.789 693.685 723.403 693.536 723.081 693.237C722.764 692.934 722.605 692.572 722.605 692.151C722.605 691.734 722.764 691.376 723.081 691.078C723.403 690.775 723.789 690.624 724.239 690.624C724.689 690.624 725.072 690.775 725.39 691.078C725.712 691.376 725.873 691.734 725.873 692.151C725.873 692.572 725.712 692.934 725.39 693.237C725.072 693.536 724.689 693.685 724.239 693.685ZM728.168 706V695.091H731.052V697.016H731.18C731.407 696.376 731.786 695.872 732.316 695.503C732.846 695.134 733.481 694.949 734.219 694.949C734.968 694.949 735.604 695.136 736.13 695.51C736.656 695.879 737.006 696.381 737.181 697.016H737.295C737.517 696.391 737.92 695.891 738.502 695.517C739.089 695.138 739.783 694.949 740.583 694.949C741.601 694.949 742.427 695.273 743.062 695.922C743.701 696.566 744.021 697.48 744.021 698.663V706H741.002V699.26C741.002 698.654 740.841 698.199 740.519 697.896C740.197 697.593 739.795 697.442 739.312 697.442C738.763 697.442 738.334 697.617 738.026 697.967C737.719 698.313 737.565 698.77 737.565 699.338V706H734.631V699.196C734.631 698.661 734.478 698.235 734.17 697.918C733.867 697.6 733.467 697.442 732.969 697.442C732.633 697.442 732.33 697.527 732.06 697.697C731.795 697.863 731.585 698.098 731.428 698.401C731.272 698.699 731.194 699.049 731.194 699.452V706H728.168ZM746.411 710.091V695.091H749.393V696.923H749.528C749.661 696.63 749.853 696.331 750.104 696.028C750.359 695.721 750.691 695.465 751.098 695.261C751.51 695.053 752.021 694.949 752.632 694.949C753.428 694.949 754.161 695.157 754.834 695.574C755.506 695.986 756.044 696.608 756.446 697.442C756.848 698.27 757.05 699.31 757.05 700.56C757.05 701.777 756.853 702.804 756.46 703.642C756.072 704.475 755.542 705.107 754.869 705.538C754.202 705.964 753.454 706.178 752.625 706.178C752.038 706.178 751.538 706.08 751.126 705.886C750.719 705.692 750.385 705.448 750.125 705.155C749.865 704.857 749.666 704.556 749.528 704.253H749.436V710.091H746.411ZM749.372 700.545C749.372 701.194 749.462 701.76 749.642 702.243C749.822 702.726 750.082 703.102 750.423 703.372C750.764 703.637 751.179 703.77 751.666 703.77C752.159 703.77 752.575 703.635 752.916 703.365C753.257 703.09 753.515 702.712 753.69 702.229C753.87 701.741 753.96 701.18 753.96 700.545C753.96 699.916 753.873 699.362 753.697 698.884C753.522 698.405 753.264 698.031 752.923 697.761C752.582 697.491 752.163 697.357 751.666 697.357C751.174 697.357 750.757 697.487 750.416 697.747C750.08 698.008 749.822 698.377 749.642 698.855C749.462 699.333 749.372 699.897 749.372 700.545ZM763.996 706.213C762.893 706.213 761.938 705.979 761.134 705.51C760.333 705.036 759.715 704.378 759.28 703.536C758.844 702.688 758.626 701.705 758.626 700.588C758.626 699.461 758.844 698.476 759.28 697.634C759.715 696.786 760.333 696.128 761.134 695.659C761.938 695.186 762.893 694.949 763.996 694.949C765.099 694.949 766.051 695.186 766.851 695.659C767.656 696.128 768.276 696.786 768.712 697.634C769.147 698.476 769.365 699.461 769.365 700.588C769.365 701.705 769.147 702.688 768.712 703.536C768.276 704.378 767.656 705.036 766.851 705.51C766.051 705.979 765.099 706.213 763.996 706.213ZM764.01 703.869C764.512 703.869 764.931 703.727 765.267 703.443C765.603 703.154 765.857 702.761 766.027 702.264C766.202 701.767 766.29 701.201 766.29 700.567C766.29 699.932 766.202 699.366 766.027 698.869C765.857 698.372 765.603 697.979 765.267 697.69C764.931 697.402 764.512 697.257 764.01 697.257C763.503 697.257 763.077 697.402 762.732 697.69C762.391 697.979 762.133 698.372 761.957 698.869C761.787 699.366 761.702 699.932 761.702 700.567C761.702 701.201 761.787 701.767 761.957 702.264C762.133 702.761 762.391 703.154 762.732 703.443C763.077 703.727 763.503 703.869 764.01 703.869Z" fill="#FFC107"/>
<path d="M764.415 864V861.341L770.628 855.588C771.156 855.077 771.599 854.616 771.957 854.207C772.321 853.798 772.597 853.398 772.784 853.006C772.972 852.608 773.065 852.179 773.065 851.719C773.065 851.207 772.949 850.767 772.716 850.398C772.483 850.023 772.165 849.736 771.761 849.537C771.358 849.332 770.901 849.23 770.389 849.23C769.855 849.23 769.389 849.338 768.991 849.554C768.594 849.77 768.287 850.08 768.071 850.483C767.855 850.886 767.747 851.366 767.747 851.923H764.244C764.244 850.781 764.503 849.79 765.02 848.949C765.537 848.108 766.261 847.457 767.193 846.997C768.125 846.537 769.199 846.307 770.415 846.307C771.665 846.307 772.753 846.528 773.679 846.972C774.611 847.409 775.335 848.017 775.852 848.795C776.369 849.574 776.628 850.466 776.628 851.472C776.628 852.131 776.497 852.781 776.236 853.423C775.98 854.065 775.523 854.778 774.864 855.562C774.205 856.341 773.276 857.276 772.077 858.366L769.528 860.864V860.983H776.858V864H764.415ZM780.222 864L787.458 849.682V849.562H779.029V846.545H791.276V849.605L784.032 864H780.222ZM799.582 851.761V850.858C799.582 850.045 799.752 849.327 800.093 848.702C800.434 848.071 800.917 847.577 801.542 847.219C802.173 846.861 802.911 846.682 803.758 846.682C805.053 846.682 806.073 847.074 806.817 847.858C807.567 848.642 807.942 849.642 807.942 850.858V851.761C807.942 852.568 807.775 853.284 807.44 853.909C807.104 854.528 806.627 855.017 806.008 855.375C805.388 855.727 804.65 855.903 803.792 855.903C802.491 855.903 801.462 855.517 800.707 854.744C799.957 853.966 799.582 852.972 799.582 851.761ZM801.687 850.858V851.761C801.687 852.46 801.863 853.04 802.215 853.5C802.567 853.955 803.093 854.182 803.792 854.182C804.479 854.182 804.991 853.955 805.326 853.5C805.667 853.04 805.837 852.46 805.837 851.761V850.858C805.837 850.176 805.667 849.599 805.326 849.128C804.985 848.656 804.462 848.42 803.758 848.42C803.076 848.42 802.559 848.656 802.207 849.128C801.86 849.599 801.687 850.176 801.687 850.858ZM826.488 852.656H822.755C822.687 852.173 822.548 851.744 822.337 851.369C822.127 850.989 821.857 850.665 821.528 850.398C821.198 850.131 820.817 849.926 820.386 849.784C819.96 849.642 819.496 849.571 818.996 849.571C818.093 849.571 817.306 849.795 816.636 850.244C815.965 850.687 815.445 851.335 815.076 852.188C814.707 853.034 814.522 854.062 814.522 855.273C814.522 856.517 814.707 857.562 815.076 858.409C815.451 859.256 815.974 859.895 816.644 860.327C817.315 860.759 818.09 860.974 818.971 860.974C819.465 860.974 819.923 860.909 820.343 860.778C820.769 860.648 821.147 860.457 821.477 860.207C821.806 859.952 822.079 859.642 822.295 859.278C822.516 858.915 822.67 858.5 822.755 858.034L826.488 858.051C826.391 858.852 826.15 859.625 825.763 860.369C825.383 861.108 824.869 861.77 824.221 862.355C823.579 862.935 822.812 863.395 821.92 863.736C821.033 864.071 820.031 864.239 818.911 864.239C817.354 864.239 815.962 863.886 814.735 863.182C813.513 862.477 812.548 861.457 811.837 860.122C811.133 858.787 810.781 857.17 810.781 855.273C810.781 853.369 811.138 851.75 811.854 850.415C812.57 849.08 813.542 848.062 814.769 847.364C815.996 846.659 817.377 846.307 818.911 846.307C819.923 846.307 820.86 846.449 821.724 846.733C822.593 847.017 823.363 847.432 824.033 847.977C824.704 848.517 825.249 849.179 825.67 849.963C826.096 850.747 826.369 851.645 826.488 852.656Z" fill="#FFC107"/>
<path d="M780.822 822.545H783.287L785.891 828.898H786.001L788.605 822.545H791.07V832H789.131V825.846H789.053L786.606 831.954H785.286L782.839 825.823H782.761V832H780.822V822.545ZM794.347 832H792.205L795.469 822.545H798.045L801.304 832H799.162L796.794 824.706H796.72L794.347 832ZM794.213 828.284H799.273V829.844H794.213V828.284ZM804.316 822.545L806.223 825.768H806.297L808.212 822.545H810.47L807.585 827.273L810.535 832H808.236L806.297 828.773H806.223L804.284 832H801.994L804.953 827.273L802.049 822.545H804.316Z" fill="white"/>
<path d="M614.415 864V861.341L620.628 855.588C621.156 855.077 621.599 854.616 621.957 854.207C622.321 853.798 622.597 853.398 622.784 853.006C622.972 852.608 623.065 852.179 623.065 851.719C623.065 851.207 622.949 850.767 622.716 850.398C622.483 850.023 622.165 849.736 621.761 849.537C621.358 849.332 620.901 849.23 620.389 849.23C619.855 849.23 619.389 849.338 618.991 849.554C618.594 849.77 618.287 850.08 618.071 850.483C617.855 850.886 617.747 851.366 617.747 851.923H614.244C614.244 850.781 614.503 849.79 615.02 848.949C615.537 848.108 616.261 847.457 617.193 846.997C618.125 846.537 619.199 846.307 620.415 846.307C621.665 846.307 622.753 846.528 623.679 846.972C624.611 847.409 625.335 848.017 625.852 848.795C626.369 849.574 626.628 850.466 626.628 851.472C626.628 852.131 626.497 852.781 626.236 853.423C625.98 854.065 625.523 854.778 624.864 855.562C624.205 856.341 623.276 857.276 622.077 858.366L619.528 860.864V860.983H626.858V864H614.415ZM628.893 860.932V858.026L636.18 846.545H638.685V850.568H637.202L632.609 857.838V857.974H642.964V860.932H628.893ZM637.271 864V860.045L637.339 858.759V846.545H640.799V864H637.271ZM651.199 851.761V850.858C651.199 850.045 651.369 849.327 651.71 848.702C652.051 848.071 652.534 847.577 653.159 847.219C653.79 846.861 654.528 846.682 655.375 846.682C656.67 846.682 657.69 847.074 658.435 847.858C659.185 848.642 659.56 849.642 659.56 850.858V851.761C659.56 852.568 659.392 853.284 659.057 853.909C658.722 854.528 658.244 855.017 657.625 855.375C657.006 855.727 656.267 855.903 655.409 855.903C654.108 855.903 653.08 855.517 652.324 854.744C651.574 853.966 651.199 852.972 651.199 851.761ZM653.304 850.858V851.761C653.304 852.46 653.48 853.04 653.832 853.5C654.185 853.955 654.71 854.182 655.409 854.182C656.097 854.182 656.608 853.955 656.943 853.5C657.284 853.04 657.455 852.46 657.455 851.761V850.858C657.455 850.176 657.284 849.599 656.943 849.128C656.602 848.656 656.08 848.42 655.375 848.42C654.693 848.42 654.176 848.656 653.824 849.128C653.477 849.599 653.304 850.176 653.304 850.858ZM678.105 852.656H674.372C674.304 852.173 674.165 851.744 673.955 851.369C673.744 850.989 673.474 850.665 673.145 850.398C672.815 850.131 672.435 849.926 672.003 849.784C671.577 849.642 671.114 849.571 670.614 849.571C669.71 849.571 668.923 849.795 668.253 850.244C667.582 850.687 667.063 851.335 666.693 852.188C666.324 853.034 666.139 854.062 666.139 855.273C666.139 856.517 666.324 857.562 666.693 858.409C667.068 859.256 667.591 859.895 668.261 860.327C668.932 860.759 669.707 860.974 670.588 860.974C671.082 860.974 671.54 860.909 671.96 860.778C672.386 860.648 672.764 860.457 673.094 860.207C673.423 859.952 673.696 859.642 673.912 859.278C674.134 858.915 674.287 858.5 674.372 858.034L678.105 858.051C678.009 858.852 677.767 859.625 677.381 860.369C677 861.108 676.486 861.77 675.838 862.355C675.196 862.935 674.429 863.395 673.537 863.736C672.651 864.071 671.648 864.239 670.528 864.239C668.972 864.239 667.58 863.886 666.352 863.182C665.131 862.477 664.165 861.457 663.455 860.122C662.75 858.787 662.398 857.17 662.398 855.273C662.398 853.369 662.756 851.75 663.472 850.415C664.188 849.08 665.159 848.062 666.386 847.364C667.614 846.659 668.994 846.307 670.528 846.307C671.54 846.307 672.477 846.449 673.341 846.733C674.21 847.017 674.98 847.432 675.651 847.977C676.321 848.517 676.866 849.179 677.287 849.963C677.713 850.747 677.986 851.645 678.105 852.656Z" fill="#FFC107"/>
<path d="M639.822 825.545H642.287L644.891 831.898H645.001L647.605 825.545H650.07V835H648.131V828.846H648.053L645.606 834.954H644.286L641.839 828.823H641.761V835H639.822V825.545ZM653.716 825.545V835H651.717V825.545H653.716ZM663.269 825.545V835H661.542L657.429 829.049H657.36V835H655.361V825.545H657.115L661.196 831.491H661.279V825.545H663.269Z" fill="white"/>
<path d="M670.358 795V790.568L680.713 780.98C681.594 780.128 682.332 779.361 682.929 778.679C683.535 777.997 683.994 777.33 684.307 776.676C684.619 776.013 684.776 775.298 684.776 774.531C684.776 773.679 684.581 772.945 684.193 772.33C683.805 771.705 683.275 771.226 682.602 770.895C681.93 770.554 681.168 770.384 680.315 770.384C679.425 770.384 678.649 770.563 677.986 770.923C677.323 771.283 676.812 771.799 676.452 772.472C676.092 773.144 675.912 773.944 675.912 774.872H670.074C670.074 772.969 670.505 771.316 671.366 769.915C672.228 768.513 673.436 767.429 674.989 766.662C676.542 765.895 678.331 765.511 680.358 765.511C682.441 765.511 684.255 765.881 685.798 766.619C687.351 767.348 688.559 768.362 689.42 769.659C690.282 770.956 690.713 772.443 690.713 774.119C690.713 775.218 690.495 776.302 690.06 777.372C689.634 778.442 688.871 779.631 687.773 780.938C686.674 782.235 685.126 783.793 683.128 785.611L678.881 789.773V789.972H691.097V795H670.358ZM706.718 795.398C705.222 795.388 703.778 795.137 702.386 794.645C701.003 794.152 699.763 793.352 698.664 792.244C697.566 791.136 696.694 789.669 696.05 787.841C695.416 786.013 695.099 783.769 695.099 781.108C695.108 778.665 695.388 776.482 695.937 774.56C696.496 772.628 697.291 770.99 698.323 769.645C699.365 768.3 700.61 767.277 702.059 766.577C703.508 765.866 705.132 765.511 706.931 765.511C708.872 765.511 710.586 765.89 712.073 766.648C713.56 767.396 714.753 768.414 715.653 769.702C716.562 770.99 717.111 772.434 717.3 774.034H711.235C710.998 773.021 710.501 772.225 709.744 771.648C708.986 771.07 708.049 770.781 706.931 770.781C705.037 770.781 703.598 771.605 702.613 773.253C701.638 774.901 701.14 777.14 701.121 779.972H701.32C701.756 779.11 702.343 778.376 703.082 777.77C703.83 777.154 704.677 776.686 705.624 776.364C706.581 776.032 707.589 775.866 708.65 775.866C710.373 775.866 711.907 776.274 713.252 777.088C714.597 777.893 715.657 779.001 716.434 780.412C717.21 781.823 717.599 783.437 717.599 785.256C717.599 787.225 717.139 788.977 716.221 790.511C715.312 792.045 714.038 793.248 712.4 794.119C710.771 794.981 708.877 795.407 706.718 795.398ZM706.69 790.568C707.637 790.568 708.484 790.341 709.232 789.886C709.98 789.432 710.567 788.816 710.994 788.04C711.42 787.263 711.633 786.392 711.633 785.426C711.633 784.46 711.42 783.594 710.994 782.827C710.577 782.06 709.999 781.449 709.261 780.994C708.522 780.54 707.679 780.312 706.732 780.312C706.022 780.312 705.364 780.445 704.758 780.71C704.161 780.975 703.636 781.345 703.181 781.818C702.736 782.292 702.386 782.841 702.13 783.466C701.874 784.081 701.746 784.74 701.746 785.44C701.746 786.378 701.96 787.235 702.386 788.011C702.821 788.788 703.408 789.408 704.147 789.872C704.895 790.336 705.743 790.568 706.69 790.568ZM731.587 774.602V773.097C731.587 771.742 731.871 770.545 732.439 769.503C733.007 768.452 733.812 767.628 734.854 767.031C735.905 766.435 737.136 766.136 738.547 766.136C740.706 766.136 742.406 766.79 743.646 768.097C744.896 769.403 745.521 771.07 745.521 773.097V774.602C745.521 775.947 745.242 777.14 744.683 778.182C744.125 779.214 743.329 780.028 742.297 780.625C741.265 781.212 740.034 781.506 738.604 781.506C736.435 781.506 734.721 780.862 733.462 779.574C732.212 778.277 731.587 776.619 731.587 774.602ZM735.095 773.097V774.602C735.095 775.767 735.389 776.733 735.976 777.5C736.563 778.258 737.439 778.636 738.604 778.636C739.75 778.636 740.602 778.258 741.161 777.5C741.729 776.733 742.013 775.767 742.013 774.602V773.097C742.013 771.96 741.729 770.999 741.161 770.213C740.592 769.427 739.721 769.034 738.547 769.034C737.411 769.034 736.549 769.427 735.962 770.213C735.384 770.999 735.095 771.96 735.095 773.097ZM776.43 776.094H770.209C770.095 775.289 769.863 774.574 769.513 773.949C769.162 773.314 768.713 772.775 768.163 772.33C767.614 771.884 766.98 771.544 766.26 771.307C765.55 771.07 764.778 770.952 763.945 770.952C762.439 770.952 761.127 771.326 760.01 772.074C758.893 772.812 758.026 773.892 757.411 775.312C756.795 776.723 756.487 778.437 756.487 780.455C756.487 782.528 756.795 784.271 757.411 785.682C758.036 787.093 758.907 788.158 760.024 788.878C761.142 789.598 762.434 789.957 763.902 789.957C764.726 789.957 765.488 789.848 766.189 789.631C766.899 789.413 767.529 789.096 768.078 788.679C768.627 788.253 769.082 787.737 769.442 787.131C769.811 786.525 770.067 785.833 770.209 785.057L776.43 785.085C776.269 786.42 775.867 787.708 775.223 788.949C774.589 790.18 773.732 791.283 772.652 792.259C771.582 793.224 770.304 793.991 768.817 794.56C767.339 795.118 765.668 795.398 763.803 795.398C761.208 795.398 758.888 794.811 756.842 793.636C754.806 792.462 753.196 790.762 752.013 788.537C750.839 786.312 750.251 783.617 750.251 780.455C750.251 777.282 750.848 774.583 752.041 772.358C753.234 770.133 754.854 768.437 756.899 767.273C758.945 766.098 761.246 765.511 763.803 765.511C765.488 765.511 767.051 765.748 768.49 766.222C769.939 766.695 771.222 767.386 772.339 768.295C773.457 769.195 774.366 770.298 775.067 771.605C775.777 772.912 776.232 774.408 776.43 776.094Z" fill="#FFC107"/>
<path d="M698.451 753H696.309L699.573 743.545H702.149L705.408 753H703.266L700.898 745.706H700.824L698.451 753ZM698.317 749.284H703.377V750.844H698.317V749.284ZM712.371 746.602C712.307 746.377 712.216 746.178 712.099 746.006C711.982 745.831 711.839 745.683 711.669 745.563C711.503 745.44 711.312 745.346 711.097 745.281C710.885 745.217 710.649 745.184 710.391 745.184C709.908 745.184 709.483 745.304 709.117 745.544C708.753 745.784 708.47 746.134 708.267 746.592C708.064 747.048 707.962 747.605 707.962 748.263C707.962 748.922 708.062 749.482 708.263 749.944C708.463 750.406 708.746 750.758 709.112 751.001C709.478 751.241 709.911 751.361 710.409 751.361C710.862 751.361 711.248 751.281 711.568 751.121C711.891 750.958 712.137 750.729 712.307 750.433C712.479 750.138 712.565 749.788 712.565 749.385L712.971 749.445H710.534V747.94H714.49V749.131C714.49 749.962 714.315 750.676 713.964 751.273C713.613 751.867 713.13 752.326 712.514 752.649C711.899 752.969 711.194 753.129 710.4 753.129C709.514 753.129 708.735 752.934 708.064 752.543C707.393 752.149 706.87 751.59 706.494 750.867C706.122 750.141 705.936 749.279 705.936 748.282C705.936 747.516 706.047 746.832 706.268 746.232C706.493 745.629 706.807 745.118 707.21 744.7C707.613 744.281 708.082 743.962 708.618 743.744C709.153 743.525 709.734 743.416 710.358 743.416C710.894 743.416 711.392 743.495 711.854 743.652C712.316 743.806 712.725 744.024 713.082 744.307C713.442 744.59 713.736 744.927 713.964 745.318C714.192 745.706 714.338 746.134 714.402 746.602H712.371ZM724.68 748.273C724.68 749.304 724.484 750.181 724.094 750.904C723.706 751.627 723.176 752.18 722.506 752.561C721.838 752.94 721.087 753.129 720.253 753.129C719.412 753.129 718.658 752.938 717.991 752.557C717.323 752.175 716.795 751.623 716.407 750.9C716.019 750.176 715.825 749.301 715.825 748.273C715.825 747.242 716.019 746.365 716.407 745.641C716.795 744.918 717.323 744.367 717.991 743.989C718.658 743.607 719.412 743.416 720.253 743.416C721.087 743.416 721.838 743.607 722.506 743.989C723.176 744.367 723.706 744.918 724.094 745.641C724.484 746.365 724.68 747.242 724.68 748.273ZM722.653 748.273C722.653 747.605 722.553 747.042 722.353 746.583C722.156 746.125 721.878 745.777 721.518 745.54C721.157 745.303 720.736 745.184 720.253 745.184C719.769 745.184 719.348 745.303 718.988 745.54C718.628 745.777 718.348 746.125 718.148 746.583C717.951 747.042 717.852 747.605 717.852 748.273C717.852 748.941 717.951 749.504 718.148 749.962C718.348 750.421 718.628 750.769 718.988 751.006C719.348 751.243 719.769 751.361 720.253 751.361C720.736 751.361 721.157 751.243 721.518 751.006C721.878 750.769 722.156 750.421 722.353 749.962C722.553 749.504 722.653 748.941 722.653 748.273ZM726.161 753V743.545H729.891C730.605 743.545 731.214 743.673 731.719 743.929C732.227 744.181 732.613 744.54 732.878 745.004C733.145 745.466 733.279 746.009 733.279 746.634C733.279 747.262 733.144 747.802 732.873 748.254C732.602 748.704 732.21 749.048 731.696 749.288C731.185 749.528 730.566 749.648 729.84 749.648H727.342V748.042H729.517C729.898 748.042 730.215 747.99 730.468 747.885C730.72 747.78 730.908 747.623 731.031 747.414C731.157 747.205 731.22 746.945 731.22 746.634C731.22 746.32 731.157 746.055 731.031 745.84C730.908 745.624 730.719 745.461 730.463 745.35C730.211 745.237 729.892 745.18 729.508 745.18H728.16V753H726.161ZM731.266 748.697L733.616 753H731.41L729.111 748.697H731.266ZM736.321 753H734.179L737.443 743.545H740.019L743.278 753H741.136L738.768 745.706H738.694L736.321 753ZM736.188 749.284H741.247V750.844H736.188V749.284Z" fill="white"/>
<path d="M412.155 410.638C412.098 410.065 411.854 409.62 411.423 409.303C410.992 408.985 410.408 408.827 409.669 408.827C409.167 408.827 408.743 408.898 408.398 409.04C408.052 409.177 407.787 409.369 407.602 409.615C407.422 409.861 407.332 410.141 407.332 410.453C407.323 410.714 407.377 410.941 407.496 411.135C407.619 411.329 407.787 411.497 408 411.639C408.213 411.777 408.459 411.897 408.739 412.001C409.018 412.101 409.316 412.186 409.634 412.257L410.94 412.57C411.575 412.712 412.157 412.901 412.688 413.138C413.218 413.375 413.677 413.666 414.065 414.011C414.454 414.357 414.754 414.764 414.967 415.233C415.185 415.702 415.296 416.239 415.301 416.845C415.296 417.735 415.069 418.507 414.619 419.161C414.174 419.809 413.53 420.313 412.688 420.673C411.849 421.028 410.839 421.206 409.655 421.206C408.481 421.206 407.458 421.026 406.587 420.666C405.72 420.306 405.043 419.774 404.555 419.068C404.072 418.358 403.819 417.48 403.795 416.433H406.771C406.804 416.921 406.944 417.328 407.19 417.655C407.441 417.977 407.775 418.221 408.192 418.386C408.613 418.547 409.089 418.628 409.619 418.628C410.14 418.628 410.592 418.552 410.976 418.401C411.364 418.249 411.665 418.038 411.878 417.768C412.091 417.499 412.197 417.188 412.197 416.838C412.197 416.511 412.1 416.237 411.906 416.014C411.717 415.792 411.438 415.602 411.068 415.446C410.704 415.29 410.256 415.148 409.726 415.02L408.142 414.622C406.916 414.324 405.947 413.857 405.237 413.223C404.527 412.589 404.174 411.734 404.179 410.659C404.174 409.778 404.409 409.009 404.882 408.351C405.36 407.693 406.016 407.179 406.849 406.81C407.683 406.44 408.63 406.256 409.69 406.256C410.77 406.256 411.712 406.44 412.517 406.81C413.327 407.179 413.956 407.693 414.406 408.351C414.856 409.009 415.088 409.771 415.102 410.638H412.155ZM420.424 421.206C419.728 421.206 419.107 421.085 418.563 420.844C418.018 420.598 417.587 420.235 417.27 419.757C416.958 419.274 416.801 418.673 416.801 417.953C416.801 417.347 416.913 416.838 417.135 416.426C417.358 416.014 417.661 415.683 418.044 415.432C418.428 415.181 418.864 414.991 419.351 414.864C419.844 414.736 420.36 414.646 420.9 414.594C421.534 414.527 422.045 414.466 422.434 414.409C422.822 414.348 423.104 414.258 423.279 414.139C423.454 414.021 423.542 413.846 423.542 413.614V413.571C423.542 413.121 423.4 412.773 423.115 412.527C422.836 412.281 422.438 412.158 421.922 412.158C421.378 412.158 420.944 412.278 420.623 412.52C420.301 412.757 420.087 413.055 419.983 413.415L417.185 413.188C417.327 412.525 417.606 411.952 418.023 411.469C418.44 410.981 418.977 410.607 419.635 410.347C420.298 410.081 421.065 409.949 421.936 409.949C422.542 409.949 423.123 410.02 423.676 410.162C424.235 410.304 424.73 410.524 425.161 410.822C425.596 411.121 425.94 411.504 426.191 411.973C426.442 412.437 426.567 412.993 426.567 413.642V421H423.698V419.487H423.613C423.437 419.828 423.203 420.129 422.909 420.389C422.616 420.645 422.263 420.846 421.851 420.993C421.439 421.135 420.963 421.206 420.424 421.206ZM421.29 419.118C421.735 419.118 422.128 419.03 422.469 418.855C422.81 418.675 423.078 418.434 423.272 418.131C423.466 417.828 423.563 417.484 423.563 417.101V415.943C423.468 416.005 423.338 416.062 423.172 416.114C423.011 416.161 422.829 416.206 422.625 416.249C422.422 416.286 422.218 416.322 422.015 416.355C421.811 416.384 421.626 416.41 421.461 416.433C421.105 416.485 420.795 416.568 420.53 416.682C420.265 416.795 420.059 416.949 419.912 417.143C419.766 417.333 419.692 417.57 419.692 417.854C419.692 418.266 419.841 418.58 420.14 418.798C420.443 419.011 420.826 419.118 421.29 419.118ZM420.019 408.749L418.336 408.727C418.336 407.823 418.558 407.129 419.003 406.646C419.453 406.163 420 405.92 420.644 405.915C420.975 405.915 421.259 405.969 421.496 406.078C421.738 406.182 421.953 406.305 422.142 406.447C422.337 406.589 422.521 406.715 422.696 406.824C422.872 406.928 423.061 406.98 423.265 406.98C423.539 406.975 423.748 406.874 423.89 406.675C424.036 406.471 424.11 406.206 424.11 405.879L425.765 405.929C425.755 406.824 425.528 407.515 425.083 408.003C424.638 408.486 424.096 408.73 423.456 408.734C423.101 408.734 422.803 408.682 422.561 408.578C422.325 408.469 422.116 408.346 421.936 408.209C421.757 408.067 421.581 407.941 421.411 407.832C421.24 407.723 421.049 407.669 420.836 407.669C420.589 407.669 420.391 407.766 420.239 407.96C420.092 408.154 420.019 408.417 420.019 408.749ZM433.843 421.213C432.74 421.213 431.786 420.979 430.981 420.51C430.181 420.036 429.563 419.378 429.127 418.536C428.692 417.688 428.474 416.705 428.474 415.588C428.474 414.461 428.692 413.476 429.127 412.634C429.563 411.786 430.181 411.128 430.981 410.659C431.786 410.186 432.74 409.949 433.843 409.949C434.947 409.949 435.898 410.186 436.699 410.659C437.503 411.128 438.124 411.786 438.559 412.634C438.995 413.476 439.213 414.461 439.213 415.588C439.213 416.705 438.995 417.688 438.559 418.536C438.124 419.378 437.503 420.036 436.699 420.51C435.898 420.979 434.947 421.213 433.843 421.213ZM433.858 418.869C434.359 418.869 434.779 418.727 435.115 418.443C435.451 418.154 435.704 417.761 435.875 417.264C436.05 416.767 436.137 416.201 436.137 415.567C436.137 414.932 436.05 414.366 435.875 413.869C435.704 413.372 435.451 412.979 435.115 412.69C434.779 412.402 434.359 412.257 433.858 412.257C433.351 412.257 432.925 412.402 432.579 412.69C432.238 412.979 431.98 413.372 431.805 413.869C431.635 414.366 431.549 414.932 431.549 415.567C431.549 416.201 431.635 416.767 431.805 417.264C431.98 417.761 432.238 418.154 432.579 418.443C432.925 418.727 433.351 418.869 433.858 418.869ZM445.866 421V406.455H451.604C452.708 406.455 453.647 406.665 454.424 407.087C455.201 407.503 455.792 408.083 456.2 408.827C456.612 409.565 456.817 410.418 456.817 411.384C456.817 412.349 456.609 413.202 456.192 413.94C455.776 414.679 455.172 415.254 454.381 415.666C453.595 416.078 452.644 416.284 451.526 416.284H447.869V413.82H451.029C451.621 413.82 452.109 413.718 452.492 413.514C452.88 413.306 453.169 413.019 453.359 412.655C453.553 412.286 453.65 411.862 453.65 411.384C453.65 410.901 453.553 410.479 453.359 410.119C453.169 409.755 452.88 409.473 452.492 409.274C452.104 409.071 451.612 408.969 451.015 408.969H448.941V421H445.866ZM461.576 421.206C460.88 421.206 460.26 421.085 459.715 420.844C459.171 420.598 458.74 420.235 458.423 419.757C458.11 419.274 457.954 418.673 457.954 417.953C457.954 417.347 458.065 416.838 458.288 416.426C458.51 416.014 458.813 415.683 459.197 415.432C459.58 415.181 460.016 414.991 460.504 414.864C460.996 414.736 461.512 414.646 462.052 414.594C462.686 414.527 463.198 414.466 463.586 414.409C463.974 414.348 464.256 414.258 464.431 414.139C464.606 414.021 464.694 413.846 464.694 413.614V413.571C464.694 413.121 464.552 412.773 464.268 412.527C463.988 412.281 463.591 412.158 463.075 412.158C462.53 412.158 462.097 412.278 461.775 412.52C461.453 412.757 461.24 413.055 461.136 413.415L458.337 413.188C458.479 412.525 458.759 411.952 459.175 411.469C459.592 410.981 460.129 410.607 460.788 410.347C461.451 410.081 462.218 409.949 463.089 409.949C463.695 409.949 464.275 410.02 464.829 410.162C465.388 410.304 465.882 410.524 466.313 410.822C466.749 411.121 467.092 411.504 467.343 411.973C467.594 412.437 467.719 412.993 467.719 413.642V421H464.85V419.487H464.765C464.59 419.828 464.355 420.129 464.062 420.389C463.768 420.645 463.415 420.846 463.004 420.993C462.592 421.135 462.116 421.206 461.576 421.206ZM462.442 419.118C462.888 419.118 463.281 419.03 463.621 418.855C463.962 418.675 464.23 418.434 464.424 418.131C464.618 417.828 464.715 417.484 464.715 417.101V415.943C464.621 416.005 464.49 416.062 464.325 416.114C464.164 416.161 463.981 416.206 463.778 416.249C463.574 416.286 463.371 416.322 463.167 416.355C462.963 416.384 462.779 416.41 462.613 416.433C462.258 416.485 461.948 416.568 461.683 416.682C461.417 416.795 461.211 416.949 461.065 417.143C460.918 417.333 460.844 417.57 460.844 417.854C460.844 418.266 460.994 418.58 461.292 418.798C461.595 419.011 461.978 419.118 462.442 419.118ZM477.062 416.355V410.091H480.088V421H477.183V419.018H477.07C476.823 419.658 476.414 420.171 475.841 420.56C475.273 420.948 474.579 421.142 473.76 421.142C473.031 421.142 472.389 420.976 471.835 420.645C471.281 420.313 470.848 419.842 470.536 419.232C470.228 418.621 470.071 417.889 470.067 417.037V410.091H473.092V416.497C473.097 417.141 473.27 417.65 473.611 418.024C473.952 418.398 474.409 418.585 474.982 418.585C475.346 418.585 475.687 418.502 476.004 418.337C476.321 418.166 476.577 417.915 476.771 417.584C476.97 417.252 477.067 416.843 477.062 416.355ZM485.534 406.455V421H482.508V406.455H485.534ZM492.886 421.213C491.783 421.213 490.829 420.979 490.024 420.51C489.224 420.036 488.606 419.378 488.17 418.536C487.735 417.688 487.517 416.705 487.517 415.588C487.517 414.461 487.735 413.476 488.17 412.634C488.606 411.786 489.224 411.128 490.024 410.659C490.829 410.186 491.783 409.949 492.886 409.949C493.99 409.949 494.941 410.186 495.741 410.659C496.546 411.128 497.167 411.786 497.602 412.634C498.038 413.476 498.256 414.461 498.256 415.588C498.256 416.705 498.038 417.688 497.602 418.536C497.167 419.378 496.546 420.036 495.741 420.51C494.941 420.979 493.99 421.213 492.886 421.213ZM492.901 418.869C493.402 418.869 493.821 418.727 494.158 418.443C494.494 418.154 494.747 417.761 494.918 417.264C495.093 416.767 495.18 416.201 495.18 415.567C495.18 414.932 495.093 414.366 494.918 413.869C494.747 413.372 494.494 412.979 494.158 412.69C493.821 412.402 493.402 412.257 492.901 412.257C492.394 412.257 491.968 412.402 491.622 412.69C491.281 412.979 491.023 413.372 490.848 413.869C490.678 414.366 490.592 414.932 490.592 415.567C490.592 416.201 490.678 416.767 490.848 417.264C491.023 417.761 491.281 418.154 491.622 418.443C491.968 418.727 492.394 418.869 492.901 418.869Z" fill="white" fill-opacity="0.62"/>
<line x1="386" y1="493.5" x2="1053.01" y2="493.5" stroke="#FFC107" stroke-width="3"/>
<g clip-path="url(#clip0_1_2)">
<path d="M822 578C830.284 578 837 571.284 837 563C837 554.716 830.284 548 822 548C813.716 548 807 554.716 807 563C807 571.284 813.716 578 822 578Z" fill="#00C85F"/>
<path d="M821.426 554.087L808.68 562.585C808.373 562.79 808.373 563.241 808.68 563.446L821.426 571.943C821.774 572.175 822.226 572.175 822.574 571.943L835.32 563.446C835.627 563.241 835.627 562.79 835.32 562.585L822.574 554.087C822.226 553.856 821.774 553.856 821.426 554.087Z" fill="#FFF046"/>
<path d="M822 569.207C825.428 569.207 828.207 566.428 828.207 563C828.207 559.572 825.428 556.793 822 556.793C818.572 556.793 815.793 559.572 815.793 563C815.793 566.428 818.572 569.207 822 569.207Z" fill="#4B82E1"/>
<path d="M816.698 559.785C816.495 560.119 816.323 560.474 816.185 560.846C819.068 560.65 823.695 561.163 827.757 565.311C827.902 564.951 828.015 564.575 828.091 564.185C824.115 560.372 819.699 559.687 816.698 559.785Z" fill="white"/>
</g>
<g clip-path="url(#clip1_1_2)">
<path d="M757 604H683V678H757V604Z" fill="#000D81"/>
<path fill-rule="evenodd" clip-rule="evenodd" d="M707.667 641C707.667 634.189 713.188 628.667 720 628.667C726.811 628.667 732.333 634.189 732.333 641C732.333 647.811 726.811 653.333 720 653.333C713.188 653.333 707.667 647.811 707.667 641Z" fill="#FFC107"/>
<path fill-rule="evenodd" clip-rule="evenodd" d="M720 610.167C721.703 610.167 723.083 611.547 723.083 613.25V619.417C723.083 621.12 721.703 622.5 720 622.5C718.297 622.5 716.917 621.12 716.917 619.417V613.25C716.917 611.547 718.297 610.167 720 610.167Z" fill="#FFC107"/>
<path fill-rule="evenodd" clip-rule="evenodd" d="M743.764 617.236C744.968 618.441 744.968 620.393 743.764 621.597L737.597 627.764C736.393 628.968 734.44 628.968 733.236 627.764C732.032 626.559 732.032 624.607 733.236 623.403L739.403 617.236C740.607 616.032 742.56 616.032 743.764 617.236Z" fill="#FFC107"/>
<path fill-rule="evenodd" clip-rule="evenodd" d="M738.5 641C738.5 639.297 739.88 637.917 741.583 637.917H747.75C749.453 637.917 750.833 639.297 750.833 641C750.833 642.703 749.453 644.083 747.75 644.083H741.583C739.88 644.083 738.5 642.703 738.5 641Z" fill="#FFC107"/>
<path fill-rule="evenodd" clip-rule="evenodd" d="M733.236 654.236C734.44 653.032 736.393 653.032 737.597 654.236L743.764 660.403C744.968 661.607 744.968 663.56 743.764 664.764C742.56 665.968 740.607 665.968 739.403 664.764L733.236 658.597C732.032 657.393 732.032 655.441 733.236 654.236Z" fill="#FFC107"/>
<path fill-rule="evenodd" clip-rule="evenodd" d="M720 659.5C721.703 659.5 723.083 660.88 723.083 662.583V668.75C723.083 670.453 721.703 671.833 720 671.833C718.297 671.833 716.917 670.453 716.917 668.75V662.583C716.917 660.88 718.297 659.5 720 659.5Z" fill="#FFC107"/>
<path fill-rule="evenodd" clip-rule="evenodd" d="M706.764 654.236C707.968 655.441 707.968 657.393 706.764 658.597L700.597 664.764C699.393 665.968 697.441 665.968 696.236 664.764C695.032 663.56 695.032 661.607 696.236 660.403L702.403 654.236C703.607 653.032 705.559 653.032 706.764 654.236Z" fill="#FFC107"/>
<path fill-rule="evenodd" clip-rule="evenodd" d="M689.167 641C689.167 639.297 690.547 637.917 692.25 637.917H698.417C700.12 637.917 701.5 639.297 701.5 641C701.5 642.703 700.12 644.083 698.417 644.083H692.25C690.547 644.083 689.167 642.703 689.167 641Z" fill="#FFC107"/>
<path fill-rule="evenodd" clip-rule="evenodd" d="M696.236 617.236C697.441 616.032 699.393 616.032 700.597 617.236L706.764 623.403C707.968 624.607 707.968 626.559 706.764 627.764C705.559 628.968 703.607 628.968 702.403 627.764L696.236 621.597C695.032 620.393 695.032 618.441 696.236 617.236Z" fill="#FFC107"/>
</g>
<path d="M716.006 910.364V922H713.545V912.699H713.477L710.812 914.369V912.188L713.693 910.364H716.006ZM723.334 922.256C722.357 922.252 721.516 922.011 720.811 921.534C720.11 921.057 719.571 920.366 719.192 919.46C718.817 918.555 718.631 917.466 718.635 916.193C718.635 914.924 718.822 913.843 719.197 912.949C719.576 912.055 720.116 911.375 720.817 910.909C721.521 910.439 722.36 910.205 723.334 910.205C724.307 910.205 725.144 910.439 725.845 910.909C726.55 911.379 727.091 912.061 727.47 912.955C727.849 913.845 728.036 914.924 728.033 916.193C728.033 917.47 727.843 918.561 727.464 919.466C727.089 920.371 726.552 921.062 725.851 921.54C725.15 922.017 724.311 922.256 723.334 922.256ZM723.334 920.216C724 920.216 724.533 919.881 724.93 919.21C725.328 918.54 725.525 917.534 725.521 916.193C725.521 915.311 725.43 914.576 725.249 913.989C725.071 913.402 724.817 912.96 724.487 912.665C724.161 912.369 723.777 912.222 723.334 912.222C722.671 912.222 722.141 912.553 721.743 913.216C721.345 913.879 721.144 914.871 721.141 916.193C721.141 917.087 721.23 917.833 721.408 918.432C721.589 919.027 721.845 919.473 722.175 919.773C722.504 920.068 722.891 920.216 723.334 920.216Z" fill="white"/>
<path d="M736.156 919.818V919.205C736.156 918.739 736.255 918.311 736.452 917.92C736.652 917.527 736.942 917.212 737.321 916.977C737.704 916.739 738.17 916.619 738.719 916.619C739.276 916.619 739.743 916.737 740.122 916.972C740.505 917.206 740.793 917.521 740.986 917.915C741.183 918.305 741.281 918.735 741.281 919.205V919.818C741.281 920.284 741.183 920.714 740.986 921.108C740.789 921.498 740.499 921.811 740.116 922.045C739.734 922.284 739.268 922.403 738.719 922.403C738.162 922.403 737.694 922.284 737.315 922.045C736.937 921.811 736.649 921.498 736.452 921.108C736.255 920.714 736.156 920.284 736.156 919.818ZM737.81 919.205V919.818C737.81 920.087 737.874 920.341 738.003 920.58C738.135 920.818 738.374 920.938 738.719 920.938C739.063 920.938 739.298 920.82 739.423 920.585C739.552 920.35 739.616 920.095 739.616 919.818V919.205C739.616 918.928 739.556 918.67 739.435 918.432C739.313 918.193 739.075 918.074 738.719 918.074C738.378 918.074 738.141 918.193 738.009 918.432C737.876 918.67 737.81 918.928 737.81 919.205ZM730.185 913.159V912.545C730.185 912.076 730.285 911.646 730.486 911.256C730.687 910.862 730.976 910.547 731.355 910.312C731.738 910.078 732.2 909.96 732.741 909.96C733.302 909.96 733.772 910.078 734.151 910.312C734.529 910.547 734.817 910.862 735.014 911.256C735.211 911.646 735.31 912.076 735.31 912.545V913.159C735.31 913.629 735.209 914.059 735.009 914.449C734.812 914.839 734.522 915.152 734.139 915.386C733.76 915.617 733.295 915.733 732.741 915.733C732.188 915.733 731.721 915.616 731.338 915.381C730.959 915.142 730.671 914.83 730.474 914.443C730.281 914.053 730.185 913.625 730.185 913.159ZM731.849 912.545V913.159C731.849 913.436 731.914 913.691 732.043 913.926C732.175 914.161 732.408 914.278 732.741 914.278C733.09 914.278 733.327 914.161 733.452 913.926C733.58 913.691 733.645 913.436 733.645 913.159V912.545C733.645 912.269 733.584 912.011 733.463 911.773C733.342 911.534 733.101 911.415 732.741 911.415C732.404 911.415 732.171 911.536 732.043 911.778C731.914 912.021 731.849 912.277 731.849 912.545ZM730.935 922L738.935 910.364H740.423L732.423 922H730.935Z" fill="#FFC107"/>
<g clip-path="url(#clip2_1_2)">
<path d="M694.992 912.7L699.5 908.193L704.008 912.7C704.899 913.592 705.507 914.728 705.753 915.965C705.998 917.201 705.872 918.483 705.39 919.648C704.907 920.813 704.09 921.808 703.042 922.509C701.993 923.209 700.761 923.583 699.5 923.583C698.239 923.583 697.007 923.209 695.958 922.509C694.91 921.808 694.093 920.813 693.61 919.648C693.128 918.483 693.002 917.201 693.247 915.965C693.493 914.728 694.101 913.592 694.992 912.7Z" fill="#FFC107"/>
</g>
<path d="M558.098 347.547H554.987C554.93 347.144 554.814 346.787 554.639 346.474C554.464 346.157 554.239 345.887 553.964 345.665C553.69 345.442 553.373 345.272 553.013 345.153C552.658 345.035 552.272 344.976 551.855 344.976C551.102 344.976 550.446 345.163 549.888 345.537C549.329 345.906 548.896 346.446 548.588 347.156C548.28 347.862 548.126 348.719 548.126 349.727C548.126 350.764 548.28 351.635 548.588 352.341C548.901 353.046 549.336 353.579 549.895 353.939C550.454 354.299 551.1 354.479 551.834 354.479C552.246 354.479 552.627 354.424 552.977 354.315C553.332 354.206 553.647 354.048 553.922 353.839C554.196 353.626 554.424 353.368 554.604 353.065C554.788 352.762 554.916 352.417 554.987 352.028L558.098 352.043C558.018 352.71 557.816 353.354 557.494 353.974C557.177 354.59 556.749 355.142 556.209 355.629C555.674 356.112 555.035 356.496 554.291 356.78C553.553 357.059 552.717 357.199 551.784 357.199C550.487 357.199 549.327 356.905 548.304 356.318C547.286 355.731 546.481 354.881 545.889 353.768C545.302 352.656 545.009 351.309 545.009 349.727C545.009 348.141 545.307 346.792 545.903 345.679C546.5 344.566 547.31 343.719 548.332 343.136C549.355 342.549 550.506 342.256 551.784 342.256C552.627 342.256 553.408 342.374 554.128 342.611C554.852 342.848 555.494 343.193 556.053 343.648C556.611 344.098 557.066 344.649 557.416 345.303C557.771 345.956 557.999 346.704 558.098 347.547ZM573.67 349.727C573.67 351.313 573.369 352.663 572.768 353.776C572.171 354.888 571.357 355.738 570.325 356.325C569.297 356.908 568.142 357.199 566.859 357.199C565.566 357.199 564.406 356.905 563.379 356.318C562.351 355.731 561.539 354.881 560.942 353.768C560.346 352.656 560.048 351.309 560.048 349.727C560.048 348.141 560.346 346.792 560.942 345.679C561.539 344.566 562.351 343.719 563.379 343.136C564.406 342.549 565.566 342.256 566.859 342.256C568.142 342.256 569.297 342.549 570.325 343.136C571.357 343.719 572.171 344.566 572.768 345.679C573.369 346.792 573.67 348.141 573.67 349.727ZM570.552 349.727C570.552 348.7 570.398 347.833 570.09 347.128C569.787 346.422 569.359 345.887 568.805 345.523C568.251 345.158 567.602 344.976 566.859 344.976C566.115 344.976 565.467 345.158 564.913 345.523C564.359 345.887 563.928 346.422 563.62 347.128C563.317 347.833 563.165 348.7 563.165 349.727C563.165 350.755 563.317 351.621 563.62 352.327C563.928 353.032 564.359 353.567 564.913 353.932C565.467 354.296 566.115 354.479 566.859 354.479C567.602 354.479 568.251 354.296 568.805 353.932C569.359 353.567 569.787 353.032 570.09 352.327C570.398 351.621 570.552 350.755 570.552 349.727ZM588.114 342.455V357H585.458L579.13 347.845H579.023V357H575.948V342.455H578.647L584.925 351.602H585.053V342.455H588.114ZM590.655 357V342.455H600.286V344.99H593.73V348.456H599.646V350.991H593.73V357H590.655ZM605.429 342.455V357H602.354V342.455H605.429ZM607.96 357V342.455H613.698C614.797 342.455 615.734 342.651 616.511 343.044C617.292 343.432 617.886 343.984 618.293 344.699C618.705 345.409 618.911 346.245 618.911 347.206C618.911 348.172 618.703 349.003 618.286 349.699C617.87 350.39 617.266 350.92 616.475 351.29C615.689 351.659 614.737 351.844 613.62 351.844H609.778V349.372H613.123C613.71 349.372 614.198 349.292 614.586 349.131C614.974 348.97 615.263 348.728 615.452 348.406C615.647 348.084 615.744 347.684 615.744 347.206C615.744 346.723 615.647 346.316 615.452 345.984C615.263 345.653 614.972 345.402 614.579 345.232C614.191 345.056 613.701 344.969 613.109 344.969H611.035V357H607.96ZM615.815 350.381L619.43 357H616.035L612.498 350.381H615.815ZM623.592 357H620.296L625.317 342.455H629.281L634.295 357H630.999L627.356 345.778H627.242L623.592 357ZM623.386 351.283H631.17V353.683H623.386V351.283ZM654.041 349.727C654.041 351.313 653.74 352.663 653.139 353.776C652.542 354.888 651.728 355.738 650.696 356.325C649.668 356.908 648.513 357.199 647.23 357.199C645.937 357.199 644.777 356.905 643.75 356.318C642.722 355.731 641.91 354.881 641.314 353.768C640.717 352.656 640.419 351.309 640.419 349.727C640.419 348.141 640.717 346.792 641.314 345.679C641.91 344.566 642.722 343.719 643.75 343.136C644.777 342.549 645.937 342.256 647.23 342.256C648.513 342.256 649.668 342.549 650.696 343.136C651.728 343.719 652.542 344.566 653.139 345.679C653.74 346.792 654.041 348.141 654.041 349.727ZM650.923 349.727C650.923 348.7 650.769 347.833 650.461 347.128C650.158 346.422 649.73 345.887 649.176 345.523C648.622 345.158 647.973 344.976 647.23 344.976C646.486 344.976 645.838 345.158 645.284 345.523C644.73 345.887 644.299 346.422 643.991 347.128C643.688 347.833 643.537 348.7 643.537 349.727C643.537 350.755 643.688 351.621 643.991 352.327C644.299 353.032 644.73 353.567 645.284 353.932C645.838 354.296 646.486 354.479 647.23 354.479C647.973 354.479 648.622 354.296 649.176 353.932C649.73 353.567 650.158 353.032 650.461 352.327C650.769 351.621 650.923 350.755 650.923 349.727ZM673.782 347.547H670.671C670.614 347.144 670.498 346.787 670.323 346.474C670.148 346.157 669.923 345.887 669.648 345.665C669.373 345.442 669.056 345.272 668.696 345.153C668.341 345.035 667.955 344.976 667.539 344.976C666.786 344.976 666.13 345.163 665.571 345.537C665.013 345.906 664.579 346.446 664.272 347.156C663.964 347.862 663.81 348.719 663.81 349.727C663.81 350.764 663.964 351.635 664.272 352.341C664.584 353.046 665.02 353.579 665.578 353.939C666.137 354.299 666.783 354.479 667.517 354.479C667.929 354.479 668.31 354.424 668.661 354.315C669.016 354.206 669.331 354.048 669.605 353.839C669.88 353.626 670.107 353.368 670.287 353.065C670.472 352.762 670.6 352.417 670.671 352.028L673.782 352.043C673.701 352.71 673.5 353.354 673.178 353.974C672.861 354.59 672.432 355.142 671.892 355.629C671.357 356.112 670.718 356.496 669.975 356.78C669.236 357.059 668.4 357.199 667.468 357.199C666.17 357.199 665.01 356.905 663.988 356.318C662.97 355.731 662.165 354.881 661.573 353.768C660.986 352.656 660.692 351.309 660.692 349.727C660.692 348.141 660.99 346.792 661.587 345.679C662.184 344.566 662.993 343.719 664.016 343.136C665.039 342.549 666.189 342.256 667.468 342.256C668.31 342.256 669.092 342.374 669.811 342.611C670.536 342.848 671.177 343.193 671.736 343.648C672.295 344.098 672.749 344.649 673.1 345.303C673.455 345.956 673.682 346.704 673.782 347.547ZM675.987 357V342.455H679.062V354.464H685.298V357H675.987ZM690.41 342.455V357H687.335V342.455H690.41ZM692.94 342.455H696.733L700.738 352.227H700.909L704.914 342.455H708.707V357H705.724V347.533H705.603L701.839 356.929H699.808L696.044 347.497H695.923V357H692.94V342.455ZM713.748 357H710.452L715.474 342.455H719.437L724.451 357H721.156L717.512 345.778H717.398L713.748 357ZM713.542 351.283H721.326V353.683H713.542V351.283ZM735.987 357H730.831V342.455H736.029C737.493 342.455 738.752 342.746 739.808 343.328C740.864 343.906 741.676 344.737 742.244 345.821C742.817 346.905 743.103 348.203 743.103 349.713C743.103 351.228 742.817 352.53 742.244 353.619C741.676 354.708 740.859 355.544 739.794 356.126C738.733 356.709 737.464 357 735.987 357ZM733.906 354.365H735.859C736.768 354.365 737.533 354.204 738.153 353.882C738.778 353.555 739.247 353.051 739.559 352.369C739.877 351.683 740.035 350.797 740.035 349.713C740.035 348.638 739.877 347.76 739.559 347.078C739.247 346.396 738.78 345.894 738.16 345.572C737.54 345.25 736.775 345.089 735.866 345.089H733.906V354.365ZM745.381 357V342.455H755.183V344.99H748.457V348.456H754.678V350.991H748.457V354.464H755.211V357H745.381ZM771.241 342.455H774.316V351.901C774.316 352.961 774.063 353.889 773.556 354.685C773.054 355.48 772.351 356.1 771.447 356.545C770.542 356.986 769.489 357.206 768.286 357.206C767.079 357.206 766.023 356.986 765.119 356.545C764.214 356.1 763.511 355.48 763.009 354.685C762.507 353.889 762.256 352.961 762.256 351.901V342.455H765.332V351.638C765.332 352.192 765.452 352.684 765.694 353.115C765.94 353.546 766.286 353.884 766.731 354.131C767.176 354.377 767.694 354.5 768.286 354.5C768.883 354.5 769.401 354.377 769.842 354.131C770.287 353.884 770.63 353.546 770.871 353.115C771.118 352.684 771.241 352.192 771.241 351.638V342.455ZM776.846 342.455H780.639L784.645 352.227H784.815L788.821 342.455H792.613V357H789.63V347.533H789.51L785.745 356.929H783.714L779.95 347.497H779.829V357H776.846V342.455ZM797.654 357H794.359L799.38 342.455H803.343L808.357 357H805.062L801.418 345.778H801.305L797.654 357ZM797.448 351.283H805.232V353.683H797.448V351.283ZM827.571 347.547H824.46C824.403 347.144 824.287 346.787 824.112 346.474C823.937 346.157 823.712 345.887 823.437 345.665C823.163 345.442 822.845 345.272 822.485 345.153C822.13 345.035 821.744 344.976 821.328 344.976C820.575 344.976 819.919 345.163 819.36 345.537C818.802 345.906 818.368 346.446 818.061 347.156C817.753 347.862 817.599 348.719 817.599 349.727C817.599 350.764 817.753 351.635 818.061 352.341C818.373 353.046 818.809 353.579 819.368 353.939C819.926 354.299 820.573 354.479 821.306 354.479C821.718 354.479 822.1 354.424 822.45 354.315C822.805 354.206 823.12 354.048 823.395 353.839C823.669 353.626 823.896 353.368 824.076 353.065C824.261 352.762 824.389 352.417 824.46 352.028L827.571 352.043C827.49 352.71 827.289 353.354 826.967 353.974C826.65 354.59 826.221 355.142 825.681 355.629C825.146 356.112 824.507 356.496 823.764 356.78C823.025 357.059 822.19 357.199 821.257 357.199C819.959 357.199 818.799 356.905 817.777 356.318C816.759 355.731 815.954 354.881 815.362 353.768C814.775 352.656 814.481 351.309 814.481 349.727C814.481 348.141 814.779 346.792 815.376 345.679C815.973 344.566 816.782 343.719 817.805 343.136C818.828 342.549 819.978 342.256 821.257 342.256C822.1 342.256 822.881 342.374 823.6 342.611C824.325 342.848 824.967 343.193 825.525 343.648C826.084 344.098 826.538 344.649 826.889 345.303C827.244 345.956 827.471 346.704 827.571 347.547ZM832.851 342.455V357H829.776V342.455H832.851ZM840.538 357H835.381V342.455H840.58C842.043 342.455 843.303 342.746 844.359 343.328C845.415 343.906 846.227 344.737 846.795 345.821C847.368 346.905 847.654 348.203 847.654 349.713C847.654 351.228 847.368 352.53 846.795 353.619C846.227 354.708 845.41 355.544 844.344 356.126C843.284 356.709 842.015 357 840.538 357ZM838.457 354.365H840.41C841.319 354.365 842.084 354.204 842.704 353.882C843.329 353.555 843.798 353.051 844.11 352.369C844.427 351.683 844.586 350.797 844.586 349.713C844.586 348.638 844.427 347.76 844.11 347.078C843.798 346.396 843.331 345.894 842.711 345.572C842.091 345.25 841.326 345.089 840.417 345.089H838.457V354.365ZM851.619 357H848.324L853.345 342.455H857.308L862.322 357H859.027L855.383 345.778H855.27L851.619 357ZM851.413 351.283H859.197V353.683H851.413V351.283ZM869.229 357H864.073V342.455H869.272C870.735 342.455 871.994 342.746 873.05 343.328C874.106 343.906 874.918 344.737 875.486 345.821C876.059 346.905 876.346 348.203 876.346 349.713C876.346 351.228 876.059 352.53 875.486 353.619C874.918 354.708 874.101 355.544 873.036 356.126C871.975 356.709 870.706 357 869.229 357ZM867.148 354.365H869.101C870.01 354.365 870.775 354.204 871.395 353.882C872.02 353.555 872.489 353.051 872.801 352.369C873.119 351.683 873.277 350.797 873.277 349.713C873.277 348.638 873.119 347.76 872.801 347.078C872.489 346.396 872.023 345.894 871.402 345.572C870.782 345.25 870.017 345.089 869.108 345.089H867.148V354.365ZM878.624 357V342.455H888.425V344.99H881.699V348.456H887.92V350.991H881.699V354.464H888.453V357H878.624ZM892.581 355.31C892.113 355.31 891.71 355.144 891.374 354.812C891.042 354.481 890.877 354.079 890.877 353.605C890.877 353.141 891.042 352.743 891.374 352.412C891.71 352.08 892.113 351.915 892.581 351.915C893.036 351.915 893.434 352.08 893.775 352.412C894.115 352.743 894.286 353.141 894.286 353.605C894.286 353.918 894.205 354.204 894.044 354.464C893.888 354.72 893.682 354.926 893.426 355.082C893.171 355.234 892.889 355.31 892.581 355.31ZM892.581 348.172C892.113 348.172 891.71 348.006 891.374 347.675C891.042 347.343 890.877 346.941 890.877 346.467C890.877 346.003 891.042 345.608 891.374 345.281C891.71 344.95 892.113 344.784 892.581 344.784C893.036 344.784 893.434 344.95 893.775 345.281C894.115 345.608 894.286 346.003 894.286 346.467C894.286 346.785 894.205 347.073 894.044 347.334C893.888 347.589 893.682 347.793 893.426 347.945C893.171 348.096 892.889 348.172 892.581 348.172Z" fill="white"/>
<rect x="387.506" y="389.5" width="664" height="50" rx="25" stroke="white" stroke-width="3"/>
<path d="M558.098 347.547H554.987C554.93 347.144 554.814 346.787 554.639 346.474C554.464 346.157 554.239 345.887 553.964 345.665C553.69 345.442 553.373 345.272 553.013 345.153C552.658 345.035 552.272 344.976 551.855 344.976C551.102 344.976 550.446 345.163 549.888 345.537C549.329 345.906 548.896 346.446 548.588 347.156C548.28 347.862 548.126 348.719 548.126 349.727C548.126 350.764 548.28 351.635 548.588 352.341C548.901 353.046 549.336 353.579 549.895 353.939C550.454 354.299 551.1 354.479 551.834 354.479C552.246 354.479 552.627 354.424 552.977 354.315C553.332 354.206 553.647 354.048 553.922 353.839C554.196 353.626 554.424 353.368 554.604 353.065C554.788 352.762 554.916 352.417 554.987 352.028L558.098 352.043C558.018 352.71 557.816 353.354 557.494 353.974C557.177 354.59 556.749 355.142 556.209 355.629C555.674 356.112 555.035 356.496 554.291 356.78C553.553 357.059 552.717 357.199 551.784 357.199C550.487 357.199 549.327 356.905 548.304 356.318C547.286 355.731 546.481 354.881 545.889 353.768C545.302 352.656 545.009 351.309 545.009 349.727C545.009 348.141 545.307 346.792 545.903 345.679C546.5 344.566 547.31 343.719 548.332 343.136C549.355 342.549 550.506 342.256 551.784 342.256C552.627 342.256 553.408 342.374 554.128 342.611C554.852 342.848 555.494 343.193 556.053 343.648C556.611 344.098 557.066 344.649 557.416 345.303C557.771 345.956 557.999 346.704 558.098 347.547ZM573.67 349.727C573.67 351.313 573.369 352.663 572.768 353.776C572.171 354.888 571.357 355.738 570.325 356.325C569.297 356.908 568.142 357.199 566.859 357.199C565.566 357.199 564.406 356.905 563.379 356.318C562.351 355.731 561.539 354.881 560.942 353.768C560.346 352.656 560.048 351.309 560.048 349.727C560.048 348.141 560.346 346.792 560.942 345.679C561.539 344.566 562.351 343.719 563.379 343.136C564.406 342.549 565.566 342.256 566.859 342.256C568.142 342.256 569.297 342.549 570.325 343.136C571.357 343.719 572.171 344.566 572.768 345.679C573.369 346.792 573.67 348.141 573.67 349.727ZM570.552 349.727C570.552 348.7 570.398 347.833 570.09 347.128C569.787 346.422 569.359 345.887 568.805 345.523C568.251 345.158 567.602 344.976 566.859 344.976C566.115 344.976 565.467 345.158 564.913 345.523C564.359 345.887 563.928 346.422 563.62 347.128C563.317 347.833 563.165 348.7 563.165 349.727C563.165 350.755 563.317 351.621 563.62 352.327C563.928 353.032 564.359 353.567 564.913 353.932C565.467 354.296 566.115 354.479 566.859 354.479C567.602 354.479 568.251 354.296 568.805 353.932C569.359 353.567 569.787 353.032 570.09 352.327C570.398 351.621 570.552 350.755 570.552 349.727ZM588.114 342.455V357H585.458L579.13 347.845H579.023V357H575.948V342.455H578.647L584.925 351.602H585.053V342.455H588.114ZM590.655 357V342.455H600.286V344.99H593.73V348.456H599.646V350.991H593.73V357H590.655ZM605.429 342.455V357H602.354V342.455H605.429ZM607.96 357V342.455H613.698C614.797 342.455 615.734 342.651 616.511 343.044C617.292 343.432 617.886 343.984 618.293 344.699C618.705 345.409 618.911 346.245 618.911 347.206C618.911 348.172 618.703 349.003 618.286 349.699C617.87 350.39 617.266 350.92 616.475 351.29C615.689 351.659 614.737 351.844 613.62 351.844H609.778V349.372H613.123C613.71 349.372 614.198 349.292 614.586 349.131C614.974 348.97 615.263 348.728 615.452 348.406C615.647 348.084 615.744 347.684 615.744 347.206C615.744 346.723 615.647 346.316 615.452 345.984C615.263 345.653 614.972 345.402 614.579 345.232C614.191 345.056 613.701 344.969 613.109 344.969H611.035V357H607.96ZM615.815 350.381L619.43 357H616.035L612.498 350.381H615.815ZM623.592 357H620.296L625.317 342.455H629.281L634.295 357H630.999L627.356 345.778H627.242L623.592 357ZM623.386 351.283H631.17V353.683H623.386V351.283ZM654.041 349.727C654.041 351.313 653.74 352.663 653.139 353.776C652.542 354.888 651.728 355.738 650.696 356.325C649.668 356.908 648.513 357.199 647.23 357.199C645.937 357.199 644.777 356.905 643.75 356.318C642.722 355.731 641.91 354.881 641.314 353.768C640.717 352.656 640.419 351.309 640.419 349.727C640.419 348.141 640.717 346.792 641.314 345.679C641.91 344.566 642.722 343.719 643.75 343.136C644.777 342.549 645.937 342.256 647.23 342.256C648.513 342.256 649.668 342.549 650.696 343.136C651.728 343.719 652.542 344.566 653.139 345.679C653.74 346.792 654.041 348.141 654.041 349.727ZM650.923 349.727C650.923 348.7 650.769 347.833 650.461 347.128C650.158 346.422 649.73 345.887 649.176 345.523C648.622 345.158 647.973 344.976 647.23 344.976C646.486 344.976 645.838 345.158 645.284 345.523C644.73 345.887 644.299 346.422 643.991 347.128C643.688 347.833 643.537 348.7 643.537 349.727C643.537 350.755 643.688 351.621 643.991 352.327C644.299 353.032 644.73 353.567 645.284 353.932C645.838 354.296 646.486 354.479 647.23 354.479C647.973 354.479 648.622 354.296 649.176 353.932C649.73 353.567 650.158 353.032 650.461 352.327C650.769 351.621 650.923 350.755 650.923 349.727ZM673.782 347.547H670.671C670.614 347.144 670.498 346.787 670.323 346.474C670.148 346.157 669.923 345.887 669.648 345.665C669.373 345.442 669.056 345.272 668.696 345.153C668.341 345.035 667.955 344.976 667.539 344.976C666.786 344.976 666.13 345.163 665.571 345.537C665.013 345.906 664.579 346.446 664.272 347.156C663.964 347.862 663.81 348.719 663.81 349.727C663.81 350.764 663.964 351.635 664.272 352.341C664.584 353.046 665.02 353.579 665.578 353.939C666.137 354.299 666.783 354.479 667.517 354.479C667.929 354.479 668.31 354.424 668.661 354.315C669.016 354.206 669.331 354.048 669.605 353.839C669.88 353.626 670.107 353.368 670.287 353.065C670.472 352.762 670.6 352.417 670.671 352.028L673.782 352.043C673.701 352.71 673.5 353.354 673.178 353.974C672.861 354.59 672.432 355.142 671.892 355.629C671.357 356.112 670.718 356.496 669.975 356.78C669.236 357.059 668.4 357.199 667.468 357.199C666.17 357.199 665.01 356.905 663.988 356.318C662.97 355.731 662.165 354.881 661.573 353.768C660.986 352.656 660.692 351.309 660.692 349.727C660.692 348.141 660.99 346.792 661.587 345.679C662.184 344.566 662.993 343.719 664.016 343.136C665.039 342.549 666.189 342.256 667.468 342.256C668.31 342.256 669.092 342.374 669.811 342.611C670.536 342.848 671.177 343.193 671.736 343.648C672.295 344.098 672.749 344.649 673.1 345.303C673.455 345.956 673.682 346.704 673.782 347.547ZM675.987 357V342.455H679.062V354.464H685.298V357H675.987ZM690.41 342.455V357H687.335V342.455H690.41ZM692.94 342.455H696.733L700.738 352.227H700.909L704.914 342.455H708.707V357H705.724V347.533H705.603L701.839 356.929H699.808L696.044 347.497H695.923V357H692.94V342.455ZM713.748 357H710.452L715.474 342.455H719.437L724.451 357H721.156L717.512 345.778H717.398L713.748 357ZM713.542 351.283H721.326V353.683H713.542V351.283ZM735.987 357H730.831V342.455H736.029C737.493 342.455 738.752 342.746 739.808 343.328C740.864 343.906 741.676 344.737 742.244 345.821C742.817 346.905 743.103 348.203 743.103 349.713C743.103 351.228 742.817 352.53 742.244 353.619C741.676 354.708 740.859 355.544 739.794 356.126C738.733 356.709 737.464 357 735.987 357ZM733.906 354.365H735.859C736.768 354.365 737.533 354.204 738.153 353.882C738.778 353.555 739.247 353.051 739.559 352.369C739.877 351.683 740.035 350.797 740.035 349.713C740.035 348.638 739.877 347.76 739.559 347.078C739.247 346.396 738.78 345.894 738.16 345.572C737.54 345.25 736.775 345.089 735.866 345.089H733.906V354.365ZM745.381 357V342.455H755.183V344.99H748.457V348.456H754.678V350.991H748.457V354.464H755.211V357H745.381ZM771.241 342.455H774.316V351.901C774.316 352.961 774.063 353.889 773.556 354.685C773.054 355.48 772.351 356.1 771.447 356.545C770.542 356.986 769.489 357.206 768.286 357.206C767.079 357.206 766.023 356.986 765.119 356.545C764.214 356.1 763.511 355.48 763.009 354.685C762.507 353.889 762.256 352.961 762.256 351.901V342.455H765.332V351.638C765.332 352.192 765.452 352.684 765.694 353.115C765.94 353.546 766.286 353.884 766.731 354.131C767.176 354.377 767.694 354.5 768.286 354.5C768.883 354.5 769.401 354.377 769.842 354.131C770.287 353.884 770.63 353.546 770.871 353.115C771.118 352.684 771.241 352.192 771.241 351.638V342.455ZM776.846 342.455H780.639L784.645 352.227H784.815L788.821 342.455H792.613V357H789.63V347.533H789.51L785.745 356.929H783.714L779.95 347.497H779.829V357H776.846V342.455ZM797.654 357H794.359L799.38 342.455H803.343L808.357 357H805.062L801.418 345.778H801.305L797.654 357ZM797.448 351.283H805.232V353.683H797.448V351.283ZM827.571 347.547H824.46C824.403 347.144 824.287 346.787 824.112 346.474C823.937 346.157 823.712 345.887 823.437 345.665C823.163 345.442 822.845 345.272 822.485 345.153C822.13 345.035 821.744 344.976 821.328 344.976C820.575 344.976 819.919 345.163 819.36 345.537C818.802 345.906 818.368 346.446 818.061 347.156C817.753 347.862 817.599 348.719 817.599 349.727C817.599 350.764 817.753 351.635 818.061 352.341C818.373 353.046 818.809 353.579 819.368 353.939C819.926 354.299 820.573 354.479 821.306 354.479C821.718 354.479 822.1 354.424 822.45 354.315C822.805 354.206 823.12 354.048 823.395 353.839C823.669 353.626 823.896 353.368 824.076 353.065C824.261 352.762 824.389 352.417 824.46 352.028L827.571 352.043C827.49 352.71 827.289 353.354 826.967 353.974C826.65 354.59 826.221 355.142 825.681 355.629C825.146 356.112 824.507 356.496 823.764 356.78C823.025 357.059 822.19 357.199 821.257 357.199C819.959 357.199 818.799 356.905 817.777 356.318C816.759 355.731 815.954 354.881 815.362 353.768C814.775 352.656 814.481 351.309 814.481 349.727C814.481 348.141 814.779 346.792 815.376 345.679C815.973 344.566 816.782 343.719 817.805 343.136C818.828 342.549 819.978 342.256 821.257 342.256C822.1 342.256 822.881 342.374 823.6 342.611C824.325 342.848 824.967 343.193 825.525 343.648C826.084 344.098 826.538 344.649 826.889 345.303C827.244 345.956 827.471 346.704 827.571 347.547ZM832.851 342.455V357H829.776V342.455H832.851ZM840.538 357H835.381V342.455H840.58C842.043 342.455 843.303 342.746 844.359 343.328C845.415 343.906 846.227 344.737 846.795 345.821C847.368 346.905 847.654 348.203 847.654 349.713C847.654 351.228 847.368 352.53 846.795 353.619C846.227 354.708 845.41 355.544 844.344 356.126C843.284 356.709 842.015 357 840.538 357ZM838.457 354.365H840.41C841.319 354.365 842.084 354.204 842.704 353.882C843.329 353.555 843.798 353.051 844.11 352.369C844.427 351.683 844.586 350.797 844.586 349.713C844.586 348.638 844.427 347.76 844.11 347.078C843.798 346.396 843.331 345.894 842.711 345.572C842.091 345.25 841.326 345.089 840.417 345.089H838.457V354.365ZM851.619 357H848.324L853.345 342.455H857.308L862.322 357H859.027L855.383 345.778H855.27L851.619 357ZM851.413 351.283H859.197V353.683H851.413V351.283ZM869.229 357H864.073V342.455H869.272C870.735 342.455 871.994 342.746 873.05 343.328C874.106 343.906 874.918 344.737 875.486 345.821C876.059 346.905 876.346 348.203 876.346 349.713C876.346 351.228 876.059 352.53 875.486 353.619C874.918 354.708 874.101 355.544 873.036 356.126C871.975 356.709 870.706 357 869.229 357ZM867.148 354.365H869.101C870.01 354.365 870.775 354.204 871.395 353.882C872.02 353.555 872.489 353.051 872.801 352.369C873.119 351.683 873.277 350.797 873.277 349.713C873.277 348.638 873.119 347.76 872.801 347.078C872.489 346.396 872.023 345.894 871.402 345.572C870.782 345.25 870.017 345.089 869.108 345.089H867.148V354.365ZM878.624 357V342.455H888.425V344.99H881.699V348.456H887.92V350.991H881.699V354.464H888.453V357H878.624ZM892.581 355.31C892.113 355.31 891.71 355.144 891.374 354.812C891.042 354.481 890.877 354.079 890.877 353.605C890.877 353.141 891.042 352.743 891.374 352.412C891.71 352.08 892.113 351.915 892.581 351.915C893.036 351.915 893.434 352.08 893.775 352.412C894.115 352.743 894.286 353.141 894.286 353.605C894.286 353.918 894.205 354.204 894.044 354.464C893.888 354.72 893.682 354.926 893.426 355.082C893.171 355.234 892.889 355.31 892.581 355.31ZM892.581 348.172C892.113 348.172 891.71 348.006 891.374 347.675C891.042 347.343 890.877 346.941 890.877 346.467C890.877 346.003 891.042 345.608 891.374 345.281C891.71 344.95 892.113 344.784 892.581 344.784C893.036 344.784 893.434 344.95 893.775 345.281C894.115 345.608 894.286 346.003 894.286 346.467C894.286 346.785 894.205 347.073 894.044 347.334C893.888 347.589 893.682 347.793 893.426 347.945C893.171 348.096 892.889 348.172 892.581 348.172Z" fill="white"/>
<line x1="719" y1="875.988" x2="719.5" y2="834.983" stroke="white" stroke-width="2"/>
<defs>
<clipPath id="clip0_1_2">
<rect width="30" height="30" fill="white" transform="translate(807 548)"/>
</clipPath>
<clipPath id="clip1_1_2">
<rect width="74" height="74" fill="white" transform="translate(683 604)"/>
</clipPath>
<clipPath id="clip2_1_2">
<rect width="17" height="17" fill="white" transform="translate(691 908)"/>
</clipPath>
</defs>
</svg>
